<svg id="Layer_1" data-name="Layer 1" xmlns="http://www.w3.org/2000/svg" viewBox="0 0 2422.04 3324.33"><defs><style>.cls-1{opacity:0.2;}.cls-2{fill:#000072;}.cls-3{fill:#334896;}.cls-4{opacity:0.3;}.cls-5{fill:#fff;}.cls-6{fill:#ffc891;}.cls-7{fill:#c0d0d8;}.cls-8{fill:#606060;}.cls-9{fill:#ffb03e;}.cls-10{opacity:0.6;}.cls-11{fill:#ff061e;}.cls-12{fill:#319dff;}.cls-13{fill:#fd6ccb;}.cls-14{fill:#e5693e;}.cls-15{fill:#fcb381;}.cls-16{fill:#f9d9c2;}.cls-17{fill:#7fbef7;}.cls-18{fill:#ff668f;}</style></defs><g class="cls-1"><ellipse class="cls-2" cx="1333.98" cy="3206.45" rx="761.5" ry="117.88"/></g><path class="cls-3" d="M1225,1571.55l-53.15,96.68c-42.33,64.15-111.65,147.69-214.09,210.17C766.51,1995.06,814,2175.25,814,2175.25s18-74.59,133.6-99.09c-74.77,76.84-183,244.65-109.83,531.69,0,0,69.36-150.08,208.25-140.15,39.56,2.82,72.31,4.5,99.56,5.39h0c-65.67,31-95.79,124.89-95.79,124.89s58.85-53.9,315.39,32.34,405.32-61.54,405.32-61.54l196.79-668.93Z" transform="translate(-787.65 -345.67)"/><g class="cls-4"><path class="cls-5" d="M839.93,2132.21c8.34-62.05,41.28-145.46,146.52-209.65,102.44-62.48,171.76-146,214.09-210.17l53.15-96.68,705.45,312,8.19-27.86L1225,1571.55l-53.15,96.68c-42.33,64.15-111.65,147.69-214.09,210.17C766.51,1995.06,814,2175.25,814,2175.25S819,2155,839.93,2132.21Z" transform="translate(-787.65 -345.67)"/></g><g class="cls-4"><path class="cls-5" d="M976.32,2120.32c-45.45,9.63-75.76,27-95.87,44.54-54.57,93.67-94.91,237.88-42.64,443a245.73,245.73,0,0,1,14.09-25C811.13,2337.7,907.76,2190.77,976.32,2120.32Z" transform="translate(-787.65 -345.67)"/></g><g class="cls-4"><path class="cls-5" d="M1174.29,2517.26l67-47.48c-22.1-.72-115.44-7.16-144.93,43.55-31.63,38.32-46.53,84.66-46.53,84.66s13.88-12.71,57.52-15.91C1123,2557.23,1145.11,2531.05,1174.29,2517.26Z" transform="translate(-787.65 -345.67)"/></g><g class="cls-4"><path class="cls-2" d="M1234.54,1575.76c-35.82,125.23-96.76,289.78-184.71,367.89,0,0,166.54-73.14,245.49-149.09,0,0,18.59,135.69-189.65,334.81C952.21,2276.09,923.51,2434.54,919,2507.76c32.56-25,74.89-43.79,127-40.06,39.56,2.82,72.31,4.5,99.56,5.39h0a119.66,119.66,0,0,0-18.67,11.1c40.28-7.8,88.13-15.8,144.94-23.69,307.62-42.71,299.11-144,299.11-144s33.48,170.2-253,298.88q22.41,6.68,47.19,15c256.54,86.24,405.32-61.54,405.32-61.54l196.79-668.93Z" transform="translate(-787.65 -345.67)"/></g><path class="cls-2" d="M814,2196.52a21.22,21.22,0,0,1-20.42-15.88c-.54-2-13-50.54-.14-114.25,11.8-58.54,48-141.81,153.31-206,182.62-111.37,257.88-294.82,258.62-296.66a21.15,21.15,0,0,1,39.28,15.71c-3.21,8-80.82,198.11-275.87,317.07C857.31,1964.45,832.7,2054.19,830,2112c22.52-22.28,58.29-45.14,114.46-56.82a21.15,21.15,0,1,1,8.62,41.41c-100.6,20.93-117.8,81.27-118.49,83.83a21,21,0,0,1-20.31,16.07Z" transform="translate(-787.65 -345.67)"/><path class="cls-2" d="M1010.37,2027.87c-8.32,11.26-16.68,21.86-24.91,32.23s-16.34,20.61-24.54,30.61l-12.15,15.09c-2,2.54-4,5-6.08,7.5l-5.88,7.66c-7.85,10.19-15.1,20.83-22,31.65-27.84,43.25-48,90.93-61.73,140.53a574.58,574.58,0,0,0-14.36,76.1c-2.53,25.79-4.18,51.81-3.12,77.92,1.42,52.2,9.67,104.39,22.72,155.47l-39.7-3.66c1.51-3.19,2.67-5.37,4-8l4.05-7.32c2.77-4.78,5.6-9.5,8.58-14.1q8.9-13.86,19.09-26.82a299,299,0,0,1,46.39-47.47,242.61,242.61,0,0,1,58.07-35.15,213.6,213.6,0,0,1,32.95-10.75c11.33-2.43,22.88-4.39,34.49-4.67a150.22,150.22,0,0,1,17.37,0l4.3.19,3.83.27,7.65.53,30.56,2.66,61,6.17c20.33,2.13,40.63,4.46,61,6.42,10.18,1.17,20.31,1.89,30.49,2.79,5.06.31,10.15.71,15.21.92,2.55.15,5,.1,7.56.2,2.36,0,5.25-.1,7-.18l.93,0a3.19,3.19,0,0,1,1.72,6,58.32,58.32,0,0,1-7.93,3.57c-2.54.93-5.14,1.84-7.7,2.56-5.15,1.59-10.32,2.88-15.52,4-10.37,2.35-20.82,4.07-31.24,5.54-20.86,2.75-41.77,4.71-62.61,5.46-20.86.94-41.67,1-62.44.63-10.4-.12-20.73-.79-31.1-1.25l-7.76-.49-3.88-.25-3.42-.11c-4.51-.13-9-.47-13.5-.22a167,167,0,0,0-26.77,2.63,157.62,157.62,0,0,0-26,7.39,151.3,151.3,0,0,0-24.7,12,179.61,179.61,0,0,0-22.88,16,255.4,255.4,0,0,0-39.77,40.75c-6,7.54-11.54,15.41-16.73,23.51-2.62,4-5.08,8.15-7.48,12.28l-3.43,6.2c-1,2-2.27,4.34-3,5.8l-.06.12a21.15,21.15,0,0,1-39.64-3.77c-13.63-53.55-22.33-108.66-24.69-164.41-1.64-27.85-.49-55.9,1.5-83.87a592.27,592.27,0,0,1,13.63-83.32c13.7-54.81,37-107.59,69.52-154,8.23-11.52,16.81-22.79,26-33.53a279.91,279.91,0,0,1,29.41-30.53,221.23,221.23,0,0,1,34.46-24.84c12.36-7.06,25.4-13,39.9-16.24a3.41,3.41,0,0,1,3.48,5.34Z" transform="translate(-787.65 -345.67)"/><path class="cls-2" d="M1523.15,2678.79c-48.77,0-103.78-7.94-164.67-28.41-223.88-75.27-288.94-40-294.73-36.39-6.67,7.07-16.67,8-25.18,3.09s-11.93-16-8.88-25.56c1.34-4.19,33.76-103,106.9-137.55a21.15,21.15,0,1,1,18.07,38.25c-30.18,14.27-52.23,45.14-66.25,70.91,47.81-7,134.14-3.08,283.55,47.15,241.36,81.13,382.28-55.12,383.67-56.49a21.15,21.15,0,1,1,29.81,30C1780.47,2588.74,1687.36,2678.79,1523.15,2678.79Z" transform="translate(-787.65 -345.67)"/><path class="cls-6" d="M2454,3336.06l26,37s-189.78,81-290.11,13.4l12.82-64.59-25.67-174,321.06-45.05Z" transform="translate(-787.65 -345.67)"/><path class="cls-2" d="M2295,3434.45c-41.75,0-83.35-7.88-116.88-30.49a21.14,21.14,0,0,1-8.92-21.65l12.1-61-25.14-170.41a21.15,21.15,0,0,1,18-24l321.06-45.05a21.16,21.16,0,0,1,23.73,24.88l-42.48,224.53,20.88,29.64a21.15,21.15,0,0,1-9,31.63C2482.69,3394.89,2388.49,3434.45,2295,3434.45Zm-81.39-58.61c70.93,36.18,183.8,4.23,233.4-13l-10.29-14.61a21.18,21.18,0,0,1-3.49-16.11l38.66-204.35-270.77,38,22.56,153a21,21,0,0,1-.17,7.2Z" transform="translate(-787.65 -345.67)"/><path class="cls-7" d="M2627.17,3554.36c-158.45,33.5-465.17-56.6-465.17-56.6-9.05-62.37,27.93-111.34,27.93-111.34C2290.26,3454.06,2480,3373,2480,3373,2681.49,3446.94,2627.17,3554.36,2627.17,3554.36Z" transform="translate(-787.65 -345.67)"/><g class="cls-4"><path class="cls-2" d="M2274.93,3488.19c-41.95-10.11-66.73-50.12-62.94-89.8a135.84,135.84,0,0,1-22.06-12s-37,49-27.93,111.34c0,0,306.72,90.1,465.17,56.6,0,0,4.71-9.33,6.21-24.37C2523.58,3541.78,2366.82,3510.34,2274.93,3488.19Z" transform="translate(-787.65 -345.67)"/></g><path class="cls-2" d="M2543.18,3583c-163.9,0-376.48-61.78-387.14-64.91a21.16,21.16,0,0,1-15-17.26c-10.21-70.3,30.26-124.84,32-127.13a21.16,21.16,0,0,1,28.71-4.79c89.54,60.37,268.18-14.55,270-15.32a21.13,21.13,0,0,1,15.58-.4c85.57,31.4,139.15,73.18,159.25,124.19,18.73,47.51.27,85-.52,86.56a21.14,21.14,0,0,1-14.51,11.14C2605.17,3580.63,2575.09,3583,2543.18,3583Zm84-28.61h0Zm0,0h0Zm-445.38-73c59.22,16.23,294.27,76.77,429.31,54.51,2.1-9.42,3.37-25.29-4.3-44-15.12-36.95-58.78-70.09-126.47-96.11-36.3,14.26-184.1,66.7-282.84,19.32C2190.06,3429.83,2181,3453.72,2181.79,3481.35Z" transform="translate(-787.65 -345.67)"/><path class="cls-7" d="M2097.49,3549.74c-199.19,63.53-406.31-49.67-406.31-49.67a813.12,813.12,0,0,1,13-121.5h0c106.39,34.65,183.08-59.84,316.27-10.17C2134.52,3410.91,2097.49,3549.74,2097.49,3549.74Z" transform="translate(-787.65 -345.67)"/><g class="cls-4"><path class="cls-2" d="M1816.32,3496.54c-53.86-15.63-92.2-61.35-101-114.84-3.65-.91-7.31-1.93-11-3.13h0a813.12,813.12,0,0,0-13,121.5s207.12,113.2,406.31,49.67a213.26,213.26,0,0,0,5.71-46.17C1998.87,3535,1893,3518.8,1816.32,3496.54Z" transform="translate(-787.65 -345.67)"/></g><path class="cls-2" d="M1966.91,3590.41c-152.32,0-279.07-68.06-285.88-71.78a21.12,21.12,0,0,1-11-19.26,835.3,835.3,0,0,1,13.38-124.67,21.15,21.15,0,0,1,20.79-17.29,21.38,21.38,0,0,1,6.6,1c43.2,14.07,81.11,3.82,125-8,53.5-14.49,114.16-30.9,192.11-1.82,104.4,38.93,104.53,152.17,90,206.61a21.15,21.15,0,0,1-14,14.7C2057.64,3584.65,2011.19,3590.41,1966.91,3590.41Zm130.58-40.67h0Zm0,0h0Zm-384.61-62.46c44.22,21.11,208,90.54,366.5,45.82,5.31-30.86,12.06-115.69-66.24-144.88-65.23-24.32-114.31-11-166.28,3-39.51,10.69-80.17,21.68-125.63,13.41A800.21,800.21,0,0,0,1712.88,3487.28Z" transform="translate(-787.65 -345.67)"/><path class="cls-6" d="M1991.46,3300.25l29.07,68.15c-133.19-49.67-209.88,44.82-316.27,10.17h0c11.27-60.3,25.44-94.49,25.44-94.49V3006.87h358.55Z" transform="translate(-787.65 -345.67)"/><g class="cls-4"><path class="cls-2" d="M2088.21,3006.87l-79.36,240.71c-113-17.09-205.76-53-279.19-93.42V3006.87Z" transform="translate(-787.65 -345.67)"/></g><g class="cls-4"><path class="cls-2" d="M2498.14,3102.74,2477.86,3210c-103.67,29.25-198.47,43.67-284.67,47.18l-16.11-109.36Z" transform="translate(-787.65 -345.67)"/></g><path class="cls-2" d="M1753.89,3407.54a179.11,179.11,0,0,1-55.89-8.77,21.16,21.16,0,0,1-14.58-24.09c9.45-50.53,20.9-83.46,25.09-94.57V3006.87a21.15,21.15,0,0,1,21.15-21.15h358.55a21.15,21.15,0,0,1,20.09,27.78l-94.25,285.8,25.94,60.8a21.15,21.15,0,0,1-26.85,28.12c-65.23-24.32-114.31-11-166.28,3C1817.05,3399.3,1786.58,3407.54,1753.89,3407.54Zm-25-44.5c36,6.56,69.23-2.45,106.89-12.64,43-11.63,90.58-24.52,148-14.06L1972,3308.55a21.14,21.14,0,0,1-.63-14.92L2059,3028H1750.81v256.06a21.2,21.2,0,0,1-1.61,8.1C1749.09,3292.45,1738.68,3318,1728.92,3363Z" transform="translate(-787.65 -345.67)"/><path class="cls-6" d="M2847.11,2117.49s-54.89,174-167,220.23-245.31,35.86-245.31,35.86l217.67-285.35Z" transform="translate(-787.65 -345.67)"/><g class="cls-4"><path class="cls-2" d="M2847.11,2117.49s-54.89,174-167,220.23-245.31,35.86-245.31,35.86l217.67-285.35Z" transform="translate(-787.65 -345.67)"/></g><path class="cls-2" d="M2469.16,2395.77c-21,0-34.33-1-36-1.11a21.15,21.15,0,0,1-15.18-33.92l217.68-285.33a21.17,21.17,0,0,1,20-8.09l194.67,29.26a21.15,21.15,0,0,1,17,27.28c-2.37,7.49-59.24,184-179.15,233.42C2607.46,2390.51,2517.8,2395.77,2469.16,2395.77ZM2661.67,2111,2476.84,2353.3c46.6-.63,125.71-6.52,195.18-35.13,78.18-32.21,127.48-136.53,146.28-183.61Z" transform="translate(-787.65 -345.67)"/><path class="cls-6" d="M2679.73,1584.74C2567,1816.12,2323.94,1987,1995.67,1987c-265.29,0-498.08-109.49-629.68-274.25,36.94-44.81,69.4-133.75,52.61-310.29v0c62.52-65.42,54.91-138.65,54.91-138.65,247-89.87,339.94-335.24,341.44-339.26l0-.05c87.83-18.85,178.28-29,267.83-29,111.68,0,219,12.25,318.89,34.84,0,0,14.17,93.37,152.84,233S2679.73,1584.74,2679.73,1584.74Z" transform="translate(-787.65 -345.67)"/><g class="cls-4"><path class="cls-2" d="M1995.67,1924.34c-250.56,0-472.07-97.71-606.78-247.36a187.73,187.73,0,0,1-22.9,35.74c131.6,164.76,364.39,274.25,629.68,274.25,328.27,0,571.33-170.85,684.06-402.23,0,0,1.13-24-.68-61.31C2566,1754.13,2323.3,1924.34,1995.67,1924.34Z" transform="translate(-787.65 -345.67)"/></g><path class="cls-3" d="M2756.82,1257.54c-2.67,43.48-8.46,91.11-17.56,143.28a690.7,690.7,0,0,1-59.53,183.92s13.44-281.92-125.18-421.49-152.84-233-152.84-233c128.57,29.06,244.92,75.22,342.48,134.26C2756.91,1117.42,2761.62,1181,2756.82,1257.54Z" transform="translate(-787.65 -345.67)"/><path class="cls-8" d="M2832.16,1125.27a865.72,865.72,0,0,0-88-60.71" transform="translate(-787.65 -345.67)"/><path class="cls-8" d="M1182.14,1303a461.48,461.48,0,0,0-49,99.38" transform="translate(-787.65 -345.67)"/><path class="cls-8" d="M1473.51,1263.74q-19.56,7.13-40.38,12.89" transform="translate(-787.65 -345.67)"/><path class="cls-6" d="M1295.32,1716.46a114,114,0,0,1-24,2.55c-64.37,0-116.57-53.27-116.57-119a123.25,123.25,0,0,1,2.62-25.41h.05a118.66,118.66,0,0,1,62.2-81.23c32.73-5.36,61.25-12.75,86.11-21.62C1305.69,1471.78,1312,1612.05,1295.32,1716.46Z" transform="translate(-787.65 -345.67)"/><path class="cls-3" d="M1366,1712.72c-37.3,45.37-79.23,45.56-79.23,45.56,3.35-12.89,6.21-27,8.56-41.82,16.71-104.41,10.37-244.68,10.37-244.68,52-18.48,88-43.29,112.91-69.35C1435.39,1579,1402.93,1667.91,1366,1712.72Z" transform="translate(-787.65 -345.67)"/><path class="cls-3" d="M1473.51,1263.74s7.61,73.23-54.91,138.65v0c-24.9,26.06-60.9,50.87-112.91,69.35-24.86,8.87-53.38,16.26-86.11,21.62,0,0,10.32-142.07-37.44-190.39C1298.13,1123.1,1544,982.46,1815,924.48,1813.45,928.5,1720.56,1173.87,1473.51,1263.74Z" transform="translate(-787.65 -345.67)"/><g class="cls-4"><path class="cls-2" d="M1815,1089.46l0,0c87.83-18.85,178.28-29,267.83-29,111.68,0,219,12.24,318.89,34.83,128.57,29.07,244.92,75.22,342.48,134.27a492.89,492.89,0,0,1,10.25,58.93q1.44-15.8,2.38-30.94c4.8-76.51.09-140.12-12.63-193-97.56-59-213.91-105.2-342.48-134.26-99.87-22.59-207.21-34.84-318.89-34.84-89.55,0-180,10.12-267.83,29l0,.05c-271,58-516.82,198.62-632.81,378.53,24.12,24.4,33.42,72.7,36.72,114.54C1345.34,1262,1569.84,1141.91,1815,1089.46Z" transform="translate(-787.65 -345.67)"/></g><path class="cls-9" d="M2756.82,1257.54c4.8-76.51.09-140.12-12.63-193-97.56-59-213.91-105.2-342.48-134.26-99.87-22.59-207.21-34.84-318.89-34.84-89.55,0-180,10.12-267.83,29l0,.05c-271,58-516.82,198.62-632.81,378.53,47.76,48.32,37.44,190.39,37.44,190.39a118.66,118.66,0,0,0-62.2,81.23h-.05c-4.3.46-249.26,26.28-238-134,4.71-67.64,95.35-191.5,248.23-312.32,212.68-168.17,545.79-330.48,935.58-327.57C2400.45,803,2569,851.11,2690.36,907.89c135.19,63.25,212,137.13,343.16,170.07C3226.65,1126.47,2979.92,1278.94,2756.82,1257.54Z" transform="translate(-787.65 -345.67)"/><g class="cls-4"><path class="cls-2" d="M3033.52,1078c-131.19-32.94-208-106.82-343.16-170.07a947.72,947.72,0,0,0-127.62-48.8c-100.62-24-227.72-40-396.18-41.22-389.79-2.91-722.9,159.4-935.58,327.57-152.89,120.82-243.52,244.68-248.23,312.32-4.31,61.63,29.26,95.72,72.45,114.34,52.37,7.78,100.25,2.73,102.13,2.53h.05a118.66,118.66,0,0,1,62.2-81.23s10.32-142.07-37.44-190.39C1298.13,1123.1,1544,982.46,1815,924.48l0-.05c87.83-18.85,178.28-29,267.83-29,111.68,0,219,12.25,318.89,34.84q42.93,9.71,83.92,21.94c120.46,29.23,229.67,73.55,322,129.44,11.85,49.24,16.74,107.83,13.47,177.46C3023.12,1250.69,3208.17,1121.83,3033.52,1078Z" transform="translate(-787.65 -345.67)"/></g><path class="cls-9" d="M2675.79,846.91C1998.93,186.32,1171,1037.58,1171,1037.58c44-505.4,487-581.82,487-581.82s181.09-132.41,567.39-73.92C2524.76,427.21,2639.39,718.23,2675.79,846.91Z" transform="translate(-787.65 -345.67)"/><g class="cls-10"><path class="cls-5" d="M2501.79,527.1c-67.34-70.19-157.22-127.2-276.41-145.26-31.12-4.71-60.89-8.17-89.36-10.57-324.92-27.43-478,84.49-478,84.49s-158.84,27.45-295.74,157.94C1490.13,508.92,1624,485.79,1624,485.79s172.41-126,539.59-77.82c31.18,33.72,77.39,66,133,90,51.48,22.22,102.62,33.7,146.39,34.92,84.15,77.13,137.11,175.95,169.19,256.7q32,26.55,63.62,57.36C2653.88,769.46,2603.61,633.21,2501.79,527.1Z" transform="translate(-787.65 -345.67)"/></g><g class="cls-10"><path class="cls-5" d="M1171,1037.58s14.82-15.23,42.08-40c-16.45,14.18-30.45,26.76-41.79,37.21C1171.2,1035.72,1171.09,1036.63,1171,1037.58Z" transform="translate(-787.65 -345.67)"/></g><path class="cls-11" d="M2690.36,907.89C2569,851.11,2400.45,803,2103.1,800.75c-389.79-2.91-722.9,159.4-935.58,327.57q-.35-47.55,3.48-90.74s827.93-851.26,1504.79-190.67C2686.06,883.27,2690.14,906.64,2690.36,907.89Z" transform="translate(-787.65 -345.67)"/><g class="cls-1"><path class="cls-2" d="M2184.53,392.49c-325.56-27.71-478.94,84.43-478.94,84.43s-443,76.41-487,581.81c-.94,10.68-1.63,21.62-2.19,32.69,36.33-26.29,75.54-52.12,117.39-76.91,32.48-95.73,87.25-225.16,167.11-331.21C1642,495.89,1931.39,398.88,2184.53,392.49Z" transform="translate(-787.65 -345.67)"/></g><path class="cls-8" d="M2690.36,907.94v-.05" transform="translate(-787.65 -345.67)"/><line class="cls-8" x1="1888.18" y1="501.29" x2="1888.14" y2="501.24"/><path class="cls-12" d="M2644.9,2184.49s-49.46,13.75-86.75,3.16q-.2-3.39-.44-6.78c22.39-9.67,81.1-37,87.19-60.68,7.54-29.26-32.07-38.5-32.07-38.5s-30.92,5.62-68.88,10.36c-9.89-38.77-25.09-74.57-47.25-105.08H1930.56c-170.19-110.93-420.95-9.21-278.62,309.17,0,0,54.49,68,34.42,253.06s-52.5,321.38-173.24,363c0,0,315,443.53,1015,219.46,0,0,25.46-32.34-7.36-60.06,0,0,25.53-278.8-34.52-448.88,0,0,49.91-137.63,67.25-293.95a115.29,115.29,0,0,0,23.48-21s37-10.78,52.06-54.67C2629.05,2253,2685.64,2218.37,2644.9,2184.49Z" transform="translate(-787.65 -345.67)"/><g class="cls-4"><path class="cls-2" d="M2644.9,2184.49s-49.45,13.74-86.74,3.17c-.25-3.41-.25-3.36-.5-6.77,22.35-9.65,81.14-37.06,87.24-60.7,7.54-29.26-32.07-38.5-32.07-38.5s-30.92,5.62-68.88,10.36c-9.89-38.77-25.09-74.57-47.25-105.08H1930.56c-170.19-110.93-420.95-9.21-278.62,309.17,0,0,54.49,68,34.42,253.06s-52.5,321.38-173.24,363c0,0,315,443.53,1015,219.46,0,0,25.46-32.34-7.36-60.06,0,0,.85-9.31,1.87-25.5-3.18,1.74-6.41,3.42-9.66,5-133.85,66.94-293.21-12.8-327.85-160.76-13.07-55.82-45.77-83.29-45.77-83.29s-15.85,222.92-208.25,271.44q-4,1-8,1.89c-142.38,31.79-256.5-121.54-191-254.44,63.32-128.55,98.88-274.34,98.88-274.34l689.47-44.37c12.68-50.3,25.74-112.72,33-178.5a115.29,115.29,0,0,0,23.48-21s37-10.78,52.06-54.67C2629.05,2253,2685.64,2218.37,2644.9,2184.49Z" transform="translate(-787.65 -345.67)"/></g><path class="cls-2" d="M2152,3215.54c-174.14,0-308.65-43.5-403.32-90.69-169-84.27-249.47-195.74-252.81-200.44a21.14,21.14,0,0,1,10.36-32.25c105.68-36.4,138.36-154.15,159.09-345.24,18.62-171.72-29.56-237.1-30-237.74a19.72,19.72,0,0,1-2.65-4.41c-65.15-145.74-57.14-268.08,22-335.64,71.86-61.37,187.07-62.46,282.11-3.31h560a21.15,21.15,0,0,1,17.12,8.72c19.3,26.57,34.58,58.17,45.55,94.13,28.3-3.93,49.43-7.75,49.68-7.79a21.07,21.07,0,0,1,8.59.2c5,1.17,30.37,8,42.83,28.57,6.49,10.72,8.19,23.1,4.91,35.82-1.54,6-5.2,20.19-34.88,40.69,3.59-.74,6.58-1.46,8.76-2.06a21.16,21.16,0,0,1,19.16,4.12c19.95,16.59,23.11,34.26,22.25,46.16-1.81,25.2-23,44.07-34.18,52.32a108.75,108.75,0,0,1-57.08,58.88,137.56,137.56,0,0,1-15.94,14.75c-16.09,134.88-54.52,252.53-64.82,282.42,52.23,156.16,38,388.89,34,440.66,25.53,28.76,16.07,63.53,2.07,81.29a21.13,21.13,0,0,1-10.17,7.06C2390.91,3197.75,2263.36,3215.54,2152,3215.54Zm-604.73-294.92c30.9,35.3,104.36,109,222.33,167.38,146.88,72.69,395,135.8,744.76,25.79,3.16-6.68,4.2-16.42-7.24-26.08a21.13,21.13,0,0,1-7.41-18.09c.25-2.73,24.39-276.21-33.41-439.9a21.25,21.25,0,0,1,.06-14.25c.49-1.36,49.28-137.25,66.12-289.06a21.16,21.16,0,0,1,9.16-15.19,95.3,95.3,0,0,0,19.21-17.21,21.23,21.23,0,0,1,10.21-6.63c.86-.27,26.87-8.91,38-41.24a21.13,21.13,0,0,1,9-11.16c8.21-5.13,20-16.25,20.47-23.68a6.66,6.66,0,0,0-.84-3.45c-18.85,3.78-54.85,8.78-85.26.15a21.16,21.16,0,0,1-15.35-19.1c-.13-2.19-.27-4.36-.42-6.55a21.15,21.15,0,0,1,12.71-20.9c50.1-21.64,72.69-40.15,75.15-46.72.51-2,.12-2.66-.17-3.14-1.88-3.15-7.81-6.35-12.78-8.2-10.38,1.8-35.43,6-64.95,9.65a21.17,21.17,0,0,1-23.11-15.76c-8.75-34.26-21.46-64.19-37.85-89.15H1930.56a21.14,21.14,0,0,1-11.55-3.44c-79.16-51.59-178.81-53-236.93-3.39-63.5,54.23-67.73,157.75-11.7,284.24,10.3,14.87,55.89,91.81,37,265.94C1690.59,2706.27,1664,2861.14,1547.28,2920.62Z" transform="translate(-787.65 -345.67)"/><path class="cls-13" d="M2472.11,2480.52c-355.38-27.37-772.37,71.08-772.37,71.08l-9.08,46.39c339,24.64,795.6,24.69,795.6,24.69C2516.25,2573.45,2472.11,2480.52,2472.11,2480.52Z" transform="translate(-787.65 -345.67)"/><path class="cls-2" d="M2486.26,2643.83h0c-4.57,0-461.23-.33-797.13-24.74a21.16,21.16,0,0,1-19.23-25.16l9.08-46.39a21.14,21.14,0,0,1,15.9-16.52c4.2-1,424.3-98.92,778.86-71.59a21.18,21.18,0,0,1,17.48,12c5,10.56,48,104.89,13.1,162.23A21.14,21.14,0,0,1,2486.26,2643.83ZM1716,2578.57c298.68,20.38,680.31,22.67,756.65,22.92,8.91-29.44-4.91-75.67-14.89-100.8-310-21.1-667.29,52.57-739.93,68.52Z" transform="translate(-787.65 -345.67)"/><path class="cls-13" d="M1750.25,2689.28c-6.18-32.23-24.71-64.81-32.64-76.34l44.47-31.84c1.64,2.38,33.14,43.66,39.13,98.11A18.29,18.29,0,0,1,1787.9,2699l-15.66,4.15A17.79,17.79,0,0,1,1750.25,2689.28Z" transform="translate(-787.65 -345.67)"/><path class="cls-2" d="M1767.74,2719.56a33.61,33.61,0,0,1-33.07-27.29c-5.79-30.16-23.72-61-30.14-70.35a15.85,15.85,0,0,1,3.84-21.88l44.48-31.84a15.85,15.85,0,0,1,22.31,3.92c10.88,15.05,36.26,54.81,41.82,105.36a34.35,34.35,0,0,1-25,36.83l-15.66,4.14A33.13,33.13,0,0,1,1767.74,2719.56Zm-28.85-102.35c9.7,17,22,43.15,26.94,69.08h0a1.8,1.8,0,0,0,.86,1.25,1.83,1.83,0,0,0,1.49.24l15.66-4.15a2.45,2.45,0,0,0,1.6-2.69c-3.6-32.79-17.6-61-27.51-77.36Z" transform="translate(-787.65 -345.67)"/><path class="cls-13" d="M1615.51,2710.37c12-56.17,67.22-100.84,75.15-112.38l-87,4.2c-1.64,2.38-33.14,43.66-39.13,98.11a18.31,18.31,0,0,0,13.31,19.77l15.66,4.14A17.91,17.91,0,0,0,1615.51,2710.37Z" transform="translate(-787.65 -345.67)"/><path class="cls-2" d="M1598.08,2740.68a33.52,33.52,0,0,1-8.62-1.13l-15.66-4.15a34.35,34.35,0,0,1-25-36.83c5.56-50.57,31-90.32,41.61-105.07a16.6,16.6,0,0,1,12.52-7.15l87-4.21a15.86,15.86,0,0,1,13.84,24.83c-2.48,3.62-6.51,7.77-12.62,14.06-18,18.58-51.62,53.16-60.09,92.67h0a34.33,34.33,0,0,1-15.51,22A33.2,33.2,0,0,1,1598.08,2740.68Zm17.43-30.31h0Zm-3.25-92.71c-9.55,14.44-27.75,46.26-31.94,84.38a2.46,2.46,0,0,0,1.6,2.69l15.66,4.15a1.61,1.61,0,0,0,1.33-.21,2.42,2.42,0,0,0,1.09-1.62h0c8-37.49,32.44-69.23,52.46-91.33Z" transform="translate(-787.65 -345.67)"/><path class="cls-13" d="M1683.07,2560.34l-7.19-18.3a53.45,53.45,0,0,1-2.09-6.88c-23.27-103.63-82.21-133.25-114-141.7a45.6,45.6,0,0,0-38.21,7c-53.83,38-70.49,107.79-34.13,196.72,27.93,68.34,71.89,76.93,95.84,75.87a44.44,44.44,0,0,0,26.12-10.17l59.71-48.65A47.4,47.4,0,0,0,1683.07,2560.34Zm-82.84,41.85c-74.34-28.87-39.93-139.57-39.93-139.57a136.4,136.4,0,0,1,37.3,17.93c49.08,32.75,71.49,75.86,71.49,75.86S1640.25,2588.89,1600.23,2602.19Z" transform="translate(-787.65 -345.67)"/><path class="cls-2" d="M1579.54,2689c-28.69,0-76.71-12.28-106.77-85.81-37.85-92.58-23.38-171.19,39.67-215.68a61.5,61.5,0,0,1,51.46-9.39c36.09,9.6,100.4,42.33,125.37,153.55a36.71,36.71,0,0,0,1.4,4.64l7.17,18.2h0a62.91,62.91,0,0,1-18.68,72l-59.72,48.65a59.91,59.91,0,0,1-35.46,13.72C1582.56,2689,1581.07,2689,1579.54,2689Zm-31.32-281.21a30.24,30.24,0,0,0-17.47,5.64c-50,35.24-60.38,100-28.61,177.76,23.09,56.49,56.53,67.18,80.45,66a28.46,28.46,0,0,0,16.8-6.61l59.72-48.66a31.44,31.44,0,0,0,11.36-24.58c-12.74,11.68-36.17,30.21-65.24,39.88a15.82,15.82,0,0,1-10.75-.27c-69.71-27.08-62.75-115.9-49.33-159.07a15.88,15.88,0,0,1,19.61-10.52,153.21,153.21,0,0,1,41.65,20,249.94,249.94,0,0,1,40.87,34.21c-24.91-65.3-66.62-86.14-91.56-92.77A29,29,0,0,0,1548.22,2407.8Zm23.37,76.11c-5.15,27.55-9.58,81.65,29.22,101.2,21.25-8.33,38.6-22.28,48.21-31.11a223.15,223.15,0,0,0-60.23-60.26A135.35,135.35,0,0,0,1571.59,2483.91Z" transform="translate(-787.65 -345.67)"/><path class="cls-2" d="M1600.23,2623.35a21.07,21.07,0,0,1-7.66-1.44c-73.36-28.5-66.4-120.76-52.47-165.57a21.15,21.15,0,0,1,26.15-14,157.8,157.8,0,0,1,43.1,20.64c53,35.36,77.49,81.73,78.5,83.69a21.14,21.14,0,0,1-2.95,23.8c-1.33,1.5-33.11,36.89-78,51.82A21.46,21.46,0,0,1,1600.23,2623.35Zm-24.66-131.47c-4.1,26.92-5.11,70,25.55,87.4,17.06-7.14,31.54-18.05,40.88-26.16a217.87,217.87,0,0,0-56.14-55C1582.43,2495.85,1579,2493.76,1575.57,2491.88Z" transform="translate(-787.65 -345.67)"/><path class="cls-2" d="M1543.28,2599.13c19.28,1.15,36.61-5,51.07-14.49a19.13,19.13,0,1,1,13.12,34.93l-1.36.17a121.7,121.7,0,0,1-34.47-.13,96.3,96.3,0,0,1-31.36-10.47,5.34,5.34,0,0,1,2.87-10Z" transform="translate(-787.65 -345.67)"/><path class="cls-2" d="M1511.46,2456.69a68.66,68.66,0,0,1,12.57-6,97.18,97.18,0,0,1,13.32-3.75,112.68,112.68,0,0,1,13.93-1.86,133,133,0,0,1,14.27-.18l1.24.05a19.46,19.46,0,1,1-11.75,35.44,99.11,99.11,0,0,0-9-5.65,84.51,84.51,0,0,0-9.81-4.6,74.8,74.8,0,0,0-10.58-3.2,61.77,61.77,0,0,0-10.85-1.41l-1,0a4.73,4.73,0,0,1-2.3-8.77Z" transform="translate(-787.65 -345.67)"/><path class="cls-13" d="M1741.73,2504.05s-45.27-31.57-85.26-21.56-16.22,122,31.31,136.68,57.35-21.18,57.35-21.18S1715,2544.09,1741.73,2504.05Z" transform="translate(-787.65 -345.67)"/><path class="cls-2" d="M1709,2641.21a90.87,90.87,0,0,1-26.61-4.35c-43.84-13.49-65.69-76.92-64.61-117.51.79-29.59,13.27-49.57,34.25-54.82,47.6-11.92,98.21,22.85,100.34,24.34a18.5,18.5,0,0,1,4.79,25.47c-20,30,4,74.22,4.19,74.66a18.65,18.65,0,0,1,1.68,13.88,54.48,54.48,0,0,1-25.49,31.33A58.32,58.32,0,0,1,1709,2641.21Zm-36-142.16a49.43,49.43,0,0,0-12,1.39c-2.39.6-5.9,7.16-6.24,19.89-.89,33.41,18.9,75.12,38.5,81.15,18.61,5.73,27.29,1.29,31.31-3.58-7.23-16.49-19.46-52.52-7.1-86.58C1705.37,2505.3,1688.63,2499.05,1672.93,2499.05Z" transform="translate(-787.65 -345.67)"/><path class="cls-2" d="M2679.73,1605.91l-1,0a21.14,21.14,0,0,1-20.13-22.12c.13-2.73,11.31-274.39-119-405.62-141.88-142.84-158.1-240.56-158.72-244.65a21.15,21.15,0,0,1,41.81-6.48c.3,1.77,16.85,90.36,146.92,221.31,143.56,144.53,131.86,425.56,131.29,437.45A21.14,21.14,0,0,1,2679.73,1605.91Z" transform="translate(-787.65 -345.67)"/><path class="cls-2" d="M1995.67,2008.13c-263.48,0-505.05-105.5-646.21-282.21a21.15,21.15,0,1,1,33.06-26.4c133.2,166.75,362.41,266.3,613.15,266.3,367.15,0,664.36-233.83,722.75-568.64,23.43-134.3,25.18-244.55,5.21-327.68a21.15,21.15,0,0,1,41.13-9.88c21.64,90,20.11,202.83-4.66,344.83-28.92,165.79-116.25,316.79-245.91,425.2C2374.53,1946.41,2195.24,2008.13,1995.67,2008.13Z" transform="translate(-787.65 -345.67)"/><path class="cls-14" d="M2101.45,1849.52c-104.6,35.85-61.18,187,20.94,186,96.2-1.16,139.78,9.24,139.78,9.24l172.6-156.7S2238.51,1802.55,2101.45,1849.52Z" transform="translate(-787.65 -345.67)"/><path class="cls-2" d="M2117.43,1876.7a281,281,0,0,1,10,27,228.25,228.25,0,0,1,7.1,28.3,130,130,0,0,1,2.38,30.54c-.6,10.64-2.48,22.38-9.69,33.81l-.59.94a16,16,0,0,1-27.08-17.07,17.2,17.2,0,0,1,2.1-2.66c3.72-3.79,6.64-10.59,8.27-18.25a104.16,104.16,0,0,0,2.1-25,207.79,207.79,0,0,0-2.19-26.56,267.51,267.51,0,0,0-5.15-26.51l-.06-.23a6.77,6.77,0,0,1,12.78-4.33Z" transform="translate(-787.65 -345.67)"/><path class="cls-2" d="M2262.17,2063.24a18.57,18.57,0,0,1-4.3-.51c-.38-.09-43.26-9.83-135.26-8.74h-1.07c-53.56,0-89.93-48.39-98.24-96.53-10-57.77,18.34-107,72.15-125.45,142.23-48.73,338.43,35.43,346.71,39a18.51,18.51,0,0,1,5.05,30.67l-172.6,156.7A18.5,18.5,0,0,1,2262.17,2063.24Zm-125-46.35c63.76,0,102.55,5,119.44,7.92l143.57-130.34c-57.32-20.64-193.24-61.52-292.69-27.43h0c-54.5,18.67-50.27,69.11-47.68,84.12,5.53,32,29.05,65.82,61.82,65.82h.58Q2129.87,2016.89,2137.13,2016.89Zm-35.68-167.36h0Z" transform="translate(-787.65 -345.67)"/><path class="cls-14" d="M2546.36,2387.36c20-26.29,35.31-60.67,46-103.68,38.21-153.76,39.25-302.9-72.43-362.13s-260.31,6.89-332,147.66c-28.38,55.77-47.76,116.94-50.93,173.35v.05c-1,2.4-65.05,159.3-78.55,292.22,0,0,57.36,70.88,172,27.72,0,0,3.89-68.47,29.88-131.26,64.87,18.85,119.92,26.39,165.83,21.26v0c6.88,67.13,75.73,132.69,75.73,132.69,118.84-6.33,127.9-78.54,127.9-78.54C2611.19,2449.59,2546.36,2387.36,2546.36,2387.36Z" transform="translate(-787.65 -345.67)"/><path class="cls-2" d="M2157,2592.51c-73.29,0-111-45.18-113-47.68a15.85,15.85,0,0,1-3.46-11.58c13.66-134.73,76.94-290.15,79.63-296.7a15.86,15.86,0,0,1,29.35,12c-.63,1.54-61.92,152.13-76.63,280.7,13.62,13,59.87,48.21,140.51,21.74,2.19-22.23,9.29-75.37,30.16-125.79a15.86,15.86,0,0,1,29.31,12.13c-24.66,59.61-28.63,125.44-28.67,126.1a15.88,15.88,0,0,1-10.25,14C2205,2588.31,2179.36,2592.51,2157,2592.51Z" transform="translate(-787.65 -345.67)"/><path class="cls-2" d="M2506.13,2431.26c-9.86,9.81-21.76,17.5-34.38,23.85a180.34,180.34,0,0,1-40.05,13.14c-27.58,5.31-55.6,4.89-82.56,1.32a412.1,412.1,0,0,1-78.43-19c-6.33-2.24-12.47-4.41-18.88-6.91a171.89,171.89,0,0,1-18.89-8.76,144.19,144.19,0,0,1-33.6-24.18,6.27,6.27,0,0,1,6.89-10.21l.12.06a251.57,251.57,0,0,0,35.38,12.59c6,1.56,12,3,18.05,4.22l18.83,3.64c25.19,4.75,50.18,9.18,75,12,24.85,2.63,49.42,3.87,73.69,2.55a248.41,248.41,0,0,0,72.12-14.71l.24-.08a6.31,6.31,0,0,1,6.45,10.45Z" transform="translate(-787.65 -345.67)"/><path class="cls-2" d="M2499.84,2601.15a15.85,15.85,0,0,1-10.93-4.37c-3-2.84-73.23-70.42-80.6-142.57a15.86,15.86,0,0,1,31.56-3.23c5.18,50.65,51.08,102.28,66.15,118,84.11-6.69,101.89-49.08,105.27-61.23-18.88-51.77-77.44-108.36-78.05-108.95a15.86,15.86,0,0,1-1.62-21.07c18.59-24.34,33.13-57.27,43.22-97.89,45.17-181.78,23.48-297.61-64.48-344.25-42.59-22.59-91.84-26.08-142.44-10.07-69,21.82-130.26,76.81-168,150.88-38.49,75.6-55.86,153.4-47.66,213.43a15.86,15.86,0,1,1-31.43,4.3c-9.2-67.27,8.85-149.71,50.81-232.12,41.55-81.6,109.59-142.38,186.69-166.75,58-18.35,117.31-14,166.86,12.3,102.5,54.35,129.55,182.18,80.41,379.94-9.84,39.62-23.22,71.9-40.74,98.19,19.47,20.37,62.56,69.08,77.92,116.12a15.67,15.67,0,0,1,.66,6.9c-.43,3.49-12.2,85.44-142.78,92.41C2500.41,2601.14,2500.12,2601.15,2499.84,2601.15Z" transform="translate(-787.65 -345.67)"/><path class="cls-15" d="M2505.14,2250.44c-31.43,110-125.16,169.21-214,152.43-133.89-25.28-131.66-135.94-100.22-245.95s127.26-178.24,214-152.42S2536.57,2140.44,2505.14,2250.44Z" transform="translate(-787.65 -345.67)"/><g class="cls-4"><path class="cls-2" d="M2367.62,1899.86s-101.49,164.74-14,294.37,235.83-165.51,235.83-165.51Z" transform="translate(-787.65 -345.67)"/></g><path class="cls-14" d="M3075.63,1840.57c-67-10-113.27-73.57-103.43-141.91s72.09-115.61,139.06-105.57,87.45,69.77,77.61,138.11S3142.6,1850.61,3075.63,1840.57Z" transform="translate(-787.65 -345.67)"/><path class="cls-2" d="M3092.21,1860.36a130.56,130.56,0,0,1-19.32-1.48h0c-76.89-11.53-130.28-84.59-119-162.86a143,143,0,0,1,56.35-95.12A138.45,138.45,0,0,1,3114,1574.79c70.09,10.51,105.8,71.46,93.19,159-7,48.75-25.79,85.72-54.28,106.91C3135.35,1853.79,3115,1860.36,3092.21,1860.36Zm-13.83-38.09c20.61,3.1,38.26-.69,52.44-11.23,20.12-15,34.23-44.26,39.73-82.48,5.68-39.43,5.17-107.08-62-117.16a101.49,101.49,0,0,0-76.19,19.21,106.15,106.15,0,0,0-41.8,70.68c-8.38,58.19,31,112.46,87.86,121Z" transform="translate(-787.65 -345.67)"/><path class="cls-15" d="M3069.54,1781.08c-37.52-5.63-63.46-41.23-57.95-79.52s40.39-64.76,77.91-59.14,49,39.09,43.48,77.38S3107.06,1786.7,3069.54,1781.08Z" transform="translate(-787.65 -345.67)"/><path class="cls-14" d="M2733,1288.9c21.3,65.56-13.52,136.33-77.76,158.07s-133.59-13.8-154.89-79.36,21.78-111.08,86-132.81S2711.71,1223.33,2733,1288.9Z" transform="translate(-787.65 -345.67)"/><path class="cls-2" d="M2616.57,1471.9a138.44,138.44,0,0,1-62.28-14.88,141.79,141.79,0,0,1-71.53-83.69c-22.21-68.36,15.23-128.16,97.69-156.07,45.21-15.29,85.64-15.07,116.93.63,25.39,12.75,43.3,34.71,53.23,65.29h0c24.38,75-15.74,156.39-89.43,181.32A139.06,139.06,0,0,1,2616.57,1471.9Zm26.72-228.85c-15.45,0-32.71,3.1-51,9.28-37,12.51-95.85,43.39-74.36,109.56a105.06,105.06,0,0,0,52.94,62,101.24,101.24,0,0,0,78.42,5.49c54.59-18.47,84.24-79,66.09-134.81-6.76-20.82-18.42-35.5-34.64-43.65C2670.25,1245.69,2657.54,1243.05,2643.29,1243.05Z" transform="translate(-787.65 -345.67)"/><path class="cls-15" d="M2683.66,1321.18c11.94,36.74-7.57,76.39-43.56,88.57s-74.85-7.73-86.78-44.47,12.2-62.23,48.19-74.41S2671.73,1284.45,2683.66,1321.18Z" transform="translate(-787.65 -345.67)"/><path class="cls-14" d="M2882.13,1423.74c-154.3-102.66-360.93-58.24-461.53,99.23a343.16,343.16,0,0,0-39.22,85.32c-23.4,10-42.54,25.18-55.65,45.71-55.07,86.2,16,233.07,158.75,328,122.4,81.44,257.68,98.21,328.49,47,66-24.2,125.13-69.73,166.39-134.31C3080,1737.29,3036.43,1526.41,2882.13,1423.74Z" transform="translate(-787.65 -345.67)"/><ellipse class="cls-16" cx="2481.2" cy="1855.32" rx="82.48" ry="97.17" transform="translate(-1404.34 1549.97) rotate(-37.53)"/><g class="cls-4"><path class="cls-2" d="M3021.3,1618a344.27,344.27,0,0,1-52.6,217.65c-41.26,64.59-100.38,110.12-166.39,134.32-70.81,51.19-206.1,34.41-328.49-47-84.27-56.07-143.53-130.22-166.64-199.3,1.05,83,68.2,185.84,177.3,258.44,122.4,81.44,257.68,98.21,328.49,47,66-24.2,125.13-69.73,166.39-134.31C3033.77,1809.59,3045.94,1708.81,3021.3,1618Z" transform="translate(-787.65 -345.67)"/></g><path class="cls-2" d="M2708.59,2076.68c-71.8,0-156.26-27.26-234.36-79.22-71.75-47.74-128.56-109.77-160-174.67-32.89-68-34.36-131.44-4.14-178.76,13.37-20.92,32.21-37.42,56.07-49.14A362.45,362.45,0,0,1,2405,1513c51.64-80.82,131.1-136.07,223.76-155.59,91.64-19.32,185.26-1.21,263.63,50.93h0c162.38,108.05,208.4,330.72,102.57,496.38-41.77,65.37-101.64,114-173.27,140.86C2791.61,2066.5,2752.46,2076.68,2708.59,2076.68Zm-8-689.77a311.19,311.19,0,0,0-64.18,6.72c-82.86,17.45-153.95,66.93-200.19,139.31a325.36,325.36,0,0,0-37.11,80.72,18.53,18.53,0,0,1-10.43,11.64c-20.67,8.85-36.6,21.86-47.33,38.67-48.75,76.3,21.51,214.91,153.4,302.67,112.55,74.88,241.82,94.84,307.4,47.43a18.61,18.61,0,0,1,4.47-2.37c65-23.83,119.35-67.71,157.16-126.91,95-148.77,53.83-348.69-91.88-445.63C2820.13,1404.73,2761,1386.91,2700.57,1386.91Z" transform="translate(-787.65 -345.67)"/><path class="cls-2" d="M2723.24,1704.09a57.17,57.17,0,0,1,11-6.5,59.86,59.86,0,0,1,12.07-4.3,68.93,68.93,0,0,1,27.48-1.13c9.82,1.35,19.86,6.28,27.84,13.15a56.17,56.17,0,0,1,5.76,5.43c1.65,2,3.24,4,4.84,6,3.12,4.12,5.17,8.45,7.61,12.86a21.32,21.32,0,1,1-37.33,20.61,22.56,22.56,0,0,1-1.56-3.54l-.7-2.15c-.38-1.17-.78-2.35-1.09-3.58a16.17,16.17,0,0,0-1.11-3.54c-.47-1-.94-2.1-1.36-3.23a20.15,20.15,0,0,0-1.62-2.89,25.36,25.36,0,0,0-9.92-9.5c-4.54-2.52-10.34-4-16.68-4.75a153.67,153.67,0,0,0-20.22-.86l-1,0a6.73,6.73,0,0,1-4.09-12.14Z" transform="translate(-787.65 -345.67)"/><path class="cls-2" d="M2514.86,1538.53a91.26,91.26,0,0,1,23.27-9.08,70.18,70.18,0,0,1,26.88-1.32c9.57,1.27,19.47,5.81,27.51,12.38a57,57,0,0,1,5.81,5.22l5,5.83c3.26,4,5.46,8.21,8.16,12.53a21.57,21.57,0,1,1-36.57,22.87,21.23,21.23,0,0,1-2.85-7.1l-.17-.86c-1-5-2-10.2-4.41-14a24.65,24.65,0,0,0-10.25-10.27,45.21,45.21,0,0,0-17.28-4.94,75.79,75.79,0,0,0-20.06.86l-.67.12a6.59,6.59,0,0,1-4.38-12.25Z" transform="translate(-787.65 -345.67)"/><ellipse class="cls-2" cx="2683.1" cy="1828.12" rx="61.5" ry="29.29" transform="translate(-1218.71 2400.63) rotate(-50.7)"/><ellipse class="cls-2" cx="2483.9" cy="1661.02" rx="61.5" ry="29.29" transform="translate(-1162.43 2185.24) rotate(-50.7)"/><path class="cls-2" d="M2446.69,1786.22a89.63,89.63,0,0,0-5.5,20.06c-1,6.55-.67,13.55,1.85,17.23a7.58,7.58,0,0,0,4.4,3.19,19.09,19.09,0,0,0,6.79.65c5.28-.18,11.51-1.83,17.54-3.83a13.35,13.35,0,1,1,8.4,25.35,13,13,0,0,1-3.6.67h-.15c-8,.33-16.16.44-25.06-1.77a35.87,35.87,0,0,1-13.35-6.07,24.15,24.15,0,0,1-8.86-13.06,30.38,30.38,0,0,1-.22-13.55,54.93,54.93,0,0,1,3.63-11.32,95.54,95.54,0,0,1,11.4-19.17,1.59,1.59,0,0,1,2.76,1.54Z" transform="translate(-787.65 -345.67)"/><path class="cls-2" d="M2507.51,1801.35c-2.64,3.72-5.91,8-8.16,11.85a50.74,50.74,0,0,0-5.13,11.65,35.91,35.91,0,0,0-1.28,11.13,32.52,32.52,0,0,0,2.68,10.85,36.11,36.11,0,0,0,18.29,16.66c8.28,3.5,18.08,5.08,26.63-.31l.24-.16a3.33,3.33,0,0,1,4.76,4.28c-3,6.1-9.16,10.7-15.73,12.92a44.18,44.18,0,0,1-20.56,1.76,49,49,0,0,1-42.88-43.77,47.52,47.52,0,0,1,3.4-22.36,49.2,49.2,0,0,1,12.26-17.44,48.61,48.61,0,0,1,17.31-10.63,8,8,0,0,1,9.22,12.09Z" transform="translate(-787.65 -345.67)"/><path class="cls-2" d="M2498.13,1811a16.73,16.73,0,0,1-13.67-14.1c-1.27-8.93-.95-21.5,7.18-32.24,14.43-19.06,57.88,8.57,51.78,31.76C2538.46,1815.2,2513,1813.61,2498.13,1811Z" transform="translate(-787.65 -345.67)"/><path class="cls-14" d="M2577,2041.05s143.36-149.94,304.83-182.28c0,0,69.42,44.66,67.91,140.14,0,0-104.13,135-372.74,195.32" transform="translate(-787.65 -345.67)"/><g class="cls-4"><path class="cls-2" d="M2892.42,1867.05c13.59,22.49,24.94,53.12,24.32,92.34,0,0-95.64,123.8-339.75,187.26v47.58c268.61-60.33,372.74-195.32,372.74-195.32C2950.86,1927,2911.8,1883.94,2892.42,1867.05Z" transform="translate(-787.65 -345.67)"/></g><path class="cls-2" d="M2577,2212.74a18.51,18.51,0,0,1-4-36.57c205.3-46.11,311.77-136.38,348-173.05a32.69,32.69,0,0,0,9.18-26.58,150,150,0,0,0-38.82-84.76,30.28,30.28,0,0,0-30.45-9c-143.75,40-269.25,169.74-270.5,171a18.51,18.51,0,0,1-26.75-25.58c5.38-5.64,133.62-138.41,287.34-181.13a67.19,67.19,0,0,1,67.59,19.56,187,187,0,0,1,48.36,105.54,69.08,69.08,0,0,1-19.63,56.9c-38.53,39-151.36,134.89-366.22,183.15A19,19,0,0,1,2577,2212.74Z" transform="translate(-787.65 -345.67)"/><path class="cls-12" d="M1875.43,2350.86c-82.07-20.38-131.42-47-131.42-47h0c-63.35-5.27-115.42-52.9-127.87-116.5-47.93-244.73,190.15-304.4,339.11-182.23,11.36,9.33,23,17.88,34.63,25.78C1925.59,2079.05,1866.15,2171.92,1875.43,2350.86Z" transform="translate(-787.65 -345.67)"/><path class="cls-6" d="M2629.07,2253c-15.12,43.89-52.06,54.71-52.06,54.71-77,90.83-255.06,19.22-255.06,19.22-179.55,66-340.4,50.22-446.52,23.93-9.28-178.94,50.16-271.81,114.45-320,146.77,99.28,311.33,91.24,311.33,91.24,43.1-67.91,78.41-105.38,97.56-123.12a31,31,0,0,1,33-6.06c16.07,6.61,23.9,25.23,17.48,41.68l-23.86,61.31c52.06,10.39,187.47-14.23,187.47-14.23s39.61,9.24,32.09,38.48-95.84,64.32-95.84,64.32c37.72,16.17,95.84,0,95.84,0C2685.66,2218.35,2629.07,2253,2629.07,2253Z" transform="translate(-787.65 -345.67)"/><g class="cls-4"><path class="cls-2" d="M2644.91,2120.17c.2-.77.35-1.52.49-2.26-28,18-64.26,32.41-64.26,32.41a89.81,89.81,0,0,0,24.92,6.25C2624.84,2145.38,2641.79,2132.29,2644.91,2120.17Z" transform="translate(-787.65 -345.67)"/></g><g class="cls-4"><path class="cls-2" d="M2609.08,2273.54c-77,90.84-255.06,19.22-255.06,19.22a754,754,0,0,1-208.19,44.81c-163.33,11.44-253.93-177.81-165.67-299-60.41,50.15-113.54,142.41-104.73,312.29,106.12,26.29,267,42.09,446.52-23.93,0,0,178.1,71.61,255.06-19.22,0,0,28.85-8.5,46-40.79A67.49,67.49,0,0,1,2609.08,2273.54Z" transform="translate(-787.65 -345.67)"/></g><g class="cls-4"><path class="cls-2" d="M2333.28,2088c23.88-37.63,45.36-65.88,63-86.64-15.9,15.06-41.35,42.29-72.46,86.79C2329.9,2088.11,2333.28,2088,2333.28,2088Z" transform="translate(-787.65 -345.67)"/></g><path class="cls-2" d="M2059.86,2395.12c-188.28,0-318.26-68.53-325.91-72.67a21.15,21.15,0,0,1,20.07-37.23h0c2.52,1.35,255.53,134,560.64,21.87a21.06,21.06,0,0,1,15.19.23c1.63.65,164.87,64.77,231-13.3a21.28,21.28,0,0,1,10.22-6.64c.86-.27,26.87-8.91,38-41.24a21.13,21.13,0,0,1,9-11.16c8.21-5.13,20-16.25,20.47-23.68a6.61,6.61,0,0,0-.81-3.39c-21.37,4.39-63.94,10.16-96.93-4a21.16,21.16,0,0,1,.53-39.1c39.62-15.76,79.28-39.64,83.2-50.1.51-2,.12-2.66-.17-3.14-1.88-3.15-7.79-6.35-12.76-8.19-27.91,4.89-140,23.34-190.35,13.28a21.16,21.16,0,0,1-15.57-28.42l23.89-61.34a11.17,11.17,0,0,0-5.83-14.42,9.88,9.88,0,0,0-10.51,2c-16.83,15.59-51.43,51.78-94.1,119a21.13,21.13,0,0,1-16.83,9.79c-8.15.39-201.78,8.26-360.39-121.81-78.75-64.58-187.93-75.25-254-24.82-69.49,53.06-75.56,159.09-16.64,290.9a21.15,21.15,0,1,1-38.62,17.26c-96-214.77-11.3-310.57,29.58-341.79,82.55-63,211.43-52.2,306.46,25.73,125.54,103,279.58,111.91,320.93,112.36,40.17-61.71,73.52-97.89,94.81-117.62a52.38,52.38,0,0,1,55.34-10.08c26.63,10.93,39.72,41.85,29.18,68.91l-13.66,35.06c47.64.66,123.58-11,153.78-16.46a21.07,21.07,0,0,1,8.59.2c5,1.17,30.37,8,42.83,28.57,6.49,10.72,8.19,23.1,4.91,35.82-3.79,14.71-17.78,28.62-35,40.73,3.57-.74,6.59-1.47,8.89-2.1a21.22,21.22,0,0,1,19.16,4.12c19.95,16.59,23.11,34.26,22.25,46.16-1.81,25.2-23,44.07-34.18,52.32a108.68,108.68,0,0,1-57.07,58.87c-78.23,85.17-231,37.11-267.6,23.92A776.77,776.77,0,0,1,2059.86,2395.12Z" transform="translate(-787.65 -345.67)"/><path class="cls-17" d="M2027.11,2053.66s-124.79,104.62-94.55,309.08c0,0-11.91,29-47.28,0,0,0-35.65,32-61.3-50.43-24.81-79.66-3.06-281.68,128-311,11.54-2.58,24,.49,31.72,9.61a19.87,19.87,0,0,1,5.17,13.4S2033.69,2026.41,2027.11,2053.66Z" transform="translate(-787.65 -345.67)"/><path class="cls-2" d="M1913.17,2396.78c-9.49,0-19.38-3.11-29.58-9.31a44.81,44.81,0,0,1-26.88.9c-23-6.34-40.29-29.16-52.93-69.77-19-61-12-174.34,32.52-251.22,26.9-46.5,65.29-76.48,111-86.72,19.93-4.45,40,1.9,52.48,16.58a45.7,45.7,0,0,1,5.47,8c11.72,2.54,26.92,8.08,36,20.19,7,9.36,9.28,21.14,6.38,33.16a21.18,21.18,0,0,1-6.93,11.21c-4.94,4.2-115.24,100.58-87.25,289.8a21.11,21.11,0,0,1-1.37,11.14c-3.7,9-13.41,20.89-28.55,24.71A42.39,42.39,0,0,1,1913.17,2396.78Zm-28.47-55.72a22.23,22.23,0,0,1,14,5.31c5.2,4.26,8.92,6.27,11.31,7.23-20.87-171.22,61-273.36,92.17-305.36a58.11,58.11,0,0,0-14.39-2.79,21.25,21.25,0,0,1-20.08-20.66l-.16-.2c-2.2-2.6-6.51-3.65-11-2.64-34.39,7.69-62.53,30.11-83.65,66.62-40.91,70.73-43,171.73-28.75,217.45,11.41,36.65,22.41,41.12,23.63,41.52a4.61,4.61,0,0,0,3.61-.82A18.48,18.48,0,0,1,1884.7,2341.06Zm-13.54,5.93Zm155.95-293.33h0Z" transform="translate(-787.65 -345.67)"/><path class="cls-2" d="M2530,2249.54c7.75.38,16.26.34,24.32-.06s16.22-1.21,24.1-2.37a179.6,179.6,0,0,0,22.71-5.12,104.23,104.23,0,0,0,19.55-8.4,21.28,21.28,0,1,1,17.14,38.73l-.41.12a144.41,144.41,0,0,1-29.45,6,214,214,0,0,1-28.11.52c-9.17-.5-18.18-1.46-27.05-2.82s-17.46-3.08-26.55-5.42a10.8,10.8,0,0,1,3.22-21.24Z" transform="translate(-787.65 -345.67)"/><path class="cls-2" d="M2487.71,2297.59c7.21.1,14.82-.06,22.21-.44s14.8-1,22.09-1.86a230.16,230.16,0,0,0,41.78-8.51,21.4,21.4,0,0,1,12.78,40.84,21.14,21.14,0,0,1-5.87,1h-.51a265.86,265.86,0,0,1-49.06-3.87q-11.82-2-23.35-4.65c-7.73-1.81-15.2-3.77-23-6.14a8.36,8.36,0,0,1,2.54-16.36Z" transform="translate(-787.65 -345.67)"/><path class="cls-6" d="M2916.32,2060.3c-20.47,72.86-87.78,111.11-129.93,128.39-31.51,13-68.45,2.73-86.88-26.43-12.86-20.33-12.18-40.93,2.13-45.55,24.4-7.86,56,11.64,57.68,12.66-11.59-21.16-35.45-46.2-49.94-60.34a26,26,0,0,1-3.12-33.31c5.57-8,14.53-14.93,28.65-14.23v0s6.89-49.57,54.87-30.82a99.38,99.38,0,0,1,26.58,15.57l-.09-27.25c-.09-13.91,7.24-27.17,19.55-33.13,9.65-4.62,22.64-5.45,38.67,5.91C2911.79,1978.33,2916.32,2060.3,2916.32,2060.3Z" transform="translate(-787.65 -345.67)"/><g class="cls-4"><path class="cls-2" d="M2916.32,2060.3c-20.47,72.86-87.78,111.11-129.93,128.39-31.51,13-68.45,2.73-86.88-26.43-12.86-20.33-12.18-40.93,2.13-45.55,24.4-7.86,56,11.64,57.68,12.66-11.59-21.16-35.45-46.2-49.94-60.34a26,26,0,0,1-3.12-33.31c5.57-8,14.53-14.93,28.65-14.23v0s6.89-49.57,54.87-30.82a99.38,99.38,0,0,1,26.58,15.57l-.09-27.25c-.09-13.91,7.24-27.17,19.55-33.13,9.65-4.62,22.64-5.45,38.67,5.91C2911.79,1978.33,2916.32,2060.3,2916.32,2060.3Z" transform="translate(-787.65 -345.67)"/></g><path class="cls-2" d="M2829.73,1989.81a129.91,129.91,0,0,1,15.15,19.37,132.48,132.48,0,0,1,11,20.88,153.48,153.48,0,0,1,7.35,21.62,146.2,146.2,0,0,1,4,22.45,9,9,0,0,1-17.29,4.43l-.36-.87a132,132,0,0,0-8.67-16.9,126.8,126.8,0,0,0-11-15.43,100.38,100.38,0,0,0-12.79-12.94,91.28,91.28,0,0,0-14.11-9.84,21.38,21.38,0,0,1,21.94-36.7A21.79,21.79,0,0,1,2829.73,1989.81Z" transform="translate(-787.65 -345.67)"/><path class="cls-2" d="M2758.41,2215.44a90.42,90.42,0,0,1-76.78-41.88c-11.9-18.82-15.48-38.61-9.8-54.29a36.22,36.22,0,0,1,23.31-22.69,58.64,58.64,0,0,1,9.62-2.21q-4.86-5-10.15-10.2a47.42,47.42,0,0,1-5.66-60.62c7.56-10.84,17.75-18.13,29.58-21.37,4-10,11.36-22.16,24.53-29.88,10.33-6,27.77-11.22,52.64-2,2.66-18.85,14.18-35.39,30.91-43.48,11-5.28,33.39-11.26,60.11,7.7,44.35,31.63,50.2,115.23,50.72,124.66a21.29,21.29,0,0,1-.76,6.88c-23.17,82.52-99.08,124.55-142.27,142.25A94.4,94.4,0,0,1,2758.41,2215.44Zm-46.84-79.32c.31,3.13,1.8,8.49,5.82,14.83,12.58,19.91,38.21,27.56,60.94,18.18C2813.79,2154.6,2875.44,2121,2895,2058c-2.23-28.31-12.59-74.62-32.76-89-10.37-7.36-15.18-5.06-17.23-4.07-4.53,2.19-7.59,7.8-7.55,13.92l.09,27.32a21.15,21.15,0,0,1-34.54,16.45,78.31,78.31,0,0,0-20.92-12.26c-4.48-1.74-12.75-4.29-17.52-1.56-5.1,2.92-8,11.83-8.68,15.75a21.2,21.2,0,0,1-22,18.11c-4-.24-7.07.61-10.27,5.2a4.89,4.89,0,0,0,.57,6.11c14.36,14,40.47,41.16,53.69,65.29a21.15,21.15,0,0,1-29.52,28.24C2739.12,2141.84,2722.69,2134.84,2711.57,2136.12Z" transform="translate(-787.65 -345.67)"/><path class="cls-2" d="M2759.36,2150.57a21.18,21.18,0,1,1,21.15-21.15A21.1,21.1,0,0,1,2759.36,2150.57Z" transform="translate(-787.65 -345.67)"/><path class="cls-2" d="M2735.86,2000.36a71.34,71.34,0,0,1,21.78,6.3c3.17,1.43,5.89,3.15,8.8,4.72l4.28,2.42c1.37.89,2.69,1.88,4,2.81a112.94,112.94,0,0,1,27.37,26.53,140.46,140.46,0,0,1,17.67,31.78,148,148,0,0,1,9.3,34.38,8,8,0,0,1-15.52,3.83l-.23-.65a130.51,130.51,0,0,0-13.71-27.27,114.17,114.17,0,0,0-19.27-22.62,80.45,80.45,0,0,0-23.46-15c-1-.44-2-.95-3.08-1.35l-3.23-1c-2.13-.61-4.28-1.48-6.3-1.9a28.28,28.28,0,0,0-10.31-.71,21.55,21.55,0,1,1-7.6-42.43,21.11,21.11,0,0,1,6.13-.22Z" transform="translate(-787.65 -345.67)"/><path class="cls-2" d="M2225.38,1617.36l-23.22,128.86a72.61,72.61,0,0,1-9.06,24.25,68,68,0,0,1-22.41,22.83c-88.41,54.93-134.27-4-157.63-68-19.11-52.26-23.18-108-23.18-108C2109.76,1661.44,2225.38,1617.36,2225.38,1617.36Z" transform="translate(-787.65 -345.67)"/><path class="cls-18" d="M2193.1,1770.47a68,68,0,0,1-22.41,22.83c-88.41,54.93-134.27-4-157.63-68,24.85-8,56.14-9.57,88.82-2.82C2140.82,1730.56,2173.41,1748.62,2193.1,1770.47Z" transform="translate(-787.65 -345.67)"/><path class="cls-2" d="M2106.31,1833.58a90.73,90.73,0,0,1-29.81-4.95c-34.49-11.91-61.69-44.53-80.83-97-19.76-54-24.08-110.59-24.25-113a18.51,18.51,0,0,1,24.85-18.72c112.08,41.2,221.43.5,222.52.08a18.51,18.51,0,0,1,24.81,20.58l-23.23,128.85A90.89,90.89,0,0,1,2209,1780a87.06,87.06,0,0,1-28.54,29C2154.14,1825.37,2129.32,1833.58,2106.31,1833.58Zm-94.54-189.89c3.13,20.09,8.82,48.34,18.67,75.29,10.41,28.5,28.94,64.58,58.14,74.66,19.84,6.85,44.18,1.44,72.35-16.07a49.81,49.81,0,0,0,16.32-16.65,53.82,53.82,0,0,0,6.7-18l17.88-99.22C2162.67,1653.37,2090.16,1664.68,2011.77,1643.69Z" transform="translate(-787.65 -345.67)"/><path class="cls-2" d="M1799.13,1234a247.58,247.58,0,0,1,39.73-48.12,225,225,0,0,1,24.7-20.33c9-6.19,18.32-12.11,29-16.62,5.1-2.51,10.8-4.33,16.4-6.28a76,76,0,0,1,20.33-3.43,65.27,65.27,0,0,1,22.63,3.33,66.65,66.65,0,0,1,20.26,11.12c11.62,9.59,18.83,21.2,23.64,32.52a111.54,111.54,0,0,1,5.63,17.15c.65,2.89,1.23,5.76,1.69,8.68.25,1.46.41,2.94.58,4.44s.28,2.79.44,5a19.23,19.23,0,0,1-32.59,15.14l-9.29-9.11a17,17,0,0,1-.91-2.27l-1.06-2.79c-.68-1.88-1.46-3.76-2.27-5.59a108,108,0,0,0-5-10.46c-3.6-6.48-7.67-11.74-11.49-14.59-3.75-3-6.91-4.07-12-4.5a32.91,32.91,0,0,0-8.91.72c-3.85.92-7.75,1.54-11.71,3a112.8,112.8,0,0,0-11.94,4.37c-4,1.53-8,3.5-12.1,5.36-7.95,4.12-16.07,8.44-24,13.41-15.84,9.72-31.64,21.17-46.74,32.69l-.48.36a10,10,0,0,1-14.5-13.21Z" transform="translate(-787.65 -345.67)"/><path class="cls-2" d="M2248.75,1224a128.42,128.42,0,0,1,15.21-26.15,133.32,133.32,0,0,1,21-22.43c15.83-13.58,37.05-24.12,60.67-25.85,2.92-.32,5.86-.27,8.8-.39,3.14.22,6.18.24,9.42.78a68.83,68.83,0,0,1,19.51,5.5c13.14,5.65,24.26,16.8,30.5,28.46a85.28,85.28,0,0,1,7.18,17.62,108.28,108.28,0,0,1,3.07,17.23,116.69,116.69,0,0,1,.22,16.59q-.29,4.08-.8,8.14l-.66,4.09c-.26,1.5-.48,2.54-.92,4.6a18.49,18.49,0,0,1-33.31,6.63l-8.59-12.53a12.6,12.6,0,0,1-.22-2.21l-.22-2.74c-.13-1.86-.3-3.72-.53-5.56a101.08,101.08,0,0,0-1.69-10.73c-1.38-6.84-3.51-12.92-6-17.13s-5-6.69-8.62-8.59-8.72-3.24-15.7-3.67c-13.1-.87-27.19,2.86-41.3,9.95-13.94,7-28,17.74-40.34,29l-.76.68a10,10,0,0,1-15.89-11.28Z" transform="translate(-787.65 -345.67)"/><path class="cls-2" d="M1133.13,1423.56a21.17,21.17,0,0,1-20-28.08c49.49-143,179.79-275.75,366.87-373.7,181.62-95.1,395.7-147.47,602.81-147.47,295.53,0,573.43,85.42,762.42,234.35a21.15,21.15,0,0,1-26.18,33.23c-181.68-143.16-450-225.27-736.24-225.27-418.63,0-835.69,221-929.7,492.7A21.16,21.16,0,0,1,1133.13,1423.56Z" transform="translate(-787.65 -345.67)"/><path class="cls-2" d="M1433.12,1297.78a21.15,21.15,0,0,1-5.59-41.55c265.38-72.91,366.67-336.55,367.66-339.2a21.15,21.15,0,0,1,39.65,14.75c-4.33,11.66-109.39,286.48-396.11,365.24A20.93,20.93,0,0,1,1433.12,1297.78Z" transform="translate(-787.65 -345.67)"/><path class="cls-2" d="M1271.28,1740.16c-75.94,0-137.72-62.86-137.72-140.12,0-53.6,29.31-101.7,76.49-125.52a21.16,21.16,0,1,1,19.07,37.77c-32.85,16.58-53.26,50.21-53.26,87.75,0,53.93,42.81,97.81,95.42,97.81a93.88,93.88,0,0,0,19.61-2.07,21.16,21.16,0,1,1,8.87,41.37A135.9,135.9,0,0,1,1271.28,1740.16Z" transform="translate(-787.65 -345.67)"/><path class="cls-2" d="M1219.59,1514.56a21.17,21.17,0,0,1-21.1-22.68c2.65-36.89,2.18-140.05-31.4-174a21.15,21.15,0,1,1,30.08-29.75c40.93,41.38,45.27,132.88,44.6,179.6,222.29-47.21,211.28-195.4,210.67-201.91a21.16,21.16,0,0,1,42.1-4.25c.22,2.17,5.11,53.58-27.19,110.61-29,51.28-95,117.57-244.33,142.1A22,22,0,0,1,1219.59,1514.56Z" transform="translate(-787.65 -345.67)"/><path class="cls-2" d="M1286.75,1779.41a21.14,21.14,0,0,1-20.46-26.51c26-99.24,18.36-278.37,18.28-280.17a21.15,21.15,0,1,1,42.26-1.89c.31,6.8,6.51,151.57-12,257.51a111.5,111.5,0,0,0,31.9-25.56c32.62-37,67.92-118.79,50.85-298.38a21.16,21.16,0,1,1,42.12-4c15,157.84-6.14,269.59-62.82,332.15-41.82,46.16-88.06,46.86-90,46.86Z" transform="translate(-787.65 -345.67)"/><path class="cls-2" d="M1117.18,1597.62c-50.42,0-133.47-7.77-181.63-54-27.77-26.66-40.34-61.81-37.35-104.45,6.91-98.86,155.91-266.49,354.28-398.61,146.92-97.86,450.45-261,840.25-261,3.5,0,7,0,10.51,0,429.91,3.23,598.45,103.76,733.87,184.53,66.32,39.56,123.6,73.73,201.58,93.31,82.55,20.74,88.56,60.47,84.79,82.3-12.8,74.19-173.18,141-323.59,141-15.19,0-30.26-.68-45.08-2.11a21.15,21.15,0,1,1,4-42.1c158.07,15.15,315.6-61.37,322.94-104,2.11-12.2-18.36-25.26-53.41-34.07-84-21.1-146.63-58.45-212.94-98-137.85-82.22-294.09-175.41-712.52-178.56-3.39,0-6.82,0-10.2,0-378.69,0-673.85,158.71-816.79,253.91-203.46,135.51-330.38,292.68-335.53,366.35-2.1,29.93,5.89,53.13,24.41,70.94,56.67,54.49,188.92,40.69,190.24,40.54a21.15,21.15,0,0,1,4.66,42.05A416.73,416.73,0,0,1,1117.18,1597.62Z" transform="translate(-787.65 -345.67)"/><path class="cls-2" d="M1167.53,1149.49a21.15,21.15,0,0,1-21.15-21c-2.41-312,135.59-484,251.78-573.41C1511.91,467.6,1625,440.85,1649.64,435.84c30.09-20,215.47-130,578.91-74.9,164.73,24.95,300.54,127.22,392.75,295.75,68.87,125.87,89.09,242.81,89.92,247.72a21.15,21.15,0,1,1-41.71,7h0c-.2-1.15-20.15-115.79-85.91-235.53-86.82-158.07-208.41-250-361.39-273.15-371.56-56.27-550,68.85-551.79,70.12a21.39,21.39,0,0,1-8.85,3.73c-1.17.21-121.42,22.05-239.08,113.13-157,121.5-235.63,302.65-233.81,538.42a21.16,21.16,0,0,1-21,21.32Z" transform="translate(-787.65 -345.67)"/><path class="cls-2" d="M1171,1058.73a21.16,21.16,0,0,1-15.16-35.9c4.39-4.52,109.41-111.78,276.4-221.45C1587,699.79,1825.45,578,2083.07,574.64c225.22-3,429.7,83.6,607.52,257.18A21.15,21.15,0,0,1,2661,862.09C2491.6,696.7,2297.4,614.27,2083.81,616.94c-247.12,3.15-477.61,120.95-627.44,219.22-163.4,107.16-269.15,215.09-270.2,216.17A21.14,21.14,0,0,1,1171,1058.73Z" transform="translate(-787.65 -345.67)"/><path class="cls-13" d="M1868.51,2402.42c-92.09-15.43-162,114.72-162,114.72s-7.74,71.61,34.5,94.71c0,0,112.41,48.51,158.45,27.72C1969.46,2607.92,1960.54,2417.8,1868.51,2402.42Zm-30.2,190.16s-34.13-10.67-67.77-23.79c-16.93-6.65-22.32-28.37-10.69-42.6,18.2-22.17,45.86-49.48,73.89-52.62C1850.26,2497.87,1865.47,2539,1838.31,2592.58Z" transform="translate(-787.65 -345.67)"/><path class="cls-2" d="M1869.75,2660.5c-54.16,0-125.33-29.88-135.06-34.08-.45-.2-.89-.41-1.33-.65-50.95-27.86-43-107-42.65-110.34a15.87,15.87,0,0,1,1.8-5.81c3.07-5.72,76.46-140,178.62-122.85,46.08,7.71,80,53.1,88.49,118.46,7.38,56.65-6.27,127.38-53.66,148.8C1895.77,2658.63,1883.29,2660.49,1869.75,2660.5ZM1748,2597.6c41.17,17.63,116.23,40.44,144.9,27.51,26.65-12,42.14-62.91,35.26-115.79-5.2-40-24.29-84.9-62.27-91.25h0c-72.9-12.15-133.58,86.1-143.89,103.88C1720.71,2540.85,1723.19,2583.39,1748,2597.6Zm90.31,10.85a16.12,16.12,0,0,1-4.73-.72c-1.42-.45-35-11-68.81-24.16a42.16,42.16,0,0,1-25.56-28.94,43.58,43.58,0,0,1,8.36-38.48c29.33-35.73,57.72-55.36,84.4-58.35a15.9,15.9,0,0,1,14.89,6.85c15.85,23.31,37.65,71.86,5.6,135.11A15.87,15.87,0,0,1,1838.31,2608.45Zm-12.17-116.86c-15.94,5.7-34.74,21.17-54,44.67a11.55,11.55,0,0,0-2.21,10.35,10.65,10.65,0,0,0,6.43,7.41c20,7.82,40.46,14.82,53.34,19.09C1843.09,2538.65,1836.6,2511,1826.14,2491.59Z" transform="translate(-787.65 -345.67)"/><path class="cls-18" d="M1669.3,2529.84s-3.53-35.81,17.85-48.13" transform="translate(-787.65 -345.67)"/><path class="cls-2" d="M1669.3,2529.84a79.71,79.71,0,0,1-3.8-13.82,69,69,0,0,1-1.21-15.12,51.73,51.73,0,0,1,3.3-16.65,44.18,44.18,0,0,1,11.64-16.28l15.84,27.49a14.17,14.17,0,0,0-7.76,2.12,30.26,30.26,0,0,0-7.81,7.81,56.49,56.49,0,0,0-6.1,11.35A76.27,76.27,0,0,0,1669.3,2529.84Z" transform="translate(-787.65 -345.67)"/><path class="cls-2" d="M2147.57,2808c.62,25.24-1.58,49.9-5,74.54a637.23,637.23,0,0,1-14.57,73.07,552.2,552.2,0,0,1-23.28,71,388,388,0,0,1-34,66.77,8,8,0,0,1-14.45-6.3l.06-.25c6.19-23.75,13.33-46.71,19.68-70s12.78-46.45,18.75-69.83l18-70.23c5.9-23.46,11.81-47.15,18.38-70.54l.07-.24a8.33,8.33,0,0,1,16.34,2.05Z" transform="translate(-787.65 -345.67)"/><path class="cls-2" d="M1768.48,1480.46c-2.25-13-.43-27.08,4.89-39.94a95.09,95.09,0,0,1,24.32-34,118.2,118.2,0,0,1,36-22.45,135.65,135.65,0,0,1,41.85-9.67c28.77-2,59.29,4.58,85.35,22.05a93.12,93.12,0,0,1,31.68,35.78c7.32,14.74,10.34,32.37,6.43,48.28a20.06,20.06,0,0,1-37.78,3.41l-1.52-3.41a119.54,119.54,0,0,0-12.72-22.63,113.44,113.44,0,0,0-17.56-19c-13.85-12.09-33.24-19.78-53.88-22a120.33,120.33,0,0,0-31.32,1.38,103.3,103.3,0,0,0-30,10.6,83.54,83.54,0,0,0-24.93,20.75,71,71,0,0,0-14.26,31v0a3.31,3.31,0,0,1-3.89,2.64A3.36,3.36,0,0,1,1768.48,1480.46Z" transform="translate(-787.65 -345.67)"/><path class="cls-2" d="M2244.42,1480.46c-2.25-13-.43-27.08,4.89-39.94a95.09,95.09,0,0,1,24.32-34,118.2,118.2,0,0,1,36-22.45,135.65,135.65,0,0,1,41.84-9.67c28.77-2,59.29,4.58,85.35,22.05a93.23,93.23,0,0,1,31.69,35.78c7.32,14.74,10.34,32.37,6.42,48.28a20.06,20.06,0,0,1-37.78,3.41l-1.51-3.41a119.54,119.54,0,0,0-12.72-22.63,113.86,113.86,0,0,0-17.56-19c-13.85-12.09-33.25-19.78-53.89-22a120.25,120.25,0,0,0-31.31,1.38,103.26,103.26,0,0,0-30,10.6,83.37,83.37,0,0,0-24.92,20.75,70.9,70.9,0,0,0-14.26,31v0a3.32,3.32,0,0,1-6.54,0Z" transform="translate(-787.65 -345.67)"/></svg>