<svg id="Layer_1" data-name="Layer 1" xmlns="http://www.w3.org/2000/svg" viewBox="0 0 2714.06 3328.5"><defs><style>.cls-1{opacity:0.2;}.cls-2{fill:#371a45;}.cls-3{fill:#ad5833;}.cls-4{fill:#ffc891;}.cls-17,.cls-5{fill:#fff;}.cls-6{fill:#c18257;}.cls-7{opacity:0.3;}.cls-8{fill:#5e3f96;}.cls-9{fill:#ff1b40;}.cls-10{fill:#fdc7a3;}.cls-11{opacity:0.6;}.cls-12{fill:#f7b92f;}.cls-13{fill:#716c82;}.cls-14{fill:none;}.cls-15{fill:#7a8dcc;}.cls-16{fill:#ff668f;}.cls-17{stroke:#371a45;stroke-linecap:round;stroke-linejoin:round;stroke-width:39.13px;}.cls-18{fill:#b199c5;}</style></defs><g class="cls-1"><ellipse class="cls-2" cx="1613.58" cy="3224.34" rx="1100.48" ry="104.16"/></g><path class="cls-3" d="M2923.23,2401.73c-21.93,48.77,61.61,119.7,61.61,119.7l49.88-59.85C3041,2392,2945.15,2353,2923.23,2401.73Z" transform="translate(-638.72 -361.5)"/><path class="cls-2" d="M2984.84,2536.1a14.67,14.67,0,0,1-9.49-3.49c-9.41-8-91.21-79.72-65.51-136.89,11.24-25,38.58-35.88,69.6-27.74,37.18,9.75,74.31,46.34,69.89,94.93A14.68,14.68,0,0,1,3046,2471l-49.88,59.84a14.6,14.6,0,0,1-10,5.22Q2985.47,2536.1,2984.84,2536.1Zm-25.3-141.39c-8.37,0-18.2,2.53-22.93,13h0c-12,26.67,23.77,69.79,46.83,92.44l36.89-44.27c.44-30.37-23.95-53.16-48.34-59.55A50.4,50.4,0,0,0,2959.54,2394.71Zm-36.31,7h0Z" transform="translate(-638.72 -361.5)"/><path class="cls-4" d="M2794.1,2763.15c-175.66,1.55-216.06,54.42-216.06,54.42l26.65-358.65c65.83-29.21,137.61-27.08,198.67-14.89v0S2837.59,2617.82,2794.1,2763.15Z" transform="translate(-638.72 -361.5)"/><path class="cls-2" d="M2578,2832.25a14.85,14.85,0,0,1-5.21-1,14.69,14.69,0,0,1-9.42-14.81l26.66-358.65a14.67,14.67,0,0,1,8.68-12.32c59.09-26.21,128.9-31.55,207.49-15.87a14.68,14.68,0,0,1,11.63,12.13c2.45,12.7,33.55,181-9.7,325.59a14.69,14.69,0,0,1-13.94,10.46c-163.89,1.45-204.16,48.19-204.52,48.66A14.7,14.7,0,0,1,2578,2832.25Zm40.63-363.3-23.61,317.6c29.44-16.28,85.68-35.74,187.92-37.91,32.16-118.6,13.69-255.09,7.67-292.08C2725.72,2445.05,2667.94,2449.21,2618.66,2469Zm175.44,294.2h0Z" transform="translate(-638.72 -361.5)"/><path class="cls-5" d="M2861.61,2764.85v.06c-24.47-1.44-46.92-2-67.51-1.76,43.49-145.33,9.26-319.07,9.26-319.07v0a537.59,537.59,0,0,1,72,19.89S2909.48,2646.6,2861.61,2764.85Z" transform="translate(-638.72 -361.5)"/><path class="cls-2" d="M2861.61,2779.58l-.86,0c-23.16-1.37-45.55-2-66.51-1.74h-.14a14.67,14.67,0,0,1-14.06-18.88c41.9-140,9.26-310.33,8.92-312a15,15,0,0,1-.27-2.83,14.7,14.7,0,0,1,17.56-14.44,551.86,551.86,0,0,1,74,20.43,14.69,14.69,0,0,1,9.56,11.15c1.42,7.62,34.22,187.61-14.3,308.45a14.67,14.67,0,0,1-13.88,9.91Zm-48.25-31.08c12.43.14,25.24.54,38.32,1.18,35.07-98.6,16.25-239.24,10.65-274.71-13.61-4.55-27.3-8.52-40.9-11.87C2828.76,2512.24,2842,2635.18,2813.36,2748.5Z" transform="translate(-638.72 -361.5)"/><path class="cls-5" d="M2966.66,2775c-38.55-5.05-73.46-8.35-105-10.1v-.06c47.87-118.25,13.75-300.93,13.75-300.93,45.11,15.75,74.47,32.24,74.47,32.24S3015.77,2609.63,2966.66,2775Z" transform="translate(-638.72 -361.5)"/><path class="cls-2" d="M2966.68,2789.69a13.76,13.76,0,0,1-1.92-.13c-37.2-4.87-72.17-8.24-104-10a14.67,14.67,0,0,1-13.86-14.65,15.2,15.2,0,0,1,1.07-5.57c45.68-112.82,13.26-291,12.93-292.73a14.67,14.67,0,0,1,19.26-16.55c45.81,16,75.57,32.61,76.82,33.3a14.82,14.82,0,0,1,5.5,5.42c2.82,4.86,68.54,120.9,18.21,290.41A14.68,14.68,0,0,1,2966.68,2789.69Zm-84.63-38.18c23.32,1.69,48.07,4.15,73.92,7.35,36.17-135.6-7.31-232.72-17-251.88-6.86-3.58-22.92-11.63-45.21-20.52C2900.89,2538.07,2912.34,2658,2882.05,2751.51Z" transform="translate(-638.72 -361.5)"/><path class="cls-5" d="M3153.71,2784.48a351.56,351.56,0,0,1-54.72,11.6s12.24-64.37,17.85-168.1c1.46-26.44,2.47-55.49,2.75-86.61.95-111.28-36.09-185.92-36.09-185.92,26.66-10.64,53.37-.69,53.37-.69C3206.13,2452.27,3153.71,2784.48,3153.71,2784.48Z" transform="translate(-638.72 -361.5)"/><path class="cls-2" d="M3099,2810.76a14.68,14.68,0,0,1-14.41-17.41c.12-.64,12.12-64.79,17.61-166.16,1.55-28.12,2.46-57,2.73-86,.91-106.06-34.21-178.56-34.57-179.28a14.68,14.68,0,0,1,7.72-20.13c31.55-12.59,62.62-1.3,63.93-.82a14.8,14.8,0,0,1,6.84,5.25c71.88,101.22,21.54,426.7,19.36,440.51a14.66,14.66,0,0,1-10.35,11.79,367.93,367.93,0,0,1-57,12.08A14.52,14.52,0,0,1,3099,2810.76Zm54.72-26.28h0Zm-49.93-418.94c11.12,28.58,31.2,92,30.48,176-.27,29.38-1.2,58.74-2.77,87.28-3.82,70.57-10.6,122.71-14.69,149.6q11.79-2.27,23.79-5.46c7.57-53.08,42-318.29-13-405.58A72.65,72.65,0,0,0,3103.78,2365.54Z" transform="translate(-638.72 -361.5)"/><path class="cls-3" d="M3119.59,2541.37c-.28,31.12-1.29,60.17-2.75,86.61-5.61,103.73-17.85,168.1-17.85,168.1-27.33,3.46-50.5,2.71-69.47,0-41.7-5.85-62.86-21.07-62.86-21.07,49.11-165.38-16.83-278.85-16.83-278.85l84.18-63.84c8-47.77,28.73-68.57,49.49-76.87C3083.5,2355.45,3120.54,2430.09,3119.59,2541.37Z" transform="translate(-638.72 -361.5)"/><path class="cls-2" d="M3063.2,2813.08a252.23,252.23,0,0,1-35.76-2.47c-44.73-6.28-68.36-23-69.34-23.68a14.67,14.67,0,0,1-5.5-16.09c46.55-156.78-14.85-266.25-15.47-267.34a14.69,14.69,0,0,1,3.83-19l79.63-60.39c10.4-53,36.79-74,57.47-82.25a14.68,14.68,0,0,1,18.59,7.1c1.58,3.18,38.59,79.08,37.61,192.57h0c-.27,29.37-1.2,58.73-2.77,87.27-5.6,103.52-17.57,167.38-18.08,170a14.68,14.68,0,0,1-12.57,11.82A300.93,300.93,0,0,1,3063.2,2813.08Zm-79.26-45.19c9,4.33,25,10.49,47.62,13.66a239.34,239.34,0,0,0,54.84,1.13c3.59-22.23,11.59-78,15.79-155.49,1.55-28.11,2.46-57,2.73-85.94h0c.67-78.51-18.4-138.63-28.49-164.86-14,11.19-23.34,30.73-27.95,58.35a14.64,14.64,0,0,1-5.6,9.27l-74.43,56.44C2983.78,2533.39,3020.52,2632.72,2983.94,2767.89Zm135.65-226.51h0Z" transform="translate(-638.72 -361.5)"/><path class="cls-2" d="M3029.54,2808.3a12.24,12.24,0,0,1-11.56-8.23c-.42-1.23-41-123.42,93.92-183.29a12.23,12.23,0,0,1,9.92,22.36c-114.6,50.85-82.17,148.77-80.73,152.92a12.24,12.24,0,0,1-11.55,16.24Z" transform="translate(-638.72 -361.5)"/><circle class="cls-4" cx="257.91" cy="1376.18" r="100.04"/><path class="cls-2" d="M896.63,1852.4a114.72,114.72,0,1,1,114.71-114.72A114.85,114.85,0,0,1,896.63,1852.4Zm0-200.09A85.37,85.37,0,1,0,982,1737.68,85.46,85.46,0,0,0,896.63,1652.31Z" transform="translate(-638.72 -361.5)"/><path class="cls-2" d="M1518.05,2839.06c-35.4,0-58.55-16.42-59-16.75a19.5,19.5,0,0,1-4.71-4.92c-2.9-4.36-71-107.92-70.55-216,.44-96.55,83.77-125.37,127.77-127.12a19.6,19.6,0,0,1,18.69,11.69L1645,2747.53a19.56,19.56,0,0,1-2.79,20.27C1595.8,2824.42,1551.46,2839.06,1518.05,2839.06Zm-33.26-46.72c11.52,6.39,59.44,26.47,119.48-40.34l-104-237.08c-25.41,4.42-77,21.45-77.29,86.67C1422.55,2687.47,1473.61,2774.35,1484.79,2792.34Z" transform="translate(-638.72 -361.5)"/><path class="cls-6" d="M1512.35,2493.85s-108.51,4.32-109,107.65,67.26,205,67.26,205,71.48,52.47,156.49-51.15Z" transform="translate(-638.72 -361.5)"/><g class="cls-7"><path class="cls-2" d="M1573,2466.44s-108.51,4.31-109,107.65,67.26,205,67.26,205,71.48,52.46,156.49-51.15Z" transform="translate(-638.72 -361.5)"/></g><path class="cls-2" d="M1517.82,2831.74c-32.79,0-54-15-54.42-15.34a12.3,12.3,0,0,1-2.94-3.08c-2.85-4.28-69.8-106-69.32-211.87.41-91,79.15-118.16,120.72-119.81a12.12,12.12,0,0,1,11.69,7.3l114.77,261.54a12.22,12.22,0,0,1-1.74,12.67C1591.77,2817.77,1549.42,2831.74,1517.82,2831.74Zm-38.29-34c10.3,6.32,65.42,34,133.34-44.42l-108.15-246.46c-23.47,3.26-88.78,19.11-89.12,94.68C1415.19,2692.27,1470.33,2783.23,1479.53,2797.76Z" transform="translate(-638.72 -361.5)"/><path class="cls-6" d="M1425.26,2153.55s-78.44-19.8-106.86,45S1352.51,2410,1352.51,2410s38.73,38.75,118.12-24.36Z" transform="translate(-638.72 -361.5)"/><g class="cls-7"><path class="cls-2" d="M1476.77,2135.34s-78.45-19.79-106.87,45S1404,2391.8,1404,2391.8s38.73,38.75,118.13-24.36Z" transform="translate(-638.72 -361.5)"/></g><path class="cls-2" d="M1388.2,2436.48c-29.4,0-45-15-46.07-16.1a14.46,14.46,0,0,1-3.12-4.61c-2.66-6.23-64.67-153.3-34-223.11,26.43-60.25,92.61-61.23,123.89-53.33a14.66,14.66,0,0,1,10.81,11.41L1485,2382.83a14.66,14.66,0,0,1-5.26,14.3C1441.33,2427.69,1410.71,2436.48,1388.2,2436.48ZM1364.61,2401c7.09,4.79,35.73,18.67,89.88-21.4l-41.7-213.34c-19-2.45-62.79-3.17-81,38.24C1311.21,2251.48,1347.29,2359.1,1364.61,2401Z" transform="translate(-638.72 -361.5)"/><path class="cls-3" d="M2108.74,3531c-181.67,78.9-391.12-58.43-391.12-58.43,11.28-59.44,36.33-147.84,89.31-191.77,84.08-69.71,255.38,102.32,255.38,102.32s-10,31.47-1.82,83.81C2092.83,3483.16,2105.1,3508.21,2108.74,3531Z" transform="translate(-638.72 -361.5)"/><path class="cls-2" d="M1977.07,3629c-67.59,0-159.77-18.56-275.19-83.74a14.67,14.67,0,0,1-7.41-13.88c.57-7.68,15.24-188.94,103.09-261.81,93.3-77.39,267.77,95.84,275.15,103.26a14.68,14.68,0,0,1,3.58,14.81c-.06.21-7.93,26.5-2.31,70,59.37,34.56,55.35,100.57,44.39,131.68a14.59,14.59,0,0,1-5.59,7.26C2109.46,3598.78,2063.26,3629,1977.07,3629Zm-252.43-104.65c216.18,118.87,343.3,63.22,367.48,50.31,4.22-16.34,13.09-68.89-38.18-94.55a14.66,14.66,0,0,1-7.93-10.84c-6.17-39.19-2.62-67.71.11-81.43-49.54-47.74-171.81-143.8-229.83-95.68C1748.36,3348.48,1728.75,3487.22,1724.64,3524.33Zm379.9,60.05h0Z" transform="translate(-638.72 -361.5)"/><path class="cls-4" d="M2333.61,2939.79s-30.83,122.69-105.5,249.56c-231.69,82.49-343.56-121.55-343.56-121.55,13.19-50.71,24.42-107.69,29.88-167.58Z" transform="translate(-638.72 -361.5)"/><path class="cls-2" d="M2121.71,3223.55c-69.86,0-123.76-25.63-160.8-52.11-59-42.16-88-94.38-89.22-96.59a14.69,14.69,0,0,1-1.34-10.75c14.72-56.56,24.64-112.15,29.47-165.21a14.67,14.67,0,0,1,16-13.28L2335,2925.18a14.66,14.66,0,0,1,12.85,18.18c-1.28,5.1-32.2,126.2-107.08,253.43a14.64,14.64,0,0,1-7.73,6.38C2192.33,3217.67,2155.19,3223.55,2121.71,3223.55Zm-221.44-158c18.34,29.89,121.29,178.57,317.9,111.68,55.17-95,85.67-187.77,96.57-224.53l-387.15-36.53A1069,1069,0,0,1,1900.27,3065.59Z" transform="translate(-638.72 -361.5)"/><g class="cls-7"><path class="cls-2" d="M1990,3334.75a101.41,101.41,0,0,0,11.32-3A24.61,24.61,0,0,0,1990,3334.75Z" transform="translate(-638.72 -361.5)"/></g><path class="cls-5" d="M2228.11,3189.35a816.36,816.36,0,0,1-48.66,73.67c-203.58,60.25-323.95-99.91-323.95-99.91,9.82-28.06,19.91-60.21,29-95.31C1884.55,3067.8,1996.42,3271.84,2228.11,3189.35Z" transform="translate(-638.72 -361.5)"/><path class="cls-2" d="M2089.93,3291.12c-154.47,0-245.1-117.78-246.16-119.2a14.66,14.66,0,0,1-2.12-13.66c10.87-31.06,20.52-62.74,28.7-94.16a14.68,14.68,0,0,1,27.07-3.36c4.34,7.86,109,192,325.77,114.79a14.67,14.67,0,0,1,17.57,21.25,832,832,0,0,1-49.53,75,14.63,14.63,0,0,1-7.61,5.31C2150.25,3287,2119,3291.12,2089.93,3291.12ZM1872,3160.2c23.52,27.64,129.83,137.46,298.58,90.1q12.63-17.24,24.73-35.84c-106.42,25.75-185.28-7.88-234.43-43a333.56,333.56,0,0,1-70.67-68.94C1884.66,3121.81,1878.57,3141.11,1872,3160.2Z" transform="translate(-638.72 -361.5)"/><path class="cls-5" d="M2179.45,3263c-32.92,44.29-71.75,86.12-117.14,120.14,0,0-229.55,0-255.38-102.32,0,0,23.33-45.38,48.57-117.73C1855.5,3163.11,1975.87,3323.27,2179.45,3263Z" transform="translate(-638.72 -361.5)"/><path class="cls-2" d="M2062.31,3397.83c-9.84,0-241.3-1.29-269.61-113.39a14.71,14.71,0,0,1,1.18-10.3c.23-.45,23.21-45.47,47.77-115.86a14.66,14.66,0,0,1,25.58-4c4.67,6.18,117,151.16,308.06,94.65a14.67,14.67,0,0,1,15.94,22.82c-36.86,49.59-77.27,91-120.12,123.13A14.7,14.7,0,0,1,2062.31,3397.83ZM1822.64,3282.2c23.95,68.67,172.24,85.39,234.79,86.25,29.49-22.61,57.82-50,84.56-81.71-144,24.09-243-57-281-95.56C1843.7,3237.8,1828.59,3270,1822.64,3282.2Z" transform="translate(-638.72 -361.5)"/><g class="cls-7"><path class="cls-2" d="M2104.56,3591.49s-137.76,93.59-395.47-51.9c0,0,.61-7.87,2.3-20.89,0-.14,0-.28,0-.42.14-1.08.28-2.2.46-3.37,0-.47.1-.89.19-1.36.14-1.17.33-2.39.52-3.65.09-.8.23-1.69.37-2.53,0-.52.14-1,.19-1.5.51-3.23,1-6.65,1.64-10.26,0-.23,0-.42.09-.65.66-3.75,1.31-7.64,2.06-11.71,0-.33.14-.61.19-.89.14-.89.28-1.74.47-2.63.05-.32.14-.65.19-1,.56-3,1.17-6,1.82-9.18.24-1,.42-2,.66-3.05.56-2.71,1.17-5.52,1.83-8.38.23-1.08.46-2.15.7-3.23.75-3.14,1.5-6.33,2.29-9.56.33-1.21.61-2.43.94-3.6.7-2.91,1.5-5.81,2.3-8.76.32-1.22.65-2.44,1-3.66.94-3.37,1.92-6.74,2.9-10.11.33-1.13.71-2.25,1-3.38,1-3.09,2-6.23,3-9.36.38-1.08.75-2.16,1.13-3.28,1.17-3.56,2.43-7.12,3.7-10.63.37-1,.75-2,1.12-3,1.22-3.32,2.53-6.65,3.84-10,.33-.85.71-1.69,1-2.53,1.55-3.7,3.1-7.36,4.73-11,.38-.8.71-1.54,1.08-2.34,1.59-3.51,3.28-6.93,5-10.35l.84-1.69q2.88-5.55,5.9-11c.33-.56.66-1.12,1-1.73,2-3.47,4.12-6.93,6.27-10.31.19-.28.42-.61.61-.93,2.3-3.52,4.68-7,7.17-10.36l.84-1.12c.61-.8,1.17-1.59,1.78-2.34,1.92-2.53,3.89-5,6-7.35a1.61,1.61,0,0,1,.28-.33c2.72-3.23,5.57-6.28,8.52-9.18.24-.28.52-.52.75-.8,3-2.9,6-5.71,9.23-8.34,0,0,23.33-45.38,48.57-117.75,9.79-28.06,19.91-60.19,29-95.32,13.21-50.68,24.41-107.68,29.89-167.59l156.63,14.8c-29.23,124.17-50.31,249.65-102.39,363.9-22.77,16.62-40.61,41.73-56.35,66.88,24.4-8.15,52.32-5.66,77.66-11-8.57,4.36-16.16,12.37-26.14,15.7,29.28,27,67.22,49.69,106.52,59.72a33.87,33.87,0,0,1-9.61,1.4c-.7,0-1.73-.14-3-.28-.18,2.86-.33,5.9-.42,9.13-56.44-17.19-110.91-44.4-168.48-55.92,4.68,28.1,9.37,56.21,28.1,74.94v4.69c-14.14,3.55-28.33,17.79-28.33,28.57a10,10,0,0,0,2.71,7,12.84,12.84,0,0,0,2.2,1.88,158.58,158.58,0,0,0,14.38,16.39c52.32,52.32,131.58,59.44,201.65,40.52.09.93.18,1.92.23,2.85a.42.42,0,0,0,.05.24A122.78,122.78,0,0,1,2104.56,3591.49Z" transform="translate(-638.72 -361.5)"/></g><path class="cls-2" d="M1851.12,3484.07a30.82,30.82,0,0,1,5.33-6.31,46.92,46.92,0,0,1,5.74-4.63,50.76,50.76,0,0,1,6.08-3.84,47.8,47.8,0,0,1,6.32-3.25c8.51-4.13,17.45-6.61,26.39-8.88,18-4.15,36.15-5.46,54.27-6.11a529.49,529.49,0,0,1,54.08,2.16c8.92,1,18,1.56,26.82,2.89l26.69,3.76a12.24,12.24,0,1,1-3.42,24.24c-.26,0-.52-.08-.78-.14l-.47-.1-25.62-5.39c-8.54-1.88-17.15-3-25.73-4.55a513.71,513.71,0,0,0-51.77-5.6c-17.24-.54-34.58-.46-51.39,2.25-8.32,1.53-16.69,3.26-24.35,6.38a38.24,38.24,0,0,0-5.67,2.43,41.31,41.31,0,0,0-5.34,2.88,36.13,36.13,0,0,0-4.84,3.36,29,29,0,0,0-3.59,3.47l-.79.91a5,5,0,0,1-8-5.93Z" transform="translate(-638.72 -361.5)"/><path class="cls-2" d="M1924.28,3465.64a9.77,9.77,0,0,1-8.41-4.77c-24.67-41.31-24.94-99.69-24.93-102.15a9.77,9.77,0,0,1,9.77-9.78h0a9.79,9.79,0,0,1,9.78,9.78c0,.55.3,55.5,22.17,92.12a9.78,9.78,0,0,1-8.39,14.8Z" transform="translate(-638.72 -361.5)"/><path class="cls-2" d="M1770.75,3513.82a12,12,0,0,1-5-1.08,12.22,12.22,0,0,1-6.14-16.16c47.44-105.62,11.87-183.74,11.5-184.52a12.23,12.23,0,0,1,22.14-10.4c1.69,3.59,40.66,89.17-11.34,204.94A12.24,12.24,0,0,1,1770.75,3513.82Z" transform="translate(-638.72 -361.5)"/><path class="cls-8" d="M2641.18,2428.2l-135.74,37c-244.31-60.32-449.21-29.25-608.55,107.47l-9.06,66.76s-11.09,104.06,4.37,136.65-3.43,181.9-3.43,181.9,176.54,166,460.76,114.82c0,0,38.42-94.79,59.56-202.5l224.65-54.43S2672.48,2582.81,2641.18,2428.2Z" transform="translate(-638.72 -361.5)"/><g class="cls-7"><path class="cls-2" d="M2299.73,3078.28C2176.31,3050.55,2088.06,2943.34,2081,2817c-.77-13.73-2.49-24.93-5.58-31.45-15.47-32.59-4.38-136.65-4.38-136.65l9.06-66.76c96-82.41,208.67-126.38,336.48-135.14-205.45-32.84-380.06,5.82-519.68,125.63l-9.06,66.76s-11.09,104.06,4.37,136.65-3.43,181.9-3.43,181.9,157.87,148.37,415.35,121.27Z" transform="translate(-638.72 -361.5)"/></g><path class="cls-9" d="M1565.66,2128.07s-48.31,138.63,129,236.43S1818.53,2554,1818.53,2554s385.27,139.29,708.24-207c0,0-272.82-624-630.89-525S1565.66,2128.07,1565.66,2128.07Z" transform="translate(-638.72 -361.5)"/><path class="cls-10" d="M1763.86,1981.42s200.27-9.1,241.2-48.89-98.39-90.19-98.39-90.19-118,13.6-142.81,139.08" transform="translate(-638.72 -361.5)"/><g class="cls-7"><path class="cls-2" d="M1762.31,1981.42s200.28-9.1,241.2-48.89-98.38-90.19-98.38-90.19-118,13.6-142.82,139.08" transform="translate(-638.72 -361.5)"/></g><g class="cls-7"><path class="cls-2" d="M2483.46,2256.16a532.93,532.93,0,0,1-214.8,116.68c-2.55,20.27-2.63,39.29-5.17,59.56-67.2,24.71-136,42.85-207.5,38.61s-145.87-45.84-165.42-114.71c31.13,4.86,62.71,9.73,94,6.2s62.85-16.57,82.07-41.53c19-24.67,23.64-57.28,25.68-88.35A751.05,751.05,0,0,0,2077.65,2028l83.52,1.72c6.87,40.54,36.19,76.53,74.5,91.46s84.26,8.28,116.76-16.91C2394.81,2151.12,2441.07,2209.31,2483.46,2256.16Z" transform="translate(-638.72 -361.5)"/></g><path class="cls-2" d="M1763.86,1996.09a14.69,14.69,0,0,1-14.4-17.52c26.61-134.43,154.25-150.66,155.54-150.8a14.81,14.81,0,0,1,6.67.77c17.63,6.38,106,40.27,114.81,81,1.83,8.52,1.38,21.24-11.19,33.46-43.66,42.45-229.7,52.07-250.77,53Zm141.27-138.68c-17.22,3-95.59,21.06-122.23,108.26,76.3-4.93,187.27-19.68,211.93-43.66,3.55-3.46,3.18-5.2,3-6.24C1994.31,1899.59,1947.68,1873.31,1905.13,1857.41Z" transform="translate(-638.72 -361.5)"/><path class="cls-9" d="M2196.54,1223.73l-275.61,293.08s173.94,88.31,324,26.92c88.39-36.17,136.49-97.37,161.09-141.58a57,57,0,0,0-22.8-78Z" transform="translate(-638.72 -361.5)"/><g class="cls-1"><path class="cls-2" d="M2231.45,1242.51l-34.91-18.78-275.61,293.08s110.85,56.2,231.9,47.67C2226.94,1473.81,2263.68,1353.85,2231.45,1242.51Z" transform="translate(-638.72 -361.5)"/></g><path class="cls-2" d="M2127,1585.14c-112.91,0-209.43-48.12-214.88-50.89a19.56,19.56,0,0,1-5.4-30.85l275.61-293.07a19.57,19.57,0,0,1,23.52-3.83l186.68,100.43a76.61,76.61,0,0,1,30.64,104.74c-26.41,47.43-77.47,112-170.79,150.17C2210.77,1578.84,2167.78,1585.14,2127,1585.14ZM1954.19,1510c51.48,20.53,175.33,59.81,283.34,15.62,82.82-33.88,128-91,151.41-133a37.48,37.48,0,0,0-15-51.25l-173.46-93.31Z" transform="translate(-638.72 -361.5)"/><path class="cls-6" d="M2118.66,2211.38c-16.42-234.69-509.86-372.44-598.81-140.7l-2.73-1-23-15.69s-136.69-10.46-74.53,244.42,195.54,476.21,195.54,476.21,70.35,94,270.53-44c-1-27.78.4-62.34,2.18-91.17l44.52-43.93C2019.25,2505,2129,2359.63,2118.66,2211.38Zm-192,243-61.8,66.53c-2.41-27.06-19.19-113.37-133.74-176.81-84.63-46.84-123.87-104-141.52-141-10.41-21.69-13.32-36.47-13.64-38.24a.71.71,0,0,1-.05-.18c63-42.52,216.69-134.88,325.74-104.82C2041.8,2098.51,2063,2315.65,1926.62,2454.35Z" transform="translate(-638.72 -361.5)"/><g class="cls-7"><path class="cls-2" d="M2118.65,2211.38c-16.39-234.71-509.84-372.41-598.79-140.7l-2.72-1-23-15.69s-86.56-6.61-90.59,119.11a91.84,91.84,0,0,1,12.32-7.63c31.66-10.54,66-7.92,87.07,13.95,7,7.22,12.46,16.54,16,28.2l5.3-.89c23.42,148.25,102.81,283.38,209.09,388.81,3.46,3.47,6.93,6.84,10.44,10.21h.1c1.45,35.56,19.25,66.94,32.69,98.37l4.68,9.36a87.31,87.31,0,0,1,11.39,9.65c14.7,14.8,20.7,32.51,20.56,50.68a579,579,0,0,0,72.51-43.18c-.94-27.78.42-62.35,2.2-91.15l44.49-43.94C2019.26,2505,2129,2359.63,2118.65,2211.38Zm-192,243-61.78,66.56c-2.44-27.07-19.21-113.4-133.77-176.82-84.6-46.84-123.85-104-141.51-141-10.39-21.68-13.3-36.44-13.63-38.22a.85.85,0,0,1,0-.18c63-42.53,216.68-134.9,325.72-104.83C2041.79,2098.5,2063.05,2315.65,1926.61,2454.34Z" transform="translate(-638.72 -361.5)"/></g><path class="cls-5" d="M1449.9,470.53a94.36,94.36,0,1,1-94.35-94.36A94.35,94.35,0,0,1,1449.9,470.53Z" transform="translate(-638.72 -361.5)"/><path class="cls-2" d="M1355.55,579.57a109,109,0,1,1,109-109A109.16,109.16,0,0,1,1355.55,579.57Zm0-188.72a79.69,79.69,0,1,0,79.68,79.68A79.77,79.77,0,0,0,1355.55,390.85Z" transform="translate(-638.72 -361.5)"/><path class="cls-9" d="M696.24,837.24A241.4,241.4,0,0,0,653.4,973.77c-.33,86.22,7.34,235.17,57.42,339.68C785.21,1468.69,2179.77,1117,2179.77,1117s-12.15-221.1-89.82-369.92a240.72,240.72,0,0,0-49.09-64.35c-70.16-65.6-272.44-230.31-534.88-230.43C1021.75,452.12,783.57,711,696.24,837.24Z" transform="translate(-638.72 -361.5)"/><g class="cls-11"><path class="cls-5" d="M731,853.26c89.76-126.78,334.57-386.82,832.27-386.6a677.57,677.57,0,0,1,124.06,11.68c-56.12-16-116.92-26-181.36-26-484.23-.22-722.41,258.68-809.74,384.9A241.4,241.4,0,0,0,653.4,973.77c-.33,86.22,7.34,235.18,57.42,339.68,6,12.61,20.86,21.87,42.9,28.25a36,36,0,0,1-7.72-10.14c-51.47-105-59.36-254.57-59-341.18A238.59,238.59,0,0,1,731,853.26Z" transform="translate(-638.72 -361.5)"/></g><path class="cls-2" d="M865.22,1368c-122.19,0-156.14-24.2-167.64-48.19-52-108.43-59.17-263.37-58.85-346.08a255.13,255.13,0,0,1,45.44-144.82c46.13-66.67,128.77-163.13,260.42-244,159-97.67,347.68-147.2,560.77-147.2h.63c265.66.12,469.56,164,544.89,234.39A254.84,254.84,0,0,1,2103,740.33c78.25,149.92,91,366.75,91.47,375.9a14.67,14.67,0,0,1-11.06,15c-3.49.88-353.15,88.8-707.41,156.6C1164,1347.58,977.42,1368,865.22,1368Zm640.15-901c-483,0-718.28,264.71-797.07,378.57h0a225.94,225.94,0,0,0-40.23,128.23c-.31,80.2,6.55,230.14,56,333.29,12.51,26.1,110.29,73.68,746.28-48,316.63-60.6,629.66-137.33,693.92-153.28-3.87-47.8-22.26-227.23-87.31-351.88a225.32,225.32,0,0,0-46.1-60.42c-72.79-68-269.65-226.36-524.86-226.47ZM696.24,837.24h0Z" transform="translate(-638.72 -361.5)"/><path class="cls-2" d="M1860.63,2761.86a14.67,14.67,0,0,1-14-19.21c9.23-28.42-19.47-78-31.31-94.73a14.67,14.67,0,0,1,23.93-17c5.24,7.37,50.7,73.36,35.29,120.79A14.69,14.69,0,0,1,1860.63,2761.86Z" transform="translate(-638.72 -361.5)"/><path class="cls-4" d="M2736.06,1639.22c-4.55,61.39-88.68,50-88.68,50,12.51,18.19,2,29.56-11.64,36.38-15.69,7.82-34.28,7.23-50-.5l-91.81-45c-69.35,40.93-192.13,54.57-192.13,54.57l-87.36,188.81c-144.38-115.19-262.79-124.47-262.79-124.47s95.49-222.73,216-304.22,334.24,6.82,334.24,6.82,102.31-5.68,145.51-6.82S2740.61,1577.83,2736.06,1639.22Z" transform="translate(-638.72 -361.5)"/><path class="cls-9" d="M2261.35,1822.07l-46.93,101.46c-144.38-115.19-262.79-124.46-262.79-124.46a1192.55,1192.55,0,0,1,64.44-124.29S2175.5,1674.78,2261.35,1822.07Z" transform="translate(-638.72 -361.5)"/><path class="cls-2" d="M2214.42,1938.2a14.66,14.66,0,0,1-9.15-3.21c-138.62-110.59-253.67-121.2-254.82-121.3a14.68,14.68,0,0,1-12.3-20.41c1-2.37,25.39-58.86,65.3-126a14.69,14.69,0,0,1,12.62-7.18c6.85,0,168.88,1.76,258,154.57a14.63,14.63,0,0,1,.64,13.55l-46.92,101.45a14.66,14.66,0,0,1-9.94,8.12A14.39,14.39,0,0,1,2214.42,1938.2ZM1973,1787.43c38.89,7.4,129.3,32.25,235.84,113.17l35.91-77.64c-70.39-113.93-188.64-130.65-220.57-133.09C2000.46,1730.54,1982.61,1766.94,1973,1787.43Z" transform="translate(-638.72 -361.5)"/><path class="cls-5" d="M2291,1758.09l-29.61,64c-85.85-147.29-245.28-147.29-245.28-147.29,12-20.09,25.33-41.1,39.79-61.71C2055.86,1613.07,2216.7,1613.07,2291,1758.09Z" transform="translate(-638.72 -361.5)"/><path class="cls-2" d="M2261.34,1836.75a14.66,14.66,0,0,1-12.67-7.29c-80.67-138.4-231.1-140-232.6-140a14.68,14.68,0,0,1-12.62-22.18c13.19-22.15,26.78-43.23,40.39-62.63a14.67,14.67,0,0,1,12-6.25c6.93,0,170.7,1.74,248.16,153a14.68,14.68,0,0,1,.25,12.85l-29.61,64a14.67,14.67,0,0,1-12.62,8.49ZM2041.06,1662c46.75,5.89,148.48,30.13,218.21,129.62l15.32-33.1C2212.5,1644.89,2094.47,1630,2063.33,1628Q2052.13,1644.32,2041.06,1662Z" transform="translate(-638.72 -361.5)"/><g class="cls-7"><path class="cls-2" d="M2609.92,1640.66q1.29,19.93,2.57,39.87c-46.29-4.46-90.1-30.17-116.56-68.41-71.95,47.05-167.09,65.44-252.48,48.31-18.45-16.71-41.17-29.75-64.35-38.33a283.21,283.21,0,0,0-134.43-15.16A346.67,346.67,0,0,1,2003,1778.61l24.29,6.13,41.11,5.42c1.84-21.18,3.83-42.92,13.17-62s27.83-35.25,49.08-35.47c29.76-.31,52.13,31.39,51.69,61.15s-17.39,56.65-36,79.89l77.5,37.76c31.09-38.62,63.82-82.7,61-131.78,76.93-3.93,151.66-23.75,218-63.31,24.17,28,57.47,49.54,94.43,51.49,12,.63,24.44-.41,35.19-5.79s19.57-15.73,20.56-27.71S2621.86,1642.12,2609.92,1640.66Z" transform="translate(-638.72 -361.5)"/></g><path class="cls-2" d="M2291,1772.77a14.67,14.67,0,0,1-13.06-8c-69.13-135-215.85-137-222.07-137a14.69,14.69,0,0,1-12-23.12c39.05-55.48,77.93-96.51,115.56-122,118.89-80.39,316.46-7.08,344.91,4.15,17.84-1,104.11-5.64,142.68-6.66,17.75-.5,36.15,8.88,53.45,27,32.31,33.89,53.45,89.87,50.24,133.11-1.4,19-9.09,34.3-22.84,45.45-17.91,14.52-42.52,18.3-60.18,18.89a32.89,32.89,0,0,1-1,7.74c-2.8,10.81-11,19.68-24.34,26.36-19.32,9.62-42.89,9.45-63.06-.46l-84.85-41.56c-61.71,33.44-154.5,47.8-182.73,51.54l-7.4,16a14.67,14.67,0,0,1-13,8.5Zm-207.82-172.22c47.34,6.26,145.05,30.68,206.51,125.91a14.64,14.64,0,0,1,10.51-6.32c1.19-.14,120.5-13.8,186.29-52.63a14.67,14.67,0,0,1,13.91-.54l91.82,45c12,5.9,25.85,6.1,37,.54,6-3,8.64-5.89,9-7.43.29-1.14-.33-3.7-2.94-7.5a14.68,14.68,0,0,1,14.06-22.86c10.9,1.43,43,2.11,60.07-11.78,7.28-5.93,11.21-14,12-24.78l14.63,1.08-14.63-1.08c2.6-35.13-15.55-82.72-42.22-110.69-11.26-11.81-22.59-18.28-31.44-17.94-42.49,1.12-144.07,6.75-145.09,6.8a14.54,14.54,0,0,1-6.41-1.09c-2.07-.84-207.9-84.31-320.42-8.22C2146,1527.2,2114.84,1558.61,2083.14,1600.55Z" transform="translate(-638.72 -361.5)"/><path class="cls-2" d="M2637.31,1696.17c-7.7-8.94-14.83-18.07-22.55-26.38-3.74-4.24-7.75-8.17-11.65-11.84-1-.89-2-1.76-3-2.55l-.73-.59-.35-.28-.91-.67a13.7,13.7,0,0,1-5.43-9.93,13.42,13.42,0,0,1,7.54-13.06l.61-.25,1.23-.49,2.46-1,4.93-1.68a108.1,108.1,0,0,1,19.6-4.19,154,154,0,0,1,19.31-1.28,191.68,191.68,0,0,1,37.63,3.55,2.37,2.37,0,0,1,1.86,2.76,2.39,2.39,0,0,1-1.88,1.87c-12.17,2.39-24.15,4.54-35.71,7.47s-22.72,6.42-32.48,11.15l-3.54,1.87-1.68,1-.84.5-.42.25a10.69,10.69,0,0,0,2.47-1.76,10.91,10.91,0,0,0-1-16.58l-.46-.33.05,0,.15.09.3.19.59.36,1.16.74c1.53,1,3,2,4.36,3a124,124,0,0,1,15.21,13.19,148.38,148.38,0,0,1,23.29,31,12.28,12.28,0,0,1-20,14Z" transform="translate(-638.72 -361.5)"/><path class="cls-12" d="M919.36,1034.41S894.35,852.52,908,836.6s270.58-122.78,338.79-111.41,120,191,120,191Z" transform="translate(-638.72 -361.5)"/><path class="cls-2" d="M919.36,1054a19.58,19.58,0,0,1-19.38-16.9c-.06-.46-6.36-46.42-10.89-93.74-9.89-103.21-2.16-112.23,4-119.47,17.06-19.9,155.65-71.07,157.05-71.58,68.21-25,158.21-53.34,199.81-46.4,76.49,12.75,126.4,172.89,135.63,204.87a19.57,19.57,0,0,1-13.8,24.34L924.36,1053.33A19.83,19.83,0,0,1,919.36,1054Zm4.91-205.26c-3.32,19.38,2.89,92.84,11.58,161.1l406.26-107.34c-22.25-67.67-63.36-152.13-98.55-158C1184.6,734.68,957.33,827.76,924.27,848.72Zm.63-2.68" transform="translate(-638.72 -361.5)"/><path class="cls-2" d="M1886.66,2767.92a12.23,12.23,0,0,1-1.16-24.4c101.46-9.77,165.24-135,165.87-136.22a12.23,12.23,0,1,1,21.87,10.95c-2.83,5.65-70.61,138.56-185.39,149.62C1887.45,2767.9,1887.05,2767.92,1886.66,2767.92Z" transform="translate(-638.72 -361.5)"/><path class="cls-2" d="M1896.87,2808.88a12.23,12.23,0,0,1-1.43-24.37c170.5-20.27,200.43-168.91,201.62-175.22a12.23,12.23,0,0,1,24,4.46c-.31,1.73-34,172.6-222.77,195A12,12,0,0,1,1896.87,2808.88Z" transform="translate(-638.72 -361.5)"/><path class="cls-3" d="M1911.76,3372.6c-7.12-5.66-7.47-16.44-1.15-23,13.43-13.91,45.41-43,82-47.73,48.31-6.26,131.87,0,143.24,39.22s-58.55,71.62-75,70.48C2047,3410.63,1942,3396.65,1911.76,3372.6Z" transform="translate(-638.72 -361.5)"/><path class="cls-2" d="M2061.36,3426.27c-.55,0-1.09,0-1.6-.05-1.14-.08-119.91-12.57-157.12-42.13h0a29.8,29.8,0,0,1-11.12-21.34,30.76,30.76,0,0,1,8.54-23.33c16.63-17.23,50.52-46.91,90.61-52.1,54-7,144.92.35,159.22,49.69,3.19,11,3.76,28.07-11.57,47.08C2118.23,3409,2078.9,3426.27,2061.36,3426.27Zm-33.49-111.93a261.6,261.6,0,0,0-33.43,2.09c-32.38,4.18-62,31.73-73.27,43.37a1.33,1.33,0,0,0-.31,1.29l0,0c24.42,19.4,120.13,34.4,140.89,35.83h0c7.44,0,39.89-13,54.59-32.45,7.88-10.43,5.94-17.11,5.31-19.31C2115.93,3325.24,2072.64,3314.34,2027.87,3314.34Z" transform="translate(-638.72 -361.5)"/><path class="cls-2" d="M2086.06,3346.07c-.56,1.78-8.56,1-21.17-.9-12.53-1.7-30-5-48.33-5-8.71,0-17.21,2.27-24.94,4.61s-14.64,5.2-20.47,7.57c-11.67,4.79-19,7.94-20.09,6.39s4.6-7.59,15.66-14.81a123.5,123.5,0,0,1,20.7-10.81c8.23-3.23,18-6.32,28.94-6.4,21,.08,38.4,5.12,50.79,9.23C2079.49,3340.23,2086.62,3344.31,2086.06,3346.07Z" transform="translate(-638.72 -361.5)"/><path class="cls-13" d="M1644.68,2515.94l-17.56,11.74,21.64,63.38c25.69-6,44.52-31.27,44.52-31.27Z" transform="translate(-638.72 -361.5)"/><path class="cls-2" d="M1648.76,2600.84a9.78,9.78,0,0,1-9.26-6.63l-21.63-63.38a9.76,9.76,0,0,1,3.82-11.28l17.55-11.74a9.76,9.76,0,0,1,12,.87l48.6,43.85a9.78,9.78,0,0,1,1.29,13.1c-.85,1.16-21.3,28.25-50.15,34.95A9.33,9.33,0,0,1,1648.76,2600.84Zm-10-69.21,16.07,47.09c10.51-4.62,19.3-12.47,24.71-18.1l-35.81-32.31Z" transform="translate(-638.72 -361.5)"/><path class="cls-13" d="M1629.33,2493.85h-29.84s8,34.11,20.74,42.35S1672,2523.7,1629.33,2493.85Z" transform="translate(-638.72 -361.5)"/><path class="cls-2" d="M1627.39,2547.78a22.88,22.88,0,0,1-12.45-3.36c-15.34-9.88-23.5-42-25-48.35a9.79,9.79,0,0,1,9.53-12h29.84a9.78,9.78,0,0,1,5.61,1.77c32.6,22.82,23,42.59,19.33,48.1C1648.45,2542.62,1637.41,2547.78,1627.39,2547.78Zm-14.93-44.15c3.74,11.13,8.8,21.59,13.07,24.35,1.94,1,9.85-.58,12.66-5.19,2.65-4.33-1.94-11.55-12-19.16Z" transform="translate(-638.72 -361.5)"/><path class="cls-2" d="M2511.8,2439.13c1.81,7.24,3.1,13.65,4.16,20.42s1.9,13.37,2.78,20c1.32,13.37,2.23,26.74,2.36,40.09a432.65,432.65,0,0,1-6,79.5c-4.49,26.11-10.69,51.92-19.9,76.62-4,12.54-9.62,24.49-14.85,36.52-2.42,6.09-5.75,11.78-8.74,17.61l-9.14,17.37h0s0,0,0,0l7.76-18c2.52-6,5.37-11.89,7.31-18.13,4.25-12.34,8.81-24.51,11.83-37.18,7.17-25,11.23-50.66,13.61-76.31a417.8,417.8,0,0,0-.17-77c-1.12-12.75-3-25.4-5.21-37.92-1.33-6.22-2.47-12.47-4.07-18.56-1.42-6.07-3.26-12.37-5-17.69l-.17-.5a12.25,12.25,0,0,1,23.24-7.73C2511.64,2438.53,2511.73,2438.85,2511.8,2439.13Z" transform="translate(-638.72 -361.5)"/><path class="cls-2" d="M2409.07,2882.53a12.23,12.23,0,0,1-2.87-24.12l216.72-52.5c6.11-40.66,31.86-228.25,8.68-362.42L2508.65,2477a12.22,12.22,0,1,1-6.42-23.59l135.73-37a12.21,12.21,0,0,1,15.2,9.37c31.39,155-5.76,382.49-7.36,392.1a12.22,12.22,0,0,1-9.18,9.87L2412,2882.18A12,12,0,0,1,2409.07,2882.53Z" transform="translate(-638.72 -361.5)"/><path class="cls-2" d="M2252.69,3032.48c-90.57,0-168.46-24.79-224.25-50C1942,2943.34,1889.8,2896,1887.62,2894a12.23,12.23,0,1,1,16.52-18c2,1.86,206.16,184.94,466.52,116.91a12.23,12.23,0,0,1,6.18,23.66A489.72,489.72,0,0,1,2252.69,3032.48Z" transform="translate(-638.72 -361.5)"/><path class="cls-2" d="M2549.62,2848.48a12.24,12.24,0,0,1-11.65-16c40.88-127.12,24.61-382.79,24.44-385.35a12.23,12.23,0,0,1,24.41-1.61c.7,10.67,16.73,262.93-25.56,394.45A12.23,12.23,0,0,1,2549.62,2848.48Z" transform="translate(-638.72 -361.5)"/><path class="cls-14" d="M1901.61,2059.86c-109-30.06-262.75,62.3-325.74,104.82a.71.71,0,0,0,.05.18c.32,1.77,3.23,16.55,13.64,38.24,17.65,37,56.89,94.13,141.52,141,114.55,63.44,131.33,149.75,133.74,176.81l61.8-66.53C2063,2315.65,2041.8,2098.51,1901.61,2059.86Z" transform="translate(-638.72 -361.5)"/><path class="cls-2" d="M1900,2640.73a732.12,732.12,0,0,0-3.72,78.54c.2,12.95,1,25.94,3.08,37.86.5,3,1.34,5.63,2,8.48l1.34,3.52.65,1.82,1.31,3.24c3,8.43,3.8,15.49,4.6,22.67a361.1,361.1,0,0,1,1.19,41.51c-.25,13.63-1,27.14-1.84,40.62-1.82,27-4.38,53.64-7.64,80.52l-3.75-10.44c6.76,6.1,14.83,12.48,22.72,18.3s16.23,11.49,24.6,16.9a532.54,532.54,0,0,0,52.18,29.34,548.09,548.09,0,0,0,112.51,40.81c9.67,2.51,19.49,4.36,29.28,6.4,9.86,1.6,19.68,3.53,29.62,4.63a557.94,557.94,0,0,0,59.76,4.69,615.05,615.05,0,0,0,119.59-9l-8.92,7.24c6.35-15.91,12.35-32.48,18-48.95s10.83-33.19,15.73-49.94,9.53-33.57,13.69-50.49c4.31-16.9,7.78-34,11.19-51l0-.17a12.23,12.23,0,0,1,24,4.79l0,.1c-7.27,34.93-15.91,69.47-26.14,103.51q-7.59,25.56-16.22,50.77c-5.69,16.88-11.58,33.48-18.19,50.33a11.65,11.65,0,0,1-8.76,7.21l-.15,0a632.16,632.16,0,0,1-124.4,10.08,584,584,0,0,1-62.38-4.89c-10.37-1.16-20.62-3.16-30.92-4.85-10.22-2.12-20.48-4.06-30.58-6.68a572.8,572.8,0,0,1-117.49-42.61,559.45,559.45,0,0,1-54.6-30.7c-8.79-5.69-17.44-11.59-25.91-17.81s-16.55-12.57-24.95-20.17a11.71,11.71,0,0,1-3.8-10.07l0-.37c3.17-26.17,5.72-52.72,7.51-79.07.85-13.19,1.54-26.37,1.78-39.46a338.52,338.52,0,0,0-1.07-38.58c-.59-6.07-1.59-12.4-3.16-16.54l-1.66-4.28-2.18-5.87c-.86-3.66-1.95-7.44-2.56-11-2.56-14.41-3.25-28.21-3.49-42a753.45,753.45,0,0,1,3.85-81.53,12.23,12.23,0,0,1,24.34,2.35h0Z" transform="translate(-638.72 -361.5)"/><path class="cls-2" d="M2426.87,2711.89c3.6,26.75,4.11,53.79,3,80.67s-3.75,53.73-8.73,80.09a12.23,12.23,0,1,1-24-4.54.9.9,0,0,1,0-.16c5.17-25.6,10.69-51.16,14.12-77s5.34-52,4.21-78v0a5.75,5.75,0,0,1,11.44-1Z" transform="translate(-638.72 -361.5)"/><path class="cls-2" d="M1696.25,2819c-62.94,0-89.24-34.76-91-37.26-.19-.28-.38-.56-.56-.85-1.34-2.23-135.05-225.86-196.94-479.62-26.3-107.85-21.33-184.1,14.78-226.62a92.47,92.47,0,0,1,55.79-31.78,126.33,126.33,0,0,1,12.8-85.52c30.64-57.07,103.4-96.87,216.26-118.28a12.23,12.23,0,0,1,4.57,24c-103.43,19.62-172.26,56.05-199,105.35-22.85,42.09-8.1,79.25-7.46,80.81a12.25,12.25,0,0,1-12.23,16.88c-1.15-.07-30.33-1.6-52.38,24.72-20.94,25-39.54,80.77-9.34,204.62,59.42,243.64,186.13,459.31,193.78,472.2,4.15,5,70.65,78.84,251.78-46a12.23,12.23,0,0,1,13.88,20.14C1804.52,2801.35,1741.08,2819,1696.25,2819Z" transform="translate(-638.72 -361.5)"/><path class="cls-5" d="M2549.61,2403.87c-402.44,332.65-675.29,168.35-675.29,168.35l-9.09-42.84c305.27,108,622.77-187.13,648.28-211.45C2537.93,2369.63,2549.61,2403.87,2549.61,2403.87Z" transform="translate(-638.72 -361.5)"/><path class="cls-2" d="M2058.86,2627.47c-119.86,0-189.2-40.93-192.11-42.69a14.63,14.63,0,0,1-6.78-9.52l-9.1-42.83a14.67,14.67,0,0,1,19.25-16.88c123.63,43.71,264,25.12,417.34-55.28,117.48-61.62,200.48-138.23,215.92-153a14.67,14.67,0,0,1,23.39,4.35c24.5,51.85,36.24,86,36.73,87.47a14.69,14.69,0,0,1-4.53,16c-211.24,174.59-387.33,211.81-497.86,212.28Zm-171.6-65c17.73,8.92,78.61,35.62,171.68,35.62l4.13,0c103.95-.88,269.22-36.32,469.2-199-4.13-11-12-30.93-23.64-56.76-72.19,64.6-347.65,288-623.8,208.69Z" transform="translate(-638.72 -361.5)"/><path class="cls-2" d="M1768,2522.33c-20-26.68-39.28-53.82-58-81.37s-36.87-55.52-54.24-84-34-57.48-49.3-87.31c-7.46-15-14.91-30.06-21.53-45.56-3.61-7.61-6.43-15.6-9.41-23.53l-8.89-23.82a9.78,9.78,0,1,1,18.32-6.85l.09.24.29.88,7.85,23.13c2.63,7.72,5.09,15.49,8.38,23,6,15.27,12.81,30.24,19.68,45.21,14.12,29.8,29.74,59,46,87.79s33.5,57.17,51.31,85.15,36.17,55.66,55.22,82.75l0,0a3.59,3.59,0,0,1-5.81,4.23Z" transform="translate(-638.72 -361.5)"/><path class="cls-2" d="M1865.23,2541.61h-.39A12.23,12.23,0,0,1,1853,2529c.1-4.06.88-101.42-127.78-171.72-86.28-47.11-127.38-104.59-146.67-144.51-10.71-22-14-37.59-14.6-40.52a13.31,13.31,0,0,1-.3-2.71,12.23,12.23,0,0,1,24.19-2.54,5.12,5.12,0,0,1,.1.54h0c.1.56,2.61,14,12.61,34.57,17.74,36.72,55.79,89.7,136.38,133.71,142.52,77.86,140.65,189.25,140.51,194A12.23,12.23,0,0,1,1865.23,2541.61Z" transform="translate(-638.72 -361.5)"/><path class="cls-2" d="M2513.52,2332.6a14.67,14.67,0,0,1-13.28-8.41A1220.13,1220.13,0,0,0,2439.36,2211c-.13-.2-.24-.4-.36-.61a14.68,14.68,0,0,1,23.22-17.48,14.51,14.51,0,0,1,2.39,3.13,1249.46,1249.46,0,0,1,62.16,115.66,14.68,14.68,0,0,1-13.25,20.94Z" transform="translate(-638.72 -361.5)"/><path class="cls-6" d="M2451.85,2203.24c-102.28-168-288-378.94-573-369.3-67.12,2.28-122.92,8.37-169.26,17.15,0,0-108.13-119.42,234.42-87.59C2284,1795.11,2449.3,2197,2451.85,2203.24Z" transform="translate(-638.72 -361.5)"/><path class="cls-2" d="M2451.86,2215.47a12.23,12.23,0,0,1-10.46-5.87c-104.08-170.95-286.21-372.84-562.12-363.44-63,2.14-119.33,7.84-167.39,16.94a12.24,12.24,0,0,1-11.34-3.81c-1.26-1.39-30.72-34.5-14.54-66.85,21-41.92,105.74-55.37,259.16-41.11,142.58,13.26,277,94.14,388.83,233.9,85.41,106.78,127.43,209.11,129.17,213.41a12.22,12.22,0,0,1-5.83,15.52A12.07,12.07,0,0,1,2451.86,2215.47Zm-554-394.08c188.47,0,333.17,94,439.51,208.4q-10.66-14.54-22.43-29.28c-75-93.76-200.41-208.88-372-224.83-190.58-17.72-227.81,13.43-235,27.63-6.18,12.26,1.62,26.8,6.82,34.4,47.61-8.54,102.64-13.92,163.71-16C1885,1821.5,1891.44,1821.39,1897.83,1821.39Z" transform="translate(-638.72 -361.5)"/><path class="cls-2" d="M2451.89,2222.89a19.6,19.6,0,1,1,13.79-33.48,19.81,19.81,0,0,1,5.78,13.92A19.56,19.56,0,0,1,2451.89,2222.89Z" transform="translate(-638.72 -361.5)"/><path class="cls-2" d="M2513.51,2337.49a19.56,19.56,0,0,1-13.52-33.71l1.34-1.3a19.57,19.57,0,0,1,27.65,27.69s-.65.65-2,1.9A19.51,19.51,0,0,1,2513.51,2337.49Z" transform="translate(-638.72 -361.5)"/><path class="cls-2" d="M1500.59,2092.16c6.82-27.82,19.32-54.89,38.2-77.12s43-39.34,69-51c26-11.87,53.88-18.32,81.68-21.76a400.33,400.33,0,0,1,83.55-.52,512.33,512.33,0,0,1,159.94,42.7c50.38,22.77,98,53.53,136,95.11,18.72,20.9,35.11,44.5,46,71a197.47,197.47,0,0,1,12,41.2,178.25,178.25,0,0,1,2.47,21.36c.18,7,.79,14.05.45,21.07a336.45,336.45,0,0,1-11.72,82.84,466.44,466.44,0,0,1-28.92,77.86c-23.84,49.87-54.57,95.85-88.86,138.51s-72.19,82.3-112.42,119.28a9.78,9.78,0,0,1-13.24-14.41h0c39.41-36.48,76.54-75.52,109.92-117.45s63.1-86.73,85.85-134.77c22.43-48,37.77-99.72,38.09-152.07.3-6.54-.31-13-.48-19.55a161.29,161.29,0,0,0-2.26-19,175.53,175.53,0,0,0-10.81-36.61c-9.8-23.7-24.81-45.26-42.23-64.58-35.38-38.48-80.74-67.77-129-89.32-48.39-21.45-100.32-35.42-152.89-40.26a377.33,377.33,0,0,0-78.67.74c-25.87,3.29-51.43,9.37-74.72,20.11-23.29,10.59-44.32,25.62-60.46,44.9s-27,42.64-33,67.37l0,.13a12.09,12.09,0,1,1-23.49-5.72Z" transform="translate(-638.72 -361.5)"/><path class="cls-2" d="M1811.07,2588.5a9.77,9.77,0,0,1-7.17-16.44l115.55-124.37c73.46-74.69,105.5-179.85,81.8-268.11-15.36-57.18-51.66-96.35-102.24-110.29-134-36.92-343.65,121.79-345.75,123.39a9.78,9.78,0,0,1-11.89-15.54c8.9-6.8,219.64-166.22,362.83-126.71,56.71,15.63,99,60.86,115.94,124.08,25.46,94.83-8.51,207.36-86.55,286.7l-115.36,124.17A9.76,9.76,0,0,1,1811.07,2588.5Z" transform="translate(-638.72 -361.5)"/><path class="cls-15" d="M1881.33,2645.43c-29.88,27.42-50.21,43.11-50.21,43.11L1783,2609l28.11-30.24Z" transform="translate(-638.72 -361.5)"/><path class="cls-2" d="M1831.12,2700.77a12.26,12.26,0,0,1-10.46-5.9l-48.15-79.58a12.21,12.21,0,0,1,1.5-14.66l28.1-30.24a12.25,12.25,0,0,1,17.38-.54l70.25,66.71a12.23,12.23,0,0,1-.15,17.88c-29.91,27.45-50.15,43.13-51,43.78A12.25,12.25,0,0,1,1831.12,2700.77Zm-32.92-90.25,36.14,59.72c6.94-5.74,17-14.21,29-25l-51.74-49.12Z" transform="translate(-638.72 -361.5)"/><path class="cls-9" d="M2179.77,1117c-341.92-212.32-620.63-265.39-840.32-238.78-111.36,13.5-207.58,47.42-289.12,91.49l-.09.09c-192.13,103.77-303,263.61-339.42,343.61a115.89,115.89,0,0,0-10.51,48.24A117.68,117.68,0,0,0,756.61,1462s145.7-233.78,449.2-357.29c83.67-16.73,166.3-50.61,169.71-52l.09-.05c419.13-88.67,798.84,184.17,798.84,184.17C2227.52,1242.1,2179.77,1117,2179.77,1117Z" transform="translate(-638.72 -361.5)"/><path class="cls-2" d="M756.59,1476.64a14.63,14.63,0,0,1-7.62-2.15,132.35,132.35,0,0,1-63.33-112.8,129.86,129.86,0,0,1,11.83-54.34c36.72-80.53,150.68-244.76,345-350,.28-.18.57-.35.86-.51,91-49.16,190-80.5,294.34-93.15,256.47-31.07,542.39,50,849.82,240.88a14.73,14.73,0,0,1,6,7.24c8.47,22.19,34.34,96.93,11.41,126.91-7.26,9.49-18.54,14-31.9,12.65a14.63,14.63,0,0,1-7.1-2.68c-.93-.67-95.67-68.11-239.77-123.87-132.1-51.13-334-102.64-546.14-58.14-10.81,4.41-89.08,35.76-169.92,52.1-294.34,120.28-439.57,348.65-441,351A14.69,14.69,0,0,1,756.59,1476.64Zm301.48-494.39c-.28.18-.57.34-.86.5-188,101.53-297.79,259.47-333,336.78a100.67,100.67,0,0,0-9.18,42.16,103.14,103.14,0,0,0,37.75,79.59c35.64-51.57,180.51-241.53,447.53-350.2a15.37,15.37,0,0,1,2.66-.8c81.38-16.27,163.06-49.58,166.84-51.14a16,16,0,0,1,2.8-.89c220-46.55,428.67,6.66,564.94,59.51,132.69,51.45,222.28,111,241.68,124.41a3.15,3.15,0,0,0,2.39-1.28c8.46-11.06-.17-56.49-13.81-94-300-185.4-578-264.12-826.55-234C1240.84,905,1145.57,935.08,1058.07,982.25Z" transform="translate(-638.72 -361.5)"/><path class="cls-9" d="M1375.61,1052.6s-212.19,87.91-304.41,53.07c-90.45-34.19-23.51-132.1-21-135.83l.09-.09c81.54-44.07,177.76-78,289.12-91.49Z" transform="translate(-638.72 -361.5)"/><path class="cls-2" d="M1125.13,1128.39c-22,0-42.29-2.64-59.11-9-27.91-10.55-45.78-27.69-53.09-50.94-14.36-45.62,18.46-97.05,25.19-106.89a15.19,15.19,0,0,1,1.6-2,15.53,15.53,0,0,1,3.63-2.77c91-49.16,190-80.5,294.34-93.15a14.64,14.64,0,0,1,16.13,11.59L1390,1049.63a14.67,14.67,0,0,1-8.75,16.53C1373.89,1069.2,1229.57,1128.39,1125.13,1128.39Zm-64.6-147.46c-6.75,10.69-28.92,49.15-19.61,78.72,4.54,14.42,16.14,25,35.47,32.3,74.14,28,238-31.3,282.35-48.45l-30.89-148.94A794.6,794.6,0,0,0,1060.53,980.93Z" transform="translate(-638.72 -361.5)"/><path class="cls-5" d="M1384.89,692.7a66,66,0,0,0-57.76-43.54C1043.39,630.57,852,788.48,844,795.2a66,66,0,0,0-23.18,57.27c1,9.66,25.06,239,80.3,447.23a65.94,65.94,0,1,0,127.47-33.82c-39.81-150.08-63.14-316.65-72.2-389.47,50.14-32.89,165.38-95.39,318.9-96.86,34.88,105.79,76.41,260.78,70.63,331.34a65.94,65.94,0,1,0,131.44,10.76C1488.41,986.29,1395.51,722.36,1384.89,692.7Z" transform="translate(-638.72 -361.5)"/><path class="cls-2" d="M964.79,1363.42a80.68,80.68,0,0,1-77.87-60C831.53,1094.7,807.21,863.71,806.21,854a80.53,80.53,0,0,1,28.34-70c8.2-6.89,204.18-168.42,493.53-149.45a80.57,80.57,0,0,1,70.62,53.23h0c10.74,30,104.58,296.75,93.26,435.08-3.6,44.22-42.63,77.26-86.88,73.78a80.72,80.72,0,0,1-73.8-86.92c5.32-65-31.81-208-66.58-315.28-135.41,3.85-238.58,55.23-292.62,89.33,9.14,71.66,32.29,233.68,70.67,378.37a80.66,80.66,0,0,1-78,101.3Zm315.86-701.11c-252.54,0-419.83,137.92-427.23,144.13a51.21,51.21,0,0,0-18,44.52c1,9.63,25.08,238.4,79.89,445a51.26,51.26,0,1,0,99.1-26.28c-40.58-153-64.28-324.69-72.58-391.43a14.66,14.66,0,0,1,6.51-14.08c55.54-36.43,171.85-97.78,326.81-99.27h.14A14.67,14.67,0,0,1,1289.21,775c13.23,40.14,78.86,245,71.31,337.14a51.27,51.27,0,0,0,102.2,8.36c10.81-132.19-81.13-393.44-91.65-422.8h0a51.23,51.23,0,0,0-44.9-33.86C1310.72,662.79,1295.52,662.31,1280.65,662.31Z" transform="translate(-638.72 -361.5)"/><g class="cls-1"><path class="cls-2" d="M2145,1231.21S2091.51,1192,2002.64,1148c-243,58.69-730.57,169.8-1032.77,194.48a64.64,64.64,0,0,1-8.49.7c-43.93,3.37-83.73,4.87-118.08,4-57.92,62.58-86.4,109.18-86.4,109.18a116.28,116.28,0,0,1-41.68-45.24,119,119,0,0,1-3.17-103.28c-5.09-10.87-9.72-22.3-14-34.06,38.2-69.51,84.06-133.25,154-172.51l13.76,56.21c36.69-14,87.13-28.1,91.72-65.57a138.26,138.26,0,0,0,2.1-24.55c0-46.23-19.76-94.24-19.76-134.66,0-19.25,4.49-36.77,17.66-51.57,68.78-79.63,206.36-131.15,302.66-103a47,47,0,0,1,20.13,13c25.5,26.74,35.72,85.15,35.72,135.78,0,8.44-.27,16.73-.82,24.55,63.38-16.77,82.27-64.26,82.59-118.5.28-51.76-16.37-109.7-27.56-153.17,36.69,103.05,82.54,201.41,82.54,313.82,169.68-32.78,334.77,28.11,499.86,60.9a155,155,0,0,0-34.16-53.45c-43.25-44.36-110.29-63.65-172.2-77.7l-.37-9.75c23-.93,47-.79,71.25-1.15,105.25-1.55,179.79-104.59,151.59-208.18A833.37,833.37,0,0,0,1938,612.42a898.64,898.64,0,0,1,76.21,64.82,238.83,238.83,0,0,1,48.06,64.36c76,148.81,88,369.89,88,369.89S2197,1236.55,2145,1231.21Z" transform="translate(-638.72 -361.5)"/></g><path class="cls-4" d="M2043.12,1682.29c-24.83,156.61-233.83,340.14-572,381.34-332.37,40.52-606.31-131.64-606.31-294,0-32.74,11-64.17,31.34-93.59l-60.89-192.17,30.46-201,0,0c96.58-125.65,266.16-272.16,535.73-282.44A1259.16,1259.16,0,0,1,1531,1002l.09,0,285.58,173.34s12.14,195.54,184.94,308.46c-50,93.22,15.14,144,15.14,144,55.35-24.23,35.65-118.23,35.65-118.23,14.78-40.56,71.13-37.7,71.13-37.7,10.59,1,22,4.46,34.19,11.19C2234.39,1525.49,2208.74,1666.23,2043.12,1682.29Z" transform="translate(-638.72 -361.5)"/><g class="cls-7"><path class="cls-2" d="M2157.76,1483.11a96.1,96.1,0,0,0-19.49-8.25c29.39,58.09-12.92,152.79-147,165.78-24.83,156.62-233.83,340.15-572,381.35-192.72,23.49-365.78-24.52-477.2-100.67,104.25,99.12,303.13,169.85,529.05,142.31,338.19-41.2,547.19-224.73,572-381.34C2208.74,1666.23,2234.39,1525.49,2157.76,1483.11Z" transform="translate(-638.72 -361.5)"/></g><path class="cls-2" d="M1479.33,1862.05c-22.1,62.89-97.63,76.53-110.54,17.41s-73.54-119.19-73.54-119.19v0c98.59,1.68,153.3-64.39,153.3-64.39,10.64,7.82,24.87,15,43.65,19C1492.2,1714.8,1501.43,1799.15,1479.33,1862.05Z" transform="translate(-638.72 -361.5)"/><path class="cls-16" d="M1479.33,1862.05c-22.1,62.89-97.63,76.53-110.54,17.41-.55-2.54-1.19-5.14-2-7.68,30.69-106.91,127.24-121.15,127.24-121.15C1494.48,1781,1492.29,1825.17,1479.33,1862.05Z" transform="translate(-638.72 -361.5)"/><g class="cls-7"><path class="cls-2" d="M1494.07,1750.63s-57.06,8.47-97.39,61l1-.83c28.76-22.74,70.4,2.39,64.5,38.58a238.78,238.78,0,0,1-10,40.42,94.91,94.91,0,0,1-8.4,17.78c14.89-9.16,28.16-24.58,35.5-45.49C1492.29,1825.17,1494.48,1781,1494.07,1750.63Z" transform="translate(-638.72 -361.5)"/></g><path class="cls-14" d="M1479.33,1862.05c-22.1,62.89-97.63,76.53-110.54,17.41-.55-2.54-1.19-5.09-2-7.64v0c30.69-106.91,127.24-121.15,127.24-121.15C1494.48,1781,1492.29,1825.17,1479.33,1862.05Z" transform="translate(-638.72 -361.5)"/><path class="cls-12" d="M896.12,1676,760.2,1464.15s31-84.5,105.45-181.4l.05,0-30.46,201Z" transform="translate(-638.72 -361.5)"/><path class="cls-2" d="M896.13,1690.69a14.66,14.66,0,0,1-12.35-6.76L747.85,1472.07a14.65,14.65,0,0,1-1.42-13c1.3-3.53,32.65-87.72,107.59-185.28A14.71,14.71,0,0,1,880.21,1285l-30,197.67,59.86,188.92a14.66,14.66,0,0,1-7.76,17.71A14.46,14.46,0,0,1,896.13,1690.69ZM776.62,1462.56l72.08,112.36-27.45-86.65a14.6,14.6,0,0,1-.52-6.63L842,1341.37C804.37,1398.65,783.55,1445.72,776.62,1462.56Z" transform="translate(-638.72 -361.5)"/><path class="cls-12" d="M2174.45,1236.77s-11.73,120.83-50.88,235.15c0,0-56.35-2.86-71.13,37.7l-50.79-25.78c-172.8-112.92-184.94-308.46-184.94-308.46L1531.13,1002C1931.8,1027.73,2174.45,1236.77,2174.45,1236.77Z" transform="translate(-638.72 -361.5)"/><path class="cls-2" d="M2052.44,1524.29a14.62,14.62,0,0,1-6.64-1.59L1995,1496.92a14.72,14.72,0,0,1-1.39-.8c-159.3-104.09-186.62-273.31-190.86-312l-279.24-169.51a14.67,14.67,0,0,1,8.55-27.19c400.94,25.71,649.5,236.14,652,238.27a14.68,14.68,0,0,1,5,12.53c-.49,5-12.35,123.86-51.61,238.49a14.43,14.43,0,0,1-14.63,9.9c-.4,0-45.75-1.69-56.59,28.07a14.66,14.66,0,0,1-13.79,9.64ZM2009,1471.12l37.15,18.86c17.58-25.45,49.65-31.25,66.77-32.47,30.18-92,42.85-187.09,46.06-214.41-36.91-29.26-244.69-183.44-566.17-220.78l231.5,140.52a14.69,14.69,0,0,1,7,11.63C1831.47,1176.34,1845.34,1363.7,2009,1471.12Z" transform="translate(-638.72 -361.5)"/><path class="cls-2" d="M1370.87,2084.47c-194.73,0-346-69.89-428.84-143.22-59.27-52.48-91.91-113.44-91.91-171.65,0-32.88,10-65.1,29.89-95.88l-58.76-185.45a14.6,14.6,0,0,1-.52-6.63l30.32-200a14.44,14.44,0,0,1,3-7.79c96.58-125.63,269.85-277.6,546.81-288.16a1280.8,1280.8,0,0,1,131.15,1.7,14.48,14.48,0,0,1,5.62,1.52c.35.18.8.42,1.14.62l285.58,173.35a14.69,14.69,0,0,1,7,11.64c.12,1.86,14,189.72,178.33,297.07a14.69,14.69,0,0,1,4.9,19.23c-34,63.46-8.87,103.71,4.48,118.84,32.94-25.11,19.18-96.22,19-97a14.65,14.65,0,0,1,.58-8c18.27-50.17,82.87-47.49,85.65-47.33l.7,0c13.31,1.31,26.73,5.67,39.87,13,37.39,20.68,55.64,62.57,46.49,106.72-10.23,49.37-56.57,105.45-155.79,118.62-16.93,81-79.14,165.09-172.36,232.51-108.86,78.73-250.75,130.63-410.34,150.07A843.85,843.85,0,0,1,1370.87,2084.47ZM850.25,1482.66l59.86,188.92a14.63,14.63,0,0,1-1.92,12.77c-19.05,27.59-28.72,56.27-28.72,85.25,0,49.69,29.12,102.84,82,149.68,115.59,102.36,315,153.29,507.84,129.79C1801,2008.66,2005,1828.75,2028.63,1680a14.67,14.67,0,0,1,13.07-12.31c91-8.82,132.46-55.7,140.94-96.63,6.58-31.78-5.67-60.55-32-75.1a74.27,74.27,0,0,0-28.11-9.38c-3.65-.1-42.53-.44-54.89,24.71,3.49,21,13.38,104.45-45,130a14.68,14.68,0,0,1-14.91-1.86c-.72-.57-68.62-55.06-25-150.62-149.72-104.53-175.9-266.89-180-304.72l-276.23-167.68c-41.34-2.55-83.24-3-124.58-1.44-263.34,10-429.08,153.61-522.29,273.65Z" transform="translate(-638.72 -361.5)"/><path class="cls-12" d="M2016.79,1627.85s-65.16-50.79-15.14-144l50.79,25.78S2072.14,1603.62,2016.79,1627.85Z" transform="translate(-638.72 -361.5)"/><path class="cls-2" d="M2016.79,1642.53a14.71,14.71,0,0,1-9-3.1c-.75-.59-74.28-59.6-19-162.53a14.68,14.68,0,0,1,19.57-6.15l50.79,25.79a14.65,14.65,0,0,1,7.72,10.07c.91,4.32,21.39,106-44.12,134.68A14.66,14.66,0,0,1,2016.79,1642.53Zm-8.48-138.86c-24.34,56.07-1.64,91.9,10.77,106,27.28-20.62,22.76-71.85,20.11-90.29Z" transform="translate(-638.72 -361.5)"/><path class="cls-2" d="M1531.08,1021.6a19.39,19.39,0,0,1-8.7-2.06l-.09,0a19.5,19.5,0,1,1,8.79,2.11Z" transform="translate(-638.72 -361.5)"/><path class="cls-2" d="M1516.8,1303.33c-30.07,0-100.71,10.6-142.43,102.45a4.77,4.77,0,0,1-8.21.81l-42.41-58.45a4.8,4.8,0,0,1,5.4-7.36l14.54,4.85a4.8,4.8,0,0,0,6.23-5.41l-4.18-23a4.72,4.72,0,0,1,1.29-4.2c12.3-12.42,88.64-83.16,172.68-18.35A4.8,4.8,0,0,1,1516.8,1303.33Z" transform="translate(-638.72 -361.5)"/><path class="cls-2" d="M1279.68,1336.24l14.44,23.8c4.7,7.9,9.57,15.57,14.64,22.87a229.82,229.82,0,0,0,15.76,20.52,127.85,127.85,0,0,0,17.07,17.27l1,.82a7.19,7.19,0,0,1,1.06,10.12,7.29,7.29,0,0,1-6.4,2.63,70.67,70.67,0,0,1-8.48-1.57,58.35,58.35,0,0,1-7.8-3.25c-2.72-1.11-4.72-2.8-7.07-4.31-1.1-.8-2.29-1.56-3.33-2.41l-3-2.67c-8-7.17-13.92-15.69-19-24.37a169.54,169.54,0,0,1-12.69-27,148.17,148.17,0,0,1-7.48-28.66,6,6,0,0,1,11.13-4Z" transform="translate(-638.72 -361.5)"/><path class="cls-2" d="M1411.72,1927c-1.14,0-2.27,0-3.38-.11-24.88-1.52-43.24-18.49-49.11-45.36-12.1-55.54-70.27-113.75-70.86-114.33a9.79,9.79,0,0,1,0-13.94,9,9,0,0,1,7-2.83c92.27,1.45,145.08-60.25,145.6-60.87a9.79,9.79,0,0,1,13.32-1.62c11.15,8.19,24.58,14,39.9,17.27a9.77,9.77,0,0,1,7.68,8.51c.4,3.53,9.22,87.3-13.36,151.55C1474.12,1906.38,1439.67,1927,1411.72,1927Zm-94.8-157.69c19.41,22.36,52,65,61.43,108.05,4,18.36,15.08,29,31.19,30,21.23,1.28,48.75-15,60.56-48.59,17.55-49.92,14.52-115.15,13-136.13a122.51,122.51,0,0,1-33-14.05C1434.31,1724.47,1388.72,1763.57,1316.92,1769.33Z" transform="translate(-638.72 -361.5)"/><path class="cls-2" d="M1494.23,1705.23a158.82,158.82,0,0,0,38.12,8.33h0a4.51,4.51,0,0,1,.26,8.94,173.58,173.58,0,0,1-42.46,1.87H1490a9.88,9.88,0,0,1,1.69-19.69A10.57,10.57,0,0,1,1494.23,1705.23Z" transform="translate(-638.72 -361.5)"/><path class="cls-2" d="M1442.75,1703.72a103.77,103.77,0,0,1-16.57-19.59,90.76,90.76,0,0,1-6.13-11.08,69.5,69.5,0,0,1-4.4-12,4.14,4.14,0,0,1,7.65-3l.21.39a62,62,0,0,0,6,8.91,78.72,78.72,0,0,0,7.42,8,87,87,0,0,0,17.38,12.63,9.86,9.86,0,0,1-9.56,17.25,9.24,9.24,0,0,1-1.89-1.35Z" transform="translate(-638.72 -361.5)"/><path class="cls-2" d="M1295.26,1770h-.14c-7-.1-14.22-.54-21.35-1.33a9.78,9.78,0,1,1,2.13-19.45c6.52.72,13.08,1.13,19.49,1.22a9.78,9.78,0,0,1-.13,19.56Z" transform="translate(-638.72 -361.5)"/><path class="cls-5" d="M2208.56,2385a781.43,781.43,0,0,1-124.87,18.87c78.67-124.32,0-374.34,0-374.34,22.6-3,44.2-6.55,63.48-10.6C2147.17,2018.93,2283.59,2114.43,2208.56,2385Z" transform="translate(-638.72 -361.5)"/><path class="cls-9" d="M2083.69,2403.87c-52.8,3.5-112.33,1-157.07-18.87-214.87-12.69-231.92-186.44-231.92-186.44S1718,2070.23,1839.4,2048c0,0,133.78-3.59,244.29-18.46C2083.69,2029.53,2162.36,2279.55,2083.69,2403.87Z" transform="translate(-638.72 -361.5)"/><g class="cls-11"><path class="cls-5" d="M1828.73,2097.64s144.57-3.42,268.32-17.35c-7.17-31.07-13.36-50.76-13.36-50.76C1973.18,2044.4,1839.4,2048,1839.4,2048c-84.48,15.48-121.43,82.32-136.11,121.54C1728.07,2138.33,1767.37,2107.52,1828.73,2097.64Z" transform="translate(-638.72 -361.5)"/></g><g class="cls-7"><path class="cls-2" d="M1930.64,2386.3l.07.39c44.25,18.28,101.76,20.58,153,17.18,14.06-22.23,23-48.51,28.41-76.63-43.64,28-98.42,27.17-150.56,23.67C1942.11,2349.61,1927,2367.16,1930.64,2386.3Z" transform="translate(-638.72 -361.5)"/></g><path class="cls-2" d="M2155.58,2006.91c2.52,1.81,4,3.16,5.87,4.7s3.35,3.06,5,4.58c3.39,3,6.26,6.32,9.33,9.52s5.69,6.67,8.52,10c1.38,1.7,2.8,3.37,4.12,5.1l3.75,5.33c10.34,14,18.34,29.42,25.59,45,14.07,31.46,21.75,65.13,25.39,98.76.69,8.43,1.73,16.87,2.1,25.3l.1,25.29c-.06,4.21.17,8.45-.12,12.64l-1,12.55-2,25.1c-2.3,16.56-5.13,33-7.89,49.52l-11.65,48.58a13.84,13.84,0,0,1-10.14,10.21l-.4.09h0c-23.88,6.94-47.48,11.3-71.63,14.71a549.71,549.71,0,0,1-72.84,5.41c-24.44,0-49-1.12-73.28-5.81s-48.27-11.88-69.62-24.41a4.55,4.55,0,0,1,3.51-8.3l.16,0c22.62,6.25,45.52,9.06,68.58,10.37,5.8.1,11.57.42,17.33.63,5.8,0,11.61-.27,17.39-.23s11.59-.35,17.39-.61,11.59-.48,17.4-1c23.2-1.5,46.38-4.52,69.51-7.74s46.42-7.29,68.9-11.5h0l-10.54,10.3,11.16-46.57c2.61-15.67,5.31-31.37,7.51-47.08l1.9-23.66,1-11.83c.28-4,0-7.88.09-11.82l-.07-23.63c-.35-7.84-1.34-15.62-2-23.44-3.36-31.07-10.41-61.76-23-89.93-6.49-13.92-13.59-27.65-22.66-39.89l-3.26-4.68-3.58-4.41c-2.44-2.86-4.66-6-7.31-8.6s-5-5.57-7.78-8c-1.34-1.21-2.66-2.59-4-3.66s-2.84-2.41-3.65-3l-.25-.17a14.67,14.67,0,0,1,17-23.91Z" transform="translate(-638.72 -361.5)"/><path class="cls-2" d="M1690.24,2197.75c2.39-19.21,8-37.31,15.48-55,7.71-17.54,17.57-34.45,30.23-49.46a174.26,174.26,0,0,1,45-38.47c17.21-10.22,36.34-17.06,55.8-21.22a9.28,9.28,0,0,1,1.56-.21l.69,0c25.48-1.13,51.21-2.79,76.78-4.53s51.19-3.67,76.72-5.78c25.5-2.29,51-4.5,76.34-7.51,25.36-2.7,50.56-6.3,75.42-10.48l.14,0a14.22,14.22,0,0,1,5.7,27.84c-25.68,6.21-51.54,10.15-77.33,14-25.83,3.56-51.69,6.17-77.56,8.37s-51.75,3.68-77.63,5.05c-25.92,1.19-51.72,2-77.79,2.42l2.25-.24a159.48,159.48,0,0,0-89.32,46,206.34,206.34,0,0,0-31.75,41.94,243.25,243.25,0,0,0-21.81,49l-.09.3a4.53,4.53,0,0,1-8.82-1.92Z" transform="translate(-638.72 -361.5)"/><path class="cls-4" d="M2586.75,1909.79c18.19-56.08-52.19-72.74-52.19-72.74h0c-.6-45.62-63.73-38.26-73.61-36.4-12.13,2.27-28,41.68-28,41.68s-50-9.09-78.82,15.16-11.37,124.29-11.37,124.29c-54.57,42.45-167.23,66.21-167.23,66.21s83.85,130.12,46.45,279.54l-5.25,25.3c179.78-64,305.65-205.06,305.65-205.06,58.36-17.44,91.71-65.18,114.44-144S2586.75,1909.79,2586.75,1909.79Z" transform="translate(-638.72 -361.5)"/><path class="cls-2" d="M2172.45,2033.64c14.06-3.09,28.61-6.94,42.75-11s28.29-8.62,42.06-13.73,27.39-10.54,40.29-17,25.32-13.46,36.15-21.71l-5.45,14.1a427.3,427.3,0,0,1-5.31-54.55c-.32-18.41-.14-37,5.68-57a67.64,67.64,0,0,1,6.73-15.35,49.58,49.58,0,0,1,5.69-7.64c1.21-1.2,2.47-2.44,3.7-3.53l3.32-2.5a84.66,84.66,0,0,1,28.69-13.47,128,128,0,0,1,29.41-4.12c4.87-.19,9.68-.06,14.5.19a144.63,144.63,0,0,1,14.86,1.62l-16.23,8.94h0a229.74,229.74,0,0,1,11-22.64c2.06-3.71,4.41-7.46,7-11.25,2.86-3.82,5.57-7.72,11.27-12a22.52,22.52,0,0,1,5.69-3.14,37.26,37.26,0,0,1,3.85-1.22l2-.34c2.31-.35,4.48-.61,6.66-.82,4.34-.41,8.65-.62,13-.64a110.87,110.87,0,0,1,26.68,2.85c9,2.2,18.71,6,27.05,13.51,8.56,7.29,13.77,18.88,15,29.21s-.29,19.93-2.48,28.64a167.59,167.59,0,0,1-8.81,24.44,14.68,14.68,0,0,1-26.93-11.68,1.42,1.42,0,0,0,.08-.18l.25-.53c2.95-6.48,5.82-13,7.51-19.42s2.49-12.61,1.93-17.73c-.74-5.06-2.31-8.69-5.66-11.67s-8.51-5.41-14.59-6.81a82.64,82.64,0,0,0-19.82-1.94c-3.45,0-7,.21-10.38.56-1.71.17-3.41.39-5,.63l-.94.17a2.63,2.63,0,0,0,1.1-.21c.93-.56.56-.2.63-.27a30.11,30.11,0,0,0-4.42,5.2,96.93,96.93,0,0,0-5.26,8.71,203,203,0,0,0-9.19,19.6h0a14.8,14.8,0,0,1-16.06,9l-.17,0c-3.17-.52-7.51-1-11.34-1.19s-7.94-.32-11.87-.16a99.45,99.45,0,0,0-22.7,3.13,55.33,55.33,0,0,0-18.78,8.68l-2,1.43a14.51,14.51,0,0,1-1.06,1,19.86,19.86,0,0,0-2.13,2.94,38.65,38.65,0,0,0-3.76,8.75c-4.13,13.82-4.8,30.9-4.37,47.52a399.92,399.92,0,0,0,4.88,50.36l.05.33a14.44,14.44,0,0,1-5.5,13.78c-13.2,10.06-27.15,17.88-41.26,24.89s-28.58,12.73-43.09,18.16-29.21,10-44,14.36-29.46,8.17-44.88,11.57a14.67,14.67,0,1,1-6.3-28.66h0Z" transform="translate(-638.72 -361.5)"/><path class="cls-2" d="M2446.33,1848.26c-4.16,7-8.33,14.77-12.29,22.34s-7.85,15.33-11.56,23.13q-11.2,23.37-20.63,47.72a2.39,2.39,0,0,1-4.6-1.16q3.52-26.08,9.09-52,2.76-13,6-25.87c2.19-8.66,4.41-17.08,7.12-26a14.78,14.78,0,1,1,28.26,8.64A16.15,16.15,0,0,1,2446.33,1848.26Z" transform="translate(-638.72 -361.5)"/><path class="cls-2" d="M2216.68,2367.52a14.68,14.68,0,0,1-4.93-28.5c174-61.92,298.4-199.63,299.63-201a14.7,14.7,0,0,1,6.75-4.29c50.54-15.1,81.81-55.18,104.55-134,5.88-20.41,5-37.32-2.76-50.28-11.73-19.71-36-25.23-36.23-25.29a14.72,14.72,0,0,1-10.89-18.87c3.45-10.66,3-19.68-1.41-27.56-8.81-15.77-32-24.4-40.26-26.39a14.68,14.68,0,0,1,6.81-28.55c1.7.4,42,10.24,59,40.48a58.43,58.43,0,0,1,7,36.85c12.27,5.14,29.73,15.29,41,34,12.21,20.27,14.21,45.08,5.93,73.76-24.94,86.49-62.17,133.82-120.38,152.76-20,21.64-140.18,146-308.89,206.06A14.41,14.41,0,0,1,2216.68,2367.52Z" transform="translate(-638.72 -361.5)"/><path class="cls-2" d="M2083.68,2418.54a14.67,14.67,0,0,1-12.39-22.52c74.09-117.09-.84-359.66-1.6-362.09a14.67,14.67,0,0,1,12-19c23.78-3.2,44.79-6.7,62.44-10.41a14.66,14.66,0,0,1,11.42,2.34c5.92,4.14,144,104.63,67.12,382a14.69,14.69,0,0,1-10.55,10.31,790.92,790.92,0,0,1-127.49,19.28Zm18.84-376.87c15.2,54.93,57.31,231.43,6.75,345.27a801.83,801.83,0,0,0,87.42-14.24c59-223.08-31.48-318.77-53.36-338C2131,2037.12,2117.37,2039.46,2102.52,2041.67Zm106,343.33h0Z" transform="translate(-638.72 -361.5)"/><path class="cls-13" d="M1927.4,2617.2a17.22,17.22,0,0,1-10.51-3.55l-91-69.34a17.43,17.43,0,0,1-2.76-24.91l65.38-77.88a17.51,17.51,0,0,1,12.07-6.17c.4,0,.79,0,1.18,0a17.56,17.56,0,0,1,11.67,4.46l90.92,81.83a17.65,17.65,0,0,1,5.73,12.45,17.27,17.27,0,0,1-5.07,12.69l-65.39,65.4A17.23,17.23,0,0,1,1927.4,2617.2Zm-23.46-134.31a12.23,12.23,0,0,0-8.51,4.34l-25.78,30.7a12.22,12.22,0,0,0,1.95,17.58l45.79,34.92a12.22,12.22,0,0,0,16.07-1.08l25.06-25.1a12.22,12.22,0,0,0-.48-17.73L1913,2486a12.2,12.2,0,0,0-8.17-3.13Z" transform="translate(-638.72 -361.5)"/><path class="cls-2" d="M1901.81,2447.54a5.24,5.24,0,0,1,3.45,1.29l90.86,81.77a5.36,5.36,0,0,1,1.78,3.64,5.16,5.16,0,0,1-1.49,3.86L1931,2603.5a5.05,5.05,0,0,1-3.62,1.47,5.12,5.12,0,0,1-3.09-1l-90.91-69.31a5.18,5.18,0,0,1-2-3.57,5,5,0,0,1,1.16-3.82l65.3-77.79a5.2,5.2,0,0,1,3.59-1.89h.34m23,137.63a24.41,24.41,0,0,0,17.31-7.18l25.06-25.1a24.46,24.46,0,0,0-1-35.46l-45.07-40.52a24.48,24.48,0,0,0-16.35-6.27q-.85,0-1.71.06a24.46,24.46,0,0,0-17,8.66l-25.78,30.7a24.45,24.45,0,0,0,3.9,35.17l45.79,34.93a24.36,24.36,0,0,0,14.82,5m-23-162.08q-1,0-2,.06a29.67,29.67,0,0,0-20.61,10.51l-65.34,77.85a29.62,29.62,0,0,0,4.68,42.52l91,69.35a29.63,29.63,0,0,0,38.84-2.6l65.39-65.39a29.57,29.57,0,0,0-1.14-42.88l-91-81.85a29.75,29.75,0,0,0-19.81-7.57Zm23,137.62-45.8-34.92,25.79-30.7,45.06,40.52-25,25.1Z" transform="translate(-638.72 -361.5)"/><polygon class="cls-6" points="1311.15 2174.11 1286.09 2199.21 1240.3 2164.29 1266.08 2133.59 1311.15 2174.11"/><path class="cls-13" d="M1626.92,2486.83c-22.26-44-45.36-87.68-64.48-133.09-21.06-50-36.86-102-52.91-153.76-5.89-19-11.71-38.06-18.65-56.73-3.9-10.51-9.45-36.17-26.55-29.13-14.76,6.07-8.88,36.18-8,48.42,1.47,19.59,4.78,39,8.55,58.25,7.87,40.23,19.74,79.46,32.58,118.37,12.7,38.5,26.62,77,44.53,113.49,9.53,19.41,20.86,43.8,35.73,60,6.51,7.09,17.57,1.48,25.26-2.55C1606.6,2508.23,1629.53,2494.35,1626.92,2486.83Z" transform="translate(-638.72 -361.5)"/><path class="cls-2" d="M1585.57,2525.86a19.54,19.54,0,0,1-15-6.59c-14.68-16-26-39.14-35.07-57.73l-2.24-4.58c-19.29-39.27-33.59-80-45-114.73-11.53-34.93-24.46-76.45-32.89-119.55-3.41-17.42-7.11-38.1-8.71-59.4-.12-1.66-.34-3.65-.59-5.88-1.82-16.58-4.87-44.32,14.59-52.33,7.88-3.25,14.16-1.81,18,0,11.66,5.35,16.42,19.8,19.91,30.35.54,1.66,1,3.17,1.51,4.45,6.58,17.69,12.21,35.89,17.66,53.49l3.41,11c15,48.35,30.45,98.34,50.34,145.6,15.81,37.57,34.75,74.71,53.07,110.63q5.57,10.92,11.11,21.84a9,9,0,0,1,.51,1.2c5.65,16.23-22.82,32.14-28.59,35.16C1602.5,2521.43,1594.05,2525.86,1585.57,2525.86ZM1469.88,2122.7a5.09,5.09,0,0,0-1.83.46c-3.87,1.6-4.75,12.4-2.58,32.1.27,2.48.51,4.71.65,6.55,1.53,20.29,5.1,40.25,8.4,57.11,8.22,42,20.93,82.82,32.27,117.18,11.24,34.06,25.26,74,44,112.24l2.26,4.61c9,18.37,19.14,39.19,31.9,53.1.36.38,2.42,1.21,13.5-4.6,4.79-2.51,14.67-9.39,18.1-13.39q-4.72-9.32-9.47-18.6c-18.48-36.23-37.58-73.7-53.67-111.93-20.27-48.15-35.89-98.6-51-147.4l-3.41-11c-5.37-17.35-10.92-35.28-17.31-52.47-.54-1.47-1.12-3.21-1.75-5.13-1.67-5.06-5.58-16.91-9.5-18.7A1.2,1.2,0,0,0,1469.88,2122.7Z" transform="translate(-638.72 -361.5)"/><path class="cls-2" d="M1498.09,2171.14a7.23,7.23,0,0,1-1.72-.21l-42.64-10.24a7.34,7.34,0,0,1,3.43-14.27l42.64,10.24a7.34,7.34,0,0,1-1.71,14.48Z" transform="translate(-638.72 -361.5)"/><path class="cls-2" d="M1514.92,2224.7a7.55,7.55,0,0,1-1.87-.24l-53.24-14a7.34,7.34,0,1,1,3.74-14.19l53.24,14a7.34,7.34,0,0,1-1.87,14.43Z" transform="translate(-638.72 -361.5)"/><path class="cls-2" d="M1530.64,2274.34a7.39,7.39,0,0,1-2.31-.37l-60-19.92a7.34,7.34,0,1,1,4.61-13.93l60,19.92a7.33,7.33,0,0,1-2.3,14.3Z" transform="translate(-638.72 -361.5)"/><path class="cls-2" d="M1550,2329.87a7.35,7.35,0,0,1-2-.29l-63.75-18.52a7.34,7.34,0,1,1,4.1-14.09l63.75,18.52a7.34,7.34,0,0,1-2,14.38Z" transform="translate(-638.72 -361.5)"/><path class="cls-2" d="M1576.59,2393a7.33,7.33,0,0,1-2.11-.31L1504,2371.53a7.33,7.33,0,1,1,4.21-14.05l70.52,21.14a7.34,7.34,0,0,1-2.11,14.37Z" transform="translate(-638.72 -361.5)"/><path class="cls-2" d="M1601.24,2443.62a6.59,6.59,0,0,1-1-.07l-71.14-9.53a7.34,7.34,0,1,1,2-14.54l71.14,9.53a7.34,7.34,0,0,1-1,14.61Z" transform="translate(-638.72 -361.5)"/><path class="cls-2" d="M1622.58,2485.62h-.46l-70-4.4a7.34,7.34,0,0,1-6.87-7.78,7.23,7.23,0,0,1,7.78-6.87l70,4.4a7.34,7.34,0,0,1-.46,14.66Z" transform="translate(-638.72 -361.5)"/><path class="cls-6" d="M1660.2,2718.67l-60.71-89.25s80.43,17.63,138.41-38.36c0,0,17.62,67.35,35.81,102,0,0-10.23,58-96.06,41.49" transform="translate(-638.72 -361.5)"/><path class="cls-2" d="M1677.65,2734.58c.11-.6,3.1-.75,8.52-.52a175.32,175.32,0,0,0,23.19,0,81.49,81.49,0,0,0,33.35-9.09,57,57,0,0,0,15.71-13.16l3.18-4.44c.88-1.62,1.94-3.15,2.72-4.86a44,44,0,0,0,3.72-10.38l.57,3.67c-7.81-14.62-14.18-30.86-20.29-48.13s-11.7-35.6-16.91-54.88l11.15,3.13c-4.25,3.64-8.38,7.52-12.88,11a153.23,153.23,0,0,1-67.11,28.61,177.8,177.8,0,0,1-33.35,2.61,164.36,164.36,0,0,1-30.93-3.21l5.84-8.63c35.59,54.46,58,91.08,56.07,92.4s-27.77-33-65.35-86.09a5.57,5.57,0,0,1,5.4-8.71l.44.07a175.66,175.66,0,0,0,59.59-1.1,145.16,145.16,0,0,0,61.24-26.64c4.08-3.17,7.82-6.7,11.72-10l.34-.29a6.72,6.72,0,0,1,9.47.83,6.83,6.83,0,0,1,1.34,2.59c5,18.83,10.46,37.07,16.06,54.14s11.54,33.06,18.36,46.91l.21.43a4.85,4.85,0,0,1,.36,3.25,52.63,52.63,0,0,1-5.26,13.49c-1,2-2.39,3.88-3.56,5.78-1.33,1.79-2.73,3.5-4.07,5.2a65,65,0,0,1-19.42,14.71,76,76,0,0,1-20.06,6.23c-3.19.39-6.23.95-9.14,1.12l-8.31.1c-10.47-.35-18.54-1.66-23.89-3.17S1677.53,2735.18,1677.65,2734.58Z" transform="translate(-638.72 -361.5)"/><path class="cls-17" d="M1863.09,1837.05" transform="translate(-638.72 -361.5)"/><path class="cls-5" d="M2104.51,3584.38s-137.74,93.59-395.4-51.93a592.62,592.62,0,0,1,8.51-59.84s209.45,137.33,391.12,58.43C2113.29,3559.46,2104.51,3584.38,2104.51,3584.38Z" transform="translate(-638.72 -361.5)"/><path class="cls-2" d="M1977.08,3629c-67.59,0-159.76-18.56-275.18-83.74a14.65,14.65,0,0,1-7.42-13.87,604,604,0,0,1,8.72-61.49,14.68,14.68,0,0,1,22.45-9.54c2,1.33,205.13,132,377.25,57.26a14.66,14.66,0,0,1,20.33,11.13c5.08,31.74-4.47,59.38-4.88,60.54a14.64,14.64,0,0,1-5.59,7.26C2109.43,3598.78,2063.24,3629,1977.08,3629Zm-252.44-104.66c216,118.77,343.09,63.32,367.41,50.35a113.36,113.36,0,0,0,3.23-22.56c-151.41,53.7-312.54-25-366.87-55.88C1726.55,3508.05,1725.36,3517.76,1724.64,3524.31Zm379.87,60.07h0Zm0,0h0Z" transform="translate(-638.72 -361.5)"/><path class="cls-2" d="M1360,2163.46c-.25,16.82.5,34.53,1.78,51.84s3.23,34.8,5.79,52.12,5.73,34.59,9.7,51.7c3.76,17.18,8.81,34,14.16,50.87a.62.62,0,0,1-1.15.46c-7.16-16.16-14.1-32.53-19.77-49.37q-8.84-25.17-15.53-51.09c-4.52-17.25-8.46-34.68-11.7-52.28s-6-35.13-7.72-53.57a12.25,12.25,0,1,1,24.39-2.32c0,.45.06.89.06,1.33Z" transform="translate(-638.72 -361.5)"/><path class="cls-2" d="M1504.65,2748.39c2,2.76,9,11,13.5,7.3s-.74-12.23-2.61-14.77c-13-19.08-21.78-37.91-29-54.52s-12.67-31.46-17.14-44.3c-8.91-25.7-14.19-43.57-18-55.69s-5.91-18.59-7.24-22-1.79-3.73-1.79-3.73-.35.45-.25,4.06.64,10.39,2.81,23a502.84,502.84,0,0,0,13.8,57.56,474.31,474.31,0,0,0,16.11,45.85C1481.94,2708.42,1490.75,2728,1504.65,2748.39Z" transform="translate(-638.72 -361.5)"/><path class="cls-2" d="M1100.83,1027.24c15.07,0,15.1-23.42,0-23.42s-15.09,23.42,0,23.42Z" transform="translate(-638.72 -361.5)"/><path class="cls-2" d="M1171.09,996.8c15.07,0,15.1-23.42,0-23.42s-15.09,23.42,0,23.42Z" transform="translate(-638.72 -361.5)"/><path class="cls-2" d="M1244.86,979.23c15.07,0,15.1-23.42,0-23.42s-15.09,23.42,0,23.42Z" transform="translate(-638.72 -361.5)"/><g class="cls-7"><path class="cls-2" d="M2966.68,2775c-38.55-5.06-73.5-8.34-105.06-10.12-24.5-1.4-46.94-1.92-67.55-1.73-69,.61-117.14,9.18-150.16,19.3,14.47-57.33,20.7-117.66,20.14-177.8,74.44-15.5,151.06-15.81,222,12.13,26.67,10.49,55.79-9.27,56-37.93v-.62c0-30.91-3.37-62.16-11.85-91.95,12.55,5.91,19.62,9.89,19.62,9.89S3015.76,2609.61,2966.68,2775Z" transform="translate(-638.72 -361.5)"/></g><g class="cls-7"><path class="cls-2" d="M3027.1,2427.74c.33-.84.67-1.73,1-2.6-8.39-17.56-23.52-31-39.94-38.46-1.58,16.65-10.93,31.79-31.32,41.06a51.42,51.42,0,0,1-36.7-1c3.09,22.8,19.73,46.89,35.4,65.07l-5.71,4.33s2.27,3.91,5.64,11.3C2975.93,2481.89,3007.75,2459.18,3027.1,2427.74Z" transform="translate(-638.72 -361.5)"/></g><g class="cls-7"><path class="cls-2" d="M3083.52,2437.1c0,78.29-52.34,97.71-102.34,134.78,10.61,49.12,15.22,119.46-9.62,203.13,0,0,21.16,15.22,62.85,21.07,19,2.71,42.15,3.46,69.48,0a352,352,0,0,0,54.72-11.6s37.69-239,6.88-371.05C3126.57,2402.36,3083.52,2396.77,3083.52,2437.1Z" transform="translate(-638.72 -361.5)"/></g><g class="cls-7"><path class="cls-2" d="M2650.33,1689.24c-20.27-29.48-36.44-41.67-41.84-45.23a1.32,1.32,0,0,1,.11-2.28c20.77-10.75,51.3-14,80.38-13.88" transform="translate(-638.72 -361.5)"/></g><g class="cls-7"><path class="cls-2" d="M2451.89,2203.33a.14.14,0,0,0,0-.09" transform="translate(-638.72 -361.5)"/></g><g class="cls-7"><path class="cls-2" d="M2515.15,2316.33s-.55.55-1.64,1.6" transform="translate(-638.72 -361.5)"/></g><g class="cls-1"><path class="cls-2" d="M896.12,1680.13,760.2,1468.26s31-84.49,105.45-181.39l.05,0-30.46,201Z" transform="translate(-638.72 -361.5)"/><path class="cls-2" d="M896.12,1680.13,760.2,1468.26s31-84.49,105.45-181.39l.05,0-30.46,201Z" transform="translate(-638.72 -361.5)"/></g><g class="cls-1"><path class="cls-2" d="M2118.68,1468.28c39.15-114.32,50.88-235.15,50.88-235.15s-242.65-209.05-643.32-234.74l21.19,12.86q-7.4-5.47-14.71-11.08,7.3,5.61,14.71,11.08l162.25,98.49c95.83,45.6,199.56,73.11,310.17,73.11-46.84,9.37-89,28.1-140.52,23.42,33.54,110.69,98.33,211.75,192.6,272.26C2093.13,1467,2118.68,1468.28,2118.68,1468.28Z" transform="translate(-638.72 -361.5)"/></g><g class="cls-1"><path class="cls-2" d="M2016.79,1627.57s-65.16-50.8-15.14-144l50.79,25.79S2072.14,1603.33,2016.79,1627.57Z" transform="translate(-638.72 -361.5)"/><path class="cls-2" d="M2016.79,1627.57s-65.16-50.8-15.14-144l50.79,25.79S2072.14,1603.33,2016.79,1627.57Z" transform="translate(-638.72 -361.5)"/></g><g class="cls-7"><line class="cls-2" x1="892.41" y1="640.54" x2="892.32" y2="640.49"/></g><g class="cls-7"><path class="cls-2" d="M1274.06,1338.15s26.15,76.83,65.37,89.33" transform="translate(-638.72 -361.5)"/></g><g class="cls-7"><path class="cls-2" d="M2607.58,1918.19c-4.27,59.64-21.88,118.74-62.93,162.93-7.94,6-20.92,8.55-33.25,9.56-20.79,1.7-39.53,12.83-51.79,29.7-54,74.3-144,139.92-228.57,145.17a322.57,322.57,0,0,1-9.11,62l-5.25,25.3c179.78-64,305.65-205.06,305.65-205.06,58.36-17.44,91.71-65.18,114.44-144C2651.23,1953.65,2627.09,1929.29,2607.58,1918.19Z" transform="translate(-638.72 -361.5)"/></g><g class="cls-7"><path class="cls-2" d="M2226.65,2271.94a781.79,781.79,0,0,1-109.51,17.68c-3.45,42.13-13.26,82.33-33.45,114.25A781.43,781.43,0,0,0,2208.56,2385c13.23-47.7,19.86-89.94,21.85-127.2C2229.22,2262.47,2228,2267.17,2226.65,2271.94Z" transform="translate(-638.72 -361.5)"/></g><g class="cls-7"><path class="cls-2" d="M1661.35,2718.67l-60.71-89.25s80.43,17.63,138.41-38.36c0,0,17.62,67.35,35.81,102,0,0-10.23,58-96.06,41.49" transform="translate(-638.72 -361.5)"/></g><g class="cls-7"><path class="cls-2" d="M1863.09,1837.05" transform="translate(-638.72 -361.5)"/></g><g class="cls-7"><path class="cls-2" d="M2280.31,3092.14H2280c-17.92.39-35.84.32-53.28-2a1045.65,1045.65,0,0,1-47.85,94.87,837.5,837.5,0,0,1-48.66,75.74,673.23,673.23,0,0,1-53,64.71,36.31,36.31,0,0,1,9.32,15.56c11.37,40.33-58.55,73.64-75,72.47-.72,0-1.75-.15-3-.27a259.19,259.19,0,0,0,2.69,57.21c32.33,16.65,44.61,42.41,48.25,65.88,4.54,29.22-4.23,54.84-4.23,54.84s-29.81,20.79-87.58,28c9.8,1.11,19.16,1.78,28.13,2.13,75-3,113.92-30.14,113.92-30.14s8.78-25.62,4.23-54.84c-3.64-23.47-15.92-49.23-48.25-65.88a259.19,259.19,0,0,1-2.69-57.21c1.21.12,2.24.22,3,.27,16.49,1.17,86.4-32.14,75-72.47a36.33,36.33,0,0,0-9.33-15.56,673.34,673.34,0,0,0,53-64.71,841.88,841.88,0,0,0,48.66-75.74C2251.56,3153.18,2267.13,3121.66,2280.31,3092.14Z" transform="translate(-638.72 -361.5)"/></g><g class="cls-7"><path class="cls-2" d="M1442.32,2560.71s24.34,130.64,75.83,195" transform="translate(-638.72 -361.5)"/></g><g class="cls-7"><path class="cls-2" d="M1100.83,1027.24c15.07,0,15.1-23.42,0-23.42s-15.09,23.42,0,23.42Z" transform="translate(-638.72 -361.5)"/></g><g class="cls-7"><path class="cls-2" d="M1171.09,996.8c15.07,0,15.1-23.42,0-23.42s-15.09,23.42,0,23.42Z" transform="translate(-638.72 -361.5)"/></g><g class="cls-7"><path class="cls-2" d="M1244.86,979.23c15.07,0,15.1-23.42,0-23.42s-15.09,23.42,0,23.42Z" transform="translate(-638.72 -361.5)"/></g><g class="cls-7"><path class="cls-2" d="M2653.93,2599.62c-11.51,47.48-49,85.27-92,108.53s-91.38,34-139.08,44.58c3.7,38.93,1.68,76.45-1.65,115.42,74.09-16.87,143.25-37.07,217.34-53.94l6.23-27.35C2654.82,2723.94,2657.37,2663.25,2653.93,2599.62Z" transform="translate(-638.72 -361.5)"/></g><ellipse class="cls-2" cx="1489.72" cy="1522.79" rx="87.2" ry="134.77" transform="translate(-1082.57 267.18) rotate(-20.81)"/><path class="cls-5" d="M1457.5,1424.56c-11.66,11.46-8,37,8.28,57s38.86,27,50.53,15.54,8-37-8.28-57S1469.17,1413.1,1457.5,1424.56Z" transform="translate(-638.72 -361.5)"/><path class="cls-18" d="M1471.65,1589.2c-4.55,7.72.06,20.87,10.31,29.36s22.24,9.13,26.8,1.41-.07-20.87-10.32-29.36S1476.2,1581.48,1471.65,1589.2Z" transform="translate(-638.72 -361.5)"/><path class="cls-2" d="M1082,1522.82c-41.5,1.42-69.68,54-63,117.38s45.82,113.67,87.32,112.26,69.68-54,62.95-117.38S1123.52,1521.41,1082,1522.82Z" transform="translate(-638.72 -361.5)"/><path class="cls-5" d="M1084.36,1549.45c-11.82,7.59-13.18,29.7-3,49.38s27.93,29.49,39.74,21.9,13.17-29.69,3-49.37S1096.17,1541.87,1084.36,1549.45Z" transform="translate(-638.72 -361.5)"/><path class="cls-18" d="M1067.39,1690.27c-5.18,5.69-3.6,17.55,3.52,26.48s17.09,11.57,22.27,5.88,3.6-17.55-3.52-26.48S1072.57,1684.59,1067.39,1690.27Z" transform="translate(-638.72 -361.5)"/><g class="cls-7"><path class="cls-2" d="M1516.8,1303.33c-30.07,0-100.71,10.6-142.43,102.45a4.77,4.77,0,0,1-8.21.81l-42.41-58.45a4.8,4.8,0,0,1,5.4-7.36l14.54,4.85a4.8,4.8,0,0,0,6.23-5.41l-4.18-23a4.72,4.72,0,0,1,1.29-4.2c12.3-12.42,88.64-83.16,172.68-18.35A4.8,4.8,0,0,1,1516.8,1303.33Z" transform="translate(-638.72 -361.5)"/></g><path class="cls-2" d="M989.4,1519.55l168.29,49.69a4,4,0,0,0,4.84-5.28l-21.24-54.24a4.07,4.07,0,0,0-3.19-2.52c-53-7.48-103.19-7.52-148.62,4.64A4,4,0,0,0,989.4,1519.55Z" transform="translate(-638.72 -361.5)"/></svg>