<svg id="Layer_1" data-name="Layer 1" xmlns="http://www.w3.org/2000/svg" viewBox="0 0 3155.84 2828.95"><defs><style>.cls-1{opacity:0.3;}.cls-2{fill:#fff;}.cls-3{opacity:0.2;}.cls-4{fill:#000072;}.cls-5{fill:#9c674f;}.cls-6{fill:#62ed2e;}.cls-7{opacity:0.6;}.cls-8{fill:#ffa64d;}.cls-9{fill:#5f7093;}.cls-10{fill:#fc4f8b;}.cls-11{fill:#feda24;}.cls-12{fill:#ff4379;}.cls-13{opacity:0.5;}.cls-14{fill:#ff0068;}</style></defs><g class="cls-1"><path class="cls-2" d="M2039.72,1634.61c-1.78,8.49,13,18.77,33,23s37.67.73,39.45-7.76-14.56-11.29-34.57-15.49S2041.5,1626.13,2039.72,1634.61Z" transform="translate(-441.71 -654.82)"/></g><g class="cls-3"><ellipse class="cls-4" cx="1436.96" cy="2689.64" rx="1136.45" ry="139.31"/></g><polygon class="cls-5" points="2557.67 877.94 1858.67 662.07 1714.57 1146.57 2481.5 1277.46 2557.67 877.94"/><polygon class="cls-5" points="2557.67 877.94 1858.67 662.07 1714.57 1146.57 2481.5 1277.46 2557.67 877.94"/><path class="cls-6" d="M2570.51,2794.73c274.31,238.34,587.31,97.25,631.94,7.64,72.13-144.75,9.93-379.49,8.47-385.08l0,.05c2.09,2.82,33.78,44.29,66.68,22.82,63.13-41.27-22-279.76-86.63-399.64-18.69-34.6-35.63-59.33-46.87-66.53-64.69-41.71-444-37.57-444-37.57s-15.67,20.34-39,55.19c-36,53.63-90.28,141.68-133.94,243.06C2447.47,2419.87,2403.17,2649.4,2570.51,2794.73Z" transform="translate(-441.71 -654.82)"/><g class="cls-7"><path class="cls-2" d="M2675.39,1970.58c50.57-.34,377.79-.83,437.46,37.63,11.24,7.2,28.18,31.92,46.87,66.53,55.44,102.74,125.91,292.71,105.08,370.82a35.88,35.88,0,0,0,12.85-5.4c63.13-41.27-22-279.76-86.63-399.64-18.69-34.6-35.63-59.33-46.87-66.53-64.69-41.71-444-37.57-444-37.57S2690.63,1948.73,2675.39,1970.58Z" transform="translate(-441.71 -654.82)"/></g><g class="cls-1"><path class="cls-4" d="M2527.14,2234.67c161.69-3.45,376.72-6.89,376.72-6.89s-74.69,483.54,89.64,555.51c-136.31-71.89-103.32-351.94-103.32-351.94h90c.49,83.38,12.22,217.19,63.32,235.62,76.66,27.65,102.75-49.3,103.54-51.21,39.55-122.91,44.57-268.46,44.57-268.46,49.55-51.16,26.57-196.44-.58-306.78,64.68,119.88,149.76,358.37,86.63,399.64-32.9,21.47-64.59-20-66.68-22.82l0-.05c1.46,5.59,63.66,240.33-8.47,385.08-44.63,89.61-357.63,230.7-631.94-7.64C2403.17,2649.4,2447.47,2419.87,2527.14,2234.67Z" transform="translate(-441.71 -654.82)"/></g><path class="cls-4" d="M2905.86,2948.54c-96.07,0-223.92-27.3-350.05-136.89-118.47-102.91-151.06-255-96.87-451.91,43.46-157.93,133.64-306.26,183.54-380.62,23.49-35,39.23-55.53,39.88-56.38a22.44,22.44,0,0,1,17.51-8.74c39.52-.42,388.07-2.93,456.42,41.16,49.11,31.67,165.53,293.15,165.95,422,.13,40.12-10.75,67.61-32.32,81.73-15,9.75-30.52,11.69-45.21,8.38,15.15,82.59,32.11,236.07-22.2,345.07-27,54.25-117.09,106.32-219,126.64A501.91,501.91,0,0,1,2905.86,2948.54Zm-194.43-989.82c-6.58,9-17.79,24.57-31.73,45.37-48.38,72.1-135.77,215.72-177.54,367.54-49.23,178.9-21.29,315.56,83,406.18h0c162,140.73,326.08,133.86,409.51,117.24,104.55-20.83,172.69-72.58,187.68-102.67,67.12-134.7,9.37-359.76,6.88-369.27a22.44,22.44,0,0,1,37.89-21.26,24.14,24.14,0,0,1,1.8,2.13c.2.28,20.79,27.62,36.44,17.41,7.7-5,12.09-21.1,12-44-.4-124.74-115.36-365.13-145.42-384.52C3090.11,1965.8,2856.62,1957.69,2711.43,1958.72Z" transform="translate(-441.71 -654.82)"/><path class="cls-4" d="M2905.86,2948.54c-96.07,0-223.92-27.3-350.05-136.89-118.47-102.91-151.06-255-96.87-451.91,43.46-157.93,133.64-306.26,183.54-380.62a22.35,22.35,0,0,1,20.64-9.83L3061,2005.54a89,89,0,0,1,77.29,64.59l93.95,340.26c.13.41.25.82.36,1.24,6.71,25.64,63.18,253.68-10.1,400.74-27,54.25-117.09,106.32-219,126.64A501.91,501.91,0,0,1,2905.86,2948.54Zm-233.51-933.4c-49.44,75.07-130.45,212.07-170.19,356.49-49.23,178.9-21.29,315.56,83,406.18h0c162,140.73,326.09,133.86,409.52,117.24,104.55-20.83,172.69-72.58,187.68-102.67,66.12-132.7,11.06-353.1,7-368.71l-.15-.52h0l-94.17-341.09a43.92,43.92,0,0,0-38.16-31.89Z" transform="translate(-441.71 -654.82)"/><path class="cls-4" d="M3065.35,2818.47c-51.25,0-93.62-18.41-125.92-54.74-93.44-105.08-68.71-325.23-67.61-334.54a18.5,18.5,0,0,1,18.36-16.33h317.58a18.48,18.48,0,0,1,18,14.38c1.2,5.27,29.15,130.18,7.7,237.28-20.25,100.67-78.36,153.91-168.07,153.95h-.06Zm.05-18.48h0Zm-158.29-350.15c-3.71,51.54-9,211.85,60,289.36,25.33,28.46,57.48,42.3,98.26,42.3h0c71.91,0,115-40.68,131.84-124.26,15.84-79.08,1.84-172.25-4.63-207.4Z" transform="translate(-441.71 -654.82)"/><path class="cls-8" d="M2156.27,1801.4l766.47,130.78a1.42,1.42,0,0,0,.49.1L2959,1744.89l31-162.66,9.45-49.49a.18.18,0,0,0-.15,0l-190.74-58.89-508.13-156.92-14.65,49.25Z" transform="translate(-441.71 -654.82)"/><g class="cls-7"><path class="cls-2" d="M2285.73,1366.13l499.61,154.29,92.28,28.48,98.46,30.41a.18.18,0,0,1,.15,0c4.62.83,9.25,1.8,13.72,2.87l9.45-49.49a.18.18,0,0,0-.15,0l-190.74-58.89-508.13-156.92Z" transform="translate(-441.71 -654.82)"/></g><path class="cls-4" d="M2940.08,1956.59l-810.84-138.38,157-527.81,737.44,227.75Zm-756.76-172,723,123.4,68.75-360.6-660.54-204Z" transform="translate(-441.71 -654.82)"/><path class="cls-8" d="M2760.76,1733a203.38,203.38,0,0,0,162,199.16,1.42,1.42,0,0,0,.49.1,203.48,203.48,0,0,0,210-86.2c1.37-2,2.68-4.09,3.95-6.13s2.28-3.8,3.4-5.7a9.41,9.41,0,0,0,.54-1c1.17-2,2.24-4,3.31-6s2-4,3.06-6a1.91,1.91,0,0,1,.25-.54c.92-1.94,1.8-3.89,2.68-5.84,1.11-2.53,2.19-5.11,3.16-7.69.92-2.28,1.75-4.57,2.58-6.91,0,0,.05,0,0-.09.78-2.19,1.51-4.38,2.24-6.62,1-3.22,1.9-6.43,2.72-9.69.44-1.7.88-3.45,1.27-5.21.58-2.43,1.07-4.86,1.56-7.3v-.09c.48-2.49.92-5,1.26-7.45.34-2,.59-4,.83-6.13.14-1,.24-2,.34-3,.24-2,.44-4,.58-6.09.2-2.58.34-5.15.44-7.73s.15-5.16.15-7.79a203.32,203.32,0,0,0-168.11-200.28.18.18,0,0,0-.15,0A203.39,203.39,0,0,0,2760.76,1733Z" transform="translate(-441.71 -654.82)"/><g class="cls-7"><path class="cls-2" d="M2877.62,1548.9l98.46,30.41a.18.18,0,0,1,.15,0c4.62.83,9.25,1.8,13.72,2.87a203.35,203.35,0,0,1,154.39,197.42,201.16,201.16,0,0,1-11.15,66.43c1.37-2,2.68-4.09,3.95-6.13s2.28-3.8,3.4-5.7a9.41,9.41,0,0,0,.54-1c1.17-2,2.24-4,3.31-6s2-4,3.06-6a1.91,1.91,0,0,1,.25-.54c.92-1.94,1.8-3.89,2.68-5.84,1.11-2.53,2.19-5.11,3.16-7.69.92-2.28,1.75-4.57,2.58-6.91,0,0,.05,0,0-.09.78-2.19,1.51-4.38,2.24-6.62,1-3.22,1.9-6.43,2.72-9.69.44-1.7.88-3.45,1.27-5.21.58-2.43,1.07-4.86,1.56-7.3v-.09c.48-2.49.92-5,1.26-7.45.34-2,.59-4,.83-6.13.14-1,.24-2,.34-3,.24-2,.44-4,.58-6.09.2-2.58.34-5.15.44-7.73s.15-5.16.15-7.79a203.32,203.32,0,0,0-168.11-200.28.18.18,0,0,0-.15,0,204.63,204.63,0,0,0-121.63,16.21Z" transform="translate(-441.71 -654.82)"/></g><g class="cls-1"><path class="cls-4" d="M2156.27,1801.4l766.47,130.78a1.42,1.42,0,0,0,.49.1,202.23,202.23,0,0,0,40.88,4.14c112.33,0,203.4-91.07,203.4-203.4a201.56,201.56,0,0,0-13.83-73.74,141.49,141.49,0,0,1-21,30.57c-42.49,47-111.17,65.41-173.71,55h0c-37.47-6.18-73.93-22.29-100.84-49.11-25.51-25.4-41.08-59.13-48.77-94.61a260.6,260.6,0,0,1-5-34c-2.53-31.15-.09-62.35,4.24-93.35l-508.13-156.92Z" transform="translate(-441.71 -654.82)"/></g><path class="cls-4" d="M2964.12,1957.53c-123.79,0-224.5-100.71-224.5-224.5s100.71-224.51,224.5-224.51,224.5,100.71,224.5,224.51S3087.91,1957.53,2964.12,1957.53Zm0-406.76c-100.49,0-182.25,81.76-182.25,182.26s81.76,182.25,182.25,182.25,182.25-81.76,182.25-182.25S3064.61,1550.77,2964.12,1550.77Z" transform="translate(-441.71 -654.82)"/><path class="cls-4" d="M3050.18,1933.18q-.72,0-1.44-.06c-59.8-5.39-140.39-29.49-184.75-113.72-26.72-50.77-23.71-108.91,7.87-151.73,27.26-37,69.31-54.21,112.49-46.16,40.64,7.59,70.67,32.06,84.55,68.9,12.57,33.37,8.84,72.58-9.05,95.37-17.45,22.25-50,30.48-77.28,19.58-30.59-12.22-46.47-44.63-42.46-86.69a15.85,15.85,0,0,1,31.55,3c-2.68,28.08,5.37,47.35,22.66,54.26,14.09,5.62,31.92,1.36,40.6-9.71,9.4-12,14.1-38.68,4.32-64.64-6.94-18.44-23.12-41.9-60.71-48.92-31-5.77-61.29,6.87-81.16,33.82-19,25.83-30.46,70.44-5.34,118.15,37.72,71.63,107.58,92.24,159.55,96.93a15.84,15.84,0,0,1-1.4,31.62Z" transform="translate(-441.71 -654.82)"/><path class="cls-9" d="M1919.73,3380.05c-239.57,0-366.9-23.87-383.64-119.36-5.81-33.32,5.49-66.12,22.76-94.59,32.11-53.18,84.71-91.63,84.71-91.63a514.52,514.52,0,0,1-55.08-55.35c-152-177.62-159.82-422.2-159.82-422.2l835.69,434.56C2302.58,3356.18,2159.3,3380.05,1919.73,3380.05Z" transform="translate(-441.71 -654.82)"/><g class="cls-1"><path class="cls-4" d="M1919.73,3380.05c-239.57,0-366.9-23.87-383.64-119.36-5.81-33.32,5.49-66.12,22.76-94.59,56.25,81.65,241.52,85.93,344.61,85.93,124.12,0,120.32-79.54,120.32-79.54-194.31-22.71-339-90.73-435.3-153.37-152-177.62-159.82-422.2-159.82-422.2l835.69,434.56C2302.58,3356.18,2159.3,3380.05,1919.73,3380.05Z" transform="translate(-441.71 -654.82)"/></g><path class="cls-4" d="M1919.73,3399.88c-240.27,0-383.26-22.22-403.14-135.78-14.5-82.86,60.14-158.94,96.49-190.45-192.66-181.42-203.83-463.84-204.22-476.12a19.8,19.8,0,0,1,28.94-18.2l835.7,434.56a19.82,19.82,0,0,1,10.53,15.26c16.58,140.93.52,233.31-50.54,290.73C2167.7,3393.86,2052.47,3399.88,1919.73,3399.88ZM1451.5,2631.11c9.71,82.79,49.2,294.28,205,428.32a19.79,19.79,0,0,1-1.23,31c-1.13.83-114,84.7-99.62,166.84,13.14,75.08,111.82,103,364.11,103,145.81,0,234.28-10.63,284.15-66.71,41.83-47,55.24-126.44,42-249.38Z" transform="translate(-441.71 -654.82)"/><path class="cls-2" d="M3190.82,2257.85c-9.3,157.12-182.9,224.83-304.9,253.09a1.55,1.55,0,0,1-.32,0s-.58.16-1.74.42c-.37.11-.79.21-1.27.32-26.72,6.07-50.75,10.19-69.92,13,3.53-.26,7.28-.42,11.14-.53a406.81,406.81,0,0,1,50.65,1.17c48.48,4.27,103,19.12,140.17,59,49.54,53.18,68,150.89-.53,327.71-181.42,468-520.54,162.36-520.54,162.36s-31.64,7.07-85.29,13.31c-148.62,17.37-466.25,28.67-750.39-132.67-386.82-219.66-353.38-730.64-353.38-730.64L989.3,1942.65C724.54,1801.53,889,1563.08,889,1563.08s-62.37-61.43-57-120.63c.06-.64.11-1.27.22-1.9a42.89,42.89,0,0,1,.68-4.6c.27-1.53.58-3.06.95-4.59.16-.69.37-1.38.53-2.12.11-.31.16-.58.26-.89.16-.53.32-1.06.53-1.59.21-.74.42-1.42.69-2.16.69-2,1.48-3.91,2.32-5.87.53-1,1-2.06,1.53-3.06.59-1.16,1.22-2.32,1.91-3.48.52-.9,1.11-1.85,1.69-2.75.68-1.06,1.37-2.11,2.16-3.17s1.43-2,2.17-3a76.69,76.69,0,0,1,5.12-6c.9-.95,1.85-1.95,2.85-2.9s2-2,3.06-2.91,2.12-1.84,3.23-2.79c.16-.11.31-.27.47-.37v-.06c1-.79,2-1.58,3.07-2.43s2.27-1.69,3.43-2.53c1.37-.95,2.8-2,4.28-2.91a66.51,66.51,0,0,1,37.34-10.88,81.48,81.48,0,0,1,10.56.69c1.74.21,3.48.48,5.33.79l2.49.48.79.16c1.21.26,2.43.52,3.64.84,1.75.42,3.49.85,5.23,1.38,2.27.68,4.54,1.37,6.81,2.16,1.32.48,2.7,1,4,1.48a7.48,7.48,0,0,1,.74.26c1,.32,1.9.74,2.9,1.11,1.59.69,3.22,1.32,4.86,2.06,2,.85,4.07,1.8,6.13,2.75,4.43,2.11,8.92,4.43,13.52,7,1.85,1,3.64,2.06,5.49,3.12.42.26.85.47,1.27.74,2.11,1.26,4.28,2.53,6.44,3.85,2.54,1.59,5.12,3.22,7.77,4.91,2.11,1.38,4.22,2.8,6.39,4.28,9.45,6.34,19.11,13.42,29,21.07,1.8,1.38,3.54,2.75,5.39,4.18.69.52,1.37,1.1,2.11,1.69,2.48,2,5,4,7.56,6.07s5,4.07,7.5,6.13l.15.15c4.28,3.49,8.61,7.19,13,10.88,13.94,12,28.36,24.83,43.09,38.4,2.43,2.22,4.81,4.44,7.24,6.66,17.32,16,35.07,32.9,53.34,50.43q8.55,8.25,17.27,16.59C1254,1631,1322.66,1698,1394.6,1758.28c2.64,2.16,5.28,4.38,7.92,6.55q15.29,12.75,30.79,24.87c3.43,2.75,6.92,5.39,10.35,8.08,7,5.44,14,10.78,21.13,16q5.31,4,10.61,7.76c2.48,1.85,5,3.64,7.56,5.44l7.6,5.39c4.86,3.38,9.77,6.76,14.63,10.09,4,2.64,7.87,5.22,11.83,7.76s8,5.17,11.94,7.71c281.76,177.93,850.73,303.21,850.73,303.21,194.52-82.13,488.54-119.68,664.09-67.29C3136.16,2121.43,3195.73,2173.88,3190.82,2257.85Z" transform="translate(-441.71 -654.82)"/><path class="cls-9" d="M3190.82,2257.85c-9.3,157.12-182.9,224.83-304.9,253.09a1.55,1.55,0,0,1-.32,0s-.58.16-1.74.42c-.37.11-.79.21-1.27.32-7.34,1.74-27.78,6.39-58.78,12.46-4.86,1-10,2-15.37,3-21.23,4-46.37,8.45-74.94,13-89.05,14.15-210.79,29.31-347.63,34.33-171.43,6.39-366.58-3.07-550.91-49.81-154.37-39.19-264.17-83.66-342.13-126.12-168.27-91.68-188.33-174.18-188.33-174.18L989.3,1942.65C724.54,1801.53,889,1563.08,889,1563.08s-62.37-61.43-57-120.63c.06-.64.11-1.27.22-1.9a42.89,42.89,0,0,1,.68-4.6c.27-1.53.58-3.06.95-4.59.16-.69.37-1.38.53-2.12.11-.31.16-.58.26-.89.16-.53.32-1.06.53-1.59.21-.74.42-1.42.69-2.16.69-2,1.48-3.91,2.32-5.87.53-1,1-2.06,1.53-3.06.59-1.16,1.22-2.32,1.91-3.48.52-.9,1.11-1.85,1.69-2.75.68-1.06,1.37-2.11,2.16-3.17s1.43-2,2.17-3a76.69,76.69,0,0,1,5.12-6c.9-.95,1.85-1.95,2.85-2.9s2-2,3.06-2.91,2.12-1.84,3.23-2.79c.16-.11.31-.27.47-.37v-.06c1-.79,2-1.58,3.07-2.43s2.27-1.69,3.43-2.53c1.37-.95,2.8-2,4.28-2.91a66.51,66.51,0,0,1,37.34-10.88,81.48,81.48,0,0,1,10.56.69c1.74.21,3.48.48,5.33.79l2.49.48.79.16c1.21.26,2.43.52,3.64.84,1.75.42,3.49.85,5.23,1.38,2.27.68,4.54,1.37,6.81,2.16,1.32.48,2.7,1,4,1.48a7.48,7.48,0,0,1,.74.26c1,.32,1.9.74,2.9,1.11,1.59.69,3.22,1.32,4.86,2.06,2,.85,4.07,1.8,6.13,2.75,4.43,2.11,8.92,4.43,13.52,7,1.85,1,3.64,2.06,5.49,3.12.42.26.85.47,1.27.74,2.11,1.26,4.28,2.53,6.44,3.85,2.54,1.59,5.12,3.22,7.77,4.91,2.11,1.38,4.22,2.8,6.39,4.28,9.45,6.34,19.11,13.42,29,21.07,1.8,1.38,3.54,2.75,5.39,4.18.69.52,1.37,1.1,2.11,1.69,2.48,2,5,4,7.56,6.07s5,4.07,7.5,6.13l.15.15c4.28,3.54,8.61,7.19,13,10.88,13.94,12,28.36,24.83,43.09,38.4,2.43,2.22,4.81,4.44,7.24,6.66,17.32,16,35.07,32.9,53.34,50.43q8.55,8.25,17.27,16.59c25.25,24.34,51.34,49.59,78.11,75,40.51,38.4,82.66,77.11,126,113.45,2.64,2.16,5.28,4.38,7.92,6.55,10.19,8.45,20.49,16.74,30.79,24.87,3.43,2.75,6.92,5.39,10.35,8.08,7,5.44,14,10.78,21.13,16q5.31,4,10.61,7.76c2.48,1.85,5,3.64,7.56,5.44l7.6,5.39c4.86,3.38,9.77,6.76,14.63,10.09,4,2.64,7.87,5.22,11.83,7.76s8,5.17,11.94,7.71c281.76,177.93,850.73,303.21,850.73,303.21,46.11-19.49,97.82-36.44,152.16-50.28,21.76-5.55,43.94-10.56,66.39-15,158.07-31.8,328.24-37,445.54-2C3136.16,2121.43,3195.73,2173.88,3190.82,2257.85Z" transform="translate(-441.71 -654.82)"/><g class="cls-7"><path class="cls-2" d="M3190.82,2257.85c-36.07-130.82-521.44-145.45-659-147,175.08-44.58,378-57,511.93-17C3136.16,2121.43,3195.73,2173.88,3190.82,2257.85Z" transform="translate(-441.71 -654.82)"/></g><g class="cls-1"><path class="cls-4" d="M3043.78,2093.86c2.7,57.09-14.89,163-169.85,209.31-217.49,65-540.08,69.5-540.08,69.5s1.37,105.1,52,201.86a338.4,338.4,0,0,0,29.44,47c9.72,12.94,7.9,31.11-3.7,42.39l-1.48,1.45c-154,151.27-385.77,192.09-581.16,100.32l-5.47-2.59C1636,2673.92,1541,2524.25,1492.83,2398.6c-46.58-121.52-49.17-220.6-49.17-220.6-135.36-58.84-358.08-280.66-358.08-280.66,61.11,2.27,101.88-31.69,101.88-31.69-124.49-47.53-80-181.58-80-181.58s37.5-.68,40.77-.79c-1.9,0-15.9.21-53.61.79-113.18,1.75-113-62-113-62-45-17.27-29.63-80.12-29.63-80.12-63.32-31.48-83.44-104.68-89.73-153.58-.16.1-.31.26-.47.37-1.11,1-2.17,1.84-3.23,2.79s-2.11,1.91-3.06,2.91-2,2-2.85,2.9a76.69,76.69,0,0,0-5.12,6c-.74,1-1.48,2-2.17,3s-1.48,2.11-2.16,3.17c-.58.9-1.17,1.85-1.69,2.75-.69,1.16-1.32,2.32-1.91,3.48-.52,1-1,2.06-1.53,3.06-.84,2-1.63,3.91-2.32,5.87-.27.74-.48,1.42-.69,2.16-.21.53-.37,1.06-.53,1.59-.1.31-.15.58-.26.89-.16.74-.37,1.43-.53,2.12-.37,1.53-.68,3.06-.95,4.59a42.89,42.89,0,0,0-.68,4.6c-.11.63-.16,1.26-.22,1.9-5.33,59.2,57,120.63,57,120.63s-164.46,238.45,100.3,379.57l315.2,281.77s-33.44,511,353.38,730.64c284.14,161.34,601.77,150,750.39,132.67,53.65-6.24,85.29-13.31,85.29-13.31s339.12,305.63,520.54-162.36c68.55-176.82,50.07-274.53.53-327.71,1.69,144.71-69.72,383.22-233.71,404.14C2584,3013.57,2498,2861.94,2498,2861.94s-17.25,3.59-91.79,13.26c27.74-145.2,104-278,327.29-335a488.36,488.36,0,0,1,140.43-14.84h.53a406.81,406.81,0,0,0-50.65-1.17c31-6.07,51.44-10.72,58.78-12.46.48-.11.9-.21,1.27-.32,1.16-.26,1.74-.42,1.74-.42a1.55,1.55,0,0,0,.32,0c122-28.26,295.6-96,304.9-253.09C3195.73,2173.88,3136.16,2121.43,3043.78,2093.86Z" transform="translate(-441.71 -654.82)"/></g><g class="cls-7"><path class="cls-2" d="M1443.66,1797.78l-15,50.44s-134.83-103.67-194-170.8S1117.28,1576.48,998.44,1478c-66.72-55.29-120.21-58.92-163.84-49.67,5-17.12,16.75-33.65,38.51-47.91C982.43,1308.83,1197,1607.34,1443.66,1797.78Z" transform="translate(-441.71 -654.82)"/></g><path class="cls-9" d="M3057.94,2739.1a419.38,419.38,0,0,1-5.87,44.47c-1.42,7.81-3.11,15.95-5.07,24.29s-4.12,16.9-6.55,25.72c-.63,2.17-1.26,4.44-1.9,6.66-1.26,4.49-2.64,9-4.06,13.57-.69,2.32-1.43,4.65-2.17,7-1.48,4.65-3.06,9.4-4.7,14.16q-6.1,18-13.52,37.12c-181.42,468-520.54,162.36-520.54,162.36s-31.64,7.07-85.29,13.31c-12.15-81.76-11.89-152.06-2.06-212.53C2453.26,2585.62,2718.92,2522,2885.6,2511c-27.88,6.44-53,10.83-72.93,13.73,55.08-3.48,147.4,1,202,59.63,1.69,1.8,3.27,3.64,4.86,5.49s3.22,3.86,4.7,5.87c2.27,2.95,4.43,6.07,6.55,9.29.68,1.11,1.42,2.27,2.16,3.43q1.91,3.26,3.81,6.66c.63,1.16,1.21,2.32,1.84,3.48s1.22,2.43,1.8,3.65c1.74,3.64,3.38,7.45,4.91,11.35.48,1.32,1,2.64,1.48,4,1,2.7,1.9,5.39,2.75,8.19.42,1.32.79,2.64,1.21,4s.79,3,1.22,4.6c.79,2.9,1.47,5.86,2.06,8.93a190.09,190.09,0,0,1,3.11,19.11A290.34,290.34,0,0,1,3057.94,2739.1Z" transform="translate(-441.71 -654.82)"/><path class="cls-4" d="M2729.26,3192.34c-114.73,0-213.17-73.55-241.18-96.58-13.46,2.61-40.23,7.32-77.55,11.66-162.41,19-477.44,26.7-762.44-135.12-162.94-92.54-277.46-251.6-331.16-460-34.46-133.72-33.81-246.17-32.68-279.4L977.87,1959C894.25,1913.9,843,1854.44,825.39,1782.24c-23.19-95.32,19.74-183.75,38.89-216.83-19.35-22.46-57.14-73.62-52-125.62,3-30.69,19.86-56.23,50-75.93,85.29-55.83,205.18,59.79,357,206.17,97,93.56,207,199.61,320.29,271.16,260.08,164.26,776.46,285.17,838.32,299.27,115.55-47.77,266.88-80.85,406.39-88.71,157.37-8.89,283.58,14.18,355.37,64.88,49.83,35.2,74.37,84.43,71,142.37h0c-4.5,76.31-44.5,140.29-118.91,190.17-41.2,27.62-92.18,50.46-152,68.14,39.66,12,77,33.53,103.41,70.59,50.71,71.15,47.18,182.63-10.47,331.35-59,152.13-141.19,241.72-244.32,266.27A254.61,254.61,0,0,1,2729.26,3192.34Zm-235.69-137.73a19.8,19.8,0,0,1,13.27,5.1c1.32,1.19,135.57,119.93,272.44,87.22,89.61-21.42,162.41-102.84,216.36-242,52.53-135.49,57.62-234.42,15.15-294-44.64-62.63-135.86-68.78-186.26-66.93-3.64.13-7.16.28-10.53.51a19.81,19.81,0,0,1-4.23-39.36c23.84-3.51,47.28-7.9,69.66-13l1.45-.33q.55-.14,1.11-.24c127.65-29.71,280.77-94.49,289-234.85,2.64-44.8-15.12-80-54.27-107.68-64.51-45.56-181.8-66.06-330.28-57.68-137.61,7.75-286.81,40.69-399.11,88.11a19.93,19.93,0,0,1-12,1.1c-23.37-5.15-575.59-128.09-857-305.83-116.74-73.72-228.25-181.26-326.63-276.14-128-123.46-248.93-240-307.77-201.54-19.86,13-30.41,28.27-32.24,46.71-4.08,41,35.57,89.86,51.19,105.25a19.81,19.81,0,0,1,2.4,25.36c-.64.94-66.07,98-41.38,198.83,15,61.24,60.31,112.39,134.68,152a20.14,20.14,0,0,1,3.88,2.71l315.17,281.74a19.84,19.84,0,0,1,6.56,16.05c-.08,1.26-7.64,127.36,31.35,277.88,51.81,200,156.8,346.1,312.06,434.27,275.19,156.26,580.69,148.67,738.29,130.23,51.84-6,83-12.91,83.32-13A19.63,19.63,0,0,1,2493.57,3054.61Zm697.24-796.77h0Z" transform="translate(-441.71 -654.82)"/><path class="cls-4" d="M1243.07,1708.08c-5.45-6.82-11.84-14.19-18.21-20.91s-13.22-13.27-20.1-19.52a283.74,283.74,0,0,0-44.17-32.76c-31-18.49-65.85-28.37-99.94-24.41a163.59,163.59,0,0,0-25.31,4.82,114.93,114.93,0,0,0-22.73,9.29c-13.9,7.53-24.46,18.66-28.19,31a34.23,34.23,0,0,0-1,18.25,33.27,33.27,0,0,0,8.3,15.82c8.25,9.32,22.53,14.11,38.24,14.4h0l5.25.69a18.12,18.12,0,0,1,15.61,20.32,18.46,18.46,0,0,1-3.19,8.12,57.15,57.15,0,0,0-3.16,5.67c-1.06,2.2-2.12,4.42-3,6.73a108.34,108.34,0,0,0-4.73,14.12,87.66,87.66,0,0,0-2.69,29c.35,2.36.22,4.89.91,7.18l1.59,7.08c1.8,4.45,3.06,9.27,5.77,13.44,1.3,2.1,2.16,4.51,3.8,6.45l4.61,6.07c1.4,2.17,3.46,3.82,5.26,5.7l5.59,5.57,1,1a9.91,9.91,0,0,1-12.89,15l-7.63-5.64c-2.52-1.95-5.23-3.66-7.43-6.06l-6.94-6.85c-2.4-2.22-4.12-5.1-6.2-7.67-4.3-5.1-7.17-11.2-10.41-17.12l-3.67-9.43c-1.34-3.15-1.81-6.48-2.73-9.74a119.6,119.6,0,0,1-2.15-39.91,144.91,144.91,0,0,1,3.52-19.52c.76-3.22,1.73-6.41,2.74-9.6a99.23,99.23,0,0,1,3.89-10.16l17.66,29.13h0a103.06,103.06,0,0,1-35.74-5.2A81.1,81.1,0,0,1,962,1717.88a76.6,76.6,0,0,1-12-16.2,74.6,74.6,0,0,1-6.94-19,75.56,75.56,0,0,1,2-39.6,87,87,0,0,1,19.35-32.74A106.3,106.3,0,0,1,993,1588.59a155.9,155.9,0,0,1,31.64-12.33c5.36-1.19,10.73-2.7,16.08-3.43l8-1.29,8.2-.76c21.9-2,44.18.69,65,6.67a208.59,208.59,0,0,1,57.6,27.62,267.52,267.52,0,0,1,46.9,40.77,275.46,275.46,0,0,1,19.52,23.69,241.29,241.29,0,0,1,17,25.93,11.8,11.8,0,0,1-19.53,13.11Z" transform="translate(-441.71 -654.82)"/><path class="cls-4" d="M2814,2544.48c-4,.26-8.9.75-13.42,1.26s-9.25,1.13-13.88,1.79c-9.28,1.29-18.54,2.94-27.78,4.66-18.47,3.59-36.8,8-54.86,13.3a506.57,506.57,0,0,0-103.76,42.71c-32.51,18.2-62.67,40.5-87.76,67.54-25.35,26.81-45,58.52-58.7,92.78l-.1.24a15.36,15.36,0,0,1-28.63-11.11c14.36-38.14,35.65-73.94,63.13-104.15,27.21-30.46,59.84-55.49,94.64-75.85a541.84,541.84,0,0,1,110.33-47.94q28.66-9,58-15.26c9.81-2,19.63-4,29.56-5.54,5-.8,9.94-1.55,15-2.21s9.86-1.27,15.55-1.75a19.82,19.82,0,1,1,3.33,39.49l-.3,0Z" transform="translate(-441.71 -654.82)"/><ellipse class="cls-2" cx="2818.31" cy="2861.92" rx="242.79" ry="141.74" transform="translate(-1399.05 3577.5) rotate(-65.39)"/><g class="cls-1"><path class="cls-4" d="M3057.94,2739.1a432.78,432.78,0,0,1-5.87,44.47c-1.47,7.81-3.16,15.95-5.07,24.29s-4.12,16.9-6.55,25.72c-.63,2.17-1.26,4.44-1.9,6.66-1.26,4.49-2.64,9-4.06,13.57-.69,2.32-1.43,4.65-2.17,7-1.48,4.65-3.06,9.4-4.7,14.16q-6.1,18-13.52,37.12c-181.42,468-520.54,162.36-520.54,162.36s-31.64,7.07-85.29,13.31c-12.15-81.76-11.89-152.06-2.06-212.53,58.25-4.86,91.79-13.26,91.79-13.26s86,151.63,282.92,126.55c164-20.92,235.4-259.43,233.71-404.14,1.69,1.8,3.27,3.64,4.86,5.49s3.17,3.86,4.7,5.87c2.27,2.95,4.43,6.07,6.55,9.29.68,1.11,1.42,2.27,2.16,3.43q1.91,3.26,3.81,6.66c.63,1.16,1.21,2.32,1.84,3.48s1.22,2.43,1.8,3.65c1.74,3.64,3.38,7.45,4.91,11.35.48,1.32,1,2.64,1.48,4,1,2.7,1.9,5.39,2.75,8.19.42,1.32.79,2.64,1.21,4s.79,3,1.22,4.6c.74,2.9,1.42,5.91,2.06,8.93,1.26,6.12,2.32,12.46,3.11,19.11A290.34,290.34,0,0,1,3057.94,2739.1Z" transform="translate(-441.71 -654.82)"/></g><path class="cls-6" d="M1550.08,1794.62c0,76.42-96.75,229.21-112.91,401.12s-5.34,313.61-97,305.06c-71.35-6.66-91.11-126.7-82.82-262.12,4.65-75.68,18-156.12,36-224.36,53.72-203.75,116-259.37,146.46-281.76,23-17,64.27-17.69,89.26,6.28C1541.63,1750.83,1550.08,1769.11,1550.08,1794.62Z" transform="translate(-441.71 -654.82)"/><g class="cls-7"><path class="cls-2" d="M1542.32,1757.22c-21.71-6.28-46-2.27-61.64,9.3-30.42,22.39-92.74,78-146.45,281.76-18,68.24-31.37,148.68-36,224.36-5.7,93.32,1.9,179.36,30.53,226-62-18-79.17-132.09-71.36-260,4.65-75.68,18-156.12,36-224.36,53.72-203.75,116-259.37,146.46-281.76,23-17,64.27-17.69,89.26,6.28A61.28,61.28,0,0,1,1542.32,1757.22Z" transform="translate(-441.71 -654.82)"/></g><g class="cls-1"><path class="cls-4" d="M1550.08,1794.62c0,76.42-96.75,229.21-112.91,401.12s-5.34,313.61-97,305.06c-71.35-6.66-91.11-126.7-82.82-262.12h0a88,88,0,0,0,113.67-67.55c18.68-100.27,61.57-263.7,158.07-432.29C1541.63,1750.83,1550.08,1769.11,1550.08,1794.62Z" transform="translate(-441.71 -654.82)"/></g><g class="cls-1"><path class="cls-4" d="M2598.24,2095.82c-152.69,134-407.36,198.74-679,153.26-387.4-64.91-669-330.61-650.63-604.25,40.51,38.4,82.66,77.11,126,113.45,2.64,2.16,5.28,4.38,7.92,6.55,10.19,8.45,20.49,16.74,30.79,24.87,3.43,2.75,6.92,5.39,10.35,8.08,7,5.44,14,10.78,21.13,16q5.31,4,10.61,7.76c2.48,1.85,5,3.64,7.56,5.44l7.6,5.39c4.86,3.38,9.77,6.76,14.63,10.09,4,2.64,7.87,5.22,11.83,7.76s8,5.17,11.94,7.71c281.76,177.93,850.73,303.21,850.73,303.21,46.11-19.49,97.82-36.44,152.16-50.28C2553.61,2105.32,2575.79,2100.31,2598.24,2095.82Z" transform="translate(-441.71 -654.82)"/></g><path class="cls-4" d="M1347.82,2519.35c-3,0-6.15-.15-9.33-.45-24.94-2.32-45.78-15.24-62-38.39-58.92-84.34-44.37-305.55-.76-470.86,58.59-222.05,129.87-274.52,153.3-291.76h0c25.19-18.54,63.37-21.07,92.84-6.16,17.31,8.75,46.35,31.16,46.35,82.9,0,36.54-18.27,84.19-41.39,144.52-27.93,72.85-62.68,163.51-71.58,258.31-2.89,30.84-4.89,60.45-6.83,89.09-6.88,101.54-12.31,181.74-52.43,215.88C1382.82,2513.67,1366.63,2519.35,1347.82,2519.35Zm102.84-772.14c-20.87,15.35-84.37,62.09-139.68,271.73-42.11,159.6-55.34,368.09-4.6,440.72,9.9,14.17,21.51,21.7,35.5,23,13,1.22,22.76-1.3,30.57-8,28.43-24.18,33.65-101.31,39.7-190.61,1.95-28.87,4-58.72,6.91-90,9.36-99.78,45.1-193,73.82-268,20.92-54.57,39-101.69,39-131.49,0-24.26-9.12-41.69-26.37-50.42s-40.74-7.39-54.84,3Z" transform="translate(-441.71 -654.82)"/><path class="cls-6" d="M2818.32,2534.81c-106.58,167.84-365.74,105.89-454.05-69.82-1.06-2.06-2.06-4.12-3.06-6.18a281.43,281.43,0,0,1-26.83-108.64c-12.73-289.69,194.2-377.2,318.36-377.2,76,0,119.1,31,142.07,57.73a143.21,143.21,0,0,1,13.84,18.9c7,11.36,9.67,19.33,9.67,19.33S2520.13,2045.59,2500,2305C2481.2,2546.48,2818.32,2534.81,2818.32,2534.81Z" transform="translate(-441.71 -654.82)"/><g class="cls-1"><path class="cls-4" d="M2818.32,2534.81c-106.58,167.84-365.74,105.89-454.05-69.82.81.8,1.63,1.59,2.45,2.37,39.3,37.36,102.63-3.34,85.05-54.65-16.67-48.67-21.62-113.09,1-196.85,49.39-183.16,241.21-193.3,342.08-185.16a143.21,143.21,0,0,1,13.84,18.9c7,11.36,9.67,19.33,9.67,19.33S2520.13,2045.59,2500,2305C2481.2,2546.48,2818.32,2534.81,2818.32,2534.81Z" transform="translate(-441.71 -654.82)"/></g><g class="cls-7"><path class="cls-2" d="M2808.65,2049.6c-71.61-16-176.82-30.68-242.73.53-94.65,44.84-239.41,147.3-204.71,408.68a281.43,281.43,0,0,1-26.83-108.64c-12.73-289.69,194.2-377.2,318.36-377.2C2747.92,1972.92,2791.49,2021.56,2808.65,2049.6Z" transform="translate(-441.71 -654.82)"/></g><path class="cls-4" d="M2628.61,2645.44a305.45,305.45,0,0,1-78.81-10.66c-112.17-30-228.4-129.3-235.19-283.74-5.44-123.63,26.68-222.76,95.46-294.64,91.66-95.79,208.93-103.25,242.69-103.26h0c146.31,0,182.82,105.1,184.3,109.57a19.84,19.84,0,0,1-2.85,18,19.41,19.41,0,0,1-16.32,8.05c-1.13,0-75.75-.91-149.74,26.44-95.3,35.22-145.25,99.33-148.46,190.55-2.27,64.51,15.86,114.28,53.88,147.93,84.21,74.52,240,50.87,241.58,50.63a19.81,19.81,0,0,1,19.83,30.18C2789.52,2606.16,2714.2,2645.43,2628.61,2645.44Zm24.2-652.68h0c-61.38,0-149.86,23.93-214.06,91-61,63.77-89.45,153.1-84.51,265.51,5.91,134.38,107.63,221,205.83,247.2,67.13,17.93,153.85,12.33,214.41-49-58.7,2.13-159.37-4.37-226.94-64.08-47.39-41.87-70-102.13-67.34-179.1,3.79-107.66,64.43-186.05,175.36-226.7,49.86-18.27,98.85-24.87,130-27.23C2767.29,2026.08,2728.56,1992.76,2652.81,1992.76Z" transform="translate(-441.71 -654.82)"/><path class="cls-10" d="M870.09,1215.25c-9.61,70.62-20,126.6-20,126.6s-261.74,40.25-293.59-5.7-22.87-91.06,5.44-128,129.08-18.7,129.08-18.7-101.14-77-74-163.88c17.69-56.73,94-91.16,160.29-100.3,35.34-4.86,67.82-2.48,87.25,7.45C899,950.39,885.56,1101.76,870.09,1215.25Z" transform="translate(-441.71 -654.82)"/><ellipse class="cls-2" cx="350.61" cy="398.33" rx="50.1" ry="65.31"/><g class="cls-1"><path class="cls-4" d="M870.09,1215.25c-9.61,70.62-20,126.6-20,126.6s-261.74,40.25-293.59-5.7-22.87-91.06,5.44-128,129.08-18.7,129.08-18.7-101.14-77-74-163.88c17.69-56.73,94-91.16,160.29-100.3C792.66,1000.77,821.76,1116.49,870.09,1215.25Z" transform="translate(-441.71 -654.82)"/></g><path class="cls-4" d="M659.32,1374c-84.66,0-106.84-15.87-115.83-28.84-32.61-47.07-30.51-99.14,5.91-146.64,19.79-25.79,63.13-30.33,97.4-29.35-29.36-33.1-63.81-87.72-44.93-148.27,11.55-37,45.77-69.12,96.36-90.38,61.59-25.88,136.19-31,173.53-11.89,20.81,10.65,42.15,46.53,22.32,231.1-10.55,98.17-28.21,194.06-28.39,195a15.84,15.84,0,0,1-13.17,12.78c-.66.1-66.94,10.23-136.27,14.54C694.66,1373.39,675.8,1374,659.32,1374Zm-21-173.11c-26.76,0-53.88,4-63.8,16.92-28.15,36.7-29.84,73.48-5,109.31,1.52,2.18,18.46,21.15,144.54,13.32,51.28-3.18,100.92-9.62,122.45-12.62,4.9-27.92,17.73-104.1,26.06-181.63,19.79-184.3-4.23-198.82-5.26-199.35-25.19-12.89-88.49-11.62-146.82,12.89-41.83,17.58-69.67,42.65-78.39,70.61-23.53,75.43,67.62,145.86,68.54,146.56a15.84,15.84,0,0,1-12.42,28.2A300.13,300.13,0,0,0,638.35,1200.88Zm211.76,141h0Z" transform="translate(-441.71 -654.82)"/><path class="cls-11" d="M660.46,1464.16h0a32.26,32.26,0,0,1,6.66-45.13l111.74-83a32.25,32.25,0,0,1,45.13,6.66h0a32.25,32.25,0,0,1-6.66,45.12l-111.74,83A32.25,32.25,0,0,1,660.46,1464.16Z" transform="translate(-441.71 -654.82)"/><path class="cls-11" d="M660.46,1464.16h0a32.26,32.26,0,0,1,6.66-45.13l111.74-83a32.25,32.25,0,0,1,45.13,6.66h0a32.25,32.25,0,0,1-6.66,45.12l-111.74,83A32.25,32.25,0,0,1,660.46,1464.16Z" transform="translate(-441.71 -654.82)"/><path class="cls-4" d="M686.45,1493a48.94,48.94,0,0,1-7.12-.52,48.1,48.1,0,0,1-21.66-86.2l111.74-83a48.1,48.1,0,1,1,57.37,77.22l-111.75,83A47.7,47.7,0,0,1,686.45,1493ZM798.06,1345.5a16.24,16.24,0,0,0-9.75,3.24l-111.74,83a16.41,16.41,0,1,0,19.57,26.34l111.74-83a16.4,16.4,0,0,0-9.82-29.58Z" transform="translate(-441.71 -654.82)"/><path class="cls-10" d="M850.44,1288.56S620.22,1465.49,565.3,1438.13c-46.16-23-64.23-60.58-64.23-102a160.49,160.49,0,0,1,1.9-23.88c5.29-34.69,57.25-62.37,89.21-76.31h.05c14.52-6.29,24.93-9.77,24.93-9.77s-137.9-20.55-157.76-118.36C442.24,1023,545,921.45,617.53,894.56c11.14-4.11,21.55-6.49,30.74-6.76,56.93-1.69,157.86,273.27,191.13,368.65,1.8,5,3.38,9.56,4.76,13.52,1,2.91,1.84,5.44,2.64,7.71C849.17,1284.71,850.44,1288.56,850.44,1288.56Z" transform="translate(-441.71 -654.82)"/><path class="cls-4" d="M579.37,1456.87c-9.5,0-16.09-2-21.13-4.56-55.55-27.68-80.74-78.26-70.93-142.43,5.46-35.75,46.64-63.27,80.44-80.13C522.11,1214.07,457.93,1180.1,443.9,1111c-8.37-41.23,7.46-89.7,44.56-136.49C533.71,917.4,602.2,873.34,647.77,872c25-.93,64,22.36,142,209.34,41.69,99.85,75.34,201.26,75.68,202.27a15.85,15.85,0,0,1-5.39,17.54c-.58.45-58.87,45.14-123.15,85.86C648.62,1443,604.11,1456.87,579.37,1456.87Zm69.39-553.21h0c-31.35.93-92.05,35.79-135.43,90.5-31.19,39.34-44.8,78.58-38.33,110.5,17.45,85.95,143.27,105.65,144.54,105.84a15.84,15.84,0,0,1,2.7,30.69c-37.62,12.63-99,43.75-103.56,73.48-7.77,50.87,10.31,87.64,53.74,109.28,4.4,2.18,32.15,9.4,147.45-63.62,48.39-30.64,93.36-63.61,112-77.52-9.72-28.55-37.91-109.53-71.27-189.43C682.51,906.59,650.61,903.66,648.76,903.66Z" transform="translate(-441.71 -654.82)"/><circle class="cls-11" cx="859.71" cy="1317.51" r="52.06" transform="translate(-1059.03 1204.32) rotate(-77.01)"/><path class="cls-4" d="M859.71,1385.42a67.91,67.91,0,1,1,67.9-67.91A68,68,0,0,1,859.71,1385.42Zm0-104.12a36.22,36.22,0,1,0,36.21,36.21A36.26,36.26,0,0,0,859.71,1281.3Z" transform="translate(-441.71 -654.82)"/><ellipse class="cls-2" cx="162.17" cy="417" rx="50.1" ry="65.31"/><g class="cls-1"><path class="cls-4" d="M617.16,1226.19s-137.9-20.55-157.76-118.36C442.24,1023,545,921.45,617.53,894.56c-24.61,37.08-36.23,79.54-28.15,126.34,11.72,68.29,58.83,126.38,115.35,166.52,41.24,29.31,87.46,50.33,134.67,69,1.8,5,3.38,9.56,4.76,13.52q-126-17-251.93-34C606.75,1229.67,617.16,1226.19,617.16,1226.19Z" transform="translate(-441.71 -654.82)"/></g><g class="cls-1"><path class="cls-4" d="M814.34,1292c3.9,4.72-6.7,25.54-6.69,25.53h0s-47.5,35.11-79.18,56.1c-74.06,49-122.66,84.73-163.17,64.52-46.16-23-64.23-60.58-64.23-102a288.64,288.64,0,0,0,48.06,12.62c105,18,197.68-26.93,202.86-29.52C778.27,1306.09,809.22,1285.78,814.34,1292Z" transform="translate(-441.71 -654.82)"/></g><ellipse class="cls-2" cx="589.68" cy="1340.8" rx="26.04" ry="33.95" transform="translate(-856.26 -380.32) rotate(-19.54)"/><ellipse class="cls-2" cx="696.07" cy="1178.96" rx="26.04" ry="33.95" transform="translate(-795.99 -354.06) rotate(-19.54)"/><ellipse class="cls-2" cx="663.55" cy="1299.81" rx="19.8" ry="25.81" transform="translate(-838.29 -357.97) rotate(-19.54)"/><path class="cls-9" d="M1836.26,987.77c-29.14,138.78-162.67,227.1-298.24,197.27-61.73-13.59-113.31-49.41-148.37-97.46a260.87,260.87,0,0,1-44.37-207.87c29.15-138.83,162.68-227.15,298.3-197.3,60,13.2,110.33,47.31,145.3,93.32A261.24,261.24,0,0,1,1836.26,987.77Z" transform="translate(-441.71 -654.82)"/><g class="cls-1"><path class="cls-4" d="M1832.83,982.61c-29.15,138.78-162.67,227.1-298.24,197.27-61.74-13.59-113.31-49.4-148.37-97.45,78.17-123.17,204.06-255.88,399.22-311.85A261.26,261.26,0,0,1,1832.83,982.61Z" transform="translate(-441.71 -654.82)"/></g><g class="cls-7"><path class="cls-2" d="M1619.12,724.79c60,13.2,110.33,47.31,145.31,93.32a262.1,262.1,0,0,1,29.28,267,261.9,261.9,0,0,0-4.83-309.38c-35-46-85.3-80.12-145.3-93.32-116.67-25.68-231.73,36.14-280.18,142.31C1420.08,745.17,1519,702.75,1619.12,724.79Z" transform="translate(-441.71 -654.82)"/></g><path class="cls-4" d="M1591.24,1212.62a269.1,269.1,0,0,1-57.91-6.33c-147-32.34-240.89-180.86-209.34-331.07,15.51-73.87,58.48-136.79,121-177.17,60.78-39.27,133-52.37,203.26-36.9,147,32.35,240.88,180.86,209.34,331.07-15.51,73.87-58.48,136.8-121,177.18A267,267,0,0,1,1591.24,1212.62Zm-.83-514.25a223.87,223.87,0,0,0-121.82,36.24c-52.67,34-88.89,87.14-102,149.56-26.66,126.94,52.34,252.37,176.09,279.61,58.87,13,119.34,2,170.28-31,52.67-34,88.9-87.14,102-149.56h0c26.65-126.94-52.34-252.37-176.09-279.6A225.15,225.15,0,0,0,1590.41,698.37Z" transform="translate(-441.71 -654.82)"/><path class="cls-9" d="M2440,1077c-27.79,150.75,69.06,296,216.31,324.46a265.19,265.19,0,0,0,187.7-33.41c65.24-39.15,114.17-105.92,129.3-188,27.8-150.8-69.05-296.07-216.35-324.53a264.76,264.76,0,0,0-183,30.62C2506.42,924.94,2455.47,993,2440,1077Z" transform="translate(-441.71 -654.82)"/><g class="cls-1"><path class="cls-4" d="M2440,1077c-27.79,150.75,69.06,296,216.31,324.46a265.19,265.19,0,0,0,187.7-33.41c-27.44-156.22-98.51-342.44-270-481.93C2506.42,924.94,2455.47,993,2440,1077Z" transform="translate(-441.71 -654.82)"/></g><g class="cls-7"><path class="cls-2" d="M2763.94,908.22A264.74,264.74,0,0,0,2581,938.84c-67.58,38.81-118.53,106.85-134,190.88a284.14,284.14,0,0,0-4.47,62.51A283,283,0,0,1,2440,1077c15.49-84,66.44-152.07,134-190.88a264.76,264.76,0,0,1,183-30.62c126.72,24.48,216,135.44,220.82,262C2953.86,1013.92,2872.69,929.23,2763.94,908.22Z" transform="translate(-441.71 -654.82)"/></g><path class="cls-4" d="M2707.16,1428.14a289.54,289.54,0,0,1-55-5.29c-158.72-30.66-263.52-187.59-233.62-349.81h0c14.72-79.8,59.21-148.58,125.3-193.68,64.2-43.81,141.35-59.87,217.21-45.21,158.72,30.66,263.52,187.59,233.61,349.81-14.71,79.8-59.2,148.58-125.29,193.68C2820.7,1410.87,2764.55,1428.14,2707.16,1428.14Zm-245.77-347.21c-25.59,138.82,63.7,273,199.05,299.18,64.39,12.44,129.89-1.21,184.42-38.43,56.43-38.51,94.43-97.32,107-165.61,25.59-138.82-63.7-273-199.05-299.17-64.39-12.45-129.89,1.21-184.42,38.42-56.43,38.5-94.43,97.32-107,165.61Z" transform="translate(-441.71 -654.82)"/><path class="cls-2" d="M1356.13,1337.86S921.4,1915.77,1870.8,2113.29c962.21,200.2,1016.53-475.46,891.64-845.18-118.2-349.92-354.82-447.76-666.9-483.35C1768.06,747.41,1412,969.49,1356.13,1337.86Z" transform="translate(-441.71 -654.82)"/><path class="cls-4" d="M2190.2,2152.19c-96.69,0-203.64-12.11-319.94-36.31-329.48-68.55-529.25-190.13-593.78-361.37-76.25-202.36,68.37-405.66,77.14-417.69C1380.08,1163.6,1475.54,1011,1622.46,907c138.34-97.89,310.87-143.4,473.38-124.88,180.06,20.54,305.67,58.84,407.28,124.21,120.27,77.36,205.92,195.42,261.82,360.93,68.32,202.23,86.65,507.73-86.52,703.15-72.14,81.41-171.5,136.2-295.32,162.83C2324.39,2145.88,2260,2152.19,2190.2,2152.19ZM2024.69,783.42c-292,0-611.86,198.35-665.95,554.84l-.1.65-.4.54c-1.55,2.06-154,208.39-76.8,413.23,63.86,169.42,262.33,289.88,589.9,358,378.58,78.76,648.8,30.39,803.13-143.8,171.67-193.73,153.33-497.06,85.47-697.95-118.32-350.26-351.29-445.83-664.7-481.58A622.68,622.68,0,0,0,2024.69,783.42Z" transform="translate(-441.71 -654.82)"/><path class="cls-9" d="M1682.11,1566.58s51-115.59,132-190c43.83-40.28,58.56-105.46,32.65-159.6-16.48-34.42-49.16-64.53-111.53-72.75-166.34-21.91-310.87,177.24-330.82,309s48.77,203.93,100.29,215.52S1640.25,1675.33,1682.11,1566.58Z" transform="translate(-441.71 -654.82)"/><path class="cls-9" d="M2203.05,1681.16s-18.56-135.91-82.53-239.45c-34.63-56.06-29.9-128,15.29-175,28.73-29.87,73.62-49.89,143.69-37.47,186.85,33.13,280,286.22,259.84,428.36S2422,1851,2362.55,1845.62,2213.85,1807,2203.05,1681.16Z" transform="translate(-441.71 -654.82)"/><g class="cls-1"><path class="cls-4" d="M2762.44,1268.11c-64.73-191.62-165-307.64-293.66-379.25,88.23,68.55,158.47,167.64,207.32,312.26,118.12,349.67,66.74,988.7-843.3,799.36-411.29-85.57-547.91-246.62-575.21-396-11.33,178.86,93.77,400.79,613.21,508.86C2833,2313.49,2887.33,1637.83,2762.44,1268.11Z" transform="translate(-441.71 -654.82)"/></g><g class="cls-1"><path class="cls-4" d="M2113.66,1611.67c-3.61-10.75-17.92-12.33-23.36-2.42-14.51,26.41-43,62.49-86.48,50.12-66.42-18.9-25.3-100.56-25.3-100.56l-55.17-9.79-55.44-9.82s-4.2,106.16-66,86.57c-36-11.42-46.4-41.17-48.8-64-1.18-11.16-14.93-15.36-21.92-6.7-25,31-51.25,89.65,36,148.54l137.49-44.3,143.73,82.27C2134.57,1716.48,2126.45,1649.74,2113.66,1611.67Z" transform="translate(-441.71 -654.82)"/></g><path class="cls-4" d="M2040.6,1487.52c-34-28.82-100.21-39.25-100.21-39.25s-65.78-13-107.27,2.47c-13.81,5.14-21.62,20.25-18.63,35,6.26,30.87,28,84.7,103,98s113.14-29.92,129.18-56.84C2054.31,1514,2051.92,1497.12,2040.6,1487.52Z" transform="translate(-441.71 -654.82)"/><path class="cls-4" d="M1939.82,1571.05c-.17,2.72-.33,4.26-.53,6.3l-.7,5.64c-.51,3.71-1.1,7.38-1.87,11a191.21,191.21,0,0,1-5.82,21.67c-4.88,14.26-11.64,28.53-21.64,41.55a115,115,0,0,1-17.49,18.06,95.77,95.77,0,0,1-22.18,13.42,101.28,101.28,0,0,1-49.1,7.5,162.86,162.86,0,0,1-44.15-10.64c-14.15-5.72-28.4-14.39-39.52-27.22s-18.13-29.59-18.23-45.62,4.78-30.79,15.07-42.46a5.4,5.4,0,0,1,9.4,2.84l.12.88c1.75,13,3.47,24.88,6.53,34.75s7.13,18.09,14.09,24.32,16.09,10.67,26.45,13.71a120.78,120.78,0,0,0,32.38,4.9c20.95.2,36-7.94,47.41-23.8a107.72,107.72,0,0,0,13.66-28,155,155,0,0,0,4.47-16.12c.57-2.75,1.19-5.5,1.66-8.25l.66-4.06.45-3.44.21-1.58a24.46,24.46,0,0,1,48.67,4.67Z" transform="translate(-441.71 -654.82)"/><path class="cls-4" d="M1939.94,1570.54l-.77,3.65-.77,4.36c-.49,2.94-.85,6-1.21,8.94a152.79,152.79,0,0,0-1,17.92,106.31,106.31,0,0,0,4.8,33.22,62.87,62.87,0,0,0,15.61,25.48c3.42,3.61,7.76,6.44,12.19,9.29a99.11,99.11,0,0,0,15.09,6.82,144.21,144.21,0,0,0,35.43,7.15c3,.32,5.87.18,8.84.38,2.81-.18,5.79,0,8.5-.46a58.76,58.76,0,0,0,15.67-3.44c9.82-3.49,17.24-10,24-18.79s12.56-20.22,18.38-32.85l.36-.78a5.35,5.35,0,0,1,9.85.3c6,15.38,5.44,32.1-1,48.18s-20.46,29.77-36.35,37.62a96.12,96.12,0,0,1-24.56,8.39c-4.17,1-8.24,1.36-12.39,2-4,.25-8.21.76-12.19.67a185.46,185.46,0,0,1-47.49-5.69,123.56,123.56,0,0,1-23.85-8.92c-7.69-4.15-15.38-8.75-22.15-14.84-13.9-11.71-24.09-27.74-30.12-44.09s-8.3-33.3-8.43-49.48a191.88,191.88,0,0,1,1.52-24.06c.47-4,1.17-7.9,1.94-11.85l1.28-6c.52-2.14.9-3.76,1.7-6.57a24.46,24.46,0,0,1,47.46,11.74Z" transform="translate(-441.71 -654.82)"/><path class="cls-4" d="M2041.07,1769.44c-16.28,49.62-55.21,106.58-148.25,90.08-35.18-6.23-60.57-19.46-78.78-36.25-63.59-58.66-39.74-160.75-39.74-160.75,110.33,39.5,134-48,138.89-79.52-14.9,157.34,139.62,120.55,139.62,120.55A243.24,243.24,0,0,1,2041.07,1769.44Z" transform="translate(-441.71 -654.82)"/><path class="cls-12" d="M2041.07,1769.44c-16.28,49.62-55.21,106.58-148.25,90.08-35.18-6.23-60.57-19.46-78.78-36.25C1814,1823.27,1891,1673.06,2041.07,1769.44Z" transform="translate(-441.71 -654.82)"/><path class="cls-4" d="M1924.26,1881.5a199.33,199.33,0,0,1-34.74-3.21c-49.86-8.84-87.13-31.5-110.76-67.35-42.86-65-23.85-149.19-23-152.74a19.05,19.05,0,0,1,25-13.6c33.89,12.13,60.66,11.9,79.58-.67,23.55-15.65,31.44-47.34,34-63.18q.52-5.45,1.29-11.07a19,19,0,0,1,37.89,3.48c0,.71-.29,5.39-1.39,12.51-3.52,38.63,3.86,66.54,22,83,33.1,30.13,93.78,16.42,94.39,16.28a19.07,19.07,0,0,1,23.41,18.73c0,4-1.7,98.63-61.73,148.43C1986.57,1871.68,1957.79,1881.5,1924.26,1881.5Zm-134.34-194.39c-2.3,25.08-2,68.65,20.76,103.05,17.66,26.66,46.42,43.7,85.49,50.62,37.17,6.59,67.33.55,89.62-18,31.21-25.89,42.13-70.35,45.93-97.13-27.53,2.1-71.62-.1-103.15-28.67a100.38,100.38,0,0,1-26.7-39.81,96.87,96.87,0,0,1-20.28,18.29C1856.93,1692,1826.17,1695.87,1789.92,1687.11Z" transform="translate(-441.71 -654.82)"/><ellipse class="cls-2" cx="1913.3" cy="1473.85" rx="13.12" ry="60.5" transform="translate(-258.46 2504.23) rotate(-81.86)"/><path class="cls-4" d="M1945,1492.07a248.22,248.22,0,0,1-33.86-2.6c-21.61-3.09-62.05-12.19-60.37-24.53a6.52,6.52,0,0,1,2.77-4.32c8.63-6.52,37.31-5.89,61.89-2.38,21.62,3.08,62,12.18,60.37,24.52a6.58,6.58,0,0,1-2.76,4.33C1968.35,1490.63,1957.7,1492.07,1945,1492.07Zm-63-31.15c-13.18,0-22.17,1.59-25.25,3.91-.5.38-.69.68-.71.82-.48,3.54,18.8,13.29,55.88,18.59,30.67,4.38,52.76,2.56,58-1.37.5-.37.7-.68.72-.82.48-3.53-18.81-13.29-55.88-18.58A235.34,235.34,0,0,0,1882,1460.92Z" transform="translate(-441.71 -654.82)"/><path class="cls-4" d="M2190.22,2171.31c-98,0-206.3-12.25-323.85-36.71-336.31-70-540.8-195.58-607.78-373.34-76.32-202.54,53.44-399,76.85-431.94,28.22-176.5,126.07-331.84,276-437.92,142.12-100.58,319.5-147.33,486.59-128.27,183.12,20.89,311.25,60.09,415.46,127.12,124.06,79.81,212.24,201.13,269.59,370.9,70,207.07,88.27,520.4-90.32,721.95-74.9,84.53-177.73,141.34-305.62,168.85C2327.12,2164.86,2261.35,2171.3,2190.22,2171.31Zm-816.68-820.38c-1.66,2.22-147.66,200.63-74.11,395.25,61.5,162.76,255.23,279.11,575.8,345.81,371.38,77.25,635.47,30.91,784.93-137.76,166.23-187.6,147.88-483.11,81.66-679.15-115.09-340.71-342.58-433.78-648.74-468.7-299.83-34.19-658.65,160.53-715.43,534.74A21.79,21.79,0,0,1,1373.54,1350.93Zm-17.41-13.07h0Z" transform="translate(-441.71 -654.82)"/><path class="cls-4" d="M2385.75,1445.06c-14.32,3-29,6.46-42.6,10.58a300.33,300.33,0,0,0-39.25,14.78l-4.62,2.19a34.35,34.35,0,0,0-4.55,2.25c-3,1.61-5.9,3.27-8.88,4.8s-5.65,3.55-8.48,5.28l-4.24,2.62-4,3c-11,7.36-20.26,16.79-29.49,26.32l-24.34-36.93c1.45-.39,2.31-.57,3.26-.78s1.89-.41,2.77-.57c1.79-.31,3.58-.63,5.3-.84,3.5-.52,6.93-.82,10.36-1.13a166.64,166.64,0,0,1,20.47-.23,156.7,156.7,0,0,1,39.9,7.07,141.29,141.29,0,0,1,36.26,17c11.24,7.06,20.86,16.26,29.24,25.94a8,8,0,0,1-9,12.67l-.93-.36c-5.55-2.2-10.57-4.9-15.9-6.89s-10.49-4.06-15.88-5.44a157.83,157.83,0,0,0-31.8-6.44,165,165,0,0,0-31.72-.57c-5.25.37-10.44,1.08-15.55,1.85-2.54.45-5.08.88-7.5,1.46-1.25.25-2.4.57-3.55.87-.6.14-1.16.28-1.64.43l-1.11.32-3.34.57a22.8,22.8,0,0,1-21-37.5l8.61-9.83,4.36-4.88c1.48-1.6,3.2-3,4.79-4.46l9.79-8.73c3.38-2.76,7.07-5.12,10.6-7.68l5.36-3.74c1.85-1.15,3.76-2.18,5.67-3.23,3.82-2.06,7.58-4.26,11.46-6.15,7.94-3.4,15.8-7,24.07-9.16a175.42,175.42,0,0,1,49.75-7.65c16.71,0,32.9,1.91,49.14,7.5a8.07,8.07,0,0,1-.94,15.51Z" transform="translate(-441.71 -654.82)"/><ellipse class="cls-4" cx="1642.53" cy="1366.91" rx="132.6" ry="95.06" transform="translate(-618.21 1833.47) rotate(-71.42)"/><ellipse class="cls-2" cx="1658.56" cy="1313.1" rx="41.84" ry="36.41" transform="translate(-519.55 1866.58) rotate(-73.2)"/><g class="cls-1"><path class="cls-2" d="M1603.38,1391.1a26.27,26.27,0,0,0-33.84,16.22c-5,14,2.13,29.55,15.84,34.64a26.25,26.25,0,0,0,33.84-16.22C1624.19,1411.7,1617.1,1396.19,1603.38,1391.1Z" transform="translate(-441.71 -654.82)"/></g><path class="cls-2" d="M3166.78,1225.94a217.31,217.31,0,0,1-17.52-138.32c23.87-118.17,139-194.62,257.18-170.75s194.62,139,170.75,257.18-139,194.62-257.18,170.75a217.51,217.51,0,0,1-87.65-39.22l-102.73,12.76Z" transform="translate(-441.71 -654.82)"/><g class="cls-13"><path class="cls-2" d="M3398.13,958c-110.39-22.29-218.11,43-251.28,148a220.39,220.39,0,0,1,3.36-23.07c23.87-118.16,139-194.61,257.18-170.74s194.61,139,170.75,257.18a223.39,223.39,0,0,1-5.87,22.67C3582.52,1082.33,3508.55,980.33,3398.13,958Z" transform="translate(-441.71 -654.82)"/></g><path class="cls-4" d="M3363.3,1365.16a234.92,234.92,0,0,1-135.25-42.91l-96.45,12a16,16,0,0,1-16.83-21.87l34.56-85.95a232,232,0,0,1-15.77-142C3159.14,957.81,3283,875.6,3409.61,901.17s208.86,149.41,183.28,276.05C3570.46,1288.27,3472.47,1365.16,3363.3,1365.16Zm-130.94-75.6a16,16,0,0,1,9.61,3.21,200.47,200.47,0,0,0,81.21,36.33c109.32,22.06,216.23-48.9,238.31-158.22s-48.9-216.23-158.22-238.31S3187,981.47,3165,1090.79A200.47,200.47,0,0,0,3181.19,1219a16,16,0,0,1,.45,13l-27,67.18,75.76-9.41A14.59,14.59,0,0,1,3232.36,1289.56Z" transform="translate(-441.71 -654.82)"/><g class="cls-1"><path class="cls-4" d="M3165.76,1223.74a251.88,251.88,0,0,0,217.83,73.8c92.47-13.69,165.68-76,197.73-157.08a220.87,220.87,0,0,1-4.13,33.59c-23.87,118.17-139,194.62-257.18,170.75a217.51,217.51,0,0,1-87.65-39.22l-102.73,12.76,37.15-92.4C3166.43,1225.22,3166.11,1224.47,3165.76,1223.74Z" transform="translate(-441.71 -654.82)"/></g><path class="cls-14" d="M3293.09,1069.49h0c18.89-18.89,49.52-15.51,68.41,3.38l2.94,2.94,2.94-2.94c18.89-18.89,49.52-22.27,68.41-3.38h0a48.37,48.37,0,0,1,0,68.41l-2.94,2.94-59.39,59.39a12.76,12.76,0,0,1-18,0L3296,1140.84l-2.94-2.94A48.37,48.37,0,0,1,3293.09,1069.49Z" transform="translate(-441.71 -654.82)"/></svg>