<svg id="Layer_1" data-name="Layer 1" xmlns="http://www.w3.org/2000/svg" viewBox="0 0 3000.55 1966.11"><defs><style>.cls-1{fill:#fff;}.cls-2{opacity:0.3;}.cls-3{fill:#000072;}.cls-4{fill:#32a6fc;}.cls-5{opacity:0.7;}.cls-6{fill:#201777;}.cls-7{fill:#ffdab6;}.cls-8{fill:#00dbff;}.cls-9{fill:#ffe448;}</style></defs><path class="cls-1" d="M1117.5,1836.07s-556.07-19.28-546.43,514.29,562.5,527.14,716.79,347.14c0,0,98,482.14,647.68,482.14s703.92-419.46,703.92-419.46,544.83,318.21,814.83-217-231.43-880.71-540-723.21c0,0-337.5-540-835.72-180,0,0-139.28-85.71-287.14,66.43C1791.43,1706.43,1390.71,1386.07,1117.5,1836.07Z" transform="translate(-550.95 -1233.53)"/><g class="cls-2"><path class="cls-3" d="M571.55,2309.37c19.06,519.33,563.39,511.53,716.31,333.13,0,0,98,482.14,647.67,482.14s703.94-419.46,703.94-419.46,544.81,318.21,814.81-217c48.51-96.13,72.08-186.13,76.37-268.2-3.86-71.66-22.82-136.31-52.56-192.61,9.89,98.24-9.88,211-72,334.11-204.29,404.93-571.5,303.92-720.9,241.22a78.48,78.48,0,0,0-98,32.43c-67.19,114.21-250.59,340.91-647.67,340.91-375.55,0-532.77-233.09-592.6-369.42-18.31-41.7-68.43-58.89-108.67-37.53-203.37,108-608.22,54.26-616.32-393.85a653.13,653.13,0,0,1,4-86.6C595.13,2147.49,575,2220.05,571.55,2309.37Z" transform="translate(-550.95 -1233.53)"/></g><g class="cls-2"><path class="cls-3" d="M1048.53,2268.4s-17.82-244.83,513.61-204.11S3105.84,1721.38,3174,2196.58c0,0-407.56-177.29-594,275.92,0,0-401.79-215.36-639.64,67.5C1940.36,2540,1670.63,1955,1048.53,2268.4Z" transform="translate(-550.95 -1233.53)"/></g><path class="cls-3" d="M1935.54,3199.64c-292,0-458-135.31-545.78-248.83-65.64-84.88-98.09-169.1-112.22-214.7-102.22,89-291.79,118-443.63,63.41-103.27-37.14-277.34-144.84-282.83-448.8-2.88-159.24,43.11-286.65,136.69-378.69,147.77-145.34,365.28-155.79,418.64-156.07,83.87-133.92,187.76-212.68,308.92-234.15,173.48-30.77,327.36,65.19,374.25,98.35,77.17-73.06,151.67-86.27,201.77-84a230.81,230.81,0,0,1,85.54,20.46c145.28-102,291.56-139.44,434.87-111.4,224.76,44,371,233.78,409.53,289.23,155.18-69.68,353.69-26.58,489.06,108.15,74.39,74,121.46,168.4,136.12,272.87,16.71,119.09-8.29,245.84-74.33,376.73-79.84,158.25-191.26,259.47-331.17,300.84-213.49,63.13-426.53-31.52-491.74-64.89-17.08,36.79-59.91,116.16-141.63,196C2407.06,3082.49,2226.2,3199.64,1935.54,3199.64ZM1287.86,2677.5a20,20,0,0,1,19.6,16c.23,1.15,25.13,118.62,115,234.13,119.7,153.94,292.35,232,513.12,232,221.76,0,404.37-68.19,542.73-202.7,103.43-100.55,142.05-202.67,142.43-203.69a20,20,0,0,1,28.85-10.34c2.43,1.42,246.29,141.05,480.33,71.71,128.79-38.16,231.93-132.51,306.55-280.42,115.5-228.93,95.2-454.44-54.3-603.23-128-127.39-316.62-165.7-458.75-93.16a20,20,0,0,1-26.05-7.21c-1.49-2.38-152.31-239.11-393.52-286.16-135.27-26.37-274.39,11.23-413.52,111.77a20,20,0,0,1-22.2.82c-5.1-3.08-128.09-74.78-262.32,63.34a20,20,0,0,1-26.83,1.68c-1.67-1.33-170.74-134-356.91-100.8-112.12,20-208.83,95.73-287.44,225.2a20.37,20.37,0,0,1-17.78,9.61c-3.11-.12-247.94-6.26-401.19,144.68-85.31,84-127.22,201.54-124.55,349.26,5.06,280,162.8,378.23,256.38,411.88,75.33,27.1,162.11,32.9,244.38,16.34,77.19-15.54,143.11-49.71,180.84-93.74A20,20,0,0,1,1287.86,2677.5Z" transform="translate(-550.95 -1233.53)"/><path class="cls-4" d="M3037,2168.2c-40,154.7-149.05,282.15-293.35,350.7-247.5,117.5-723.6,277-1044.8-32.25-66.75-64.25-115.35-144.4-140.15-231.75a487.1,487.1,0,0,1-18.55-146.2c3-112.35,44.65-240.35,191.7-322.45,135.85-75.85,301.6-69.85,436.2,8.25,53.55,31,123.55,58.85,204.8,61.35,191.25,6,312.85-189.15,572.15,0,27.8,20.25,49.15,42.8,65.2,66.85C3059.7,1996.9,3058.35,2085.75,3037,2168.2Z" transform="translate(-550.95 -1233.53)"/><path class="cls-1" d="M2796.29,1897.65l12.22,13.51a18.57,18.57,0,0,0,21.35,4.5l16.63-7.45c16.41-7.35,32.64,10.6,23.68,26.19l-9.07,15.79a18.57,18.57,0,0,0,2.32,21.7l12.22,13.51c12.06,13.33,0,34.31-17.59,30.61l-17.82-3.75a18.58,18.58,0,0,0-19.92,8.92l-9.07,15.79c-9,15.6-32.63,10.62-34.55-7.26l-1.94-18.11a18.57,18.57,0,0,0-14.64-16.19l-17.82-3.75c-17.6-3.7-20.18-27.75-3.77-35.1l16.62-7.44A18.56,18.56,0,0,0,2766,1930.2l-1.94-18.12C2762.15,1894.21,2784.23,1884.32,2796.29,1897.65Z" transform="translate(-550.95 -1233.53)"/><path class="cls-1" d="M2041.33,2305.23l-.55,18.2a18.56,18.56,0,0,0,12.29,18l17.14,6.15c16.93,6.07,16.2,30.26-1.06,35.29l-17.49,5.11a18.55,18.55,0,0,0-13.35,17.25l-.55,18.21c-.54,18-23.77,24.75-33.89,9.89l-10.26-15.05a18.58,18.58,0,0,0-20.54-7.37l-17.48,5.11c-17.27,5-30.89-15-19.89-29.18l11.15-14.41a18.56,18.56,0,0,0,.66-21.81l-10.26-15.05c-10.12-14.86,4.68-34,21.61-27.92l17.14,6.15a18.58,18.58,0,0,0,21-6.12l11.14-14.4C2019.1,2279.09,2041.87,2287.25,2041.33,2305.23Z" transform="translate(-550.95 -1233.53)"/><path class="cls-1" d="M2278.88,1914.16l4.49,9.27a10.5,10.5,0,0,0,10.86,5.82l10.19-1.4a10.48,10.48,0,0,1,8.69,18l-7.43,7.12a10.52,10.52,0,0,0-2.18,12.14l4.49,9.26c4.42,9.14-5.44,18.6-14.4,13.81l-9.06-4.86a10.5,10.5,0,0,0-12.22,1.67l-7.42,7.13a10.49,10.49,0,0,1-17.58-9.42l1.82-10.13a10.49,10.49,0,0,0-5.37-11.1l-9.07-4.86c-9-4.79-6.53-18.24,3.53-19.62l10.19-1.4a10.51,10.51,0,0,0,8.9-8.54l1.82-10.12A10.48,10.48,0,0,1,2278.88,1914.16Z" transform="translate(-550.95 -1233.53)"/><path class="cls-1" d="M2649.82,2204.38l2,10.08a10.51,10.51,0,0,0,9.08,8.34l10.22,1.18a10.48,10.48,0,0,1,4,19.54l-9,5.06a10.48,10.48,0,0,0-5.12,11.21l2,10.08c2,10-9.89,16.68-17.37,9.81l-7.58-7a10.48,10.48,0,0,0-12.25-1.41l-9,5.06c-8.84,5-18.91-4.26-14.68-13.49l4.27-9.36a10.49,10.49,0,0,0-2.44-12.08l-7.58-7a10.49,10.49,0,0,1,8.29-18.14l10.22,1.17a10.47,10.47,0,0,0,10.73-6.05l4.28-9.36A10.48,10.48,0,0,1,2649.82,2204.38Z" transform="translate(-550.95 -1233.53)"/><g class="cls-2"><path class="cls-3" d="M2172.86,1746.57s89.12,98.14-54.7,327.46a27.43,27.43,0,0,0-1.6,26.32,319.13,319.13,0,0,1,19.87,53.4s-56.91-27.41-129.31-22.28C2007.12,2131.47,2198,1920.64,2172.86,1746.57Z" transform="translate(-550.95 -1233.53)"/></g><g class="cls-2"><path class="cls-3" d="M3037,2168.2c-40,154.7-149.05,282.15-293.35,350.7-247.5,117.5-723.6,277-1044.8-32.25-66.75-64.25-115.35-144.4-140.15-231.75l273.4,31.15s65.42,66.07,100.16,124.65a30.7,30.7,0,0,0,43.72,9.72c56.12-38.16,189.64-112.24,348-84,0,0,71.25-123.6,16.6-226,0,0,25.14,23.51,48.16,72.13,10.06,21.24,40.86,19,47.55-3.54,13-43.81,35.4-93.49,73.74-128.49,0,0-2.05,20.75-2.2,52.69-.48,100.71,115.38,158.09,195,96.37a394.78,394.78,0,0,1,158.07-74.41c91.94-20.29,155.13-105.59,149.55-199.58l-.18-2.92C3059.7,1996.9,3058.35,2085.75,3037,2168.2Z" transform="translate(-550.95 -1233.53)"/></g><g class="cls-5"><path class="cls-1" d="M1731.85,1836.25c135.85-75.85,301.6-69.85,436.2,8.25,53.55,31,123.55,58.85,204.8,61.35,191.25,6,312.85-189.15,572.15,0,27.8,20.25,49.15,42.8,65.2,66.85,24.55,36.81,36.58,77.22,39.88,118.66,4.33-58.58-5.52-117.15-39.88-168.66-16-24-37.4-46.6-65.2-66.85-259.3-189.15-380.9,6-572.15,0-81.25-2.5-151.25-30.3-204.8-61.35-134.6-78.1-300.35-84.1-436.2-8.25-147,82.1-188.7,210.1-191.7,322.45q-.5,19,.5,37.74C1546.32,2037.14,1590.12,1915.38,1731.85,1836.25Z" transform="translate(-550.95 -1233.53)"/></g><path class="cls-3" d="M2541.33,1840.43c-5.85,2.64-12.79,6-19.13,9.23-3.24,1.64-6.45,3.37-9.63,5.16s-6.41,3.48-9.56,5.32a390.22,390.22,0,0,0-36.76,23.78c-11.57,8.8-22.79,18.14-32.65,28.81a438.94,438.94,0,0,0-28.11,34.73l0,.07a1.7,1.7,0,0,1-3.07-1.07c.5-16.24,6.59-32,14.86-45.94a237.3,237.3,0,0,1,29.93-38.14,303.5,303.5,0,0,1,36.16-31.87c6.36-4.91,13-9.46,19.75-13.79a231.46,231.46,0,0,1,21.29-12.51,20,20,0,0,1,18.17,35.66l-.8.38Z" transform="translate(-550.95 -1233.53)"/><path class="cls-3" d="M2608.6,2583.9c-4.41-5.07-8-9.55-11.83-14.38s-7.42-9.52-10.94-14.4c-7.12-9.7-13.81-19.64-20.44-29.62a689.84,689.84,0,0,1-36.19-62.06,608.78,608.78,0,0,1-51-134.41c-11.37-46.73-16.67-95.37-12.76-143.49a318.82,318.82,0,0,1,12.48-71c1.85-5.72,3.71-11.43,5.75-17.05,2.33-5.55,4.66-11.07,7.22-16.48l3.77-8.12,4.52-7.78c3-5.16,6.17-10.23,9.51-15.16a1.51,1.51,0,0,1,2.74,1.09l0,.1c-1,5.91-2.1,11.68-3.37,17.36l-1.92,8.48-1.56,8.55c-.94,5.71-2.28,11.26-3.34,16.88-.75,5.69-1.69,11.31-2.63,16.91-3.29,22.45-6.41,44.83-6.38,67.44a393.57,393.57,0,0,0,4.64,67.37,459.94,459.94,0,0,0,14.51,66,621.45,621.45,0,0,0,22.8,63.83q13.32,31.25,29.63,61.16c10.94,19.87,22.51,39.42,35.06,58.32,6.35,9.39,12.76,18.76,19.52,27.8l10.15,13.52c3.35,4.37,7,9,10.23,12.77l.25.29a20,20,0,0,1-30.35,26.05Z" transform="translate(-550.95 -1233.53)"/><path class="cls-6" d="M2344.86,2109.64c11.19,14.51,17.82,31.25,22.37,48.42s6.06,35.11,6.22,53a315.81,315.81,0,0,1-4.55,53.66c-.82,4.44-1.91,8.84-2.86,13.26l-1.49,6.63-2,6.51-4,13-4.95,12.7c-3,8.6-7.56,16.53-11.45,24.77-2,4.12-4.55,7.87-6.81,11.82s-4.59,7.89-7.18,11.62l-8,11a121.72,121.72,0,0,1-8.37,10.75l-8.94,10.27-4.48,5.12-4.85,4.74a334.09,334.09,0,0,1-41.11,35c-7.41,5-14.69,10.29-22.24,15L2207,2470.31c-63.09,32.82-131.12,52.54-199.48,64.08l-25.7,4.09-12.84,2-12.89,1.52-25.78,2.93c-8.58,1-17.18,2-25.88,2.55-34.66,2.79-69.72,3.76-105.17,1-17.74-1.7-35.56-3.79-53.39-8.21s-35.67-10.38-52.68-20-33.28-23.3-43.64-42c-5.49-9.1-8.79-19.37-11-29.54-.82-5.12-1.78-10.28-1.85-15.37a107.74,107.74,0,0,1,.12-15.15c1.3-20,7.31-38.35,14.67-55.38a279.54,279.54,0,0,1,27.16-47.47c20.79-29.44,45.55-55.08,72.26-78,53.48-45.77,115.27-81.8,183-102.36,33.75-10.34,69.18-16.3,105-16.07,17.86.46,36,1.86,53.3,6.88s33.78,13.53,46.57,26.62a2.21,2.21,0,0,1-1.78,3.75h-.05c-17.87-1.74-33.82-4.22-49.88-6.16s-31.91-3.87-48.1-3.48c-32.32.84-64.64,7.25-95.64,17.85s-60.87,24.9-89.15,41.75a516.16,516.16,0,0,0-79.6,58.22c-24.54,21.78-46.8,46.1-65,72.51a242.41,242.41,0,0,0-23.25,41.14c-6,14.14-10.55,28.8-11.28,42.84a70.26,70.26,0,0,0,0,10.36c0,3.45.76,6.66,1.23,9.94,1.56,6.35,3.43,12.56,6.89,18,6.19,11.24,16.82,20.3,29.39,27.46s27.27,12.22,42.51,15.92,31.36,5.65,47.47,7.19c32.47,2.43,65.68,1.53,98.85-1.2,8.29-.55,16.61-1.49,24.93-2.5l25-2.88,12.47-1.48,12.36-2,24.73-4c65.69-11.32,130.1-29.82,188.1-59.62,28.85-15,55.58-33.53,78.65-55.54s42.13-47.92,54.9-77l4.75-10.92,3.89-11.26,1.93-5.65,1.54-5.78c1-3.85,2.16-7.68,3.07-11.57a285.35,285.35,0,0,0,6.24-47.76c.63-16.17-.44-32.34-1-48.77s-1.62-33.07-2-50.6v-.16a2.24,2.24,0,0,1,4-1.42Z" transform="translate(-550.95 -1233.53)"/><path class="cls-3" d="M2169.6,2686.49c-169.82,0-341.69-47.78-484.62-185.44-108.55-104.53-168.62-247.72-164.8-392.87,4-150.51,73.79-267.87,201.93-339.41h0c138.77-77.45,313.49-74.23,456,8.42,63.58,36.88,129.32,56.62,195.41,58.67,61.57,1.88,115.55-18.39,172.71-39.88,113.78-42.77,231.42-87,410.6,43.71,102.26,74.61,136.69,189.94,99.56,333.54-41.08,158.88-151.93,291.45-304.13,363.72C2606.73,2606,2389.9,2686.48,2169.6,2686.49Zm-428-882.79c-116.77,65.19-177.81,168-181.43,305.54-3.53,133.94,52.08,266.25,152.55,363,134,129.08,296.36,174.11,457.51,174.11,212.77,0,423.54-78.46,564.83-145.54,141.47-67.18,244.46-190.22,282.56-337.6,33.15-128.2,4.75-226.17-84.41-291.21-161.73-118-264.32-79.42-372.94-38.59-58.29,21.91-118.54,44.66-188,42.42-72.79-2.26-144.87-23.81-214.24-64-130.32-75.61-289.89-78.72-416.4-8.08Z" transform="translate(-550.95 -1233.53)"/><path class="cls-7" d="M1916.78,1397.84s72.45-73.54,157.32,5.43,70.69,188.42,38.92,228S1916.78,1397.84,1916.78,1397.84Z" transform="translate(-550.95 -1233.53)"/><path class="cls-3" d="M2104.88,1655.25c-.75,0-1.52,0-2.28-.08-19-1.27-48.79-17.52-125.94-128.38-40.93-58.82-76.66-118-77-118.64a20,20,0,0,1,2.88-24.35c29.77-30.23,106.82-68.11,185.2,4.83,90.53,84.26,81.64,204.38,40.89,255.2A29.76,29.76,0,0,1,2104.88,1655.25Zm-162-253c58.55,95.31,130.81,195.16,158.33,211.07,20.78-33.65,35.42-124.56-40.75-195.45C2008.41,1369.47,1963.73,1388.15,1942.9,1402.29Z" transform="translate(-550.95 -1233.53)"/><path class="cls-7" d="M1190.54,2118.82s-74.07,71.92,4.29,157.36,187.9,72.05,227.75,40.57S1190.54,2118.82,1190.54,2118.82Z" transform="translate(-550.95 -1233.53)"/><path class="cls-3" d="M1338.69,2361.27c-51.76,0-111.09-19.77-158.6-71.57-72.38-78.92-33.93-155.67-3.48-185.23a20,20,0,0,1,24.37-2.7c.59.35,59.55,36.52,118.08,77.87,110.29,78,126.32,107.87,127.46,126.86a29.92,29.92,0,0,1-11.54,25.94C1412.92,2349.87,1378,2361.27,1338.69,2361.27ZM1194.8,2145c-14.29,20.72-33.3,65.27,14.77,117.69,70.32,76.68,161.34,62.7,195.15,42.15C1389,2277.2,1289.68,2204.22,1194.8,2145Z" transform="translate(-550.95 -1233.53)"/><path class="cls-7" d="M1966.3,2174s-404.9,426.75-655,83.6c0,0-220.5-155.65-257.45-386.15-20.55-127.8,15.4-278.6,176.65-438.7,452-448.75,824.2,86.8,824.2,86.8,66.1,48.9,103.3,103.45,120.25,159.55C2245.7,1912.75,1966.3,2174,1966.3,2174Z" transform="translate(-550.95 -1233.53)"/><g class="cls-2"><path class="cls-3" d="M1966.3,2174s-404.9,426.75-655,83.6c0,0-220.5-155.65-257.45-386.15,5.6,8.2,311.55,451.9,860.1,172.6,178.8-91,248.55-225.15,261-365C2245.7,1912.75,1966.3,2174,1966.3,2174Z" transform="translate(-550.95 -1233.53)"/></g><g class="cls-5"><path class="cls-1" d="M2174.9,1679.1c-17-56.1-54.15-110.65-120.25-159.55,0,0-372.2-535.55-824.2-86.8-103.43,102.7-155.25,201.55-173.73,293,26-75.62,75.72-155.56,158.73-238,115-114.13,224.74-164.58,324.56-176.38a23.52,23.52,0,0,1,19.89,6.81c18.3,19.28,59.87,39.37,110.5,51.4,53.16,12.64,101.44,12.85,125.43,2.4a23,23,0,0,1,20.38,1.32c121.81,69.35,202.38,172.66,219.86,196.31a44.59,44.59,0,0,0,8.84,8.89c62.82,47.88,98.5,101,115,155.6,14.51,47.89,14.29,96.93,4.81,144.65C2186.8,1814.4,2195.06,1745.64,2174.9,1679.1Z" transform="translate(-550.95 -1233.53)"/></g><path class="cls-3" d="M1847.78,1581.7c5.08,21.11,2.66,43.37-3.92,64.26a146.09,146.09,0,0,1-34,56.71c-3.83,4.08-8.07,7.74-12.26,11.42a159.9,159.9,0,0,1-27.82,18.23c-5,2.3-9.91,4.83-15.11,6.57-20.52,7.61-42.15,11.11-63.52,9a1.43,1.43,0,0,1-1.29-1.57,1.46,1.46,0,0,1,.74-1.13c18.66-10.21,36.21-19.41,52.33-29.92,2-1.24,4-2.56,6-4l5.88-4c3.67-3,7.66-5.49,11.16-8.6a205.54,205.54,0,0,0,20.61-18.66,233.05,233.05,0,0,0,34-44.44,353.17,353.17,0,0,0,26-53.94l0-.05a.62.62,0,0,1,.81-.35A.61.61,0,0,1,1847.78,1581.7Z" transform="translate(-550.95 -1233.53)"/><path class="cls-3" d="M1374.88,2050a353.7,353.7,0,0,0,54.13-25.63,233.45,233.45,0,0,0,44.68-33.7,206.7,206.7,0,0,0,18.81-20.48c3.13-3.48,5.65-7.45,8.68-11.1l4-5.85a71,71,0,0,0,4-5.93c10.63-16,20-33.53,30.31-52.1a1.43,1.43,0,0,1,2.69.56c1.93,21.39-1.73,43-9.49,63.45-1.78,5.19-4.34,10.06-6.68,15.06a161,161,0,0,1-18.43,27.69c-3.72,4.16-7.41,8.37-11.51,12.18a146.21,146.21,0,0,1-57,33.61c-20.93,6.43-43.21,8.68-64.28,3.45a.62.62,0,0,1-.08-1.19Z" transform="translate(-550.95 -1233.53)"/><path class="cls-3" d="M1735.3,1856.53c-10.74,4-20.46,7.84-29.22,12.27s-16.33,9.36-22.43,15.3a77.89,77.89,0,0,0-14.92,21.32c-4.12,8.43-7.42,18.15-11.67,29.12a1.05,1.05,0,0,1-1.35.61,1.08,1.08,0,0,1-.55-.48,56.72,56.72,0,0,1,12-68.22,63.8,63.8,0,0,1,33.65-15.5c11.89-1.59,23.82-.52,34.58,4.43a.6.6,0,0,1,.3.81.56.56,0,0,1-.34.32Z" transform="translate(-550.95 -1233.53)"/><path class="cls-3" d="M1551.57,2411.09c-6.79,0-13.56-.21-20.36-.65-91.9-5.94-170.69-52.52-234.23-138.47-28.44-20.76-246.65-187.57-267-430-12.23-146.06,50.45-288.5,186.32-423.39s278.73-196.57,424.73-183.23c242.31,22.07,407.53,241.49,428.08,270.09,85.48,64.16,131.49,143.28,136.77,235.22,12.59,219.48-210.8,433.74-225.51,447.58C1966.92,2202.32,1763.76,2411.08,1551.57,2411.09Zm51-1137.53c-121.75,0-242,58.19-358,173.37-127.08,126.17-185.84,257.94-174.64,391.66,19.73,235.52,250.56,401,252.89,402.66a19.84,19.84,0,0,1,4.63,4.56c56.52,77.52,125.92,119.48,206.3,124.71,203.16,13.19,416-208.06,418.12-210.29.26-.28.55-.57.83-.84,2.26-2.1,225.07-213.23,213.33-416.57-4.64-80.41-46.1-150.12-123.21-207.2a20,20,0,0,1-4.52-4.66c-1.63-2.34-166-234.56-401-255.83Q1619.87,1273.55,1602.56,1273.56Z" transform="translate(-550.95 -1233.53)"/><circle class="cls-8" cx="1837.3" cy="2044.03" r="152.55" transform="translate(-1458.17 664.32) rotate(-45)"/><g class="cls-2"><path class="cls-3" d="M1974.59,1977.56a152.53,152.53,0,0,1-289.59,58,152.54,152.54,0,1,0,289.59-58Z" transform="translate(-550.95 -1233.53)"/></g><g class="cls-5"><path class="cls-1" d="M1734.82,1975.78a152.52,152.52,0,0,1,255,69.51,152.53,152.53,0,1,0-300,37.49A152.06,152.06,0,0,1,1734.82,1975.78Z" transform="translate(-550.95 -1233.53)"/></g><path class="cls-3" d="M1837.3,2210.78a166.24,166.24,0,0,1-118.39-49.22c-64.81-65.28-64.42-171.11.85-235.91s171.12-64.42,235.92.85,64.43,171.12-.85,235.92A166.32,166.32,0,0,1,1837.3,2210.78Zm0-305a137.82,137.82,0,0,0-97.42,40.08c-54.1,53.71-54.42,141.43-.7,195.55s141.43,54.42,195.55.7,54.42-141.44.7-195.55A137.83,137.83,0,0,0,1837.29,1905.83Z" transform="translate(-550.95 -1233.53)"/><path class="cls-3" d="M1913.89,2250.81a129.27,129.27,0,0,1-92-38.26h0a129.68,129.68,0,0,1,92-221.05h.48a129.66,129.66,0,0,1-.46,259.31Zm0-236.47a106.84,106.84,0,0,0-75.81,182.12h0a106.84,106.84,0,1,0,76.21-182.12Z" transform="translate(-550.95 -1233.53)"/><circle class="cls-9" cx="1837.3" cy="2044.03" r="66.4" transform="translate(-1458.17 664.32) rotate(-45)"/><g class="cls-2"><path class="cls-3" d="M1888.59,2001.91a66.33,66.33,0,0,1-113.41,48.9c-1.49-1.49-2.86-3-4.18-4.65a66.36,66.36,0,1,0,117.59-44.25Z" transform="translate(-550.95 -1233.53)"/></g><path class="cls-3" d="M1837.3,2124.71h-.3a80.14,80.14,0,0,1-57-23.84h0a80.67,80.67,0,1,1,57.26,23.84Zm-37-43.95a51.76,51.76,0,0,0,36.79,15.4h.2a52.13,52.13,0,0,0,.18-104.25h-.19a52.12,52.12,0,0,0-37,88.85Z" transform="translate(-550.95 -1233.53)"/><path class="cls-3" d="M1277.48,1500.66a788.39,788.39,0,0,1-68.51-42.3c-22.08-15.28-43.78-31.4-63.94-50.6-10-9.68-19.73-20.07-28.29-32.62a98.54,98.54,0,0,1-11.17-21.46c-2.88-8.09-4.91-18.08-2.81-28.72,1.83-10.68,8.2-20.13,15-26.33a72.8,72.8,0,0,1,22-13.75,60.4,60.4,0,0,1,26.59-4.33,63.29,63.29,0,0,1,25.38,7.29c15.17,8.05,26,20.25,33.81,33.53s12.76,28.37,13.1,44.78a61.15,61.15,0,0,1-4.72,25.11,49.61,49.61,0,0,1-17,21.06,58.47,58.47,0,0,1-23.46,9.44,94.27,94.27,0,0,1-22.83,1.07,175.38,175.38,0,0,1-41.31-8.82,338.8,338.8,0,0,1-37.69-15.25c-12.12-5.8-24.09-11.71-35.28-19s-21.47-16-30.15-27a.42.42,0,0,1,.4-.67c13.87,2.33,26.15,6.92,38.21,11.76s23.42,10.82,35.35,15.45a314.35,314.35,0,0,0,35.88,12.24,151.48,151.48,0,0,0,35.75,5.67c11.45.16,22.33-2.17,28.76-7.29,6.31-4.94,9.14-12.92,8.54-22.89-1.21-19.74-15.59-41.92-32.31-49.76-8.36-3.92-16.19-4.09-24-.59A39.64,39.64,0,0,0,1142,1324c-2.63,2.79-3.74,5-4,7.3s.1,5.71,1.71,9.82a64.07,64.07,0,0,0,7.38,13.07c6.45,9,14.85,17.72,23.89,26,36.56,33.12,81.35,60.86,125.23,86l.47.27a19.62,19.62,0,0,1-19.18,34.23Z" transform="translate(-550.95 -1233.53)"/><path class="cls-1" d="M1045.36,2270c630-321.43,892.5,274.29,892.5,274.29,297.85-321.43,642.85-62.15,642.85-62.15,160.72-460.71,593.58-285.44,593.58-285.44s-49.14,317.59-550.64,420.44c0,0-19.83,14.66-28.65,17.15-502.27,141.89-1026.88,27.56-1444.51-285.48Z" transform="translate(-550.95 -1233.53)"/><path class="cls-3" d="M1937.86,2564.29a20.54,20.54,0,0,1-3.31-.28,20,20,0,0,1-15-11.66c-1.07-2.41-110.14-243.66-348-328.14-153.55-54.52-327.52-33.13-517.11,63.61a20,20,0,0,1-18.18-35.64c199.93-102,384.65-124,549.06-65.52C1794.11,2261,1907,2441.9,1943.18,2510c154.48-152.77,318.93-159.48,431.71-136.95,91,18.15,161.83,56.9,195.85,78.26,51-131.58,129.9-222.29,234.83-269.8,179.47-81.27,368.28-6.58,376.22-3.37a20,20,0,1,1-15,37.08c-2.74-1.1-181.85-71.23-345,2.87-100.72,45.73-175.46,136.78-222.16,270.62a20,20,0,0,1-30.89,9.4c-.82-.62-85.11-62.94-203-86.12-156-30.65-295,18.42-413.14,145.87A20,20,0,0,1,1937.86,2564.29Z" transform="translate(-550.95 -1233.53)"/></svg>