<svg id="Layer_4" data-name="Layer 4" xmlns="http://www.w3.org/2000/svg" viewBox="0 0 191.45 182.73"><defs><style>.cls-1{fill:#ffc8ac;}.cls-2{fill:#002030;}.cls-3{fill:#f49282;}.cls-4{fill:#f18856;}.cls-5{fill:#fca39a;}.cls-6{fill:#9e5147;}.cls-7{fill:#fff;}.cls-8{fill:#19313a;}.cls-9{fill:#e73555;}.cls-10{fill:#f8b272;}.cls-11{fill:#ffe568;}.cls-12{fill:#aa5e5e;}.cls-13{fill:#0880a5;}.cls-14{fill:#0e547a;}.cls-15{fill:#47b;}.cls-16{fill:#7a4141;}.cls-17{fill:#9dd7f0;}</style></defs><path class="cls-1" d="M186.81,246.31c-2.9-1.26-7.89.39-17,10.58q-3.93,4.39-7.68,8.95-2.81,3.41-5.5,6.89a16.09,16.09,0,0,1-2.11,2.48,8.23,8.23,0,0,1-3.3,1.41,4.56,4.56,0,0,0-2.18.88,1.05,1.05,0,0,0,.43,1.74,9.18,9.18,0,0,0,2.57.16.51.51,0,0,1,.36.17c.12.16,0,.41-.1.54-.54.81-.89,1.22-1.22,1.69-.53.78-2.06,2.47-1.39,3.48a1.21,1.21,0,0,0,1.33.36,6.73,6.73,0,0,0,1.56-1.09c.24-.21.47-.44.7-.67s.43-.52.73-.49.24.35.2.53a2.06,2.06,0,0,1-.25.59,19.55,19.55,0,0,0-1.15,2.17,4.11,4.11,0,0,0-.3,1.13,1.07,1.07,0,0,0,.23.86,1,1,0,0,0,.61.25,2.06,2.06,0,0,0,1.37-.49,7.8,7.8,0,0,0,1.26-1.37c.39-.51.79-1,1.2-1.51a.53.53,0,0,1,.34-.23.34.34,0,0,1,.32.26.94.94,0,0,1,0,.44,6.82,6.82,0,0,1-.42,1.09,11.51,11.51,0,0,0-.4,1.17,2,2,0,0,0-.06,1.31,1.18,1.18,0,0,0,1.87.41c.66-.48,2.11-3.27,2.34-3.7a73.47,73.47,0,0,1,5.07-7.49A124.68,124.68,0,0,1,178,265Z" transform="translate(-136.94 -150.75)"/><path class="cls-2" d="M233,214.38c2.68,2.86,14.39,24.53-.09,36.7s-60.4,13.19-79.21,0-5.81-35-5.81-35c-15.21-5.07-14.66-28.13,2.68-47.86s49.15-18.9,61-12.54,10.5,15.49,10.5,15.49,5.81-1.2,11.07,5,3,18,3,18Z" transform="translate(-136.94 -150.75)"/><path class="cls-1" d="M215.44,265c-4-13-8.88-16.22-9.24-20.57-.34-4.06-.44-8.61-.44-8.61H187.68s-.1,4.55-.44,8.61C186.88,248.81,182,252,178,265a171.3,171.3,0,0,0-5.94,31.36s9.62,3.21,24.66,3.21,24.66-3.21,24.66-3.21A171.3,171.3,0,0,0,215.44,265Z" transform="translate(-136.94 -150.75)"/><path class="cls-3" d="M205.82,235.85H187.68s-.08,3.68-.34,7.37c1.85.11,3.69.15,5.48.15a32.24,32.24,0,0,0,13.11-3.11C205.76,236.92,205.82,235.85,205.82,235.85Z" transform="translate(-136.94 -150.75)"/><path class="cls-1" d="M172.06,296.39l2.6,31.11a43.78,43.78,0,0,0-7.25,2.83c-2.46,1.41-1.86,3.14,9.08,3.14H192.4l3.36-37.08Z" transform="translate(-136.94 -150.75)"/><path class="cls-1" d="M221.44,296.39l-2.6,31.11a43.76,43.76,0,0,1,7.26,2.83c2.46,1.41,1.86,3.14-9.09,3.14h-15.9l-3.36-37.08Z" transform="translate(-136.94 -150.75)"/><path class="cls-3" d="M195.53,298.84H172.27l1.13,13.57c4.52,1.25,11.14,2.33,20.68,2.5Z" transform="translate(-136.94 -150.75)"/><path class="cls-3" d="M198,298.84l1.46,16.06c9.55-.17,16.16-1.25,20.68-2.51l1.13-13.55Z" transform="translate(-136.94 -150.75)"/><path class="cls-2" d="M201.11,333.47H217c11,0,11.55-1.73,9.09-3.14a43.76,43.76,0,0,0-7.26-2.83H200.57Z" transform="translate(-136.94 -150.75)"/><path class="cls-2" d="M174.66,327.5a43.78,43.78,0,0,0-7.25,2.83c-2.46,1.41-1.86,3.14,9.08,3.14H192.4l.54-6Z" transform="translate(-136.94 -150.75)"/><path class="cls-4" d="M186.81,246.32c-1.72-1.95-6-2.61-12.67,4.15s-8.72,9-8.72,9A17.09,17.09,0,0,0,177,270.85Z" transform="translate(-136.94 -150.75)"/><path class="cls-1" d="M206.63,246.31c2.9-1.26,7.89.39,17,10.58q3.93,4.39,7.68,8.95,2.81,3.41,5.5,6.89a16.09,16.09,0,0,0,2.11,2.48,8.21,8.21,0,0,0,3.31,1.41,4.57,4.57,0,0,1,2.17.88,1.05,1.05,0,0,1-.43,1.74,9.18,9.18,0,0,1-2.57.16.47.47,0,0,0-.35.17c-.13.16,0,.41.09.54.54.81.89,1.22,1.22,1.69.53.78,2.06,2.47,1.39,3.48a1.21,1.21,0,0,1-1.33.36,6.73,6.73,0,0,1-1.56-1.09c-.24-.21-.47-.44-.7-.67s-.43-.52-.73-.49-.24.35-.2.53a2.06,2.06,0,0,0,.25.59,19.55,19.55,0,0,1,1.15,2.17,4.11,4.11,0,0,1,.3,1.13,1,1,0,0,1-.23.86,1,1,0,0,1-.61.25,2.06,2.06,0,0,1-1.37-.49,7.8,7.8,0,0,1-1.26-1.37c-.39-.51-.79-1-1.2-1.51a.53.53,0,0,0-.34-.23.35.35,0,0,0-.32.26.94.94,0,0,0,0,.44,6.82,6.82,0,0,0,.42,1.09,11.51,11.51,0,0,1,.4,1.17,2,2,0,0,1,.06,1.31,1.18,1.18,0,0,1-1.87.41c-.66-.48-2.11-3.27-2.34-3.7a75.56,75.56,0,0,0-4.72-7.75A84.26,84.26,0,0,0,215.44,265Z" transform="translate(-136.94 -150.75)"/><path class="cls-4" d="M206.63,246.32c1.72-1.95,6-2.61,12.67,4.15s8.72,9,8.72,9a17.09,17.09,0,0,1-11.57,11.4Z" transform="translate(-136.94 -150.75)"/><path class="cls-1" d="M192.82,237.89c9.63,0,20.88-1.15,27.76-7.58s7.57-22.94,3.44-39.23-20-20-31.2-20-27.07,3.67-31.2,20-3.44,32.81,3.44,39.23S183.18,237.89,192.82,237.89Z" transform="translate(-136.94 -150.75)"/><path class="cls-2" d="M216.34,178.18l5.76-7.27a.76.76,0,0,1,0-.14v-1.24c-.18-2.89-1.66-9.15-10.53-13.89-11.9-6.36-43.72-7.19-61,12.54S132.63,211,147.84,216c24.1-2.25,6.26-35.12,39-42.15C201.43,170.75,210.92,174.91,216.34,178.18Z" transform="translate(-136.94 -150.75)"/><path class="cls-5" d="M160.49,220.22a6.92,6.92,0,1,1,6.92,6.92A6.92,6.92,0,0,1,160.49,220.22Z" transform="translate(-136.94 -150.75)"/><path class="cls-5" d="M209.77,220.22a6.92,6.92,0,1,1,6.92,6.92A6.92,6.92,0,0,1,209.77,220.22Z" transform="translate(-136.94 -150.75)"/><path class="cls-5" d="M191.16,216.52c-2.51-.09-4.79,1.51-4.77,2.26,0,1.75,9,2.1,8.85,0C195.19,217.6,193.32,216.59,191.16,216.52Z" transform="translate(-136.94 -150.75)"/><path class="cls-6" d="M186.16,219.25c1.58-1.19,2.73-2.37,4.89-2.37,2,0,3,1.06,4.12,2.53.19.26.67.27.62-.13-.55-4.48-8.57-4.06-9.72-.16,0,0,0,.18.09.13Z" transform="translate(-136.94 -150.75)"/><path class="cls-6" d="M183.8,226.87c5.79,3.45,15.38,2,19.89-2.94.49-.53-.56-1-1-.56-4.53,4.95-12.95,5.43-18.83,3-.33-.13-.28.35-.07.47Z" transform="translate(-136.94 -150.75)"/><path class="cls-6" d="M202.63,221.69c-.56.58,0,1.61.48,2a2.41,2.41,0,0,0,2.2.71c.25-.09.52-.39.24-.64s-.75,0-1-.08c-1-.22-1.34-1.08-1.66-2,0-.1-.15-.15-.23-.07Z" transform="translate(-136.94 -150.75)"/><path class="cls-7" d="M209.42,197.06c-3.33,0-8.23,2-9.64,6.77-1.73,5.82,1.85,11.47,9.64,11.19,8.36-.29,11.32-5.26,10.43-9.87C218.89,200.2,215.26,197.07,209.42,197.06Z" transform="translate(-136.94 -150.75)"/><path class="cls-2" d="M199.64,204.86a10.46,10.46,0,0,1,11.69-6.63,9.66,9.66,0,0,1,5.29,3c1.43,1.7,1.63,3.91,3,5.61.21.27.76.43,1,.05,1.25-2.44-.7-5.61-2.44-7.37a12.32,12.32,0,0,0-7.08-3.35,12.06,12.06,0,0,0-7.71,1.69c-2.67,1.7-3.43,3.93-3.9,6.95,0,.17.15.27.21.08Z" transform="translate(-136.94 -150.75)"/><circle class="cls-8" cx="207.85" cy="207.53" r="7.51" transform="translate(-222.81 57.01) rotate(-45)"/><path class="cls-7" d="M201.83,206.85a2.4,2.4,0,1,1,2.4,2.4A2.4,2.4,0,0,1,201.83,206.85Z" transform="translate(-136.94 -150.75)"/><path class="cls-7" d="M174.92,197.06c3.33,0,8.23,2,9.64,6.77,1.73,5.82-1.85,11.47-9.64,11.19-8.36-.29-11.32-5.26-10.43-9.87C165.45,200.2,169.08,197.07,174.92,197.06Z" transform="translate(-136.94 -150.75)"/><path class="cls-2" d="M184.91,204.72a9.31,9.31,0,0,0-4.63-7.2,11.63,11.63,0,0,0-8.89-1,11.93,11.93,0,0,0-5.55,3.39c-1.43,1.65-3.39,4.63-2,6.74.23.34.79.65,1.08.2.9-1.42,1.12-3.1,2-4.54a8.69,8.69,0,0,1,4.09-3.43,10.17,10.17,0,0,1,13.67,6c.07.23.24,0,.22-.15Z" transform="translate(-136.94 -150.75)"/><circle class="cls-8" cx="176.49" cy="207.53" r="7.51" transform="translate(-167.97 -119.72) rotate(-9.24)"/><path class="cls-7" d="M175.14,206.85a2.4,2.4,0,1,0-2.4,2.4A2.39,2.39,0,0,0,175.14,206.85Z" transform="translate(-136.94 -150.75)"/><path class="cls-2" d="M216.34,190.3a.82.82,0,0,0,0-.49,4.49,4.49,0,0,0-1.22-2.09,11,11,0,0,0-2.72-2.08,11.85,11.85,0,0,0-6.4-1.52,3,3,0,0,0-1.22.27,1.66,1.66,0,0,0-.85,1.32c-.08,1,.73,1.47,1.61,1.6l2,.3c.49.08,1,.15,1.47.25a15.33,15.33,0,0,1,4.62,1.76,6.41,6.41,0,0,0,1.85.88C215.77,190.55,216.23,190.6,216.34,190.3Z" transform="translate(-136.94 -150.75)"/><path class="cls-2" d="M169.8,189.91a.82.82,0,0,1,0-.49,4.6,4.6,0,0,1,1.39-2,10.72,10.72,0,0,1,2.87-1.86,11.9,11.9,0,0,1,6.5-1,2.89,2.89,0,0,1,1.19.36,1.67,1.67,0,0,1,.75,1.38c0,1-.84,1.41-1.73,1.47l-2,.15c-.49,0-1,.07-1.47.13a15.13,15.13,0,0,0-4.75,1.4,6.18,6.18,0,0,1-1.91.73C170.35,190.21,169.89,190.22,169.8,189.91Z" transform="translate(-136.94 -150.75)"/><path class="cls-2" d="M223.06,159.65c1.44,1.21,1.62,4.41,1.43,6a6.51,6.51,0,0,1-2,3.85c-.55.65-.61.56-.88,1.34-.12.33.38.58.64.49,3.05-1,3.94-5.15,3.38-7.93-.27-1.38-.91-3.75-2.51-4.12-.16,0-.14.26-.06.33Z" transform="translate(-136.94 -150.75)"/><path class="cls-2" d="M230.63,169.71c-.9-2.71-6.79-1.35-8.09.16-.2.24-.54.7-.43,1,.36,1.11,2.43-.34,2.82-.49,1.34-.51,4.19-1.25,5.57-.51C230.61,170,230.67,169.8,230.63,169.71Z" transform="translate(-136.94 -150.75)"/><path class="cls-1" d="M225.87,200.5c1.11-3.54,6-8.52,11.6-6.35s6.92,10.6,3.78,16.87-11.69,8.57-14.87,4Z" transform="translate(-136.94 -150.75)"/><path class="cls-6" d="M225.55,204.92c-.07.21.21.65.46.49,1.06-.7,1.82-1.71,2.92-2.34a6.41,6.41,0,0,1,3.86-.73,3.69,3.69,0,0,1,1,2.84,5.74,5.74,0,0,1-1.39,3.25,9.45,9.45,0,0,1-2.32,1.31c-.06,0-.12.22,0,.24,3.61.88,6-4.15,4.92-7.06,2,.86,3.73,2.57,3.62,5,0,.11.12.08.15,0C241.76,200.39,227.9,197.75,225.55,204.92Z" transform="translate(-136.94 -150.75)"/><path class="cls-2" d="M233.22,193.77c-1.29,9.32-7.46,14.43-8.48,12.68s.5-9.83,0-12.3l8.48-.38" transform="translate(-136.94 -150.75)"/><path class="cls-9" d="M172.06,296.39l-7.71,9.18s5.53,6.91,32.37,6.91,32.37-6.91,32.37-6.91l-7.71-9.18Z" transform="translate(-136.94 -150.75)"/><path class="cls-10" d="M215.44,265c-3.41-11.15-7.47-15.09-8.81-18.71h0c0,.08-1.65,4.23-9.91,4.23s-9.87-4.14-9.91-4.23c-1.34,3.62-5.4,7.56-8.81,18.71a171.3,171.3,0,0,0-5.94,31.36s9.62,3.21,24.66,3.21,24.66-3.21,24.66-3.21A171.3,171.3,0,0,0,215.44,265Z" transform="translate(-136.94 -150.75)"/><path class="cls-11" d="M187.24,244.46s-4.9,1.41-4.58,5.08,7.57,7.2,14.06,1Z" transform="translate(-136.94 -150.75)"/><path class="cls-11" d="M206.2,244.46s4.9,1.41,4.58,5.08-7.57,7.2-14.06,1Z" transform="translate(-136.94 -150.75)"/><path class="cls-1" d="M299.09,265c-4-13-8.88-16.22-9.24-20.57-.34-4.07-.44-8.61-.44-8.61H271.33s-.1,4.54-.44,8.61c-.36,4.35-5.25,7.52-9.24,20.57a171.3,171.3,0,0,0-5.94,31.36s9.62,3.2,24.66,3.2,24.66-3.2,24.66-3.2A171.3,171.3,0,0,0,299.09,265Z" transform="translate(-136.94 -150.75)"/><path class="cls-12" d="M311.77,177s11.22-1.15,11.09,16.6c-.16,20.42-6,32.5-17.23,35.13S311.77,177,311.77,177Z" transform="translate(-136.94 -150.75)"/><path class="cls-12" d="M311.69,166.73c1.45,1.21,1.62,4.41,1.44,6a6.68,6.68,0,0,1-2,3.86c-.55.65-.62.56-.89,1.33-.12.34.39.58.65.49,3.05-1,3.93-5.15,3.38-7.93-.27-1.37-.91-3.74-2.51-4.12-.16,0-.15.26-.07.33Z" transform="translate(-136.94 -150.75)"/><path class="cls-12" d="M319.27,176.79c-.9-2.7-6.79-1.35-8.09.17-.2.23-.55.69-.44,1,.37,1.11,2.43-.34,2.83-.49,1.34-.51,4.19-1.25,5.56-.5C319.25,177.05,319.3,176.88,319.27,176.79Z" transform="translate(-136.94 -150.75)"/><path class="cls-1" d="M270.51,246.73c-2.89-1.26-7.89.39-17,10.57q-3.93,4.41-7.69,9-2.81,3.39-5.5,6.88a15.63,15.63,0,0,1-2.11,2.48,8.05,8.05,0,0,1-3.3,1.42,4.55,4.55,0,0,0-2.18.87,1.06,1.06,0,0,0,.43,1.74,8.82,8.82,0,0,0,2.57.17.52.52,0,0,1,.36.16c.13.17,0,.42-.09.54-.55.82-.89,1.23-1.22,1.7-.54.78-2.06,2.46-1.39,3.48a1.21,1.21,0,0,0,1.32.36,7.11,7.11,0,0,0,1.57-1.09c.24-.22.47-.44.69-.67s.43-.52.73-.49.25.34.21.53a2.55,2.55,0,0,1-.25.59,16.69,16.69,0,0,0-1.15,2.17,4,4,0,0,0-.31,1.13,1.05,1.05,0,0,0,.24.86.87.87,0,0,0,.6.24,2,2,0,0,0,1.38-.48,8.14,8.14,0,0,0,1.25-1.37c.4-.51.79-1,1.21-1.52.09-.1.19-.22.33-.22a.33.33,0,0,1,.32.26.82.82,0,0,1,0,.44,7.16,7.16,0,0,1-.41,1.09,9.94,9.94,0,0,0-.4,1.16,2,2,0,0,0-.07,1.32,1.18,1.18,0,0,0,1.87.41c.67-.49,2.11-3.27,2.34-3.7a74.54,74.54,0,0,1,5.07-7.49c2.77-3.88,9.23-11.54,11.75-13.78Z" transform="translate(-136.94 -150.75)"/><path class="cls-1" d="M290.34,246.73c2.89-1.26,7.89.39,17,10.57q3.93,4.41,7.68,9,2.81,3.39,5.5,6.88a16.17,16.17,0,0,0,2.11,2.48,8.15,8.15,0,0,0,3.31,1.42,4.59,4.59,0,0,1,2.18.87,1.06,1.06,0,0,1-.44,1.74,8.75,8.75,0,0,1-2.56.17.5.5,0,0,0-.36.16c-.13.17,0,.42.09.54.55.82.89,1.23,1.22,1.7.53.78,2.06,2.46,1.39,3.48a1.22,1.22,0,0,1-1.33.36,7,7,0,0,1-1.56-1.09c-.24-.22-.47-.44-.69-.67s-.43-.52-.73-.49-.25.34-.21.53a2.55,2.55,0,0,0,.25.59,18,18,0,0,1,1.15,2.17,4.4,4.4,0,0,1,.31,1.13,1.05,1.05,0,0,1-.24.86.89.89,0,0,1-.6.24,2,2,0,0,1-1.38-.48,7.74,7.74,0,0,1-1.25-1.37c-.4-.51-.79-1-1.21-1.52-.09-.1-.19-.22-.33-.22a.35.35,0,0,0-.33.26.83.83,0,0,0,0,.44,6.24,6.24,0,0,0,.41,1.09,12.23,12.23,0,0,1,.4,1.16,2,2,0,0,1,.06,1.32,1.18,1.18,0,0,1-1.87.41c-.66-.49-2.1-3.27-2.34-3.7a71.82,71.82,0,0,0-4.72-7.75,83.39,83.39,0,0,0-12.09-13.52Z" transform="translate(-136.94 -150.75)"/><path class="cls-3" d="M289.47,235.83H271.33s-.08,3.67-.34,7.37c1.85.1,3.69.14,5.48.14a32.4,32.4,0,0,0,13.11-3.1C289.41,236.9,289.47,235.83,289.47,235.83Z" transform="translate(-136.94 -150.75)"/><path class="cls-1" d="M255.71,296.37l2.6,31.1a44.76,44.76,0,0,0-7.25,2.83c-2.46,1.42-1.86,3.15,9.08,3.15h15.91l3.35-37.08Z" transform="translate(-136.94 -150.75)"/><path class="cls-1" d="M305.09,296.37l-2.6,31.1a44.74,44.74,0,0,1,7.26,2.83c2.46,1.42,1.86,3.15-9.09,3.15h-15.9l-3.36-37.08Z" transform="translate(-136.94 -150.75)"/><path class="cls-13" d="M255.71,296.37c0,11.12,2.6,31.1,2.6,31.1a44.76,44.76,0,0,0-7.25,2.83c-2.46,1.42-1.86,3.15,9.08,3.15h15.91l3.35-37.08S255.71,285.25,255.71,296.37Z" transform="translate(-136.94 -150.75)"/><path class="cls-14" d="M278.63,304.93a36.47,36.47,0,0,1-5.12-1.44l-1.84,24h4.92Z" transform="translate(-136.94 -150.75)"/><path class="cls-13" d="M305.09,296.37c0,11.12-2.6,31.1-2.6,31.1a44.4,44.4,0,0,1,7.25,2.83c2.46,1.42,1.86,3.15-9.08,3.15H284.75l-3.35-37.08S305.09,285.25,305.09,296.37Z" transform="translate(-136.94 -150.75)"/><path class="cls-13" d="M277.28,298.37h6.29v6.28a11.78,11.78,0,0,1-6.29,0Z" transform="translate(-136.94 -150.75)"/><path class="cls-2" d="M284.76,333.45h15.9c10.95,0,11.55-1.73,9.09-3.15a44.74,44.74,0,0,0-7.26-2.83H284.22Z" transform="translate(-136.94 -150.75)"/><path class="cls-2" d="M258.31,327.47a44.76,44.76,0,0,0-7.25,2.83c-2.46,1.42-1.86,3.15,9.08,3.15h15.91l.54-6Z" transform="translate(-136.94 -150.75)"/><path class="cls-15" d="M270.46,246.29c-1.72-1.94-6-2.6-12.67,4.16s-8.72,9-8.72,9a17.09,17.09,0,0,0,11.57,11.4Z" transform="translate(-136.94 -150.75)"/><path class="cls-15" d="M290.28,246.29c1.72-1.94,6-2.6,12.67,4.16s8.72,9,8.72,9a17.09,17.09,0,0,1-11.57,11.4Z" transform="translate(-136.94 -150.75)"/><path class="cls-1" d="M276.47,237.86c9.63,0,20.88-1.14,27.76-7.57s7.57-22.94,3.44-39.23-20-20-31.2-20-27.07,3.67-31.2,20-3.44,32.81,3.44,39.23S266.83,237.86,276.47,237.86Z" transform="translate(-136.94 -150.75)"/><path class="cls-12" d="M308.39,194.12s-7.8-4.6-8.4-15.69c-8.49-8-24.38-5.15-28.65-3.29s-8.08,4.89-11.65,7.93c-6.66,5.67-14.34,12.74-23.81,9.59-5.84-1.95-10.25-7.87-10-14,.16-3.48,2.79-2.52,5.19-3.61,2.7-1.23,6.39-2.78,8.38-4.91,16.43-17.6,24.69-21.35,48.19-18.54,6.6.78,15.2,5.09,19.58,11.79C313.19,172.47,312.43,184.37,308.39,194.12Z" transform="translate(-136.94 -150.75)"/><path class="cls-5" d="M244.14,220.19a6.92,6.92,0,1,1,6.92,6.93A6.92,6.92,0,0,1,244.14,220.19Z" transform="translate(-136.94 -150.75)"/><path class="cls-5" d="M293.41,220.19a6.93,6.93,0,1,1,6.93,6.93A6.92,6.92,0,0,1,293.41,220.19Z" transform="translate(-136.94 -150.75)"/><path class="cls-5" d="M274.81,216.5c-2.51-.09-4.79,1.51-4.77,2.26,0,1.74,8.95,2.1,8.85,0C278.84,217.58,277,216.57,274.81,216.5Z" transform="translate(-136.94 -150.75)"/><path class="cls-6" d="M269.81,219.23c1.58-1.19,2.73-2.37,4.89-2.38,2,0,3,1.06,4.12,2.54.19.25.67.26.62-.13-.55-4.48-8.57-4.06-9.72-.16,0,.05,0,.18.09.13Z" transform="translate(-136.94 -150.75)"/><path class="cls-6" d="M267.45,226.85c5.79,3.44,15.38,2,19.89-2.94.49-.53-.56-1-1-.57-4.53,4.95-13,5.43-18.83,3-.33-.13-.28.35-.07.47Z" transform="translate(-136.94 -150.75)"/><path class="cls-6" d="M286.28,221.67c-.56.58,0,1.61.48,2a2.41,2.41,0,0,0,2.2.71c.25-.09.52-.4.24-.64s-.75,0-1-.09c-1-.21-1.34-1.07-1.66-1.95,0-.1-.15-.15-.23-.07Z" transform="translate(-136.94 -150.75)"/><path class="cls-7" d="M293.07,197c-3.33,0-8.23,2-9.64,6.78-1.73,5.82,1.85,11.47,9.64,11.19,8.36-.29,11.32-5.26,10.43-9.88C302.54,200.18,298.91,197.05,293.07,197Z" transform="translate(-136.94 -150.75)"/><path class="cls-2" d="M283.29,204.83A10.48,10.48,0,0,1,295,198.2a9.67,9.67,0,0,1,5.29,3c1.43,1.7,1.63,3.91,3,5.61.22.27.77.43,1,.05,1.25-2.44-.7-5.62-2.44-7.37a12.33,12.33,0,0,0-7.08-3.36,12.13,12.13,0,0,0-7.71,1.7c-2.67,1.7-3.43,3.92-3.9,6.94,0,.18.15.28.21.08Z" transform="translate(-136.94 -150.75)"/><path class="cls-8" d="M284,207.51a7.51,7.51,0,1,1,7.51,7.5A7.51,7.51,0,0,1,284,207.51Z" transform="translate(-136.94 -150.75)"/><path class="cls-7" d="M285.73,206.82a2.4,2.4,0,1,1,2.4,2.4A2.4,2.4,0,0,1,285.73,206.82Z" transform="translate(-136.94 -150.75)"/><path class="cls-7" d="M258.57,197c3.33,0,8.23,2,9.64,6.78,1.72,5.82-1.85,11.47-9.64,11.19-8.37-.29-11.32-5.26-10.43-9.88C249.1,200.18,252.73,197.05,258.57,197Z" transform="translate(-136.94 -150.75)"/><path class="cls-2" d="M268.56,204.7a9.31,9.31,0,0,0-4.63-7.2,11.59,11.59,0,0,0-8.89-1,11.93,11.93,0,0,0-5.55,3.39c-1.43,1.65-3.39,4.62-2,6.74.23.34.79.65,1.08.2.9-1.42,1.12-3.1,2-4.54a8.69,8.69,0,0,1,4.09-3.43,10.18,10.18,0,0,1,13.67,6c.07.23.24,0,.22-.15Z" transform="translate(-136.94 -150.75)"/><circle class="cls-8" cx="260.14" cy="207.51" r="7.51" transform="translate(-168.37 217.14) rotate(-67.39)"/><path class="cls-7" d="M259,206.82a2.4,2.4,0,1,0-2.4,2.4A2.4,2.4,0,0,0,259,206.82Z" transform="translate(-136.94 -150.75)"/><path class="cls-16" d="M299.93,193.51A1,1,0,0,0,300,193a4.6,4.6,0,0,0-1.23-2.09,10.67,10.67,0,0,0-2.72-2.09,11.93,11.93,0,0,0-6.4-1.51,2.82,2.82,0,0,0-1.22.27,1.66,1.66,0,0,0-.85,1.31c-.07,1,.73,1.47,1.61,1.6l2,.31c.49.07,1,.15,1.46.24a15.29,15.29,0,0,1,4.63,1.76,6.23,6.23,0,0,0,1.84.88C299.35,193.76,299.81,193.81,299.93,193.51Z" transform="translate(-136.94 -150.75)"/><path class="cls-16" d="M251.55,192.78a.82.82,0,0,1,0-.49,4.66,4.66,0,0,1,1.38-2,10.94,10.94,0,0,1,2.88-1.86,11.81,11.81,0,0,1,6.5-1,2.75,2.75,0,0,1,1.19.36,1.67,1.67,0,0,1,.75,1.38c0,1-.84,1.41-1.74,1.47l-2,.15c-.49,0-1,.07-1.48.13a15.15,15.15,0,0,0-4.74,1.4,6.45,6.45,0,0,1-1.91.73C252.1,193.07,251.64,193.08,251.55,192.78Z" transform="translate(-136.94 -150.75)"/><path class="cls-1" d="M309.52,200.47c1.11-3.53,6-8.51,11.6-6.35S328,204.72,324.9,211s-11.69,8.57-14.87,4Z" transform="translate(-136.94 -150.75)"/><path class="cls-6" d="M309.2,204.89c-.07.21.21.66.46.5,1.06-.7,1.82-1.71,2.92-2.34a6.34,6.34,0,0,1,3.86-.73,3.69,3.69,0,0,1,1,2.84,5.74,5.74,0,0,1-1.39,3.25,9.45,9.45,0,0,1-2.32,1.31c-.06,0-.12.21,0,.24,3.61.88,6-4.15,4.92-7.06,2,.86,3.73,2.57,3.62,4.95,0,.12.12.09.15,0C325.41,200.37,311.55,197.73,309.2,204.89Z" transform="translate(-136.94 -150.75)"/><path class="cls-12" d="M316.87,193.75c-1.29,9.31-7.46,14.43-8.48,12.68s.5-9.83,0-12.31l8.48-.37" transform="translate(-136.94 -150.75)"/><path class="cls-17" d="M299.09,265c-3.41-11.15-7.48-15.09-8.81-18.72h0c0,.09-1.66,4.24-9.91,4.24s-9.88-4.14-9.91-4.24c-1.34,3.63-5.41,7.57-8.81,18.72-4.6,15.05-5.94,23.31-5.94,31.36,0,0,9.62,3.2,24.66,3.2s24.65-3.2,24.65-3.2C305,288.17,303.69,280.06,299.09,265Z" transform="translate(-136.94 -150.75)"/></svg>