<svg id="Layer_1" data-name="Layer 1" xmlns="http://www.w3.org/2000/svg" viewBox="0 0 2326.13 3273.99"><defs><style>.cls-1{opacity:0.2;}.cls-2{fill:#2f006d;}.cls-3{fill:#554f8c;}.cls-4{opacity:0.3;}.cls-5{opacity:0.6;}.cls-6{fill:#fff;}.cls-7{fill:#0096f0;}.cls-8{opacity:0.5;}.cls-9{fill:#ff1b40;}.cls-10{fill:#ffc891;}.cls-11{fill:#ff67a0;}.cls-12{fill:#fc4f8b;}.cls-13{fill:#b199c5;}.cls-14{fill:#371a45;}.cls-15{fill:#ff0068;}</style></defs><g class="cls-1"><ellipse class="cls-2" cx="1165.32" cy="2897.31" rx="1072.06" ry="376.68"/></g><rect class="cls-3" x="294.28" y="2463.82" width="322.75" height="515.95" rx="139.35"/><g class="cls-4"><path class="cls-2" d="M1453.91,3009.6v176.53a139.34,139.34,0,0,1-139.37,139.32h-44a139.34,139.34,0,0,1-139.37-139.32V3009.6a139.34,139.34,0,0,0,139.37,139.33h44A139.34,139.34,0,0,0,1453.91,3009.6Z" transform="translate(-836.86 -381.01)"/></g><g class="cls-5"><path class="cls-6" d="M1314.54,2844.83h-44a139.35,139.35,0,0,0-139.35,139.35v44.13A139.35,139.35,0,0,1,1270.49,2889h44a139.35,139.35,0,0,1,139.35,139.35v-44.13A139.35,139.35,0,0,0,1314.54,2844.83Z" transform="translate(-836.86 -381.01)"/></g><path class="cls-2" d="M1314.54,3374h-44c-84.14,0-152.59-68.45-152.59-152.59V2984.18c0-84.14,68.45-152.59,152.59-152.59h44c84.14,0,152.59,68.45,152.59,152.59v237.24C1467.13,3305.56,1398.68,3374,1314.54,3374Zm-44-515.94a126.25,126.25,0,0,0-126.11,126.11v237.24a126.25,126.25,0,0,0,126.11,126.11h44a126.25,126.25,0,0,0,126.11-126.11V2984.18a126.25,126.25,0,0,0-126.11-126.11Z" transform="translate(-836.86 -381.01)"/><rect class="cls-3" x="2545.96" y="2844.83" width="322.75" height="515.95" rx="139.35" transform="translate(4577.81 5824.59) rotate(180)"/><g class="cls-4"><path class="cls-2" d="M2545.94,3009.6v176.53a139.34,139.34,0,0,0,139.37,139.32h44a139.34,139.34,0,0,0,139.37-139.32V3009.6a139.34,139.34,0,0,1-139.37,139.33h-44A139.34,139.34,0,0,1,2545.94,3009.6Z" transform="translate(-836.86 -381.01)"/></g><g class="cls-5"><path class="cls-6" d="M2685.32,2844.83h44a139.35,139.35,0,0,1,139.35,139.35v44.13A139.35,139.35,0,0,0,2729.36,2889h-44A139.35,139.35,0,0,0,2546,3028.31v-44.13A139.35,139.35,0,0,1,2685.32,2844.83Z" transform="translate(-836.86 -381.01)"/></g><path class="cls-2" d="M2729.36,3374h-44c-84.14,0-152.6-68.45-152.6-152.59V2984.18c0-84.14,68.46-152.59,152.6-152.59h44c84.14,0,152.59,68.45,152.59,152.59v237.24C2882,3305.56,2813.5,3374,2729.36,3374Zm-44-515.94a126.26,126.26,0,0,0-126.12,126.11v237.24a126.26,126.26,0,0,0,126.12,126.11h44a126.25,126.25,0,0,0,126.11-126.11V2984.18a126.25,126.25,0,0,0-126.11-126.11Z" transform="translate(-836.86 -381.01)"/><path class="cls-6" d="M1449.48,3152.09l43.66-25.85a84.31,84.31,0,0,0,41.36-72.55V2510.3h-85Z" transform="translate(-836.86 -381.01)"/><g class="cls-4"><path class="cls-2" d="M1534.5,2510.31v499.26a84.3,84.3,0,0,1-41.35,72.55l-43.65,25.82V2820.29l34.82-20.61a84.31,84.31,0,0,0,41.36-72.55V2510.31Z" transform="translate(-836.86 -381.01)"/></g><path class="cls-2" d="M1449.48,3165.33a13.26,13.26,0,0,1-13.24-13.24V2510.3a13.23,13.23,0,0,1,13.24-13.23h85a13.23,13.23,0,0,1,13.23,13.23v543.39a98,98,0,0,1-47.85,83.94l-43.66,25.85A13.25,13.25,0,0,1,1449.48,3165.33Zm13.24-641.79v605.33l23.68-14a71.39,71.39,0,0,0,34.87-61.16V2523.54Z" transform="translate(-836.86 -381.01)"/><path class="cls-6" d="M2550.37,3152.09l-43.66-25.85a84.31,84.31,0,0,1-41.36-72.55V2510.3h85Z" transform="translate(-836.86 -381.01)"/><g class="cls-4"><path class="cls-2" d="M2465.35,2510.31v499.26a84.3,84.3,0,0,0,41.35,72.55l43.65,25.82V2820.29l-34.82-20.61a84.3,84.3,0,0,1-41.35-72.55V2510.31Z" transform="translate(-836.86 -381.01)"/></g><path class="cls-2" d="M2550.37,3165.33a13.27,13.27,0,0,1-6.75-1.85L2500,3137.63a98,98,0,0,1-47.85-83.94V2510.3a13.23,13.23,0,0,1,13.24-13.23h85a13.23,13.23,0,0,1,13.24,13.23v641.79a13.24,13.24,0,0,1-13.24,13.24Zm-71.78-641.79v530.15a71.4,71.4,0,0,0,34.86,61.16l23.68,14V2523.54Z" transform="translate(-836.86 -381.01)"/><rect class="cls-3" x="569.03" y="2688.63" width="1189.19" height="83.89"/><g class="cls-4"><rect class="cls-2" x="569.03" y="2728.39" width="1189.19" height="44.13"/></g><path class="cls-2" d="M2595.09,3166.77H1405.9a13.24,13.24,0,0,1-13.24-13.24v-83.89a13.24,13.24,0,0,1,13.24-13.24H2595.09a13.24,13.24,0,0,1,13.24,13.24v83.89A13.24,13.24,0,0,1,2595.09,3166.77Zm-1175.95-26.48H2581.85v-57.41H1419.14Z" transform="translate(-836.86 -381.01)"/><path class="cls-6" d="M1351.13,3230.74l43.66-25.85a84.33,84.33,0,0,0,41.36-72.55V2589h-85Z" transform="translate(-836.86 -381.01)"/><g class="cls-4"><path class="cls-2" d="M1436.15,2589v499.26a84.31,84.31,0,0,1-41.36,72.55l-43.64,25.82V2898.94l34.82-20.61a84.3,84.3,0,0,0,41.35-72.55V2589Z" transform="translate(-836.86 -381.01)"/></g><path class="cls-2" d="M1351.13,3244a13.24,13.24,0,0,1-13.24-13.24V2589a13.24,13.24,0,0,1,13.24-13.24h85a13.24,13.24,0,0,1,13.24,13.24v543.39a98,98,0,0,1-47.86,83.94l-43.66,25.85A13.24,13.24,0,0,1,1351.13,3244Zm13.24-641.79v605.33l23.67-14a71.37,71.37,0,0,0,34.87-61.16V2602.19Z" transform="translate(-836.86 -381.01)"/><rect class="cls-3" x="191.51" y="2541.42" width="322.75" height="515.95" rx="139.35"/><g class="cls-4"><path class="cls-2" d="M1351.15,3087.2v176.53a139.33,139.33,0,0,1-139.37,139.32h-44a139.33,139.33,0,0,1-139.37-139.32V3087.2a139.34,139.34,0,0,0,139.37,139.33h44A139.34,139.34,0,0,0,1351.15,3087.2Z" transform="translate(-836.86 -381.01)"/></g><g class="cls-5"><path class="cls-6" d="M1211.77,2922.43h-44a139.35,139.35,0,0,0-139.35,139.35v44.13a139.35,139.35,0,0,1,139.35-139.35h44a139.35,139.35,0,0,1,139.36,139.35v-44.13A139.35,139.35,0,0,0,1211.77,2922.43Z" transform="translate(-836.86 -381.01)"/></g><path class="cls-2" d="M1211.77,3451.61h-44c-84.14,0-152.59-68.45-152.59-152.59V3061.78c0-84.14,68.45-152.59,152.59-152.59h44c84.14,0,152.6,68.45,152.6,152.59V3299C1364.37,3383.16,1295.91,3451.61,1211.77,3451.61Zm-44-515.94a126.26,126.26,0,0,0-126.11,126.11V3299a126.26,126.26,0,0,0,126.11,126.12h44A126.27,126.27,0,0,0,1337.89,3299V3061.78a126.26,126.26,0,0,0-126.12-126.11Z" transform="translate(-836.86 -381.01)"/><path class="cls-6" d="M2648.72,3230.74l-43.66-25.85a84.33,84.33,0,0,1-41.36-72.55V2589h85Z" transform="translate(-836.86 -381.01)"/><g class="cls-4"><path class="cls-2" d="M2563.71,2589v499.26a84.3,84.3,0,0,0,41.35,72.55l43.64,25.82V2898.94l-34.82-20.61a84.3,84.3,0,0,1-41.35-72.55V2589Z" transform="translate(-836.86 -381.01)"/></g><path class="cls-2" d="M2648.72,3244a13.24,13.24,0,0,1-6.74-1.85l-43.66-25.85a98,98,0,0,1-47.86-83.94V2589a13.24,13.24,0,0,1,13.24-13.24h85A13.24,13.24,0,0,1,2662,2589v641.79a13.24,13.24,0,0,1-13.24,13.24Zm-71.78-641.79v530.15a71.37,71.37,0,0,0,34.87,61.16l23.67,14V2602.19Z" transform="translate(-836.86 -381.01)"/><rect class="cls-3" x="2648.72" y="2922.43" width="322.75" height="515.95" rx="139.35" transform="translate(4783.34 5979.8) rotate(180)"/><g class="cls-4"><path class="cls-2" d="M2648.7,3087.2v176.53a139.34,139.34,0,0,0,139.37,139.32h44a139.33,139.33,0,0,0,139.37-139.32V3087.2a139.34,139.34,0,0,1-139.37,139.33h-44A139.34,139.34,0,0,1,2648.7,3087.2Z" transform="translate(-836.86 -381.01)"/></g><g class="cls-5"><path class="cls-6" d="M2788.08,2922.43h44a139.35,139.35,0,0,1,139.35,139.35v44.13a139.35,139.35,0,0,0-139.35-139.35h-44a139.36,139.36,0,0,0-139.36,139.35v-44.13A139.36,139.36,0,0,1,2788.08,2922.43Z" transform="translate(-836.86 -381.01)"/></g><path class="cls-2" d="M2832.12,3451.61h-44c-84.14,0-152.6-68.45-152.6-152.59V3061.78c0-84.14,68.46-152.59,152.6-152.59h44c84.14,0,152.6,68.45,152.6,152.59V3299C2984.72,3383.16,2916.26,3451.61,2832.12,3451.61Zm-44-515.94A126.26,126.26,0,0,0,2662,3061.78V3299a126.27,126.27,0,0,0,126.12,126.12h44A126.27,126.27,0,0,0,2958.24,3299V3061.78a126.26,126.26,0,0,0-126.12-126.11Z" transform="translate(-836.86 -381.01)"/><rect class="cls-6" x="284.84" y="620.9" width="108.01" height="404.79"/><g class="cls-4"><rect class="cls-2" x="353.14" y="620.9" width="39.72" height="404.79"/></g><path class="cls-2" d="M1229.72,1419.94h-108a13.24,13.24,0,0,1-13.24-13.24V1001.91a13.24,13.24,0,0,1,13.24-13.23h108a13.24,13.24,0,0,1,13.24,13.23V1406.7A13.24,13.24,0,0,1,1229.72,1419.94ZM1135,1393.46h81.53V1015.15H1135Z" transform="translate(-836.86 -381.01)"/><path class="cls-6" d="M50.2,567.42H78.26a0,0,0,0,1,0,0V678.05a0,0,0,0,1,0,0H50.2a37,37,0,0,1-37-37v-36.7A37,37,0,0,1,50.2,567.42Z"/><g class="cls-4"><path class="cls-2" d="M912.24,993.52H854.3v21.24l5.24,11.27s7.87,5,14.42,5h41.26Z" transform="translate(-836.86 -381.01)"/></g><path class="cls-2" d="M915.12,1072.3h-28a50.27,50.27,0,0,1-50.21-50.2V985.4a50.27,50.27,0,0,1,50.21-50.21h28a13.24,13.24,0,0,1,13.24,13.24v110.63A13.24,13.24,0,0,1,915.12,1072.3Zm-28-110.63a23.76,23.76,0,0,0-23.73,23.73v36.7a23.76,23.76,0,0,0,23.73,23.73h14.81V961.67Z" transform="translate(-836.86 -381.01)"/><path class="cls-3" d="M105,540.68H351.06a65.17,65.17,0,0,1,65.17,65.17V636a65.17,65.17,0,0,1-65.17,65.17H105a26.74,26.74,0,0,1-26.74-26.74v-107A26.74,26.74,0,0,1,105,540.68Z"/><g class="cls-4"><path class="cls-2" d="M1253.09,986.84v3.66a65.16,65.16,0,0,1-65.18,65.14h-246a26.72,26.72,0,0,1-26.74-26.7V980.39a26.72,26.72,0,0,0,26.74,26.7h246A65.09,65.09,0,0,0,1249,964.42,64,64,0,0,1,1253.09,986.84Z" transform="translate(-836.86 -381.01)"/></g><g class="cls-5"><path class="cls-6" d="M1187.92,921.69H941.86a26.74,26.74,0,0,0-26.74,26.74v30.89a26.74,26.74,0,0,1,26.74-26.74h246.06a65.16,65.16,0,0,1,65.15,64.78c0-.13,0-.26,0-.39V986.86A65.17,65.17,0,0,0,1187.92,921.69Z" transform="translate(-836.86 -381.01)"/></g><path class="cls-2" d="M1187.92,1095.37H941.86a40,40,0,0,1-40-40v-107a40,40,0,0,1,40-40h246.06a78.49,78.49,0,0,1,78.41,78.41V1017A78.49,78.49,0,0,1,1187.92,1095.37ZM941.86,934.93a13.52,13.52,0,0,0-13.5,13.5v107a13.52,13.52,0,0,0,13.5,13.5h246.06a52,52,0,0,0,51.93-51.93V986.86a52,52,0,0,0-51.93-51.93Z" transform="translate(-836.86 -381.01)"/><rect class="cls-6" x="1933.27" y="620.9" width="108.01" height="404.79"/><g class="cls-4"><rect class="cls-2" x="1933.27" y="620.9" width="39.72" height="404.79"/></g><path class="cls-2" d="M2878.14,1419.94h-108a13.24,13.24,0,0,1-13.24-13.24V1001.91a13.24,13.24,0,0,1,13.24-13.23h108a13.24,13.24,0,0,1,13.24,13.23V1406.7A13.24,13.24,0,0,1,2878.14,1419.94Zm-94.77-26.48h81.53V1015.15h-81.53Z" transform="translate(-836.86 -381.01)"/><path class="cls-6" d="M3121.7,948.43h28.05a0,0,0,0,1,0,0v110.63a0,0,0,0,1,0,0H3121.7a37,37,0,0,1-37-37V985.4A37,37,0,0,1,3121.7,948.43Z" transform="translate(5397.62 1626.48) rotate(180)"/><g class="cls-4"><path class="cls-2" d="M3087.62,993.52h57.93v21.24l-5.24,11.27s-7.86,5-14.42,5h-41.26Z" transform="translate(-836.86 -381.01)"/></g><path class="cls-2" d="M3112.78,1072.3h-28.05a13.24,13.24,0,0,1-13.24-13.24V948.43a13.24,13.24,0,0,1,13.24-13.24h28.05A50.26,50.26,0,0,1,3163,985.4v36.7A50.26,50.26,0,0,1,3112.78,1072.3ZM3098,1045.83h14.81a23.76,23.76,0,0,0,23.73-23.73V985.4a23.75,23.75,0,0,0-23.73-23.73H3098Z" transform="translate(-836.86 -381.01)"/><path class="cls-3" d="M2773.5,921.69h246.06a65.17,65.17,0,0,1,65.17,65.17V1017a65.17,65.17,0,0,1-65.17,65.17H2773.5a26.74,26.74,0,0,1-26.74-26.74v-107A26.74,26.74,0,0,1,2773.5,921.69Z" transform="translate(4994.63 1622.81) rotate(180)"/><g class="cls-4"><path class="cls-2" d="M2746.76,986.84v3.66a65.16,65.16,0,0,0,65.19,65.14h246a26.72,26.72,0,0,0,26.74-26.7V980.39a26.72,26.72,0,0,1-26.74,26.7H2812a65.09,65.09,0,0,1-61.13-42.67A64,64,0,0,0,2746.76,986.84Z" transform="translate(-836.86 -381.01)"/></g><g class="cls-5"><path class="cls-6" d="M2811.93,921.69H3058a26.74,26.74,0,0,1,26.74,26.74v30.89A26.74,26.74,0,0,0,3058,952.58H2811.93a65.16,65.16,0,0,0-65.15,64.78c0-.13,0-.26,0-.39V986.86A65.17,65.17,0,0,1,2811.93,921.69Z" transform="translate(-836.86 -381.01)"/></g><path class="cls-2" d="M3058,1095.37H2811.93a78.49,78.49,0,0,1-78.41-78.4V986.86a78.49,78.49,0,0,1,78.41-78.41H3058a40,40,0,0,1,40,40v107A40,40,0,0,1,3058,1095.37ZM2811.93,934.93A52,52,0,0,0,2760,986.86V1017a52,52,0,0,0,51.93,51.93H3058a13.51,13.51,0,0,0,13.5-13.5v-107a13.51,13.51,0,0,0-13.5-13.5Z" transform="translate(-836.86 -381.01)"/><path class="cls-7" d="M1999.93,2056.35h956.62v-99.19s188-1119.91-956.62-1119.91S1043.3,1957.16,1043.3,1957.16v99.19Z" transform="translate(-836.86 -381.01)"/><g class="cls-8"><path class="cls-2" d="M2956.55,2056.35l-11.29-99.19s51.47-838.32-945.33-838.32-945.34,838.32-945.34,838.32l-11.29,99.19Z" transform="translate(-836.86 -381.01)"/></g><g class="cls-5"><path class="cls-6" d="M1999.93,885.79c839.92,0,962.28,603,967.91,924,5.33-304-83.47-972.58-967.91-972.58S1026.68,1505.84,1032,1809.83C1037.64,1488.77,1160,885.79,1999.93,885.79Z" transform="translate(-836.86 -381.01)"/></g><path class="cls-2" d="M2956.54,2069.6a13.25,13.25,0,0,1-13.14-11.75l-11.3-99.19a13.6,13.6,0,0,1-.06-2.3c.2-3.25,17.05-327.76-207.67-566.48-161-171.07-404.77-257.8-724.44-257.8s-563.42,86.73-724.45,257.8c-224.72,238.72-207.87,563.23-207.67,566.48a13.6,13.6,0,0,1-.06,2.3l-11.3,99.19a13.24,13.24,0,1,1-26.31-3l11.17-98.07c-.56-11-3.57-90.46,19.1-198.18,22.11-105,74-257.35,195.56-386.63,166.24-176.75,416.54-266.37,744-266.37s577.71,89.62,744,266.37c121.58,129.28,173.45,281.61,195.56,386.63,22.67,107.72,19.66,187.15,19.1,198.18l11.17,98.07a13.24,13.24,0,0,1-11.66,14.66A12.87,12.87,0,0,1,2956.54,2069.6Z" transform="translate(-836.86 -381.01)"/><path class="cls-2" d="M2948.85,1997.54a8.85,8.85,0,0,1-8.55-6.63c-.37-1.44-38.9-146.3-173.5-289.15-124.17-131.77-358-288.85-766.87-288.85S1357.22,1570,1233.06,1701.76c-134.61,142.85-173.14,287.71-173.51,289.15a8.83,8.83,0,0,1-17.1-4.4c1.56-6.06,39.73-150,177.11-296.16,80.6-85.74,178.74-154,291.67-203,140.9-61.1,305.32-92.08,488.7-92.08s347.79,31,488.69,92.08c112.93,49,211.07,117.28,291.68,203,137.37,146.13,175.54,290.1,177.1,296.16a8.83,8.83,0,0,1-8.55,11Z" transform="translate(-836.86 -381.01)"/><path class="cls-2" d="M2954.18,2044.26a8.81,8.81,0,0,1-7.38-4c-.85-1.27-53.19-78.18-194.76-154.13-131.34-70.47-368.43-154.46-752.11-154.46-384.7,0-622.11,84.41-753.54,155.22-141.44,76.21-192.84,152.61-193.34,153.37a8.83,8.83,0,0,1-14.74-9.71c2.15-3.27,54.39-80.9,199.71-159.2,133.21-71.77,373.53-157.34,761.91-157.34s628.69,85.57,761.91,157.34c145.31,78.3,197.55,155.93,199.7,159.2a8.83,8.83,0,0,1-7.36,13.68Z" transform="translate(-836.86 -381.01)"/><path class="cls-2" d="M2956.55,2069.59H1043.3a13.24,13.24,0,0,1-13.24-13.24v-98.11c-2.18-13.53-20.16-132.6-6.42-291.25,13.22-152.68,59.9-371.23,207.17-545.3C1397.94,924.16,1656.71,824,1999.93,824s602,100.15,769.11,297.68c147.27,174.07,193.95,392.62,207.17,545.3,13.74,158.66-4.24,277.74-6.42,291.25v98.11A13.23,13.23,0,0,1,2956.55,2069.59Zm-1900-26.47H2943.31v-86a12.27,12.27,0,0,1,.19-2.18c.2-1.23,20.38-124.63,6.27-286.48-13-148.68-58.38-361.28-201.06-529.84-161.87-191.22-413.79-288.18-748.78-288.18s-586.92,97-748.79,288.18c-142.68,168.55-188.09,381.16-201.05,529.84-14.12,161.85,6.06,285.25,6.27,286.48a13.27,13.27,0,0,1,.18,2.18Z" transform="translate(-836.86 -381.01)"/><path class="cls-6" d="M2759.65,2096.88H1240.2s-1.46-39.1,23.26-91.89c51.19-109.35,214.7-277.41,736.47-277.41,129.43,0,236.85,10.33,326,27.59C2769.18,1840.87,2759.65,2096.88,2759.65,2096.88Z" transform="translate(-836.86 -381.01)"/><g class="cls-4"><path class="cls-2" d="M1263.46,2005c173.74,49.52,319.42,78.56,441.45,91.89H1240.2S1238.74,2057.78,1263.46,2005Z" transform="translate(-836.86 -381.01)"/></g><g class="cls-4"><path class="cls-2" d="M2726.33,2096.88H1991.85C2264.1,2057,2319.13,1893.3,2325.35,1788,2654.75,1860.82,2715.3,2031.16,2726.33,2096.88Z" transform="translate(-836.86 -381.01)"/></g><path class="cls-2" d="M2759.64,2110.09H1240.21a13.23,13.23,0,0,1-13.23-12.74c-.14-3.83-2.46-94.86,87.3-188,85.71-88.95,274.23-195,685.65-195s599.93,106,685.64,195c89.76,93.15,87.45,184.18,87.3,188A13.23,13.23,0,0,1,2759.64,2110.09Zm-1505.42-26.47H2745.63c-2.91-26.7-16.57-91.43-80-156.77-82.31-84.86-264.63-186-665.74-186s-583.44,101.16-665.75,186C1270.81,1992.18,1257.14,2056.89,1254.22,2083.62Z" transform="translate(-836.86 -381.01)"/><path class="cls-9" d="M2399.93,2056.36h-800c18-63,51-110.94,80.63-143.87,32.48-36.23,60.94-54.32,60.94-54.32h516.87s28.46,18.09,60.95,54.32C2348.92,1945.42,2381.93,1993.39,2399.93,2056.36Z" transform="translate(-836.86 -381.01)"/><g class="cls-4"><path class="cls-2" d="M1913.3,2056.36H1601.77a154.63,154.63,0,0,1,10.72-20.92s84.78,7.11,186.59-78.28C1799.08,1957.91,1799.39,2031.21,1913.3,2056.36Z" transform="translate(-836.86 -381.01)"/></g><g class="cls-4"><path class="cls-2" d="M2086.56,2056.36h311.52a154.63,154.63,0,0,0-10.72-20.92s-84.78,7.11-186.59-78.28C2200.77,1957.91,2200.46,2031.21,2086.56,2056.36Z" transform="translate(-836.86 -381.01)"/></g><g class="cls-4"><path class="cls-2" d="M2319.31,1912.49c-41.8,11.43-88.89,21-141.84,28.2a1314,1314,0,0,1-355.09,0c-53-7.19-100-16.77-141.83-28.2,32.48-36.23,60.94-54.32,60.94-54.32h516.87S2286.82,1876.26,2319.31,1912.49Z" transform="translate(-836.86 -381.01)"/></g><path class="cls-2" d="M2232.32,2058.64c-1.34-7.86-3.25-16.79-5.26-25.2s-4.54-17-7.26-25.34-6-16.6-9.32-24.84-7.36-16.25-11.45-24.55l-.05-.1a2.33,2.33,0,0,1,3.57-2.82,123.32,123.32,0,0,1,19.84,20.42,171.35,171.35,0,0,1,15.51,24,212.89,212.89,0,0,1,12,26,178.88,178.88,0,0,1,8.5,27.87,13.25,13.25,0,0,1-25.91,5.52l-.09-.48Z" transform="translate(-836.86 -381.01)"/><path class="cls-2" d="M1741.45,2054.07a177.82,177.82,0,0,1,8.51-27.87,211.34,211.34,0,0,1,12-26,171.35,171.35,0,0,1,15.51-24,123.32,123.32,0,0,1,19.84-20.42,2.33,2.33,0,0,1,3.57,2.82l0,.1c-4.08,8.3-8.08,16.28-11.45,24.55s-6.66,16.42-9.32,24.84-5.12,16.85-7.26,25.34-3.92,17.34-5.26,25.2l-.07.42a13.24,13.24,0,1,1-26.11-4.46Z" transform="translate(-836.86 -381.01)"/><path class="cls-10" d="M1999.93,1858.15h124s.61,130.56-124,130.56-124-130.56-124-130.56Z" transform="translate(-836.86 -381.01)"/><path class="cls-2" d="M1999.93,2002c-39.39,0-71.4-12.1-95.15-36-41.88-42.07-42.07-105.23-42-107.9a13.24,13.24,0,0,1,13.24-13.18h247.92a13.24,13.24,0,0,1,13.24,13.18c0,2.67-.18,65.83-42.06,107.9C2071.32,1989.85,2039.31,2002,1999.93,2002Zm-109.72-130.56c1.43,11.68,4.9,29.55,13.34,47.12,18.15,37.79,50.58,57,96.38,57s78.22-19.17,96.37-57c8.44-17.57,11.91-35.44,13.35-47.12Z" transform="translate(-836.86 -381.01)"/><path class="cls-2" d="M2400,2069.59h-800a13.23,13.23,0,0,1-12.73-16.87c38.69-135.41,142.78-202.93,147.2-205.74a13.24,13.24,0,0,1,7.1-2.07h516.91a13.27,13.27,0,0,1,7.11,2.07c4.41,2.81,108.5,70.33,147.19,205.74a13.23,13.23,0,0,1-12.73,16.87Zm-782-26.47h764c-35.31-102.44-111.46-160.35-127.61-171.73H1745.55C1729.43,1882.74,1653.26,1940.66,1618,2043.12Z" transform="translate(-836.86 -381.01)"/><path class="cls-10" d="M1467.68,1196.44s-62.24-72.7-151-28.31c-96.47,48.24-95.43,302,89.14,345Z" transform="translate(-836.86 -381.01)"/><g class="cls-5"><path class="cls-6" d="M1312.26,1199c81.31-40.65,140.32,16.88,149.67,26.85l5.75-29.43s-62.24-72.7-151-28.31c-36.45,18.22-59,65.8-62.93,120.25C1262.62,1247.39,1282.92,1213.69,1312.26,1199Z" transform="translate(-836.86 -381.01)"/></g><g class="cls-4"><path class="cls-2" d="M1317.94,1258.05s-39.37-6.88-19.09,75.4,83.19,98.42,83.19,98.42l5.51-23.2,12.21-19.67s-46.43-38.14-32.27-68.42l30.67,9.56-5.11-49.28S1365.92,1243.89,1317.94,1258.05Z" transform="translate(-836.86 -381.01)"/></g><path class="cls-2" d="M1296.47,1263.69c5.29-10.12,15.23-16.65,26.29-19.65s22.9-2,33.45,1c5.51,1.19,10.32,3.53,15.42,5.53,4.73,2.44,9.54,4.89,14,7.71,4.28,3,8.75,5.85,12.76,9.12s7.88,6.65,11.7,10.11a13.23,13.23,0,0,1-17.54,19.8l-.79-.69c-3.42-3-6.71-6.08-10-9.18s-6.94-5.56-10.34-8.48c-3.54-2.6-7.15-5-10.77-7.45-3.77-1.84-7.4-4.47-11.29-5.77-7.67-3.31-15.7-5.33-23.73-4.79a61.09,61.09,0,0,0-24.39,6.65l-.58.29a3.11,3.11,0,0,1-4.19-1.38A3.15,3.15,0,0,1,1296.47,1263.69Z" transform="translate(-836.86 -381.01)"/><path class="cls-2" d="M1388.25,1341c-1.65-.79-4.12-2.13-6.23-3.06s-4.39-1.86-6.48-2.55a23.76,23.76,0,0,0-9.71-1.64c-2.2-.16-6.31,2.52-4.57,12a58.25,58.25,0,0,0,4.5,14.13,125.55,125.55,0,0,0,7.48,14.63,302.08,302.08,0,0,0,19.18,28.26l.13.18a5.58,5.58,0,0,1-8,7.72,192.3,192.3,0,0,1-26.18-25.58c-7.9-9.54-15.55-19.65-20.11-33.54a46.77,46.77,0,0,1-2.13-11.52,36.53,36.53,0,0,1,1.92-13.49,31.74,31.74,0,0,1,8.17-12.39,36.07,36.07,0,0,1,6.43-4.61c2.34-1,4.87-2.3,7.25-2.65,9.82-2.12,18.06-.25,24.85,2.17a65.9,65.9,0,0,1,9.69,4.42,70.81,70.81,0,0,1,9,5.83,13.21,13.21,0,0,1-13.77,22.37Z" transform="translate(-836.86 -381.01)"/><path class="cls-2" d="M1405.81,1526.38a13.27,13.27,0,0,1-3-.34c-89.36-20.82-149.61-91.76-161.16-189.76-9.54-80.86,18.88-154.88,69.1-180,96.9-48.46,166.3,30.74,167,31.55a13.22,13.22,0,0,1,2.93,11.15l-61.87,316.7a13.24,13.24,0,0,1-13,10.7ZM1374.34,1167c-15.64,0-33,3.58-51.75,13-39.79,19.89-62.77,84.33-54.65,153.21,9.61,81.44,56.91,141.59,127.6,163.48l57.83-296C1442.94,1190.53,1414.37,1167,1374.34,1167Z" transform="translate(-836.86 -381.01)"/><path class="cls-10" d="M2532.17,1196.44s62.24-72.7,151-28.31c96.48,48.24,95.43,302-89.14,345Z" transform="translate(-836.86 -381.01)"/><g class="cls-5"><path class="cls-6" d="M2687.59,1199c-81.3-40.65-140.32,16.88-149.67,26.85l-5.75-29.43s62.24-72.7,151-28.31c36.45,18.22,59,65.8,62.93,120.25C2737.23,1247.39,2716.94,1213.69,2687.59,1199Z" transform="translate(-836.86 -381.01)"/></g><g class="cls-4"><path class="cls-2" d="M2681.91,1258.05s39.37-6.88,19.1,75.4-83.2,98.42-83.2,98.42l-5.5-23.2L2600.09,1389s46.43-38.14,32.27-68.42l-30.67,9.56,5.11-49.28S2633.93,1243.89,2681.91,1258.05Z" transform="translate(-836.86 -381.01)"/></g><path class="cls-2" d="M2698.63,1267.62a61.09,61.09,0,0,0-24.39-6.65c-8-.54-16.06,1.48-23.73,4.79-3.89,1.3-7.52,3.93-11.29,5.77-3.62,2.43-7.23,4.85-10.77,7.45-3.4,2.92-7,5.5-10.34,8.48s-6.6,6.21-10,9.18l-.77.68a13.23,13.23,0,0,1-17.56-19.79c3.82-3.46,7.78-6.78,11.71-10.11s8.47-6.15,12.75-9.12c4.46-2.82,9.27-5.27,14-7.71,5.11-2,9.91-4.34,15.42-5.53,10.55-3,22.33-3.89,33.45-1s21,9.53,26.29,19.65a3.12,3.12,0,0,1-4.15,4.23Z" transform="translate(-836.86 -381.01)"/><path class="cls-2" d="M2596.41,1319.29a70.81,70.81,0,0,1,9-5.83,65.9,65.9,0,0,1,9.69-4.42c6.79-2.42,15-4.29,24.86-2.17,2.37.35,4.9,1.66,7.24,2.65a35.71,35.71,0,0,1,6.43,4.61,31.88,31.88,0,0,1,8.18,12.39,36.72,36.72,0,0,1,1.91,13.49,46.77,46.77,0,0,1-2.13,11.52c-4.56,13.89-12.21,24-20.11,33.54a192.3,192.3,0,0,1-26.18,25.58,5.59,5.59,0,0,1-8-7.72l.14-.18a302.08,302.08,0,0,0,19.18-28.26,125.55,125.55,0,0,0,7.48-14.63,57.39,57.39,0,0,0,4.5-14.13c1.74-9.48-2.37-12.16-4.57-12a23.78,23.78,0,0,0-9.71,1.64c-2.09.69-4.26,1.61-6.48,2.55s-4.58,2.27-6.23,3.06l-1.41.67a13.21,13.21,0,0,1-13.78-22.36Z" transform="translate(-836.86 -381.01)"/><path class="cls-2" d="M2594,1526.38a13.25,13.25,0,0,1-13-10.7L2519.18,1199a13.22,13.22,0,0,1,2.93-11.15c.69-.81,70.08-80,167-31.55,50.22,25.12,78.64,99.14,69.11,180-11.56,98-71.81,168.94-161.17,189.76A13.27,13.27,0,0,1,2594,1526.38Zm-47.56-325.74,57.83,296c70.69-21.89,118-82,127.6-163.48,8.12-68.88-14.86-133.32-54.65-153.21C2610.56,1146.61,2561,1186.58,2546.48,1200.64Z" transform="translate(-836.86 -381.01)"/><path class="cls-10" d="M2177.47,1914.22a1315.08,1315.08,0,0,1-355.09,0c-534.08-72.69-470.53-383.6-434.21-485.8v-.05a299.27,299.27,0,0,1,13.55-32.7c-42-675.35,598.21-654,598.21-654s640.17-21.32,598.2,654C2598.13,1395.67,2819.18,1826.88,2177.47,1914.22Z" transform="translate(-836.86 -381.01)"/><g class="cls-4"><path class="cls-2" d="M2634.63,1545c-5.12,130-89.72,292.77-457.16,342.77a1315.08,1315.08,0,0,1-355.09,0c-367.43-50-452-212.81-457.15-342.77,1.85-47.93,13.37-89.55,22.94-116.55,0,5.82-58.82,395.1,611.76,398.28,651.38,3.09,611.79-392.46,611.75-398.28C2621.25,1455.42,2632.77,1497,2634.63,1545Z" transform="translate(-836.86 -381.01)"/></g><ellipse class="cls-11" cx="709.03" cy="1154.07" rx="85.47" ry="52.51"/><ellipse class="cls-11" cx="1617.09" cy="1154.07" rx="85.47" ry="52.51"/><g class="cls-5"><path class="cls-6" d="M1999.93,741.62s-616-20.44-599.86,616.28c6.75-254,119.91-394.4,246.15-472.06,13.65,18,74.65,14.77,142.22-8.37,67.81-23.23,118.08-58.24,117.47-80.81,56.38-7.72,94-6.49,94-6.49s584.25-19.4,599.85,567.73C2615.92,721.18,1999.93,741.62,1999.93,741.62Z" transform="translate(-836.86 -381.01)"/></g><path class="cls-2" d="M2371.39,1160.53c-11.14-6.74-22.49-13-33.19-16.85s-21-5.53-30.94-4.88-20.06,3.37-30.68,8c-10.68,4.49-21.5,10.85-33.52,17.27l-.31.16a11.14,11.14,0,0,1-15.08-4.58,11.28,11.28,0,0,1,.06-10.62,97.59,97.59,0,0,1,31-33.7,91.2,91.2,0,0,1,22-11.06,83.93,83.93,0,0,1,25.45-4.33,79.28,79.28,0,0,1,47.9,15.53,86.71,86.71,0,0,1,17.07,16.64c4.72,6.34,8.65,12.65,11.37,20.5a7.07,7.07,0,0,1-10.31,8.39Z" transform="translate(-836.86 -381.01)"/><path class="cls-2" d="M1999.93,1727.59c84.46,0,166.43-51.12,185.3-123.48,5.95-22.79,5.47-41,2-55.2-6.09-25.16-34.3-38.1-57.74-27.11-62.83,29.48-129.58,29.09-129.58,29.09s-66.76.39-129.59-29.09c-23.43-11-51.65,2-57.74,27.11-3.45,14.22-3.93,32.41,2,55.2C1833.49,1676.47,1915.46,1727.59,1999.93,1727.59Z" transform="translate(-836.86 -381.01)"/><path class="cls-6" d="M1870.34,1521.8S1861,1608,1919.22,1608s50.85-59.16,50.85-59.16S1917.41,1550.92,1870.34,1521.8Z" transform="translate(-836.86 -381.01)"/><path class="cls-12" d="M1999.93,1634.26c-86.56,0-115.16,60.06-115.16,60.06,56.26,38,115.16,33.27,115.16,33.27s58.89,4.76,115.15-33.27C2115.08,1694.32,2086.48,1634.26,1999.93,1634.26Z" transform="translate(-836.86 -381.01)"/><path class="cls-2" d="M1999.93,1740.83c-93.12,0-178.29-57.34-198.12-133.38-5.86-22.43-6.56-43.18-2.08-61.66a53.59,53.59,0,0,1,29.08-35.73,54.82,54.82,0,0,1,47.15-.24c59.16,27.75,123,28,123.9,27.83.79,0,64.81-.05,124-27.83a54.78,54.78,0,0,1,47.15.24,53.54,53.54,0,0,1,29.08,35.73c4.48,18.47,3.78,39.22-2.07,61.66C2178.21,1683.49,2093,1740.83,1999.93,1740.83ZM1852.67,1531.1a28.67,28.67,0,0,0-12.4,2.84,27.15,27.15,0,0,0-14.81,18.09c-3.43,14.18-2.77,30.58,2,48.74,16.89,64.75,91,113.59,172.5,113.59s155.6-48.84,172.5-113.59c4.73-18.17,5.39-34.57,2-48.74a27.16,27.16,0,0,0-14.8-18.09,28.39,28.39,0,0,0-24.45-.15c-64.8,30.4-132.44,30.25-135.29,30.34s-70.33.06-135.14-30.34A28.18,28.18,0,0,0,1852.67,1531.1Z" transform="translate(-836.86 -381.01)"/><path class="cls-2" d="M1617.31,1152.65c2.73-7.85,6.65-14.16,11.38-20.5a86.38,86.38,0,0,1,17.06-16.64,79.28,79.28,0,0,1,47.9-15.53,83.93,83.93,0,0,1,25.45,4.33,91.27,91.27,0,0,1,22.05,11.06,97.66,97.66,0,0,1,31,33.7,11.15,11.15,0,0,1-15,15.24l-.37-.2c-12-6.42-22.84-12.78-33.52-17.27-10.62-4.67-20.74-7.48-30.68-8s-20.13,1-30.93,4.88-22.06,10.11-33.2,16.85l-.81.49a7.07,7.07,0,0,1-10.34-8.37Z" transform="translate(-836.86 -381.01)"/><path class="cls-2" d="M1999.93,1939.5a1329.4,1329.4,0,0,1-179.33-12.15c-226.2-30.79-372.72-107.39-435.47-227.68-71.66-137.33-8.47-282.33,3.14-306.68-12.22-207.76,38.34-371.53,150.31-486.77,177.88-183.09,444.75-178.31,461.35-177.85,16.58-.46,283.46-5.23,461.35,177.85,112,115.24,162.52,279,150.3,486.77,11.61,24.35,74.8,169.35,3.14,306.68C2552,1820,2405.45,1896.56,2179.25,1927.35h0A1329.26,1329.26,0,0,1,1999.93,1939.5Zm177.54-25.27h0ZM1994.66,754.81c-37.1,0-278.55,6.52-437.25,170-107.07,110.31-155,268.45-142.49,470a13.28,13.28,0,0,1-1.44,6.86c-.75,1.48-75.38,150.88-4.77,285.9,58.62,112.11,198.41,183.94,415.46,213.48a1301.94,1301.94,0,0,0,351.51,0h0c217.2-29.56,357-101.46,415.57-213.69,70.59-135.3-4.12-284.2-4.88-285.69a13.28,13.28,0,0,1-1.44-6.86c12.52-201.59-35.42-359.73-142.49-470C2271,748.23,2003,754.78,2000.36,754.85h-.87C1999.29,754.85,1997.63,754.81,1994.66,754.81Z" transform="translate(-836.86 -381.01)"/><path class="cls-2" d="M2005.26,818.36c-5.28,1.74-9.6,2.93-14.38,4.13s-9.38,2.18-14.12,3a241,241,0,0,1-28.81,3.43c-19.45,1.08-39.75-.23-59.75-7-19.84-6.57-39.29-19.86-51.38-38.16-3.29-4.4-5.6-9.26-8.11-14-2-4.88-4.29-9.73-5.63-14.72-3.31-9.91-4.81-19.9-5.95-29.77a166.36,166.36,0,0,1,4.55-59,139.43,139.43,0,0,1,27.07-52.75,161.45,161.45,0,0,1,44.13-37c16.57-9.32,33.87-16.31,52.56-19.69a4.68,4.68,0,0,1,3,8.76l-.35.18c-30.88,15.83-59,37.61-77.15,64.41a126.28,126.28,0,0,0-19,43.58,141.17,141.17,0,0,0-1.31,47.73c1.22,7.86,2.65,15.66,5.34,22.66,1.06,3.67,2.85,6.85,4.29,10.23,1.88,3.06,3.44,6.34,5.64,9.07,8,11.61,19.91,19.28,33.9,24,28.15,9.21,64,6,94.78-2l.92-.24a17.31,17.31,0,0,1,9.75,33.21Z" transform="translate(-836.86 -381.01)"/><path class="cls-2" d="M1988,859.93c-2.39,3-4.14,4.87-6.24,7.13s-4.13,4.2-6.25,6.21c-4.24,4-8.69,7.76-13.29,11.33a159.63,159.63,0,0,1-29.93,18.27c-21.25,10.12-46,14.88-69.62,11.47a127.25,127.25,0,0,1-33.72-9.55c-10.41-4.92-20.37-10.52-29.11-17.52-17.83-13.52-32.22-30.22-44.15-48.08a3,3,0,0,1,4.47-3.89c15.84,13.93,32.33,26.71,50,36.24l6.6,3.51,6.77,3a55.13,55.13,0,0,0,6.79,2.75c2.3.78,4.55,1.69,6.85,2.38a108.67,108.67,0,0,0,27.83,4.7c18.56.7,36.63-4.45,53-13.43a152.64,152.64,0,0,0,23.15-16.16c3.63-3,7.16-6.25,10.46-9.63,1.67-1.67,3.26-3.42,4.84-5.11s3.26-3.67,4.16-4.82l.21-.28a17.33,17.33,0,1,1,27.37,21.26S1988,859.88,1988,859.93Z" transform="translate(-836.86 -381.01)"/><path class="cls-7" d="M2956.57,2226.23s-2.08,14.69-8.35,39.71c-36.32,144.89-213.68,636.69-948.29,636.69s-912-491.8-948.3-636.69c-6.27-25-8.34-39.71-8.34-39.71Z" transform="translate(-836.86 -381.01)"/><g class="cls-4"><path class="cls-2" d="M2956.57,2226.23s-2.08,14.69-8.35,39.71h-60.85c-4.24,16.82-10.37,38.22-19.11,63.07-83.9,238.09-280.33,418.94-523.36,487.34-97.71,27.5-211.34,43.82-343.52,43.82q-72.81,0-138.35-6.44c514-53.75,667.53-433,709.11-587.79H1098.05c-4.76-17.87-7.59-31.51-9.13-39.71Z" transform="translate(-836.86 -381.01)"/></g><g class="cls-5"><path class="cls-6" d="M2291.77,2872.8c-85.93,19-182.71,29.83-291.84,29.83-734.62,0-912-491.8-948.3-636.69-.31-1.14-.58-2.25-.84-3.35-.31-1.28-.62-2.52-.88-3.75-.49-2-1-4-1.37-5.87-.49-2.08-.93-4.06-1.33-6-.22-.93-.39-1.76-.57-2.6-.26-1.41-.57-2.78-.84-4.06-1.81-9.14-2.51-14.12-2.51-14.12h45.63c1.54,8.2,4.37,21.84,9.13,39.71,41.13,154.95,225.6,627.86,946,627.86C2134.88,2893.8,2217.19,2886.26,2291.77,2872.8Z" transform="translate(-836.86 -381.01)"/></g><g class="cls-4"><path class="cls-6" d="M1223.39,2305.18c22.79,98.12,87.42,249.64,270.22,352.56,18.89,10.64,38.38-13.16,24.36-29.69-69.75-82.22-184.25-221.93-259.19-338C1246.84,2271.58,1218.41,2283.74,1223.39,2305.18Z" transform="translate(-836.86 -381.01)"/></g><path class="cls-2" d="M1999.93,2915.86c-198.54,0-373.07-36-518.74-107-116.9-57-215.52-136.49-293.1-236.28-132.12-169.93-156.91-337.43-157.9-344.48A13.24,13.24,0,0,1,1043.3,2213H2956.55a13.22,13.22,0,0,1,13.11,15.08c-1,7.05-25.78,174.55-157.9,344.48-77.58,99.79-176.2,179.29-293.1,236.28C2373,2879.86,2198.46,2915.86,1999.93,2915.86Zm-940.72-676.39c9.28,44.78,44.72,182.15,150.57,317.85C1328,2708.81,1561,2889.39,1999.93,2889.39s672-180.59,790.14-332.07c105.85-135.7,141.29-273.07,150.58-317.85Z" transform="translate(-836.86 -381.01)"/><rect class="cls-6" x="193.61" y="1576.15" width="91.23" height="114.31" rx="24.12"/><g class="cls-4"><path class="cls-2" d="M1121.71,1981.3v30.76a24.11,24.11,0,0,1-24.14,24.09h-43a24.07,24.07,0,0,1-24.09-24.09V1981.3c0-.8,0-1.55.09-2.3a24.11,24.11,0,0,0,24,21.85h43a24.09,24.09,0,0,0,24-21.85A21.4,21.4,0,0,1,1121.71,1981.3Z" transform="translate(-836.86 -381.01)"/></g><path class="cls-2" d="M1097.59,2084.71h-43a37.4,37.4,0,0,1-37.36-37.36v-66.07a37.39,37.39,0,0,1,37.36-37.35h43a37.39,37.39,0,0,1,37.36,37.35v66.07A37.4,37.4,0,0,1,1097.59,2084.71Zm-43-114.31a10.89,10.89,0,0,0-10.88,10.88v66.07a10.89,10.89,0,0,0,10.88,10.88h43a10.89,10.89,0,0,0,10.88-10.88v-66.07a10.89,10.89,0,0,0-10.88-10.88Z" transform="translate(-836.86 -381.01)"/><rect class="cls-6" x="2878.14" y="1957.16" width="91.23" height="114.31" rx="24.12" transform="translate(5010.66 3647.62) rotate(180)"/><g class="cls-4"><path class="cls-2" d="M2878.14,1981.3v30.76a24.11,24.11,0,0,0,24.14,24.09h43a24.06,24.06,0,0,0,24.09-24.09V1981.3c0-.8,0-1.55-.09-2.3a24.11,24.11,0,0,1-24,21.85h-43a24.08,24.08,0,0,1-24-21.85A19.07,19.07,0,0,0,2878.14,1981.3Z" transform="translate(-836.86 -381.01)"/></g><path class="cls-2" d="M2945.26,2084.71h-43a37.4,37.4,0,0,1-37.36-37.36v-66.07a37.39,37.39,0,0,1,37.36-37.35h43a37.39,37.39,0,0,1,37.36,37.35v66.07A37.4,37.4,0,0,1,2945.26,2084.71Zm-43-114.31a10.89,10.89,0,0,0-10.88,10.88v66.07a10.89,10.89,0,0,0,10.88,10.88h43a10.89,10.89,0,0,0,10.88-10.88v-66.07a10.89,10.89,0,0,0-10.88-10.88Z" transform="translate(-836.86 -381.01)"/><rect class="cls-6" x="143.75" y="1675.34" width="2038.61" height="169.88" rx="62.68"/><g class="cls-4"><path class="cls-2" d="M3014.42,2094.93a62.63,62.63,0,0,1-57.85,38.62H2339.86c-6.64-22.58-34.28-86.47-133.39-78.25,0,0-17.93,48.94,4.43,78.25H1789c22.35-29.31,4.42-78.25,4.42-78.25-99.11-8.22-126.75,55.67-133.39,78.25h-616.7a62.64,62.64,0,0,1-57.86-38.62,62.62,62.62,0,0,0-4.81,24.1v18a62.68,62.68,0,0,0,62.67,62.67H2956.57a62.68,62.68,0,0,0,62.66-62.67v-18A62.62,62.62,0,0,0,3014.42,2094.93Z" transform="translate(-836.86 -381.01)"/></g><path class="cls-2" d="M2956.55,2239.47H1043.3a76,76,0,0,1-75.92-75.91V2119a76,76,0,0,1,75.92-75.91H2956.55a76,76,0,0,1,75.92,75.91v44.53A76,76,0,0,1,2956.55,2239.47ZM1043.3,2069.59A49.5,49.5,0,0,0,993.86,2119v44.53A49.5,49.5,0,0,0,1043.3,2213H2956.55a49.49,49.49,0,0,0,49.44-49.44V2119a49.49,49.49,0,0,0-49.44-49.44Z" transform="translate(-836.86 -381.01)"/><path class="cls-10" d="M1658.08,2135.8S1619.56,2157,1543.25,2157c-57.19,0-92.72-12.4-103.93-51.77a84.71,84.71,0,0,1,11-69.77v0a86,86,0,0,1,24.62-24.71c23.7-15.53,61.26-29.08,120.22-29.08,104.63,0,143.2,42.67,155.78,63.55a56,56,0,0,1,5.43,11.16S1794.18,2161,1658.08,2135.8Z" transform="translate(-836.86 -381.01)"/><g class="cls-4"><path class="cls-2" d="M1658.08,2135.8S1619.56,2157,1543.25,2157c-57.19,0-92.72-12.4-103.93-51.77a84.71,84.71,0,0,1,11-69.77c-.14,2.25-3.53,68.14,88.21,72.24,93.3,4.19,119.51-59.75,119.51-59.75s10.51,50,52.48,48.9S1751,2045.2,1751,2045.2a56,56,0,0,1,5.43,11.16S1794.18,2161,1658.08,2135.8Z" transform="translate(-836.86 -381.01)"/></g><g class="cls-5"><path class="cls-6" d="M1450.36,2070.79v0A85.85,85.85,0,0,1,1475,2046c23.7-15.54,61.26-29.09,120.22-29.09,104.63,0,143.2,42.68,155.78,63.55a55.91,55.91,0,0,1,5.43,11.17,86,86,0,0,1,2.82,10.59c5.74-22.15-2.82-45.9-2.82-45.9a56,56,0,0,0-5.43-11.16c-12.58-20.88-51.15-63.55-155.78-63.55-59,0-96.52,13.55-120.22,29.08a86,86,0,0,0-24.62,24.71v0a84.89,84.89,0,0,0-12.31,64.63A86.18,86.18,0,0,1,1450.36,2070.79Z" transform="translate(-836.86 -381.01)"/></g><path class="cls-2" d="M1645.31,2139.18a88.91,88.91,0,0,1-3.58-21.25,121.9,121.9,0,0,1,.69-21,115.6,115.6,0,0,1,4.15-20.59,92.87,92.87,0,0,1,8-19.31,3.72,3.72,0,0,1,7,1.59v.22c.3,6.65.45,13,1.05,19.32s1.19,12.48,2.12,18.62,1.9,12.18,3,18.19,2.31,12.24,3.11,17.43l.14.93a13.23,13.23,0,0,1-25.73,5.86Z" transform="translate(-836.86 -381.01)"/><path class="cls-2" d="M1543.27,2170.26c-46.19,0-101.21-7-116.7-61.38h0c-11.6-40.76,5.32-85.67,41.15-109.2,31.61-20.76,74.5-31.29,127.46-31.29,143.07,0,171.54,76.89,173.78,83.72,1.45,4.16,15.86,47.89-9,77.16-18.35,21.62-52,28.46-100,20.3C1647.38,2155.32,1608.28,2170.26,1543.27,2170.26Zm51.91-175.39c-47.71,0-85.7,9.07-112.92,26.94-26.26,17.25-38.69,50.08-30.22,79.83h0c8.52,29.93,35,42.14,91.23,42.14,71.3,0,108.13-19.42,108.5-19.62a13.4,13.4,0,0,1,8.74-1.39c39.67,7.32,67.06,3.68,79.23-10.57,15.66-18.33,4.33-51.06,4.21-51.39-.06-.18-.14-.4-.2-.59C1742.92,2057.68,1720.79,1994.87,1595.18,1994.87Z" transform="translate(-836.86 -381.01)"/><path class="cls-10" d="M2341.77,2135.8S2380.3,2157,2456.6,2157c57.19,0,92.72-12.4,103.93-51.77a84.75,84.75,0,0,0-11-69.77v0a86.14,86.14,0,0,0-24.63-24.71c-23.7-15.53-61.25-29.08-120.21-29.08-104.64,0-143.21,42.67-155.79,63.55a56,56,0,0,0-5.43,11.16S2205.67,2161,2341.77,2135.8Z" transform="translate(-836.86 -381.01)"/><g class="cls-4"><path class="cls-2" d="M2341.77,2135.8S2380.3,2157,2456.6,2157c57.19,0,92.72-12.4,103.93-51.77a84.75,84.75,0,0,0-11-69.77c.13,2.25,3.53,68.14-88.22,72.24-93.3,4.19-119.51-59.75-119.51-59.75s-10.5,50-52.47,48.9-40.43-51.68-40.43-51.68a56,56,0,0,0-5.43,11.16S2205.67,2161,2341.77,2135.8Z" transform="translate(-836.86 -381.01)"/></g><g class="cls-5"><path class="cls-6" d="M2549.5,2070.79v0a86,86,0,0,0-24.63-24.71c-23.7-15.54-61.25-29.09-120.21-29.09-104.64,0-143.21,42.68-155.79,63.55a55.91,55.91,0,0,0-5.43,11.17,86,86,0,0,0-2.82,10.59c-5.74-22.15,2.82-45.9,2.82-45.9a56,56,0,0,1,5.43-11.16c12.58-20.88,51.15-63.55,155.79-63.55,59,0,96.51,13.55,120.21,29.08a86.14,86.14,0,0,1,24.63,24.71v0a85,85,0,0,1,12.31,64.63A86.37,86.37,0,0,0,2549.5,2070.79Z" transform="translate(-836.86 -381.01)"/></g><path class="cls-2" d="M2329,2132.39c.8-5.19,2.07-11.55,3.11-17.43s2.1-12.07,3-18.19,1.59-12.33,2.12-18.62.75-12.67,1.05-19.32v-.21a3.71,3.71,0,0,1,7-1.6,92.87,92.87,0,0,1,8,19.31,115.6,115.6,0,0,1,4.15,20.59,121.9,121.9,0,0,1,.69,21,89.38,89.38,0,0,1-3.57,21.25,13.23,13.23,0,0,1-25.74-5.86Z" transform="translate(-836.86 -381.01)"/><path class="cls-2" d="M2456.58,2170.26c-65,0-104.1-14.94-116.75-20.69-48,8.16-81.61,1.32-100-20.3-24.84-29.26-10.43-73-9-77.15,2.24-6.82,30.69-83.73,173.78-83.73,53,0,95.85,10.53,127.46,31.29,35.83,23.53,52.75,68.44,41.15,109.2C2557.79,2163.29,2502.78,2170.26,2456.58,2170.26Zm-114.83-47.71a13.3,13.3,0,0,1,6.39,1.64c.31.17,37.14,19.59,108.44,19.59,56.28,0,82.71-12.21,91.23-42.14h0c8.47-29.75-3.95-62.58-30.21-79.83-27.23-17.87-65.22-26.94-112.93-26.94-125.61,0-147.73,62.81-148.61,65.48l-.17.5c-.1.29-11.43,33,4.22,51.35,12.17,14.25,39.57,17.91,79.23,10.57A13.1,13.1,0,0,1,2341.75,2122.55Z" transform="translate(-836.86 -381.01)"/><ellipse class="cls-2" cx="1716.15" cy="1369.28" rx="131.94" ry="85.37" transform="translate(-565.42 2641.43) rotate(-87.44)"/><path class="cls-6" d="M1725.36,1268.49c-14.93,5.77-21.52,30.16-14.72,54.47s24.44,39.35,39.38,33.59,21.52-30.16,14.72-54.47S1740.3,1262.73,1725.36,1268.49Z" transform="translate(-836.86 -381.01)"/><path class="cls-13" d="M1674.12,1421.94c-7.09,5.17-8,18.78-2.14,30.39s16.45,16.84,23.53,11.67,8-18.77,2.14-30.39S1681.21,1416.77,1674.12,1421.94Z" transform="translate(-836.86 -381.01)"/><path class="cls-2" d="M2251.28,1238.2c46.68-7.93,90.22,44.32,97.25,116.71s-25.13,137.52-71.82,145.45-90.23-44.32-97.25-116.71S2204.59,1246.14,2251.28,1238.2Z" transform="translate(-836.86 -381.01)"/><path class="cls-6" d="M2254.78,1268.49c14.94,5.77,21.53,30.16,14.72,54.47s-24.43,39.35-39.37,33.59-21.53-30.16-14.72-54.47S2239.84,1262.73,2254.78,1268.49Z" transform="translate(-836.86 -381.01)"/><path class="cls-13" d="M2306,1421.94c7.09,5.17,8,18.78,2.13,30.39s-16.44,16.84-23.53,11.67-8.05-18.77-2.14-30.39S2298.94,1416.77,2306,1421.94Z" transform="translate(-836.86 -381.01)"/><path class="cls-6" d="M2571.32,714a187.83,187.83,0,0,1-51.69-108.9c-12.26-103.51,61.72-197.36,165.23-209.62s197.35,61.72,209.61,165.23S2832.76,758,2729.25,770.28a188,188,0,0,1-82.58-8.58l-81,38.19Z" transform="translate(-836.86 -381.01)"/><g class="cls-8"><path class="cls-6" d="M2689.12,431.49c-96.69,11.45-167.58,94.1-166.51,189.31a189.27,189.27,0,0,1-3.47-19.86c-12.25-103.51,61.72-197.35,165.23-209.61S2881.73,453,2894,556.55a189.63,189.63,0,0,1,1.3,20.21C2874.12,483.88,2785.85,420,2689.12,431.49Z" transform="translate(-836.86 -381.01)"/></g><path class="cls-2" d="M2565.72,813a13.11,13.11,0,0,1-13.08-14l5.23-80.24a200,200,0,0,1-51.26-112.19c-13.08-110.52,66.19-211.09,176.71-224.18s211.08,66.18,224.17,176.7-66.18,211.09-176.7,224.18a200.08,200.08,0,0,1-83.22-7.54l-76.26,36A13.09,13.09,0,0,1,2565.72,813Zm141.46-405.76a175.86,175.86,0,0,0-20.78,1.23c-96.17,11.38-165.14,98.89-153.76,195.05a174,174,0,0,0,48.1,101.34,13.12,13.12,0,0,1,3.66,10l-4.16,63.73,60.84-28.71a13.08,13.08,0,0,1,9.79-.56,173.82,173.82,0,0,0,76.84,8c96.16-11.39,165.13-98.9,153.75-195.06C2870.89,473,2794.86,407.23,2707.18,407.23Z" transform="translate(-836.86 -381.01)"/><g class="cls-4"><path class="cls-14" d="M2569.89,712.43A218,218,0,0,0,2888.8,532a189.65,189.65,0,0,1,5.67,28.71c12.26,103.51-61.71,197.35-165.22,209.61a188,188,0,0,1-82.58-8.58l-81,38.19,5.6-85.93C2570.84,713.46,2570.37,712.94,2569.89,712.43Z" transform="translate(-836.86 -381.01)"/></g><path class="cls-15" d="M2647.36,529.86h0c16.34-16.33,42.82-13.41,59.15,2.93l2.54,2.54,2.55-2.54c16.33-16.34,42.81-19.26,59.14-2.93h0a41.81,41.81,0,0,1,0,59.15l-2.54,2.54-51.35,51.35a11,11,0,0,1-15.59,0l-51.35-51.35-2.55-2.54A41.83,41.83,0,0,1,2647.36,529.86Z" transform="translate(-836.86 -381.01)"/></svg>