<svg id="Layer_1" data-name="Layer 1" xmlns="http://www.w3.org/2000/svg" viewBox="0 0 2649.37 2461.73"><defs><style>.cls-1{opacity:0.2;}.cls-2,.cls-4{fill:#571639;}.cls-2,.cls-3,.cls-5,.cls-7,.cls-8{fill-rule:evenodd;}.cls-3{fill:#f39b39;}.cls-5{fill:#c47339;}.cls-6{opacity:0.4;}.cls-7{fill:#fff;}.cls-8{fill:#d27a1a;}.cls-9{opacity:0.6;}.cls-10{opacity:0.3;}.cls-11{opacity:0.5;}</style></defs><g class="cls-1"><path class="cls-2" d="M1923.19,3385c-659.75-.34-1194.55-81.23-1194.52-180.66s534.88-179.74,1194.64-179.4,1194.55,81.23,1194.53,180.66S2583,3385.36,1923.19,3385" transform="translate(-715.23 -923.27)"/></g><path class="cls-3" d="M741.91,2393.4c-11.35-66.6,168.12-242.85,222.42-192.09,689.13,519.15,1373.33,640.36,2013.5,341.59,21,665-1885.17,277.59-2068.72,104.3C810.35,2529.57,747.37,2424.42,741.91,2393.4Z" transform="translate(-715.23 -923.27)"/><path class="cls-4" d="M2245.11,2937.91c-200.24,0-398.77-22.64-538.09-43.27-375.59-55.64-732.06-158-811.53-233a20.69,20.69,0,0,1-1.58-1.67c-99.17-118.13-165.1-226.55-171.54-263.12,0,0,0-.07,0-.11-10.43-61.21,89.06-169,159.51-207,51-27.48,79.83-17.46,95.15-3.75,690.28,519.73,1360.64,633.76,1992.44,338.91a19.84,19.84,0,0,1,28.22,17.35c4.35,138.28-68.71,242.26-217.15,309C2635.53,2916.57,2439.52,2937.91,2245.11,2937.91ZM923.53,2633.51c65.62,60.33,384.87,162,789.31,221.88,460,68.13,843.16,53.46,1051.4-40.24,121-54.44,185.86-135.46,193.22-241.14-312.63,139.51-639.26,181.34-971.38,124.37-339.31-58.21-687.09-220.12-1033.69-481.23a18.86,18.86,0,0,1-1.61-1.35c-7.68-7.17-26.41-3.84-50.11,8.92C829.63,2263,756,2357.26,761.46,2390,765.32,2411.64,818.3,2508,923.53,2633.51Z" transform="translate(-715.23 -923.27)"/><path class="cls-5" d="M2977.83,2542.9c172.51,619.93-1912.78,393.34-2068.72,104.3l-5.77-7.42q120.35-73.29,171.14-220C1889,2865.34,2505.93,2919.71,2977.83,2542.9Z" transform="translate(-715.23 -923.27)"/><path class="cls-4" d="M2167.29,2957.28c-149.57,0-309.53-10.17-469.46-30-325.19-40.4-730.35-135-805.35-269.11l-4.8-6.17a19.82,19.82,0,0,1,5.34-29.12c75.82-46.18,130.56-116.68,162.71-209.55a19.82,19.82,0,0,1,28.27-10.92c825.12,451.39,1423,491.13,1881.46,125a19.84,19.84,0,0,1,31.49,10.19c28.1,101,14.44,240.33-210.17,330.84-121.19,48.84-287.51,77.9-494.33,86.36C2251.74,2956.45,2209.93,2957.28,2167.29,2957.28ZM931.23,2645.41c64.43,94.69,377.42,193.5,771.49,242.45,343.54,42.69,804.83,50.31,1069.23-56.23,145.62-58.69,210.5-144,193.26-253.74-234.08,177.79-500,253.64-812,231.63-309.76-21.82-659.32-140.05-1068.11-361.37C1051.82,2532.26,1000.16,2598.46,931.23,2645.41Z" transform="translate(-715.23 -923.27)"/><g class="cls-6"><path class="cls-7" d="M944.63,2207.08c12,75.22,25.82,155.52,80.49,235.65C980,2519.47,951.92,2580.8,915,2612.26c68.26-30.69,124.13-109,150.1-179.77q-31.46-60.87-57.76-107.44c-24-38.53-31.86-79.61-62.75-118" transform="translate(-715.23 -923.27)"/></g><path class="cls-4" d="M909.11,2667a19.84,19.84,0,0,1-13.5-34.38c82.41-76.49,135.05-146.6,156.63-208.58-75.68-92-90.32-150.57-105.79-212.5l-1.36-5.45a19.84,19.84,0,0,1,38.48-9.65L985,2202c15.43,61.78,28.76,115.14,104.69,205a19.84,19.84,0,0,1,3.86,18.47c-21.27,71.29-78.76,150.79-170.9,236.3A19.79,19.79,0,0,1,909.11,2667Z" transform="translate(-715.23 -923.27)"/><path class="cls-5" d="M1369.6,2126.34c-80.86,152.38-202.61,260.15-346.72,394.43,77.69,91.8,128.24,119.93,173.2,163,49.6-22.66,25.56-13.19,66.39-42.4a1083.44,1083.44,0,0,0,103.46-90.78q121.66-120.69,230.66-297.37c-37.51-151.07,13.93-274.8,168.84-339.47,72.46-30.24,135.25-79.3,153.2-155.72a210.27,210.27,0,0,0-67.8-207.68c-33.48,71.47-63.69,175.44-126.07,295.55-30.66,59-432.83-82.36-314-279.4,88.49-159.46,151.3-308.56,208.9-434.58-23.6-105.23-27.22-171.25,22.33-186-114.48-10.44-220.83,8.95-233.17,27.77-25.68,39.16-21,84.5,6.34,191.32-80.64,126.74-145.68,306-210.91,448.72,23.87,119.18,104.13,238.29,298.85,267.8C1400.7,1908.14,1367.73,2022.85,1369.6,2126.34Z" transform="translate(-715.23 -923.27)"/><path class="cls-4" d="M1196.08,2703.63a19.85,19.85,0,0,1-13.73-5.51c-13.85-13.28-28.73-25.47-44.49-38.38-33.93-27.79-76.15-62.38-130.13-126.15a19.85,19.85,0,0,1,1.63-27.34q14.07-13.11,27.86-25.91c127.84-118.8,238.45-221.58,312.47-358.86-.85-107.45,32.47-189.86,91.76-232.61-184.69-50.65-240.15-188.58-256.7-271.21a19.87,19.87,0,0,1,1.4-12.14c19-41.55,37.66-85.5,57.42-132,46.37-109.16,94.28-221.93,150.22-311.82-25.84-102.36-31.34-153.48-1.61-198.82,21.71-33.14,150-45.92,251.57-36.66A19.84,19.84,0,0,1,1647.6,965c-30,8.92-32.53,56-8.63,162.62a19.84,19.84,0,0,1-1.31,12.59q-17,37.14-34.72,76.87c-48.47,107.93-103.4,230.28-174.88,359.09l-.36.62c-36.44,60.45-20.78,119.44,46.56,175.35,38.47,31.93,91.18,59.43,144.63,75.46,54.06,16.21,83,12.79,88.57,8.61,38.12-73.5,63.76-140.09,86.38-198.87,14-36.33,26.07-67.72,39-95.36a19.84,19.84,0,0,1,30.88-6.65,229.27,229.27,0,0,1,74.2,227.27c-17.15,73-74.16,131.64-164.87,169.5-139.75,58.35-194.12,167.75-157.22,316.39a19.86,19.86,0,0,1-2.37,15.19c-73.14,118.55-151.72,219.84-233.57,301a1111.31,1111.31,0,0,1-105.36,92.44l-.54.39a273.7,273.7,0,0,0-23.78,18.57c-10,8.74-13.58,11-45.9,25.74A19.82,19.82,0,0,1,1196.08,2703.63Zm-145.7-181.35c45.59,51.85,81,80.89,112.62,106.77,12.78,10.46,25,20.47,36.85,31.17,17.63-8.2,19.12-9.51,24.3-14a310.72,310.72,0,0,1,26.51-20.75,1067.88,1067.88,0,0,0,101.3-88.92c78-77.41,153.16-173.84,223.42-286.71-37.59-163.82,27-289.46,182.41-354.36,79.59-33.21,127.21-81,141.52-142a189.68,189.68,0,0,0-42-168.86c-8.45,20.11-17,42.36-26.48,66.93-23.06,59.9-49.19,127.78-88.5,203.48-8,15.43-25.62,23.57-52.32,24.19-1.11,0-2.25,0-3.39,0-82.32,0-240.13-67-295.77-162.9-30-51.71-29.09-107,2.64-159.79,70.58-127.24,125.1-248.66,173.21-355.8q16.42-36.57,32.06-71c-14.16-64.15-24.44-127.3-5.6-166.74-89.79-2.12-157,13.43-168.41,22.48-19.68,30.79-17.53,68.82,9.54,174.63a19.85,19.85,0,0,1-2.48,15.57c-56.16,88.26-104.76,202.67-151.76,313.31-18.93,44.58-36.87,86.81-55.14,127.06,21.2,97.39,87.55,216.56,281.08,245.88a19.84,19.84,0,0,1,2,38.82c-113.29,29.42-119.42,179.82-118.6,225.21a19.77,19.77,0,0,1-2.32,9.65c-77.15,145.43-191,251.25-322.89,373.78ZM1707.72,1836Z" transform="translate(-715.23 -923.27)"/><path class="cls-8" d="M2380.8,2573.54q44.67,116.61,45.56,195.27Q2560.13,2826,2688,2883.61q-10-234.77-172.92-365.62Q2446.75,2552.72,2380.8,2573.54Z" transform="translate(-715.23 -923.27)"/><path class="cls-4" d="M2688,2903.45a19.7,19.7,0,0,1-8.15-1.75c-84.52-38.08-172.42-76.66-261.27-114.64a19.87,19.87,0,0,1-12-18c-.54-49.79-15.43-113.18-44.24-188.39a19.84,19.84,0,0,1,12.53-26c42.87-13.56,87-31.83,131.26-54.32a19.89,19.89,0,0,1,21.42,2.22c112.76,90.59,173.42,218.53,180.31,380.25a19.84,19.84,0,0,1-19.82,20.68Zm-242.2-147.9c74.61,32,148.48,64.32,220.17,96.42-12.18-129.84-63.73-234.1-153.57-310.46a920.3,920.3,0,0,1-105.8,44.4C2430.13,2651.11,2443.29,2708,2445.78,2755.55Z" transform="translate(-715.23 -923.27)"/><path class="cls-4" d="M1358.85,2144.51a21.11,21.11,0,1,1,21.48-36.34c28.62,17,166.66,91.94,151.42,113.62-11.35,19.85-146.23-61.44-172.9-77.28" transform="translate(-715.23 -923.27)"/><path class="cls-5" d="M2807.2,1857.47c-86.92-167.2-245.5-240.83-444.92-184.8,9.69,52.82,10.68,73.51,15.06,133.54C2515.38,1718.9,2694.88,1741.36,2807.2,1857.47Z" transform="translate(-715.23 -923.27)"/><path class="cls-4" d="M2807.2,1877.31a19.77,19.77,0,0,1-14.26-6c-105.87-109.44-276.21-129.74-405-48.28a19.83,19.83,0,0,1-30.39-15.32l-1-13.56c-3.59-49.71-5.08-70.28-13.81-117.85a19.83,19.83,0,0,1,14.15-22.68c203.33-57.12,373.86,13.86,467.89,194.75a19.84,19.84,0,0,1-17.6,29ZM2385,1687.22c5.44,32.36,7.44,53.72,9.86,86.17,103.23-53,225-52.29,326.43-2.56C2636.82,1684.52,2519.39,1654.44,2385,1687.22Z" transform="translate(-715.23 -923.27)"/><path class="cls-3" d="M2807.2,1857.47q57.33,65.67,73.19,113.91c38.21-39.39,88.22-63.27,149.42-58.26,141.68,11.62,246.25-22,315-114.22q-92.07-27.18-169.23-13.71,30.58-31.53,42.29-70.52Q3033.76,1628.78,2807.2,1857.47Z" transform="translate(-715.23 -923.27)"/><path class="cls-4" d="M2880.4,1991.23a19.86,19.86,0,0,1-18.86-13.67c-9.64-29.41-32.95-65.42-69.29-107a19.84,19.84,0,0,1,.85-27c156.84-158.33,302.57-207.74,433.11-146.82a19.84,19.84,0,0,1,10.61,23.68A182.63,182.63,0,0,1,3219,1761c41.3-1,85.28,5.21,131.42,18.83a19.84,19.84,0,0,1,10.29,30.88c-70.56,94.75-179.33,134.68-332.48,122.15-50.94-4.2-95.85,13.42-133.55,52.3A19.84,19.84,0,0,1,2880.4,1991.23Zm-46.17-132.63c24,28.89,41.73,55.07,53.65,79.13,41.56-33.44,90.63-48.68,143.55-44.38,126.68,10.4,216-16.11,278.17-83.13-46.92-10.6-90.77-12.45-130.65-5.48a19.84,19.84,0,0,1-17.66-33.36,157.45,157.45,0,0,0,31.37-45.79C3086.39,1685.68,2966,1730.35,2834.23,1858.6Z" transform="translate(-715.23 -923.27)"/><g class="cls-9"><path class="cls-7" d="M3032.51,1704.34a357.33,357.33,0,0,0-47,18.64q-73.26,37.86-142,129.21,172.68-148.74,363-127-89.92-44.42-174.07-20.86" transform="translate(-715.23 -923.27)"/></g><g class="cls-10"><path class="cls-2" d="M2807.2,1857.47q57.33,65.67,73.19,113.93c38.18-39.41,88.22-63.28,149.42-58.28,139.49,11.45,236.49-34.21,305.24-123.24-29.69-3.76-115.76,103.36-228.89,77.13-73.45-17-136-22.67-202.77,27.25q-56.19-53.05-88-44.91-4.05,4-8.14,8.12" transform="translate(-715.23 -923.27)"/></g><path class="cls-5" d="M3217.82,1714.67c-124.41-138.4-277-116.15-495.12,29.43,40.94,34.37,56.61,59.7,84.5,113.37Q3033.75,1628.77,3217.82,1714.67Z" transform="translate(-715.23 -923.27)"/><path class="cls-4" d="M2807.2,1877.31a18.7,18.7,0,0,1-3-.23,19.81,19.81,0,0,1-14.63-10.46c-27.07-52.08-40.94-74.83-79.65-107.32a19.85,19.85,0,0,1,1.74-31.7c117.49-78.4,210.32-118,292.15-124.49,88.19-7,163,25.13,228.74,98.3a19.84,19.84,0,0,1-23.14,31.24c-113.77-53.09-244.34-6.39-388.14,138.79A19.86,19.86,0,0,1,2807.2,1877.31Zm-52-130.75c24.49,23.68,39.53,46,57.1,78.11,115.25-110.46,224.3-161.44,325.64-152.18C3041.73,1614.09,2924,1638.09,2755.15,1746.56Z" transform="translate(-715.23 -923.27)"/><path class="cls-4" d="M1204.61,1577.28a17.85,17.85,0,1,1,34.88,7.65c-14.51,66.72,93.43,35.81,93.82,59.86,1.29,19-87.54,13.64-105.49,1.28q-33.18-22.86-23.21-68.79" transform="translate(-715.23 -923.27)"/><g class="cls-10"><path class="cls-2" d="M1461.69,1187.09c16.61-52.8-114.58-229.75,115.75-234.12-162.21-30.47-215.41,46-154.48,237.48-52.12,81.89-331,508.81-91.47,449.76-21.15-20.3-69.57-14.76-68.47-37,4.15-84.37,184.92-372.38,198.67-416.1" transform="translate(-715.23 -923.27)"/></g><g class="cls-10"><path class="cls-2" d="M1396.36,2188.65c8.37-5.92,84.1,29.95,121.55,35.62-37.63-6.8-136.64-66.43-159.06-79.76-.28-.16-.55-.33-.83-.51-5.54,34.25-298.72,357.73-348.84,375.49,3.83,16.35,25.21,6.48,31.9,22.19,213.31-110.31,253.57-280.86,355.28-353" transform="translate(-715.23 -923.27)"/></g><g class="cls-10"><path class="cls-2" d="M2509.36,2814.68c-28.1-26.56-44.75-29.12-89-43.34-237.63,64.11-509.38,28.72-735.79-67.7q-37.55,29.15-62.47,43.83,402.49,195.59,887.23,67.21" transform="translate(-715.23 -923.27)"/></g><g class="cls-10"><path class="cls-2" d="M1007,2706.9c24.45-51.91,67.87-83.65,95-120.78-40.5-3.71-67.79-63.42-46.59-153.62Q1005.24,2553.57,902,2635.37q32.67,47.64,105,71.53" transform="translate(-715.23 -923.27)"/></g><g class="cls-10"><path class="cls-2" d="M2531.12,2755.2q-25.3-30.93-32.26-72.73-9.46-56.79,14.91-133.56-49.93,37.55-88.7,45.39a950.23,950.23,0,0,1,21.91,96,742.94,742.94,0,0,1,9.63,82.23c.16,3.16.32,6.31.46,9.42q17.67,7.62,35.27,15.23,42.21,13.56,76.31,33.3,39,17.16,77.55,34.36,19.93-6.07,39.7-12.72-.93-10.23-2.14-20.26-106.65-20.37-152.64-76.69" transform="translate(-715.23 -923.27)"/></g><g class="cls-9"><path class="cls-7" d="M2400.94,2699.27q8.71,25.58,8.72,25.56-369.82,37.08-708.38-113,464.33,106.08,699.66,87.41" transform="translate(-715.23 -923.27)"/></g><path class="cls-3" d="M1619.61,1131.94q-75.09-334.83,212.3-68.18,496.09,68.49,545.43,742.45c143.58-90.83,332-62.88,443.08,65.71s111.23,319.1.46,447.92a1051.21,1051.21,0,0,1,144.45,447q-158.61,87-277.35,116.72-10-234.77-172.92-365.62-380.83,193.52-689.08-44.34-101.6,221.55-315,337.15-167.87-53.36-248.47-169.41,179.73-137.92,334.12-388.15c-37.51-151.07,13.93-274.8,168.84-339.47,72.46-30.24,135.25-79.3,153.2-155.72a210.27,210.27,0,0,0-67.8-207.68c-33.48,71.47-60,177.47-126.07,295.55-43.62,77.9-408.75-122.88-344-230.31C1469.28,1456.14,1562,1258,1619.61,1131.94Z" transform="translate(-715.23 -923.27)"/><path class="cls-4" d="M2688,2903.45a19.85,19.85,0,0,1-19.83-19c-6.17-145-58.56-260.33-155.77-342.95q-168.35,82.89-324.26,82.87c-125.11,0-243.6-40.12-354.63-120.37-69.54,140.32-174.78,249.32-313.1,324.23a19.81,19.81,0,0,1-15.46,1.46c-115.64-36.76-202.7-96.3-258.75-177a19.82,19.82,0,0,1,4.21-27.05c115.65-88.76,225-215.19,325-375.84-37.59-163.82,27-289.46,182.41-354.36,79.59-33.21,127.21-81,141.52-142a189.65,189.65,0,0,0-41.84-168.73c-7.62,18.63-15.22,39.21-23.58,61.86-21.7,58.8-48.7,132-91.82,209-7,12.58-22.83,27.58-58,27.67h-.29c-87.35,0-262.15-94.47-315-187.77-23.61-41.66-15.91-71.78-5.17-89.81,65.86-118.67,145-278.78,235.24-476-24.42-112.23-18.09-174.75,19.78-196.52,42.87-24.64,111.52,9.83,222.25,111.77,328,48,514.23,293.06,553.73,728.54A362.92,362.92,0,0,1,2845,2321.77a1077.87,1077.87,0,0,1,140.08,443.39,19.86,19.86,0,0,1-10.23,19.13c-106.73,58.51-201.63,98.4-282.07,118.57A19.75,19.75,0,0,1,2688,2903.45Zm-172.93-405.3a19.85,19.85,0,0,1,12.44,4.37c107,85.94,167.05,205.48,178.82,355.59,69.18-20,149.09-54.37,238.05-102.39A1037.64,1037.64,0,0,0,2803.84,2330a19.85,19.85,0,0,1,2-23.1c103.54-120.41,103.35-301.84-.43-422S2522.14,1738.09,2388,1823a19.83,19.83,0,0,1-30.39-15.31c-32.42-442.74-205.25-679.64-528.36-724.26a19.88,19.88,0,0,1-10.78-5.11c-132.26-122.71-171.26-115.75-180.05-110.69-7.33,4.22-28.95,28.21.6,160a19.84,19.84,0,0,1-1.31,12.59c-91.9,201-172.49,364.24-239.55,485.05-.12.21-.23.41-.36.62-2.91,4.83-11.79,19.56,5.51,50.09,44.11,77.86,207.12,167.64,280.46,167.65h.22c5.83,0,19.81-.76,23.51-7.37,41.59-74.29,66.89-142.84,89.21-203.33,12.78-34.61,23.81-64.5,36.2-90.94a19.84,19.84,0,0,1,30.88-6.65,229.27,229.27,0,0,1,74.2,227.27c-17.15,73-74.16,131.64-164.87,169.5-139.75,58.35-194.12,167.75-157.22,316.39a19.88,19.88,0,0,1-2.37,15.2c-99.35,161-208.16,289.24-323.63,381.48,49.79,64,123.35,112.38,219.06,144.13,134-74.53,234.64-183.47,299-323.9a19.85,19.85,0,0,1,30.16-7.44c200.75,154.89,419.24,168.74,668,42.36A19.85,19.85,0,0,1,2515.05,2498.15Z" transform="translate(-715.23 -923.27)"/><g class="cls-10"><path class="cls-2" d="M1613.71,2604.67a407.92,407.92,0,0,1-70.34,54.23c-3.48,2.68-6.94,5.18-10.42,7.52q-22,14.84-44.25,20.66c-57.09,15-151.26-3.92-211.6-66.46-9.42,8.28-18.23,15.83-11,25.85a1588.5,1588.5,0,0,0,269.2,150.59,727.68,727.68,0,0,0,121.53-89.22,691.68,691.68,0,0,0,67.06-70.32q60.45-73,102.12-163.87,253,195.18,554.82,99.89,66-20.85,134.26-55.55a476.24,476.24,0,0,1,35.71,31.74,485.53,485.53,0,0,0-54.63-48.77q-362.7,101.4-603.77-64.4a613.7,613.7,0,0,1-50.61-38.89q-67.86-35.57-116.75,36.8a561,561,0,0,1-34.92,71.93q-32.62,56.17-76.38,98.27" transform="translate(-715.23 -923.27)"/></g><g class="cls-10"><path class="cls-2" d="M2883,2645.33c13.17,100.37-141.25,130.39-197.1,206.82A1511.36,1511.36,0,0,0,2961.23,2728q-5.92-47.13-16-93.43-8-36.62-18.53-72.54c-.85-2.9-1.73-5.8-2.6-8.7a1051.16,1051.16,0,0,0-103.21-233.51,343.16,343.16,0,0,0,59.51-348.44l-.06-.19a340.11,340.11,0,0,0-21.18-44.46q-19.2-31.8-52-69.28c-112.32-116.12-285.27-121.73-423.28-34.42,344.64-121.14,613.5,195.15,375.41,472.46-36.56,53.43,105.88,213.69,123.67,349.82" transform="translate(-715.23 -923.27)"/></g><g class="cls-10"><path class="cls-2" d="M1616.73,1786.28q-145.61-11.19-235.94-170.67c-29.21,182.53,304.25,301.25,344,230.31,66.11-118.1,92.59-224.08,126.07-295.55a210.19,210.19,0,0,1,67.77,207.68c107.27-128.89-87.15-316.65-123.94-262-18.41,47.51-85.36,228.24-113.34,263.09q-21.21,26.43-64.59,27.18" transform="translate(-715.23 -923.27)"/></g><g class="cls-10"><path class="cls-2" d="M3190.41,1703.7c16.26,4.45,15,5,27.41,11q-16.58,66.55-64.27,68.75c-2.45-22.45,30.56-41.74,36.86-79.72" transform="translate(-715.23 -923.27)"/></g><g class="cls-6"><path class="cls-7" d="M2315.89,1659.49q44.64,192.43,61.45,146.72-6.57-90-21.15-169.28-94.47-513.84-524.28-573.17Q1680,922.82,1629.37,949.92q-45.15,24.17-9.76,182-86.4,189-219.15,428.24c-20.27,36.85-25.53,48-4,81.33q116.29-216,240.65-412.45,44.81-72.36,20.25-129.89-48.72-194.3,118-26.16,46.64,40.51,71.79,41.49,350.65,59.35,457.26,493.65,6,27.51,11.49,51.35" transform="translate(-715.23 -923.27)"/></g><g class="cls-6"><path class="cls-7" d="M1636.87,2254.2c-28.56-99.71,14.05-252.36,130.36-291,165.88-78.36,192.87-151.31,178.5-256.15-4.84,17.55-13.59,34.74-27.13,51-17.94,76.42-80.71,125.48-153.17,155.72-154.91,64.67-206.35,188.4-168.84,339.47q-96.19,155.87-202.17,268.14c-.6.66-165.88,164.58-103.09,130.47,152.69-82.95,275.57-242.61,345.54-397.65" transform="translate(-715.23 -923.27)"/></g><g class="cls-6"><path class="cls-7" d="M2673.33,2643.64q-71.86-161.71-177.19-142.68a485.53,485.53,0,0,1,54.63,48.77,435.25,435.25,0,0,1,79,105.4,452.28,452.28,0,0,1,26.28,58.85q23.15,63.49,29.82,138.17c10.89-14.92,25.56-28.06,42-40.3q-15.41-63.42-33.17-114-10.32-29.28-21.39-54.25" transform="translate(-715.23 -923.27)"/></g><path class="cls-4" d="M2688,2903.45a19.85,19.85,0,0,1-19.83-19c-6.17-145-58.56-260.33-155.77-342.95q-168.35,82.89-324.26,82.87c-125.11,0-243.6-40.12-354.63-120.37-69.54,140.32-174.78,249.32-313.1,324.23a19.81,19.81,0,0,1-15.46,1.46c-115.64-36.76-202.7-96.3-258.75-177a19.82,19.82,0,0,1,4.21-27.05c115.65-88.76,225-215.19,325-375.84-37.59-163.82,27-289.46,182.41-354.36,79.59-33.21,127.21-81,141.52-142a189.65,189.65,0,0,0-41.84-168.73c-7.62,18.63-15.22,39.21-23.58,61.86-21.7,58.8-48.7,132-91.82,209-7,12.58-22.83,27.58-58,27.67h-.29c-87.35,0-262.15-94.47-315-187.77-23.61-41.66-15.91-71.78-5.17-89.81,65.86-118.67,145-278.78,235.24-476-24.42-112.23-18.09-174.75,19.78-196.52,42.87-24.64,111.52,9.83,222.25,111.77,328,48,514.23,293.06,553.73,728.54A362.92,362.92,0,0,1,2845,2321.77a1077.87,1077.87,0,0,1,140.08,443.39,19.86,19.86,0,0,1-10.23,19.13c-106.73,58.51-201.63,98.4-282.07,118.57A19.75,19.75,0,0,1,2688,2903.45Zm-172.93-405.3a19.85,19.85,0,0,1,12.44,4.37c107,85.94,167.05,205.48,178.82,355.59,69.18-20,149.09-54.37,238.05-102.39A1037.64,1037.64,0,0,0,2803.84,2330a19.85,19.85,0,0,1,2-23.1c103.54-120.41,103.35-301.84-.43-422S2522.14,1738.09,2388,1823a19.83,19.83,0,0,1-30.39-15.31c-32.42-442.74-205.25-679.64-528.36-724.26a19.88,19.88,0,0,1-10.78-5.11c-132.26-122.71-171.26-115.75-180.05-110.69-7.33,4.22-28.95,28.21.6,160a19.84,19.84,0,0,1-1.31,12.59c-91.9,201-172.49,364.24-239.55,485.05-.12.21-.23.41-.36.62-2.91,4.83-11.79,19.56,5.51,50.09,44.11,77.86,207.12,167.64,280.46,167.65h.22c5.83,0,19.81-.76,23.51-7.37,41.59-74.29,66.89-142.84,89.21-203.33,12.78-34.61,23.81-64.5,36.2-90.94a19.84,19.84,0,0,1,30.88-6.65,229.27,229.27,0,0,1,74.2,227.27c-17.15,73-74.16,131.64-164.87,169.5-139.75,58.35-194.12,167.75-157.22,316.39a19.88,19.88,0,0,1-2.37,15.2c-99.35,161-208.16,289.24-323.63,381.48,49.79,64,123.35,112.38,219.06,144.13,134-74.53,234.64-183.47,299-323.9a19.85,19.85,0,0,1,30.16-7.44c200.75,154.89,419.24,168.74,668,42.36A19.85,19.85,0,0,1,2515.05,2498.15Z" transform="translate(-715.23 -923.27)"/><path class="cls-3" d="M3069.72,2658.84c464.16,441-1289.27,740.67-1916.2,435.62-75.62-36.8-91-118.63-160-230.36s114.67-303,154.65-288.28C1695.44,3017.93,2488.92,3065.45,3069.72,2658.84Z" transform="translate(-715.23 -923.27)"/><path class="cls-4" d="M1882.58,3238.5c-302.49,0-568.84-44-737.75-126.2-57.67-28.07-83.4-78.6-116-142.58-14.45-28.37-30.82-60.53-52.26-95.19-55.41-89.6,28.32-204.35,55.31-237.39,8-9.86,79.89-95.82,123.08-79.93a19.74,19.74,0,0,1,5.61,3.18c550.87,445,1331.26,478.79,1897.75,82.2a19.84,19.84,0,0,1,25,1.87c114.25,108.54,90.34,200.38,50.16,258.31-120.73,174.09-535.61,277-883.61,315.22A3379.15,3379.15,0,0,1,1882.58,3238.5Zm-742-643.25c-18.47,4.77-77.4,52.61-115.52,122.27-17.35,31.71-42.33,91.55-14.76,136.14,22.3,36.06,39.07,69,53.86,98.05,30.36,59.6,52.29,102.66,98,124.91,228.51,111.19,643.65,150.23,1083.4,101.93,426.38-46.85,762.12-164,855.34-298.39,43.81-63.17,32.89-127.29-33.46-195.64a1549.1,1549.1,0,0,1-460.75,214.17c-165.29,46-337.31,65.09-511.32,56.73C1748.58,2938.74,1409.78,2810.9,1140.62,2595.25Z" transform="translate(-715.23 -923.27)"/><path class="cls-5" d="M3133.11,2743.09c-345,375.08-1270.54,495.34-1812.83,149.31q-116.44,72.42-191.21,187.82C1643,3423.79,3277.82,3237.76,3133.11,2743.09Z" transform="translate(-715.23 -923.27)"/><path class="cls-4" d="M1954,3275.71c-358.47,0-665.18-64.8-836-179a19.83,19.83,0,0,1-5.62-27.28,629.79,629.79,0,0,1,197.38-193.88,19.84,19.84,0,0,1,21.15.12c248.52,158.56,601.28,228.83,967.79,192.74,349.89-34.45,656.34-161.09,819.76-338.76a19.84,19.84,0,0,1,33.65,7.86c31.33,107.09-13.21,208.53-128.8,293.35-181.06,132.87-542.25,225.68-942.6,242.2Q2016.49,3275.73,1954,3275.71Zm-797.2-201.24c187.93,115.87,530.15,175.18,922.28,159,392.9-16.21,745.71-106.08,920.77-234.53,89-65.34,129.7-137.55,121.27-215.07-175,170.26-477.16,290.48-818.52,324.08-370,36.45-727.1-33.53-982.3-192A589.46,589.46,0,0,0,1156.83,3074.47Z" transform="translate(-715.23 -923.27)"/><g class="cls-10"><path class="cls-2" d="M3139.73,2772.72C2924.2,3212.3,1818.3,3335.35,1181,3011a624.43,624.43,0,0,0-51.7,68.83c-.09.16-.18.31-.27.44,468.51,313.22,1868.63,186.28,2002.72-213.39a197.59,197.59,0,0,0,7.94-94.11" transform="translate(-715.23 -923.27)"/></g><g class="cls-11"><path class="cls-7" d="M1201.08,2803.16c.58,1.21,1.16,2.43,1.76,3.65,11.74,24.36,24.66,49.17,38.61,74.24-98.31,111.19-85.9,151-60.21,154.86,45.59-68.34,37.1-80.11,139-143.51q-23.7-32.79-45.82-67.72c-.8-1.27-1.59-2.56-2.39-3.83-15.6-24.82-147.18-225.75-148.59-229.42a33.23,33.23,0,0,0-8.86-1.51c-.18,85.86,50.11,137.21,86.46,213.24" transform="translate(-715.23 -923.27)"/></g><g class="cls-10"><path class="cls-2" d="M1123.64,3047.82q-5.7-95-45.26-172.42a198.33,198.33,0,0,1-10.45-19.15,165,165,0,0,1-16.24-71.74c0-.87,0-1.74,0-2.61q1.18-69.6,59.25-148.78,5.57-7.57,11.64-15.24a308,308,0,0,1-2.19-36.31c-11.51-.49-24.38,4.74-37.58,14.22-39.37,28.34-81.4,94.76-97.67,161.36-.16.68-.3,1.36-.48,2-10.34,43.78-9.39,87.47,10.91,120.29,53.59,86.66,72.48,154,117.95,193.92,3.74-2.29,7.36-4.63,10.89-7.06a76.67,76.67,0,0,1-.79-18.52" transform="translate(-715.23 -923.27)"/></g><path class="cls-4" d="M1129.05,3100.07a19.85,19.85,0,0,1-16.63-30.63,629.75,629.75,0,0,1,179.47-182.34q-8.92-12.22-17.75-24.2c-61.4-83.55-119.4-162.46-163.39-277.33a19.84,19.84,0,1,1,37-14.19c42.08,109.87,98.54,186.69,158.31,268,10,13.57,20.07,27.3,30.25,41.38a19.84,19.84,0,0,1-5.6,28.47,590.49,590.49,0,0,0-185,181.77A19.85,19.85,0,0,1,1129.05,3100.07Z" transform="translate(-715.23 -923.27)"/><g class="cls-6"><path class="cls-2" d="M2416.37,1799.44l.67.08q10.46,1.1,53.64,10.9,16.84,3.63,66,18.25a138,138,0,0,0,18.11,3.11q13,1.48,33.2.84,13.59,0,79.63-5.46a95.44,95.44,0,0,1,17.81,1q37.44,7.86,101.8,40.42-56.5-34.87-101.44-45.86a104.09,104.09,0,0,0-19.19-1.2q-55.82,4.89-70.68,5.39-24.49,1.17-40.14-.26a180.26,180.26,0,0,1-19.68-3q-45.36-12-68.16-16.51-43.74-8.61-51.54-7.75" transform="translate(-715.23 -923.27)"/></g><g class="cls-6"><path class="cls-2" d="M2491.55,1754l.6.67q20,20.8,58.71,27,3.39,1.26,34.93-1.21,9.16-.46,43.55-4.8c4.75-.46,8.38-.68,10.91-.68a54.21,54.21,0,0,1,7.64.56q37.31,6.71,41.2,7.07a72.17,72.17,0,0,0,16.95-.08,145.17,145.17,0,0,1-16.21-1.8q1.1.53-41.11-9.07a52,52,0,0,0-8.49-.87q-4.58-.13-13.33.52-67.46,7.27-65,6.74a76.49,76.49,0,0,1-12.76,0q-18.51-2.76-31.6-8.15a93.58,93.58,0,0,1-26-15.93" transform="translate(-715.23 -923.27)"/></g><g class="cls-6"><path class="cls-2" d="M2583.23,1885.73l-1.94.35q-68.68,14.45-85.7,57.77-14.7,53.67,29.83,86,28.86,20.78,80.16,30.74,10.41,2.19,46.14,6.33L2862,2091.11a24.16,24.16,0,0,0,6-2.14,17.8,17.8,0,0,1-9.39,1.28q-13-4-60.16-10.64-55.47-8-171.24-21.55-13.42-1.79-27.25-4.46-46.53-10.47-71.28-28.57-38.4-24.1-29.85-72.49,6.16-21.6,20.19-32.73,14.53-12.86,39-22,74.29-29.53,226,29.54a525.52,525.52,0,0,0-113.84-38.58q-45.51-9.67-87-3" transform="translate(-715.23 -923.27)"/></g><g class="cls-6"><path class="cls-2" d="M2605.9,1955.42l-.57.1q-18.87,2.93-17.56,13.16-.21,10.65,20.09,18.8a239.07,239.07,0,0,0,25.52,8.86l102.28,30.06,68,21.38q27.43,8.1,35.62,9.23-95.79-33.89-95.6-33.33-14.08-4.61-35.52-11.08-84.54-24.84-85.29-25.61-23.64-8.52-27.1-13.4-7.38-9.51,5.92-12,19-4.72,60.05-3.82,48.59.3,123.67,21-97.47-34.5-179.52-23.39" transform="translate(-715.23 -923.27)"/></g><g class="cls-6"><path class="cls-2" d="M1898.76,1937.32l.37.1c3.42.69,12.37,1.52,26.9,2.48q108.14,4.69,109.21,6.06a268.28,268.28,0,0,1,64.08,16.93,637.8,637.8,0,0,1,76.47,36q195.38,118.42,221.88,130.86,76.74,42.18,105.72,47.36a272,272,0,0,0,79.42,6.4q57.55-2.74,203.86-16.33a35.92,35.92,0,0,0,16.95-5.71q-10,3.38-15.59,3.45-215.16,14-212.74,13-42.39.81-72.48-7.22-31.7-6.29-110.54-49.75-28.55-13.55-212.95-125.88-42.74-23.25-80.76-37.6-25.57-10.63-66.51-16.26Z" transform="translate(-715.23 -923.27)"/></g><g class="cls-6"><path class="cls-2" d="M1929.47,1818.79l0,0q33.18,18.46,87.15,27.71,22.56,2.57,70,4.1,13.68.29,18.41.15,43-1.55,61.27-1.2a459.73,459.73,0,0,1,47,1.9q22.53,2.57,37,5.43l97.58,20.16,70,10.24q-50.86-9.78-81-16.37-13.56-2.58-72.94-17.85-20.38-4.69-34.16-6.54a267,267,0,0,0-33.48-2.53q-48.51-1.35-95.36,1-70-2.13-81-3.33a387.94,387.94,0,0,1-90.38-22.88" transform="translate(-715.23 -923.27)"/></g><g class="cls-6"><path class="cls-2" d="M2145,1950.93l4.29,1.24q55.23,14.64,96.89,34.36,22.42,10.42,46.35,23.94,132.32,78.88,138.82,80.21l29,14,50.43,15.84q48,13.36,95.58,4.56a272.18,272.18,0,0,1-75.16-4.25q-7.2-.68-69.78-22.07-10.7-4.45-53.89-26.77-124.23-74-140.63-80.35-62.21-29.88-121.87-40.72" transform="translate(-715.23 -923.27)"/></g><g class="cls-6"><path class="cls-2" d="M2153.76,1893l.12.06q26.82,13.76,83.25,29.57,18.79,4.7,33.34,7.12l55.64,6.63q12.72,2.12,35.45,9.36,30,8.82,64.13,36.47a172.59,172.59,0,0,0-48.83-33.87,284.34,284.34,0,0,0-48.05-15.86c-2.79-.6-7.43-1.32-13.92-2.19l-45.92-5.79q-16.51-2.78-34-7-55.85-14.81-81.2-24.52" transform="translate(-715.23 -923.27)"/></g><g class="cls-6"><path class="cls-2" d="M2148,1505.58l-.65.11q-16.71,2.85-28.23,8.62l-63.74,33q-54.39,23.34-68.51,30.29a98.41,98.41,0,0,0-17.17,10.6q-35.57,23.83-2.77,52.17,28.11,23.13,83.63,23.86c13.26-.72,22.17-2,26.67-3.7q8.51-2.08,52-20.43,10.86-3.54,26.13-6.91,21.46-4.43,55.83-.85a220.16,220.16,0,0,1,46.78,9.74q6.3,2.1,19.5,7.76l60.64,26.47a25.92,25.92,0,0,0,9.6,2.47c-1.38,0-3.74-.72-7-2.26q-53.18-28.07-78.47-38.34a210.92,210.92,0,0,0-48.84-11.72q-38-3.93-57.83.49a297.74,297.74,0,0,0-29.95,7.84q-41.34,17.87-50.22,20a115.34,115.34,0,0,1-23.89,3.36q-55.41-1.08-80.7-22.45c-8.86-8.49-13.54-15.61-14-21.35q.21-8.87,15.39-20.59,12.11-8.77,17.28-11,13.83-7,67.77-30,1.45-.25,59.5-31.51a133.82,133.82,0,0,1,12.61-5.77q48.93-17.14,159.77-6.67-84.42-13.21-141.08-3.29" transform="translate(-715.23 -923.27)"/></g><g class="cls-6"><path class="cls-2" d="M2206.82,1551.68l-.9.16q-23.36,3.89-65.51,22.37c-8.31,4.07-9.69,8.49-4.2,13.26,2.28,1.24,5.63,1.84,10,1.8q8.28.17,74.79-.94c2.63,0,5.72.05,9.25.21q16.5.38,43.6,4.68,12.52,2,37.16,12.71,2.6.84,21.94,15a19.37,19.37,0,0,0,4.66,1.83,22.81,22.81,0,0,1-4-2.24q-15.46-14.12-21.38-17.25-23.74-11.77-38.69-14.75a297.69,297.69,0,0,0-46.66-5.84c-3.26-.16-6.07-.21-8.45-.19l-71.81.61a21.25,21.25,0,0,1-7.45-1q2.6-3.4,36.91-16.42,21.6-8,34.37-10.1,65.54-12.88,113.34-7.88-39.8-8.82-117,4" transform="translate(-715.23 -923.27)"/></g><g class="cls-6"><path class="cls-2" d="M1956.51,1742.69h0q35.81,7.63,42.19,9.9,16.13.51,88.35,14.64,18.1,2.94,50.29,3.72,12.91.85,42.79-4.35a153.93,153.93,0,0,0,17.63-3.71q10.41-2.88,31-10.14c1.92-.57,4.11-1.11,6.55-1.62q26.4-4.25,41.41-4.78,18.72-1.71,74.37,20.42a345.11,345.11,0,0,0-41.82-17.35q-16.2-5.26-25.91-6.11-7.15-1.08-26.41.71-24.15,2.34-27.68,3.52l-29.11,9.13a118.46,118.46,0,0,1-13.68,3.26q-33.91,6-47.36,5.25-27.21-.73-45.66-3l-61.61-10a313.5,313.5,0,0,0-32.09-3.24q-14.57-3.2-43.27-6.31" transform="translate(-715.23 -923.27)"/></g><g class="cls-6"><path class="cls-2" d="M1969.45,1695v0q34.11,7.2,77.16,9.08,13.16.84,30.47.31l11-.61c14.26-1.46,21.32-2,21.13-1.77a233.38,233.38,0,0,1,27.45,1.53q15.27,1,78.05,22.52a131.6,131.6,0,0,0,22.35,3.05l-14.14-2.8-6.9-1.71q-46-17.3-53.4-19.42-17.2-5.6-27.29-6.92a203.08,203.08,0,0,0-25.42-1.79c-2.38.06-4.18.15-5.47.25l-19.86,1.75-10.89.64c-8.93.37-17.58.44-26,.21q-18.9-.39-32.36-1.06Z" transform="translate(-715.23 -923.27)"/></g><g class="cls-6"><path class="cls-2" d="M1901,1413.81l.12,0q28.82,10.94,39.6,12.16,31.29,2.77,56.91,3.92a134.41,134.41,0,0,0,24.76-1.55,150.32,150.32,0,0,0,27.68-7.07q70.59-30.9,74.21-32.22,20.86-8.68,34.85-13.31a149.64,149.64,0,0,1,15.46-4c1.15-.23,3.16-.6,6.09-1.1l23.92-3.94a102.63,102.63,0,0,0,12.28-3l-12.39,1.87q-25.95,3-29.6,3.72a137.14,137.14,0,0,0-17,3.85q-18.32,5.64-43.44,15.46-13.42,5.27-22.15,8.9l-36.72,15.51c-4.13,1.73-7.22,2.94-9.25,3.66a163.07,163.07,0,0,1-26.44,6.4,132.15,132.15,0,0,1-20.9,1.67q-25.12-.46-56.68-1.86-9.58-.5-41.29-9.13" transform="translate(-715.23 -923.27)"/></g><g class="cls-6"><path class="cls-2" d="M1977,1320.45l-.67.12q-37.33,7.25-61,20.42a162.26,162.26,0,0,0-14,8.41q-101.8,68.67-112.66,75.06a353.59,353.59,0,0,1-42.89,21c-7.45,3-13.12,5.06-17.07,6.31a167.73,167.73,0,0,1-17.58,3.74c-12.52,2.12-21,3.36-25.33,3.77l-63,6.79a99.48,99.48,0,0,0-13.82,2.76l41.68-2.32,30.18-2.15q14.17-.9,37.11-4.74,26.16-4.41,67.13-27.2,4.92-2.72,24.11-15.58l95.53-65.13a211.92,211.92,0,0,1,25.53-14.06q50.46-21.71,111.1-19.16-34.95-3.49-64.34,2" transform="translate(-715.23 -923.27)"/></g><g class="cls-6"><path class="cls-2" d="M1444.27,1551.25l1.5,1q51.76,31.24,101.89,30.83,19.35-1.33,50.69-11.2a280.4,280.4,0,0,0,27.19-10.83c4.31-2,8.56-4,12.71-6.12l23.56-12.18a41,41,0,0,1,4.4-2,20.33,20.33,0,0,1,5.15-1.43,35.42,35.42,0,0,1,4-.3l8.19.07a8.09,8.09,0,0,0,3.65-1.19l-3.69-2-1.66-.47c-6.72-.72-11.56-.59-14.49.39a38.72,38.72,0,0,0-5.38,2.06q-27.78,14-38.4,18.6c-8.86,3.92-17.17,7.21-24.87,9.87q-36.4,11.58-55.09,12.84-41.83,1.29-99.31-27.89" transform="translate(-715.23 -923.27)"/></g><g class="cls-6"><path class="cls-2" d="M1412.62,1621.76l.67.32q19.2,8,48,13.82,12.45,2.44,24.52,4.34,92.17,14.57,97.53,15.59,15.78,2.65,25.38,4.8,32.46,7.09,36,11.85-6.07,25.11-92.68,40.94-31.35,5.74-56.2,4.63-48.27-5.85-66.18-17.77a87.56,87.56,0,0,0,14,8.53q16,8.07,56.1,14.15,12.15.78,33-1,7.5-.26,26.36-3.71,48.66-9.4,70-21.36,22.56-13.14,20.69-27-.79-6.78-44.61-15.25-14.54-3-44.27-7.35-14.94-2.31-73.82-9.95c-9.27-1.27-16.35-2.34-21.34-3.2a445.34,445.34,0,0,1-53.1-12.43" transform="translate(-715.23 -923.27)"/></g><g class="cls-6"><path class="cls-2" d="M1412.6,1657.23l.09.07q5.82,2.88,22.1,7.53l9.16,2.33,31.23,7.34q9.08,2.2,16.77,4.42c12,3.61,20.21,6.58,24.71,8.9a3.23,3.23,0,0,1,.16-2,16.5,16.5,0,0,1-5,.71l-13.15,0q-25.74.81-28.26.61a204.53,204.53,0,0,1-33.7-4.73,66.25,66.25,0,0,0,12.76,4.37,178.63,178.63,0,0,0,21.15,3.53c1.87.12,4.25.23,7.2.3l20.76.34,15.2.47q5.19-.39,6.72-2.47,1.83-3-1.46-5.52-1.27-1.29-21-7.36l-26.81-5.73-32.06-6.08q-18.9-4.51-26.53-7" transform="translate(-715.23 -923.27)"/></g><g class="cls-6"><path class="cls-2" d="M1838.3,1549.35l-.11,0q-25.12,5.06-41.39,12.84-8.4,4-22.42,12.49,0-.33-24.71,17.06c-3.41,2.31-5.81,3.84-7.24,4.59a216.61,216.61,0,0,1-35.71,14.06q-8.1,2.37-35.16-.13-19-1.46-44.33-7.53a187,187,0,0,0,39.91,9.39q32.59,4.53,41.73,1.83,19.76-5,34.14-12.67a79.42,79.42,0,0,0,7.42-4.73q27.87-20.16,27.8-19.76c10.34-6.58,17.6-10.9,21.89-12.94q14.61-7.29,38.18-14.52" transform="translate(-715.23 -923.27)"/></g><g class="cls-6"><path class="cls-2" d="M1781.65,1680.08l-.79.5a219.72,219.72,0,0,0-38.43,31.68,54.45,54.45,0,0,0-7.15,10.57l-10.47,21.11a38,38,0,0,1-7.29,7.75q-11,9.87-54.63,31.45-22.91,11.41-36.06,11.91a241.12,241.12,0,0,1-43.43,1.31q-18.59-.58-24.8-1.37-6.51-.88-5-2.34-1.32,4.36,43.32,7.27,14.35,1.13,38.62-1.86,11-1.95,26.23-9,30.83-14.62,43.3-22.68a84,84,0,0,0,21.59-18l2.44-3.86c4.23-10.4,7.29-17.45,9.28-21.14a45.15,45.15,0,0,1,6.13-9.53q10.27-12.17,37.17-33.81" transform="translate(-715.23 -923.27)"/></g><g class="cls-6"><path class="cls-2" d="M1753.64,1650.46l-.18,0a51.77,51.77,0,0,0-21.92,8.54q-9.06,6.2-10.82,7.83-2,1.26-33.45,29.05-6.78,5.7-21,16.17,1.56.17-49.85,27.5,38.27-16.33,50.7-23.82,12.08-8,23.28-16.72.13.39,34.72-30.84,9.17-7.76,14.39-10.49a64.65,64.65,0,0,1,20.3-5.94,271.82,271.82,0,0,1,34.51-1.84q-25-2.34-40.67.53" transform="translate(-715.23 -923.27)"/></g><g class="cls-6"><path class="cls-2" d="M2033.74,1222.17l-.6.11c-.44.06-2.4.6-5.84,1.66q-4,.87-10.52,2.51-36,8.94-39.24,9.84-10.89,2.78-16.81,4.67c-7.11,2.39-13.27,4.54-18.41,6.48q-34.6,14.73-77.63,30.21a367.5,367.5,0,0,1-42.91,13.14,387.66,387.66,0,0,1-110.56,10.69q32.15,3.63,50.22,2.63a318,318,0,0,0,50.22-5.78q18.61-3.75,22.7-4.93c8.32-2.17,15.94-4.44,22.81-6.81q48.93-17.47,86.48-33.83,11.25-4.23,20-7.07,21-6.18,64.36-16.87c.62-.13,1.45-.3,2.47-.46,2.81-.35,4.59-.61,5.28-.77,1-.16,2.54-.56,4.82-1.19.86-.19,2-.41,3.37-.66q5.71-1,10.57-1.55a279.24,279.24,0,0,1,28.48-2.1q25.3-.85,78.53,3-26.05-4.71-68.28-6.29a357.57,357.57,0,0,0-59.54,3.39" transform="translate(-715.23 -923.27)"/></g><g class="cls-6"><path class="cls-2" d="M1684.55,1182.05l-.51.08q-6,1.11-14.42,2.92l-24.89,5.68-34.6,9-7.17,1.67-11.56,2.38a138.78,138.78,0,0,0,17.58-2.34l7.5-1.57q27-6.21,29.85-6.69,9.51-2,34.85-6.4a142.64,142.64,0,0,1,21.32-2.31,129,129,0,0,1,17.9,1.27q71.76,10.77,95.16,12.49,30.24,2.65,48.12-.58a148.56,148.56,0,0,0,19.7-5.12q4.77-1.39,29.39-10.91,25.82-10.06,33-13.1a54.67,54.67,0,0,0,12-7.56,112.34,112.34,0,0,1-13.58,6q-44.58,15.23-57.65,19.38-19.45,6.14-32.34,6.8-14.92,1.35-46.76-1.6-19.45-1.62-78.69-10-6.33-.73-15.09-1.36-12.42-1.17-29.11,1.8" transform="translate(-715.23 -923.27)"/></g><g class="cls-6"><path class="cls-2" d="M1538.71,1332.92l.33.14q13.9,5.54,37.69,10.25l26.69,4.81,51.95,8q7.13,1.13,21.87,4.87,45.43,13.07,44.59,20.46-1.72,5.16-20.21,14.71a74.18,74.18,0,0,1-23.32,7.45q-21,2.78-38.34,4.2-16.37.38-63.44,3.9-21.87.24-50.47,2.43l-26.78.75c7.4,1,16.81,1.61,28.16,1.93l25.68-.4,27.47,0,60.53-2.54c4.94-.2,15.92-1.33,33-3.37a91,91,0,0,0,28-7.73q22.62-11.45,24.1-17.27,3.36-8-5.33-13.59-7.23-5.23-36-13.63-13.56-3.73-28.69-6.35-54.89-6.35-79.2-10.71-20.18-3.4-38.27-8.28" transform="translate(-715.23 -923.27)"/></g><g class="cls-6"><path class="cls-2" d="M1457.44,1499.94l1,.56a140.37,140.37,0,0,0,40.49,12.8,221.74,221.74,0,0,0,28,2.78,192,192,0,0,0,24.49-.5q18.35-1.83,30.85-4.08,3.73-.62,25.37-5.75l18.37-3.88,12.08-2.82q66.48-15.83,72.83-21.54c-.48,1-8.58,3.22-24.24,6.62q-17.89,4-56.22,11.87-3.09.69-24.87,4.85-22.74,5.19-26,5.75-12.39,2.61-38.71,5.84-46.55,2.43-83.56-12.5" transform="translate(-715.23 -923.27)"/></g><g class="cls-6"><path class="cls-2" d="M1765.27,1052.4l-.14,0q-22.22,5.16-30.4,11.35-21.18,20.06-21.85,28.34-1.45,13.85,13.73,22.32,15.42,7.69,33.91,4.59,9.13-1.49,23.06-7.86,6.64-2.94,16.47-8.47,7.35-4.08,24-14.42c1.73-1,3.69-2.06,5.86-3.13q7.75-3.81,29.25-11.05a171.56,171.56,0,0,0-29.87,9.09c-1.69.72-3.46,1.55-5.31,2.51q-17.54,10-31.46,16.75a175.36,175.36,0,0,1-21.37,8.77,55.94,55.94,0,0,1-31.5,2q-20.67-5.16-21.76-18.71-.79-2.54,3.6-8.91A128.29,128.29,0,0,1,1735.6,1069q6.38-6.71,29.6-13.22a33.17,33.17,0,0,1,6.18-.8l19.68-1,12.36-1.94a121,121,0,0,1-12.43.6c-13.77-.74-22.36-.82-25.72-.24" transform="translate(-715.23 -923.27)"/></g><g class="cls-6"><path class="cls-2" d="M1758,1003l-2.63.93q-82.32,31.74-103.23,70.63-29.36,51.46,17.48,84.36,28.86,9.51,52.62,10.31,31.63,1.6,87.2-2.08a200.42,200.42,0,0,0,45.91-11.52q18.12-5.64,56.54-26,17.43-6.85,28.35-9.88,18.72-5,31-6.32c4.13-.1,11,.87,20.53,2.91q-16.37-5.21-20.67-5-12,.36-33,5-14.61,3.84-29,9.17Q1882,1138.8,1876.3,1141q-4.79,2.36-29.6,11a189.92,189.92,0,0,1-40.65,9q-36.3,2.54-85.42,2.07a239,239,0,0,1-49.39-10q-42.73-30.42-13.08-79.28,9.9-17.5,32.23-33.56Q1715,1022.7,1758,1003" transform="translate(-715.23 -923.27)"/></g><g class="cls-6"><path class="cls-2" d="M1654,2144.72l1.87.67q59.89,19.37,84.31,17.68a131.83,131.83,0,0,0,20.63-2.12l47.36-13.73a250.85,250.85,0,0,1,26.8-5.61q48.59-7,69.37-3.74,41.94,8.13,65.08,16.17l156.75,64.22q-80-39.37-155.79-70-15.73-5.67-54.34-14c-10-2.14-18.27-3.11-24.8-2.92q-23.61-.29-64.76,6.32-18.67,3.12-65.39,18.77a140.07,140.07,0,0,1-21.57,3q-16.89,2.77-85.52-14.7" transform="translate(-715.23 -923.27)"/></g><g class="cls-6"><path class="cls-2" d="M2160,2288.9l-1.64.29q-28,5.47-45.89,19.42-6,3.36-14.65,27,10.18-20.58,14.72-23.87a100.65,100.65,0,0,1,35.2-15.76,98.86,98.86,0,0,1,37.79-3.33q12,.78,35.11,11.44,40.32,17.92,53.73,40.57a105.84,105.84,0,0,1,9.78,39.63q.48,21-8,31.06-18.79,26.25-88.57,15.6-29.93-4.72-49.25-13.43-.8,1-54.79-31.6,21.18,15.55,46.6,30.61,8.55,5.29,27.73,11.66,50.49,14.29,88.17,8.69,32.46-6.08,40.42-30.79,8.78-30.21-8.38-65.4-12.56-22.92-57.16-42.66-31.39-15-60.92-9.11" transform="translate(-715.23 -923.27)"/></g><g class="cls-6"><path class="cls-2" d="M2186,2340.2l-.35.07q-10,1.86-20.62,9.15,24.15-14.27,49.22-1.3,12,7.17,15.53,14,3.47,14.39-3.53,19.14-9.45,6.42-25.93,3.26-22.64-3.87-29.89-5.83a31.43,31.43,0,0,1-4.85-1.77q-14-6.72-18.27-8.56,7.86,4.89,17.65,10a34.25,34.25,0,0,0,8,3.13q22,5.64,31.14,7.18c6.28.92,11.31,1,15.14.22,7.77-1.61,12.73-5,14.83-10.09a22.75,22.75,0,0,0,1.18-11.12c-.63-4.73-1.73-8.17-3.35-10.28q-7.78-9.54-21.27-14.65a48,48,0,0,0-24.63-2.57" transform="translate(-715.23 -923.27)"/></g><g class="cls-6"><path class="cls-2" d="M1755.42,2278.51l-.21,0-2.74.59q6-1.58,29.11,1.51,9.93,1.16,47.15,7.44,2.12-.55,54.67,17.5,17.86,4.18,57,10.39,19.82,3,30,3.15,28.2-.32,39.66-2.64a71.54,71.54,0,0,0,20.83-6.71q5.88-2.76,44.8-30.22a85.41,85.41,0,0,1,13.1-6.68q15.57-6.55,37.81-2.15A63,63,0,0,0,2115,2268a59.81,59.81,0,0,0-32.87,4.76,66,66,0,0,0-9.09,4.74q-35.09,22.8-38.57,24.64a62.42,62.42,0,0,1-11.63,5.85q-13.24,4.73-45.53,5.51-17.23,1.55-82.5-11.43c-7.5-1.56-12.15-2.63-14-3.22q-31.9-10.62-39-12.47a115.14,115.14,0,0,0-14.25-3.25q-33.94-4.43-47.9-5.18c-10.49-.66-18.56-.47-24.26.56" transform="translate(-715.23 -923.27)"/></g><g class="cls-6"><path class="cls-2" d="M1714.42,2019.64l.88-.4q32.78-15.49,87.11-8.66,102.79,8.75,150.13,28.6,59,24.16,77.69,35.83,167.2,119.31,174.12,121.67,35.33,23.4,109.32,62.64,93,49.88,167,60.07-85.63-21.1-178.71-73.15-54.57-28.75-112.32-65.77l-50.5-34.3q-94.46-69.06-103.76-74.21-28-16.34-81.15-37.31-56.37-22.53-155.67-28-57.22-4.77-84.11,12.94" transform="translate(-715.23 -923.27)"/></g><g class="cls-6"><path class="cls-2" d="M2256.53,2175.74l1.85,1q53.88,28.8,89.27,41.4,132,47.9,170.76,55.27,52.38,10.92,97.32,13.14,2.57.85,68.88-.71l45.93.85q6.72,0,24-2.53-13.6,1.76-69.34-2.7l-59.24-.15c-3.42.06-10.66-.31-21.76-1.08q-41-2.51-88.12-12.46-41.25-8.57-171.19-54.36-18-5.64-88.4-37.71" transform="translate(-715.23 -923.27)"/></g><g class="cls-6"><path class="cls-2" d="M1747.62,2231.83l-1.22.22q-23.4,3.66-57.44,15.13a142.87,142.87,0,0,0-35.07,16.8q-38.27,23.67-41,51.84-5.93,35.89,20.34,57.33,6.48,5.63,30.89,13A365.7,365.7,0,0,0,1716,2397.8l-61.22-20.3q-13.82-5-19.47-10-22.42-20.7-16.94-50.54,2.77-25.87,35.92-47,17.26-13,53.06-24.39,14.67-4.85,26.13-7.65,14-3.63,41.58-8.45-.6.53,19.58-5.77l-21.59,4.39q-16.3,2.08-25.47,3.76" transform="translate(-715.23 -923.27)"/></g><g class="cls-6"><path class="cls-2" d="M1468.75,2465.17l0,0q62.46,24.74,158.23,28.82a118.29,118.29,0,0,0,16-1q20.16-4.26,49.5-9.37c2.63-.5,5.4-1.11,8.28-1.82q27.72-7.34,39.38-9.79c10.47-2.35,20.14-4.11,28.95-5.3,4.15-.47,7.94-.73,11.33-.81h22.46a243.4,243.4,0,0,1,34.61,2.53q-11.6-3.29-28.33-4.21-27.78-2-40.76-.54c-7.87.78-17.74,2.29-29.67,4.52l-19.54,3.77q-22,5.17-25.35,5.7-39.55,6.86-50.84,9.47a93.74,93.74,0,0,1-14.86,1q-96.3-3.55-159.42-23" transform="translate(-715.23 -923.27)"/></g><g class="cls-6"><path class="cls-2" d="M1474,2489.07l1.13.93q42,30.47,95.15,44.8a178.73,178.73,0,0,0,31.12,3.06q10.32-.18,56.68-5.19a109.46,109.46,0,0,1,14.9.34q48.66,3.94,55.76,5.61a170.94,170.94,0,0,1,41.41,12l5.26.08a16.45,16.45,0,0,1-5.35-.59,121.53,121.53,0,0,0-22.4-10.17,169.69,169.69,0,0,0-18.67-4.8q-13.7-2.94-56-7.35a105.5,105.5,0,0,0-17-.54q-50.87,5.55-55.18,5.24a192.78,192.78,0,0,1-34.32-2.84,313.46,313.46,0,0,1-92.46-40.57" transform="translate(-715.23 -923.27)"/></g><g class="cls-6"><path class="cls-2" d="M1804.85,2375.62l2.29.48q67,12.75,77.53,18.57l298.55,138.56q14,6,39.4,11.84,22.85,3.73,48.24,6.19l30,5.24-45-10.71-32.78-6.08q-14.49-3.55-32.25-9.78-2.07-.43-48-21.17l-258-117.84q-31.87-10.1-80.05-15.3" transform="translate(-715.23 -923.27)"/></g><g class="cls-6"><path class="cls-2" d="M2394.78,2407.53l1.15.64q28.8,17.41,58.64,20.12a258.63,258.63,0,0,0,32.42.21l55.25-6.5q19.1-2.09,24-2,47.4,1.42,76.4,5.24,33.29,4.25,77.07,12.4l37,9.61q34,12.14,42.05,12.64-2.41-.29-41.18-16.09l-34.55-10.05q-54.68-11.51-77.58-14-58.17-5.57-81.92-5.15c-4.19.13-10.15.7-17.81,1.71l-58.71,8.33a252.89,252.89,0,0,1-33.47.78q-16.5.75-58.8-17.83" transform="translate(-715.23 -923.27)"/></g><g class="cls-6"><path class="cls-2" d="M1327.89,2610.8l1.11.57q35.4,16.7,57.81,19.4a116.56,116.56,0,0,0,16.63.67q53.14-4.68,56.13-3.86,37.15,2.33,65.53,8.09,24.09,5.14,36.13,9.47,77.68,28.62,107.29,42.84l-22.63-12.44q-28.83-14.62-84.78-36.23-10.62-3.93-33.15-8.92a478.92,478.92,0,0,0-68.19-8.35q-1.59-.9-55.34,5.64a126.46,126.46,0,0,1-18.2,0q-16.55-1-58.34-16.83" transform="translate(-715.23 -923.27)"/></g><g class="cls-6"><path class="cls-2" d="M1449.34,2681.08h0l13.61,4.18q21.18,5.4,24.85,6.55,5.64,1.65,9.62,3.2,14.08,4.92,41.8,19,12.79,7.23,36.7,45.19-10.87-20.82-20.67-33.28-9.56-12.16-17.6-16.84a187,187,0,0,0-40.93-18.7q-7.82-2.58-24.91-6a178.41,178.41,0,0,0-22.45-3.34" transform="translate(-715.23 -923.27)"/></g><g class="cls-6"><path class="cls-2" d="M2632.32,2553.84l.23.11q16.89,8.19,152.06,43.59,20.41,4.64,34.28.08-10.76,2.65-29-1.5l-31.37-9.26-18.43-5.13-19.31-5-41.83-10.31q-30-7.86-46.59-12.55" transform="translate(-715.23 -923.27)"/></g><g class="cls-6"><path class="cls-2" d="M2585,2501.69l.21.22q5.7,6.09,24.2,10.8,120.93,21.12,120.09,22.85,68.58,20.24,87.75,31.34,23.4,10.65,65.12,53.15l9.35,10.42q31.07,46.34,36,49.1,21.39,17.55,37.49,19.23-15.27-3.39-35.78-22.18-3.39-1.77-33.38-48.82a141.75,141.75,0,0,0-11.12-12.76q-39.32-41.13-66.9-53.75-20.94-11.86-90.31-31.33-8.62-3.26-117.79-18.83-18.51-4.15-25-9.44" transform="translate(-715.23 -923.27)"/></g><g class="cls-6"><path class="cls-2" d="M2713.49,2688.07l.65.19a183.2,183.2,0,0,0,27.45,5q8.34,1.17,40.26,2.48,28.5.81,40.83.52c4-.12,8.92-.43,14.85-.92q1.45-.06,19.1-2-23.87.82-37.48.76.41.17-38.9-1.33l-26-.73a337.16,337.16,0,0,1-40.79-4" transform="translate(-715.23 -923.27)"/></g><g class="cls-6"><path class="cls-2" d="M3075.67,1697.78l-.12.24q-34,45.43-55.71,63.53-26,17.21-40.71,23.91,1.27.38-70.29,25.15a187.28,187.28,0,0,0-22,10.4q-27.24,14.84-42.66,38.78,19-23.44,40.26-33.93a201.52,201.52,0,0,1,23.5-10.51l56.31-18.58q16.31-5.49,16.5-5.79,16.84-7.79,40.92-24.65,7.92-5.1,28.31-30.37,20.55-26.25,25.72-38.18" transform="translate(-715.23 -923.27)"/></g><g class="cls-6"><path class="cls-2" d="M3129.39,1711.9l-.32,1.3q-10.38,43.32-49.11,74.64-17,13.86-46.55,29.06-10.56,5.53-14.54,6.83-19.47,5.12-24.47,7.23-3.63,1.23-19.15,10.84-45,29-66.09,51.88,40.46-31.08,70.22-48.14,14.46-8.4,16-8.6,5-2.06,24.25-6.64a50.35,50.35,0,0,0,7.59-3.26q37.4-19.83,53-33.25,42.7-36.48,49.18-81.89" transform="translate(-715.23 -923.27)"/></g><g class="cls-6"><path class="cls-2" d="M3150,1784l-.48.51a417.68,417.68,0,0,1-35.07,33.79q-9.33,7.42-24.84,14.13,11.9-4.28,15.27-6.21a72,72,0,0,0,12.41-8q20-16.89,32.71-34.23" transform="translate(-715.23 -923.27)"/></g><g class="cls-6"><path class="cls-2" d="M3150.2,1820.34l-.32.06a6.14,6.14,0,0,0-1.13.29l-.74.12q15.64-1,18.78-1c3.41-.14,7.31-.15,11.65,0,5.54.15,11.28.39,17.16.72q9.69.51,22.49,1.55c2.65.16,4.41.25,5.24.22a167.74,167.74,0,0,0,24.43-2.27q11.2-2.1,24.75-8.84a26,26,0,0,0,11.12-10.21q-3.71,5.22-11.56,8.6a116,116,0,0,1-25.19,7.39,200.63,200.63,0,0,1-24.08,1.63l-14.26-.6c-1.94-.07-4.15-.12-6.66-.15q-23.22-.12-28.36.1a188.72,188.72,0,0,0-23.32,2.41" transform="translate(-715.23 -923.27)"/></g><g class="cls-6"><path class="cls-2" d="M2464.38,1681.22l-.28,0a35.54,35.54,0,0,0-8.12,2.67,125.83,125.83,0,0,0-12.36,6.48,80.73,80.73,0,0,0-6.72,4.83l-19.72,16.08,21.64-15.12c3.81-2.58,5.79-3.88,5.95-3.92a104.42,104.42,0,0,1,11.74-5.07,37.79,37.79,0,0,1,8.35-2.37,74,74,0,0,1,8.42-.49,100.52,100.52,0,0,1,12.07.41q60.58,6.75,65.49,8.25c.53.09,2.07.17,4.64.24a23.18,23.18,0,0,1-3.69-.58,179.12,179.12,0,0,0-18-4.51q-30.27-4.9-49.18-7.59a74.23,74.23,0,0,0-20.23.64" transform="translate(-715.23 -923.27)"/></g><g class="cls-6"><path class="cls-2" d="M2565.44,1681.82l.25.15a49.93,49.93,0,0,0,16.89,5.81c2.15.36,5.33.7,9.55,1,17.81,1.14,26.62,1.74,26.48,1.84a45.25,45.25,0,0,1,7.57,1.35,78.3,78.3,0,0,1,12,3.83q2.52.84,18.73,9.31a74.68,74.68,0,0,0,7.59,2.94c1.87.81,4.31.75,7.36-.21a9.52,9.52,0,0,1-6.16-.14c-2.54-1.18-5.29-2.55-8.17-4.11q-12.81-8-17.93-10.32a79.78,79.78,0,0,0-15-5.21,37.35,37.35,0,0,0-5.33-.95q-28.2.07-35.8-.78a63.28,63.28,0,0,1-18-4.55" transform="translate(-715.23 -923.27)"/></g><g class="cls-6"><path class="cls-2" d="M1279.24,2247.54l-.78.13q-4.15.79-10.75,2.65,15.81-3.32,26.45-.26,19.83,6.06,32.07,10.85,55.23,25.78,78.34,31.75a217,217,0,0,0,31.14,7.09,47.8,47.8,0,0,0,17.23-.31,85.44,85.44,0,0,0,15.44-4.68q4.35-1.62,24-11.76a78.56,78.56,0,0,1,7.68-2.86q7.79-3,46.41-9.92,7.24-1.93,9.35-3.14c-3.4.92-6.42,1.63-9.12,2.14q-32.28,4.31-45.37,7.6a77.88,77.88,0,0,0-8.91,2.62q-23.62,11-29.41,12.47a60,60,0,0,1-21.43,3.08q-17.79-1.87-49.69-12.14-22.77-7.59-63.25-25.19-6.41-2.41-15.57-5.13-20.62-5.82-20.49-5.32a40.4,40.4,0,0,0-13.33.33" transform="translate(-715.23 -923.27)"/></g><g class="cls-6"><path class="cls-2" d="M1300.55,2334.05l-3.27.64q-25.15,4.56-29.34,25.71-1.95,22.48,20.2,39.11,10.14,7.88,25.77,13.93,14.88,6.17,66.72,23.34,12.58,3.9,46.48,10.89,12,2.49,17.23,1.53a3.4,3.4,0,0,0,1.55-.58q-1,1.59-12.81-1.29l-48.67-13.64q-70.87-25.62-80.12-31.24-35.61-19.3-30.56-46.17,8.74-19.59,56.65-18.66,20.41.38,59.06,7.5a736.33,736.33,0,0,1,79.58,18.69q-115.05-38.14-168.47-29.76" transform="translate(-715.23 -923.27)"/></g><g class="cls-6"><path class="cls-2" d="M1366,2369.79l-.11,0c-4.64,1-5.95,4.09-4,9.21q3.21,7.13,13.8,12.88,6.28,3.53,25.9,11.69l44.29,14.21a43.08,43.08,0,0,0,9.14,1.92,33.83,33.83,0,0,1-6.14-1.74q-19-8.3-46.46-18.09c-1.91-.8-7.7-3.56-17.39-8.34-12-5.84-18.36-11.3-19.29-16.41,1.55-1.88,14.23,0,38.14,5.6q20.07,4.94,52.45,14.84-12.58-5.82-49.11-16.94c-24.84-6.9-38.62-9.85-41.25-8.85" transform="translate(-715.23 -923.27)"/></g><g class="cls-6"><path class="cls-2" d="M1234.35,2319l-1.69,1.22q-24.5,18.81-30.38,42.94-4.35,23.65,13.1,47.28,10.9,12.54,30.13,22.28c4.13,2,9.48,4.34,16.11,6.92l53.45,19.58q11.48,4.53,16.86,8a170.58,170.58,0,0,1,22.74,19.12q5.16,4.54,34.74,37.89a12,12,0,0,0,7.82,3.12,11.37,11.37,0,0,1-7.22-3.65q-33.73-46.72-56.72-61.31-6.48-4.38-23-10.9-15.46-6.27-49.34-18.07c-3.6-1.29-7.73-3-12.34-5.18q-23-12.37-31.24-22.88-15.39-22-11.62-44.2,5.35-22,28.65-42.18" transform="translate(-715.23 -923.27)"/></g><g class="cls-6"><path class="cls-2" d="M1129,2391.84l.27,1q9.56,36.27,57.1,77.31,44.64,37.49,147.34,95-122.85-78.55-152.14-104.19-39.35-33.4-52.57-69.15" transform="translate(-715.23 -923.27)"/></g><g class="cls-6"><path class="cls-2" d="M1382.29,2130.72l.36.41q12,12.84,35.44,21.69a74,74,0,0,0,10.24,2.14q45.51,4.18,50.11,5.82,39.16,15.15,61.31,22.49,19.41,6.69,46.71,13.75-43.93-15.55-105.76-41c-1.92-.6-6.46-1.17-13.59-1.7l-37.51-2a69.36,69.36,0,0,1-11.9-2.06q-21.18-7.39-35.41-19.48" transform="translate(-715.23 -923.27)"/></g><g class="cls-6"><path class="cls-2" d="M1436.13,1933.73l.32,1q13,35.52,43.76,55.78a218.65,218.65,0,0,0,25.52,14.19q3.39,2,32,13.71l7.13,3.38q1.2.21,21.38,12.84l6.11,3.26a215.36,215.36,0,0,0,37.51,12.84,325,325,0,0,1-36.05-15.6l-6.65-3.94-21.54-14.12q-1.22-1.08-28.61-12c-5.31-2.28-10.33-4.54-15.15-6.78q-15.72-7.52-22.86-12.37-28-18.72-42.91-52.2" transform="translate(-715.23 -923.27)"/></g><g class="cls-6"><path class="cls-2" d="M1430.15,2047.4l-.76.14c-8.19,2.15-11.6,7.05-10.17,14.73,2,6.19,9.83,15.53,23.23,28a74.24,74.24,0,0,0,16.58,8l35.88,10.76q30.64,11,38.06,13.3c1.54.59,3.34,1.41,5.44,2.46a77.7,77.7,0,0,1,17,11.29l4.15,4q9.72,12.08,12.48,14.7a96,96,0,0,0-12-18.21q-7-7.86-19.06-14.81l-6.09-3-40-15.39-34-11a91.34,91.34,0,0,1-14.53-6.65q-21-19.55-22.08-27.79,3.6-8.72,25.36-2.84a101.47,101.47,0,0,1,12.18,4.21l42.79,19.59q9.35,4.2,22.23,8.73,42.88,12.54,62.82,13.84-37.1-7.86-60.37-16.6-13.08-5.16-21.38-9.08-19.42-9-43.65-21.31a83.48,83.48,0,0,0-8.6-3.4q-17.84-5.57-25.59-3.79" transform="translate(-715.23 -923.27)"/></g><g class="cls-6"><path class="cls-2" d="M1490.82,1865.15l.65.44q20.55,13.08,68,21.06a157.67,157.67,0,0,0,27.73,2.3q10.14.22,53.36-4.21a65.45,65.45,0,0,1,9.62.14q27.51,2.86,70.68,17.23-36.43-16.12-66.78-20.82c-3.16-.67-8-.85-14.4-.58l-39.82,3.61q-8.4.75-14.25,1a130.38,130.38,0,0,1-18.06-.77q-50.38-6.18-76.71-19.35" transform="translate(-715.23 -923.27)"/></g><g class="cls-6"><path class="cls-2" d="M1508.47,1914.22l0,0q12.57,7.15,22.43,9.88a134,134,0,0,0,26.2,4.81q24.54,2.19,49.16,2.66,10.31.06,11.86-.08,21.48-.84,23.53-1.13l5.9-.11-32.62-.88q-14.15-.51-17-.71-32.39-2.1-51.79-4.08-15.86-1.51-37.67-10.38" transform="translate(-715.23 -923.27)"/></g><g class="cls-6"><path class="cls-2" d="M1885.89,1672.08l-.46.67a148.34,148.34,0,0,1-32.09,34.65q-8.44,6.57-12.68,8.67l-23.14,9.76-5,2.28a172.12,172.12,0,0,0-17,9.8,45.8,45.8,0,0,0-5.35,4q-13.29,16.14-20.72,21.15a96.35,96.35,0,0,0,9.69-6.88,128.8,128.8,0,0,0,12.41-12.13,40.29,40.29,0,0,1,4.94-3.5q7.57-4.57,18.36-9.91l18.5-7.55c2.35-1,4.66-2,6.9-3.1a47,47,0,0,0,8.65-5.65q24.78-19.22,37-42.31" transform="translate(-715.23 -923.27)"/></g><g class="cls-6"><path class="cls-2" d="M1894.41,1734.9l-.35.22q-4.77,3.11-8,4.77-36.67,17.76-41,20.66a91.93,91.93,0,0,0-8.07,6c-1.89,1.45-7.4,6.22-16.54,14.24-1.52,1.28-3.6,2.83-6.18,4.64a69.72,69.72,0,0,1-6,3.6l-27.13,14.87c-3,1.67-5.16,2.92-6.38,3.74-9.21,5.71-15.69,10.13-19.5,13.25-.23.19-.25.25-.09.16l8.56-4.18,16.47-9.11,27.77-14c3.46-1.78,5.72-3,6.78-3.68q4.57-2.94,8.66-6.12l18.08-17a56.49,56.49,0,0,1,6.39-5c1.39-1,4.15-2.56,8.33-4.83l29.94-16.21a48.51,48.51,0,0,0,8.22-6" transform="translate(-715.23 -923.27)"/></g><g class="cls-6"><path class="cls-2" d="M1474,1030.18l-.28.06c-5.79,1.15-11.6,4-17.51,8.66q11.28-6.76,18.76-7.18,25-1.42,38.54,1.83a44.32,44.32,0,0,1,12.39,4.51l22.5,15.54a82.93,82.93,0,0,0,11.27,6.28q11.29,5.58,36.78,11.42-27.51-9.22-37.88-15.15-5.68-2.61-29.28-20.6a37.14,37.14,0,0,0-7.91-3.6q-18.09-5.61-47.38-1.77" transform="translate(-715.23 -923.27)"/></g><g class="cls-6"><path class="cls-2" d="M1541.37,1147.8l-.88.16q-10.62,1.55-40,17.68-23.81,13.14-32.64,22.42a66.4,66.4,0,0,0-10.78,13.36l-48.79,92.77a109.79,109.79,0,0,1-11.44,16.13A226.33,226.33,0,0,1,1359,1347q-.45,1.63-58.22,37.79l56.33-30a223,223,0,0,0,29.64-24.39q18.13-18.53,24.55-29.56l47.82-92.36a52.37,52.37,0,0,1,7.36-11.17q8.61-14.47,62.51-43.47,16.68-7.55,39.93-5.64a76.31,76.31,0,0,0-27.58-.39" transform="translate(-715.23 -923.27)"/></g><g class="cls-6"><path class="cls-2" d="M1534.86,1092l-1,.18a326.15,326.15,0,0,0-68.7,21.43,114,114,0,0,0-38.38,27.25q-21.84,22.32-46.42,66.16-46.29,76.61-62.88,114.09,32-58.5,86.85-142.85,17.34-25.89,37.17-43.23,25.08-20.35,83.39-36.36,41.94-11,70.47-4.22-26-8.85-60.53-2.45" transform="translate(-715.23 -923.27)"/></g><g class="cls-6"><path class="cls-2" d="M1508.52,1305.24l-.9.56q-26.89,17.92-36.87,22.44-7.57,3.84-14.81,7l-51.32,22.1a177.76,177.76,0,0,0-18.8,10.51q-19.56,12.84-46.35,37.5-6.23,5.58-14.35,19.16-6.25,14.65-1.47,22.26,3,6.67,18.57,6.87,14,1.07,55.15-9,27.35-7.66,43.65-16c.65-.32-.16-.06-2.49.76l-11.08,2.43q-18.51,5.52-23.64,6.79-6,1.53-12,2.7-31.63,6.38-45.91,6.38-15.63-.5-16.65-3.75-3.36-5.87,1.82-17,7.68-12.74,14.4-18.58a384.13,384.13,0,0,1,41.84-34.1q8.55-5.81,22.49-13.33,7.07-3.8,56.64-27.23,5.36-2.58,9.13-4.7a324.82,324.82,0,0,0,33-23.72" transform="translate(-715.23 -923.27)"/></g><g class="cls-6"><path class="cls-2" d="M1401.76,1494.83l-.28-.07a44.39,44.39,0,0,0-17-.89q-29.28,4-37.23,7.07a82.41,82.41,0,0,0-14.61,7.2q-2.21,1.33-10.68,7.6l-25,18.73a223.36,223.36,0,0,1-21,12.19,59.7,59.7,0,0,1-10.45,3.85l-36.07,9.15a18.41,18.41,0,0,1-4.62.81q9.14-.39,39.42-6.36a63.45,63.45,0,0,0,13.87-4.37q14.91-7.29,21.41-11.74c1-.61,3.62-2.54,7.86-5.78l26.72-20.62A78.47,78.47,0,0,1,1350,1503q6-2.6,35.87-8a57.33,57.33,0,0,1,15.85-.17" transform="translate(-715.23 -923.27)"/></g><g class="cls-6"><path class="cls-2" d="M1463.83,1359.29l-.62.11q-14.54,2.91-22.4,7.15a61.74,61.74,0,0,0-16.7,13.94,46.57,46.57,0,0,0-6.27,10.09,9.31,9.31,0,0,0-.95,3.14,4.11,4.11,0,0,0,.27,2c.58,1.44,2,2.41,4.36,2.94s5.91.42,10.41-.29a78.76,78.76,0,0,0,11.83-3.24q4.13-1.37,16.17-6.49-17.36,5.8-28.3,7.38a32.19,32.19,0,0,1-9.09-.09c-2.22-.43-3.18-1.09-2.91-2q5.3-13,18.14-23.08a40,40,0,0,1,9.13-5.41q3.7-1.83,18.25-6.39Z" transform="translate(-715.23 -923.27)"/></g><g class="cls-6"><path class="cls-2" d="M1377.07,1647.33l-.5.08q-13.89,2.37-37.1,14.14c-3.09,1.66-5.49,3.09-7.24,4.26l-31.93,21.86q-10,6.19-13.13,7.3a40.3,40.3,0,0,1-7.61,1.69l-18.94,1.62c-2.33.21-4.31.43-5.93.69q-1.8.13-25.19,4.49l1.87-.25,24.16-2q-.6-.15,22.37-.9a33.26,33.26,0,0,0,4.82-.55,31,31,0,0,0,7.66-2.47q3.67-1.71,12.39-6.92,4.74-2.71,31.67-22.72,3.88-2.65,8.14-5,10.08-5.41,17.24-8.56a152.35,152.35,0,0,1,19.26-7Z" transform="translate(-715.23 -923.27)"/></g><g class="cls-6"><path class="cls-2" d="M1390.41,1686.47l-.37-.06q-6.06-1.32-27.29,8.38-35.13,17.06-43.6,24.75-26.79,20.82-23.14,40.25,5.58,25.65,21.43,33.61,23.22,11.86,87,23.16,30.18,4.32,46,4,14.19.48,51.58-5.84a60.59,60.59,0,0,1,14,.93c-6.46-1.65-11.49-2.51-15.06-2.58q-42.42,4.37-55.76,2.75-8.07-.12-38.71-4.71-79.68-15.57-93.06-27.64-11.31-13.71-12.66-27-.93-10.85,8.37-21.88,10.62-13.14,27.55-23.18,13.14-8,37.62-20.15a57.26,57.26,0,0,1,16.13-4.89" transform="translate(-715.23 -923.27)"/></g><g class="cls-6"><path class="cls-2" d="M1416.47,1701.85l-.16.07q-4.43,1.49-16.88,8.68-19.9,11.07-27.18,15.89-7.3,7-4.2,13.28,3.65,8.3,28.17,22.84,7.58,4.34,17.51,9.08,12.9,6.25,34.58,15.56l10,5.23a63.09,63.09,0,0,0-9.58-6.8q-44.15-22.07-51.62-27.19-25.41-16.21-26-20.57c-1.67-2.84-.47-6.16,3.64-10q4.37-3.69,41.75-26.1" transform="translate(-715.23 -923.27)"/></g><g class="cls-6"><path class="cls-2" d="M1541.9,937.3l-.35.06A204.75,204.75,0,0,0,1472.92,963q-45,30.07-74.28,62.35,22.32-20.08,57.51-45.7a240.91,240.91,0,0,1,36.43-21.89,228.39,228.39,0,0,1,48.26-17.55,106.66,106.66,0,0,1,14.44-2.48l27.38-2.58,2-.09q-27.47-.39-42.74,2.25" transform="translate(-715.23 -923.27)"/></g><g class="cls-6"><path class="cls-2" d="M2464,1636.23l-.53.11q-14.14,2.57-40.55,13.23-2.53,1-5.47,2.62-7.65,4.11-18.41,10.23a52.88,52.88,0,0,1-6.16,2.87,48.6,48.6,0,0,1-15.62,2.81,59,59,0,0,0,8.82.1,40.1,40.1,0,0,0,8.21-1.45,61,61,0,0,0,6.76-2.83q6.75-3.26,18.06-9.17c1.62-.81,3.25-1.55,4.89-2.19,5.63-2.08,16.13-5.68,31.42-10.76a80.75,80.75,0,0,1,12.34-3.17q10.38-1.73,27.94.67,7.61,1.1,19.17,6.45-11.15-6.95-20.83-8.37-17.93-3.24-30-1.15" transform="translate(-715.23 -923.27)"/></g><g class="cls-6"><path class="cls-2" d="M2868.81,1628.82l-.3.47q-14.88,22.89-28.51,33.18a48.52,48.52,0,0,1-10,6q-23,8-35.83,14.67-4,1.34-10.33,11.51-7.3,12.75-9.28,30.08,5.71-25,15.71-35.13a15.66,15.66,0,0,1,5.08-3.73q33.84-12.75,34.65-13.32a49.81,49.81,0,0,0,10.26-6.1q14.85-11.1,28.51-37.6" transform="translate(-715.23 -923.27)"/></g><g class="cls-6"><path class="cls-2" d="M2946.85,1617l-.62.23q-19.28,7.77-40.65,28.42a85.94,85.94,0,0,0-7,8.32L2862.17,1703q-6.86,9.1-9.55,12.12-7.41,8.27-14.21,14.86L2805.74,1761a49.53,49.53,0,0,0-6.73,8.72,42.91,42.91,0,0,1,7.15-7.51q23.19-18.74,34.79-29.48,8.19-7.45,16-16.06,3.15-3.32,15.54-19.8l29.79-41.89a93.4,93.4,0,0,1,7.19-8.72,160.54,160.54,0,0,1,37.37-29.22" transform="translate(-715.23 -923.27)"/></g><g class="cls-6"><path class="cls-2" d="M3022.89,1614.86l-.67.2q-13,3.86-19.63,6.55a210.63,210.63,0,0,0-23.51,13.17c-2.86,1.94-4.43,4-4.73,6.2a6.48,6.48,0,0,0,2.28,6.48c1.94,1.69,5.52,2.86,10.66,3.53a173.86,173.86,0,0,0,40.19-2.24q16-2.93,27.79-6a27.65,27.65,0,0,0,8.84-3.73c-1,.83-3.23,1.58-6.8,2.28-1.16.22-2.54.47-4.16.72l-16,2.33q-18.86,2.85-30.47,2.86a194.06,194.06,0,0,1-19.52-.59c-4.22-.44-7.06-1.28-8.56-2.49-1.08-.92-1.2-2.4-.3-4.41.9-1.42,3.3-3.35,7.2-5.82q9.24-6.11,18.45-11.1,15.62-6.42,18.9-8" transform="translate(-715.23 -923.27)"/></g><g class="cls-6"><path class="cls-2" d="M2963.76,1618.36l-1,1.14q-15.78,18.35-29.11,36.18-21.76,34.29-28.58,50.37l6.89-10.37q8.07-13.23,25.93-41.52l16.38-22.43Z" transform="translate(-715.23 -923.27)"/></g><g class="cls-6"><path class="cls-2" d="M1261.84,2730.09l6.72,1.08q45.29,6.36,58.27,20.91a132.36,132.36,0,0,1,15.78,15.65q33.45,45.57,47.63,60.9,22.37,24.63,35.35,33.91l10.65,6.24q46.1,19,71.72,32.84,24.3,12.09,85.79,53.64,6,3.55,18.53,7.27a101.79,101.79,0,0,1-18-9.21q-47.92-37-80.37-55-22-13.37-75.66-35.5a102.59,102.59,0,0,1-12.34-7.6q-31.29-25.53-79.36-90.49a152.4,152.4,0,0,0-20.78-18.4q-16.12-13.72-63.93-16.22" transform="translate(-715.23 -923.27)"/></g><g class="cls-6"><path class="cls-2" d="M1442.08,2736.92l2.81,1.54q42.42,22.3,66.56,46.18a340.89,340.89,0,0,1,25,27.21l64.11,78.07q8.58,10.38,14.31,16.36,10.75,13.92,51.16,40.79,4.58,3,79.35,28.93c4.07,1.51,6.51,2.78,7.34,3.77l-.69-.74a30.16,30.16,0,0,0-9.14-5.28l-72.78-30.1q-6.68-3.68-23.36-16.75-13.82-9.34-35.67-32.84-81.21-99.58-93.31-108.74a251.32,251.32,0,0,0-75.71-48.4" transform="translate(-715.23 -923.27)"/></g><g class="cls-6"><path class="cls-2" d="M1820,2921.25l-.76.14q-29.87,4-28.81,22.27.48,16.38,37.32,50.08,8.58,9.93,62.7,35.61,74.05,32.37,102.84,40L1892.26,3024q-45.85-22.59-56.68-30.94-34-29.94-39.54-48.09-4.47-12.84,22-17.42,38.85-8.11,87.75,5.94,27.06,7.77,75.53,25.59l81.77,34q25.52,10.3,53.2,20.08,48.72,17.53,63,16.35-14.91-1.25-54.1-16.1-25.95-9-145.12-60.37-36-13.85-66.76-23.26-50.73-16-93.29-8.53" transform="translate(-715.23 -923.27)"/></g><g class="cls-6"><path class="cls-2" d="M1964.26,2982.37l-.37.08a18.23,18.23,0,0,0-7.08,3.32,11,11,0,0,0-3.53,6.82c-.72,4.9,1.66,10.56,7.08,17q11.87,15.3,62.58,46.24-12.8-8.42-39.24-29.15a154.89,154.89,0,0,1-18.84-17.53q-6.4-7-7.75-13.55c-.14-3.64,1.79-6.39,5.81-8.29q6.51-1.53,24.5,3.95-.63-.67,85.7,29.42,5,1.65,14.11,4.21c1.94.57,5.15,1.37,9.55,2.4l-22.56-8.13q-75.36-28.92-85.93-32.37-17.19-5.43-24-4.41" transform="translate(-715.23 -923.27)"/></g><g class="cls-6"><path class="cls-2" d="M1641.14,2834.79l.07.16q15.88,37.93,61.31,58.93,13.15,5.65,37.21,8.08,32.36,1.32,60,.53-3.9-.52-49.62-3-8.85-.59-11.76-1.05-22-3.24-36.56-9.36-40.56-18-60.67-54.26" transform="translate(-715.23 -923.27)"/></g><g class="cls-6"><path class="cls-2" d="M2193.85,2932.26l1.39.83q39.06,21.81,66.07,24.29a236.55,236.55,0,0,0,36.38-.52q101.68-12,133.47-17.33a76.92,76.92,0,0,1,10.93-.47,131.17,131.17,0,0,1,24.62,3q58.41,16.91,61.87,16.77,37,5.58,54.14,5.94a236.32,236.32,0,0,0,30.22-2.49l113.31-21.54q-61.9,6.75-114.88,16.15a275.7,275.7,0,0,1-29.74,1.76q-14.52-.3-52.85-5.81-5.15-.36-60.6-16.43a144,144,0,0,0-29.94-2.88,79.79,79.79,0,0,0-9,.71q-6.45,2.14-133.41,18.29a275.83,275.83,0,0,1-29.73,1.64q-23.71.69-72.26-21.92" transform="translate(-715.23 -923.27)"/></g><g class="cls-6"><path class="cls-2" d="M2450.49,2985l-.44.08c-6.64,1.26-11.46,2.35-14.49,3.28q-10.86,3-32.82,10c-2.28.67-4.55,1.28-6.83,1.84-1.66.41-4.2,1-7.59,1.69-17.28,3.46-31.83,6.51-43.76,9.17q-10.09,2.1-26.23,4a127.09,127.09,0,0,1-17.09.64,142.73,142.73,0,0,0,15.15,1c5.68-.14,11.59-.52,17.68-1.15,4.24-.44,8-.94,11.32-1.48q17.21-3,38.83-6.7,10.2-1.86,18.73-4.28,8.85-2.65,33.77-10.58c2.56-.78,4.45-1.31,5.65-1.6A131.57,131.57,0,0,1,2462,2987q40-2.74,69.64,8.5-15.12-7.77-36.15-10.45-27.64-3.11-45,0" transform="translate(-715.23 -923.27)"/></g><g class="cls-6"><path class="cls-2" d="M3017.47,2757.06l-1.2.22a108.11,108.11,0,0,0-21.55,6.27l-44.36,24q-72.87,37.14-92.2,48.36a177,177,0,0,1-25.63,10.82q-17.42,6.18-56,11.35c-5,.62-11.44,1.23-19.42,1.86l-28.14,1.45-16.89,1.15c-9,.73-15.71,1.49-20.09,2.31q30.32-1.27,64.1-2c2.52-.08,5.27-.2,8.26-.41q15.09-.73,42.43-5.31a184.3,184.3,0,0,0,51.6-16.12l81.59-42.48q18.66-10,56.17-31.72a132.55,132.55,0,0,1,15.58-5.65l24.89-6a78.45,78.45,0,0,0,7.86-2.73l-7.72,1.5q-13.82,2.1-19.24,3.08" transform="translate(-715.23 -923.27)"/></g><g class="cls-6"><path class="cls-2" d="M2661.31,2895.4l.79.12a314.73,314.73,0,0,0,40,2.36q3.08.3,31.85-1.92,24.54-1.87,31-2.66c7.35-.86,14.44-1.87,21.22-3q12.74-2.18,21.18-4.21,6.3-1.5,11-2.7l18-4.77,4.59-1.14c1.5-.33,3.92-.69,7.25-1.05,6.34-.63,13.72-1,22.09-1.08q44,.81,53.25.79a60.5,60.5,0,0,0,11.51-1.48c-5.68.24-9.48.3-11.42.18l-52.09-3.22c-8.42-.22-15.83-.1-22.19.35a68.93,68.93,0,0,0-8.65,1.09q-28,7.76-42.63,10.6-18.8,4-37.72,6.38-38.82,4.2-54.7,5.4c-8.65.29-14.64.4-18,.37Z" transform="translate(-715.23 -923.27)"/></g><g class="cls-6"><path class="cls-2" d="M2127.79,2947.77l.62.5q13.46,12.11,45.58,27.64,27.21,11.3,63.88,22.55.27-.14-45-18.07c-11.1-4.52-18.69-7.72-22.79-9.66q-14.35-6.74-27.66-13.87-10.56-5.67-14.67-9.09" transform="translate(-715.23 -923.27)"/></g><g class="cls-6"><path class="cls-2" d="M2460.46,2741.88l.41.14a141.94,141.94,0,0,0,27.55,6q5.46.7,9.41.89,29.45.57,32.45,1a89.81,89.81,0,0,1,18.41,3.39q60,23.22,91.1,45.85-25.58-23.67-87.43-49a89.08,89.08,0,0,0-21.13-3.47q-2.83-.37-32.78,0c-3.11-.09-6.44-.28-9.94-.59a243.52,243.52,0,0,1-28.05-4.26" transform="translate(-715.23 -923.27)"/></g><g class="cls-6"><path class="cls-2" d="M2440.8,2631.62l-.23,0a26.71,26.71,0,0,0-8.88,4.43,23.41,23.41,0,0,1,9-3.07q13.4-.32,25.47.59a152.6,152.6,0,0,1,38.94,13.18,185.85,185.85,0,0,1,35.48,24c5,4.69,6.85,9.62,5.35,14.78-.46,5.38-2,9.53-4.43,12.43-1.91,2.33-5.46,3.58-10.7,3.76a48.57,48.57,0,0,1-14.67-1.14l-9.74-3.1-37.25-12.78a64.43,64.43,0,0,0-10.87-2.48q-11.31-1.48-24.86,9.19c9.52-5.94,17.41-8.4,23.59-7.39a55,55,0,0,1,10.73,2.91l49,18.86a50.39,50.39,0,0,0,20,.8q13.35-2.58,15.41-21,2.2-12.06-10.84-22-24.61-18.88-50.41-27.38a128.07,128.07,0,0,0-23.85-5.62,181.33,181.33,0,0,0-26.21,1" transform="translate(-715.23 -923.27)"/></g><g class="cls-6"><path class="cls-2" d="M2438.56,2652.34h.07q12.63.4,21.11,4.56a68.55,68.55,0,0,1,11.56,7.64q4.13,3.54,3.73,5.64a5,5,0,0,1-3.68,1.74c-.21,0-1.71,0-4.46-.05q-18.54-.67-24.5-.71a69.47,69.47,0,0,0-10,.32q23.36,1.62,39.77,3.28c3.81-.12,5.77-1.9,5.86-5.34-.12-2.63-2.59-5.55-7.36-8.78q-8.26-5.43-14.76-7.08c-4.18-1.16-10-1.58-17.38-1.22" transform="translate(-715.23 -923.27)"/></g><g class="cls-6"><path class="cls-2" d="M2555.45,2725.32l.28,0q10.59.4,23.23-8.22,6.78-5.7,7.5-16.65c.41-5.62-1.41-12.53-5.47-20.78a29.82,29.82,0,0,0-2.61-4.18c-9.75-11.44-15.06-18-15.89-19.7-3.88-5.78-6.23-10.6-7.11-14.43q-2.21-10.14-1.4-15.87.2-2.6,4.26-13.82l2.77-10.63a6.35,6.35,0,0,1,1-2.34l.09,0c-.11-.09-.25.11-.48.57l-1.55,3.58-3.5,9.11q-2.74,5.85-3,6.67a49.59,49.59,0,0,0-2,5.93q-1.39,6,.66,17.7,1.39,6.84,7.71,16.61a169.87,169.87,0,0,0,15.59,19.48,41.35,41.35,0,0,1,2.91,4.56q5.64,10.77,5.14,18.77-.48,9.6-5.88,14.19-11.28,8.36-22.17,9.39" transform="translate(-715.23 -923.27)"/></g><g class="cls-6"><path class="cls-2" d="M2416.05,2582.29l.3.31q7.23,8.51,12,11.58a28.68,28.68,0,0,0,12.94,5.1q6.54.67,7.48.45a86.55,86.55,0,0,0,10.05-1.33c3.86-.66,8.35-1.63,13.52-2.91q6.57-1.56,23.44-6.07c2.86-.71,4.93-1.22,6.25-1.5a81.56,81.56,0,0,1,12.36-1.72,27.33,27.33,0,0,1,11.1,1.69q5.91,2,15.16,11.15a38,38,0,0,0-3-3.64c-7.1-8.14-15.45-11.94-25.05-11.47a91.67,91.67,0,0,0-17.53,2.24q-6.4,1.29-13.27,2.94l-20.18,5.14q-5.43,1.24-9.06,1.91a38.53,38.53,0,0,1-11.22.6q-11.76-.75-25.21-14.47" transform="translate(-715.23 -923.27)"/></g><g class="cls-6"><path class="cls-2" d="M2436.44,2613.57l.62.08c2.08.27,5.63.6,10.66,1l25.24,1.8,22.38,1.92a156.31,156.31,0,0,1,23.37,4.79,165.8,165.8,0,0,0-15.81-5.15,97,97,0,0,0-13.93-2.51q-6.75-.84-14.74-1.31l-28.44-.68c-5.66-.05-8.77,0-9.35,0" transform="translate(-715.23 -923.27)"/></g><g class="cls-6"><path class="cls-2" d="M2536.74,2542l-.25.21a69.52,69.52,0,0,1-13.15,8.53,59.51,59.51,0,0,1-13.17,4.75,41.21,41.21,0,0,1-4.82.78c-5.81.53-9,.85-9.69.93l-19.7,2.18c-2.4.25-4.73.47-7,.67l-8.54.63a2.4,2.4,0,0,0-.78.15l-.42,0a173.3,173.3,0,0,0,21.94-.36c15.73-1,25.33-1.88,28.74-2.77A53,53,0,0,0,2524,2552q4.5-2.46,12.75-10" transform="translate(-715.23 -923.27)"/></g><g class="cls-6"><path class="cls-2" d="M1759.68,2697.41l1,.4a207.67,207.67,0,0,0,55.2,11.71,211.66,211.66,0,0,0,26.85.27q6.06-.28,13.64-1.09,6.33-.63,30.13-3.74l9.78-.85a326.77,326.77,0,0,1,32.85-.51,245.24,245.24,0,0,1,29.75,3.39q12.12,1.74,46,8.63c3.37.6,6.37,1.06,9,1.38q17,1.89,27.73.84-4.37.6-29.83-3.59L1981.1,2707l-15.69-3.28q-26.61-5-32.62-5a274.52,274.52,0,0,0-34.35.09c-3.57.27-7.75.7-12.5,1.27q-31.11,4.84-38.32,5.5a210.91,210.91,0,0,1-24.36,1.34q-27.62-.07-63.58-9.5" transform="translate(-715.23 -923.27)"/></g><g class="cls-6"><path class="cls-2" d="M2021.47,2749.8l.48.18q16.58,5.3,41.27,3.94c3-.23,5.19-.42,6.6-.61q7.74-1.09,50.91-6.18,12.73-1.49,57.28-8.15,22.32-2.66,27.82-3.16,9.45-.93,18.45-1.28,32.22-.26,48.31-1.11,12.07-.7,23.9-2.43s-1.43,0-4.36.19q-9.66-.45-16.75-.64-21.39-.24-49.09-.88c-5.65,0-11.23.18-16.77.55q-18.83,1.52-31.61,3.21l-8.65,1.35q-34.49,5.7-38.8,6.32l-38.4,5.68c-6,.93-13.71,2.19-23.26,3.83q-3.56.55-7.36.94a140.09,140.09,0,0,1-40-1.75" transform="translate(-715.23 -923.27)"/></g><g class="cls-6"><path class="cls-2" d="M1783.58,2664.93l-.09,0c-.88.3-.39,1.23,1.43,2.83a35.71,35.71,0,0,0,7.62,4.7q7.95,3.65,22.14,7a90.33,90.33,0,0,0,13.8,1.42c1.56,0,3.64-.05,6.2-.21l13.7-1a96.21,96.21,0,0,1,10,.45c-6.21-1.05-9.8-1.57-10.8-1.57h-16a42.38,42.38,0,0,1-4.8-.25,137.66,137.66,0,0,1-16-2.51,103.89,103.89,0,0,1-17.64-4.82q-7.73-3.3-9.53-5.46a12.92,12.92,0,0,1,1.43,0l3.83.27a19.81,19.81,0,0,0-5.29-.86" transform="translate(-715.23 -923.27)"/></g><g class="cls-6"><path class="cls-2" d="M2410.7,2721.3l-.21.08c-1.41.59-6.64,2-15.73,4.32-.81.19-2.31.51-4.48.94l-16.05,3.12a50.07,50.07,0,0,0-6.16,1.71,41.75,41.75,0,0,0-7.18,3.48c-12,7.36-18.93,11.58-20.94,12.65a106.87,106.87,0,0,1-12.62,5.78c-.67.26-.49.28.6,0a76.74,76.74,0,0,0,12.11-4.49c1-.45,2.86-1.4,5.58-2.83,10.24-5.57,15.37-8.33,15.34-8.25,1.85-1,4.48-2.14,7.89-3.56,1.69-.65,3.37-1.2,5.05-1.67q18-4.41,20.79-5.36c2.12-.67,4.2-1.37,6.27-2.13Z" transform="translate(-715.23 -923.27)"/></g><g class="cls-6"><path class="cls-2" d="M2423.46,2788.22l-.72.13-46.76,9.3a114.91,114.91,0,0,0-13,3.56,65.86,65.86,0,0,0-10.11,4.51q-33.52,24.8-42.15,27.41-5.78,2.64-18.5,5.83c-4.59,1.13-8.55,2.05-11.85,2.76l-28.08,6c-6.85,2.12-11.78,4.27-14.74,6.47q-12.56,12.16,13.17,22,21.47,6.57,54.42.9a350.8,350.8,0,0,0,36.8-8.9q9.86-2.74,46-18.59,3.28-1.24,14.67-3.59a395.82,395.82,0,0,1,41.41-5.59c4.48-.42,7.82-.65,10.06-.72q22.9-.3,37-.83a78.14,78.14,0,0,0,11.81-1.75c-4.39.21-8.24.27-11.58.19l-35.39-1.44-5.35,0a380.15,380.15,0,0,0-47.41,4.39,127.92,127.92,0,0,0-17.3,4q-36,15.42-46.21,18.24-26.05,7.32-45.35,9.84-36.51,3.47-50.4-6.38c-2.91-1.83-4.5-3.42-4.8-4.75.21-.86,1.89-2.13,5-3.79a84.11,84.11,0,0,1,11.81-4.56q31.77-6.57,39.24-8.63a90.6,90.6,0,0,0,17.6-6,81.11,81.11,0,0,0,13.29-7.51q7.86-5.11,27.84-21.34a46.89,46.89,0,0,1,8.42-4.53,96.75,96.75,0,0,1,13.43-4.45q25.92-6,33.52-8c3.57-.91,6.55-1.71,8.86-2.38l6.36-2Z" transform="translate(-715.23 -923.27)"/></g><g class="cls-6"><path class="cls-2" d="M2469.5,2789.85l-1,.25q-13.45,3.49-35,10.46-19.14,6.8-22.38,9.16c-2.86,1.68-4.13,4-3.83,7q.24,3.18,7.2,9.5-10.49-10.38-3.21-14.59a83.43,83.43,0,0,1,11.42-5L2456,2795c1.77-.62,4.87-1.79,9.3-3.46a24.42,24.42,0,0,0,2.6-1.11Z" transform="translate(-715.23 -923.27)"/></g><g class="cls-6"><path class="cls-2" d="M1833.94,2854l.12,0q39.48,11.1,47,9.79a78.09,78.09,0,0,0,11.49-1.13q25.85-5.52,29.34-6.12,8.41-1.65,17-2.8,13.95-2.13,48.29-5,30.06-2.22,55.71-2.79,5.19-.12,16.49.14l38.94,1.17a220.65,220.65,0,0,0,22.51-1.39,135.43,135.43,0,0,0,34.54-8.82q6.73-2.24,40.44-20.4a99.3,99.3,0,0,1,12.82-4.93,265.77,265.77,0,0,1,26.12-5.29c4.63-.7,9.08-1.31,13.4-1.82l22.12-2.6,2-.14q-35.32.29-64.47,7a93.36,93.36,0,0,0-12.51,4.29q-38,18.36-42,19.22a152.65,152.65,0,0,1-32.15,7.82,207.79,207.79,0,0,1-21.73,1.42q-56.82-1.87-58.8-1.34-26.34.51-59.15,3.11-25.37,2.26-46,5.69c-4.62.75-10.27,1.89-17,3.4l-27.52,6.54a100.62,100.62,0,0,1-11.33,1.49q-7.19.59-45.72-6.55" transform="translate(-715.23 -923.27)"/></g><g class="cls-6"><path class="cls-2" d="M1917.17,2887.33l.63.33q10.28,6.28,18.57,6a37.38,37.38,0,0,0,8.37-.69q23.8-6.52,26.87-7.13a51.9,51.9,0,0,1,11.79-1.43q8.89-.18,13.08.14l38.5,2.4q1.29.32,33.61-1-2,.27,31.91,1.19l67.24,1.36a113,113,0,0,1,51.88,12.77l-5.6-3.47a98.53,98.53,0,0,0-36.13-11.34q-6-.75-15.29-1.28l-72.58-3.73c-10.12-.6-17.16-1.13-21.08-1.6q-2.14-.16-25.31,1l-7.22.13-10-.15q-29.45-1.33-31.7-1.22a138.73,138.73,0,0,0-14.23.54,55.78,55.78,0,0,0-11.23,2.2q-1,.09-25.43,8.07a42.9,42.9,0,0,1-7.72,1.2,36.05,36.05,0,0,1-18.9-4.36" transform="translate(-715.23 -923.27)"/></g><g class="cls-6"><path class="cls-2" d="M1642.84,2722.33l1.18,1q14.32,14.43,44.13,27.53l50.22,19.58,53.91,23.64a341.34,341.34,0,0,0,37.88,11.47q23.11,4.88,60.81,2.87,14.83-.87,42.19-4.22,21.1-2.52,53-8.9a104.28,104.28,0,0,1,14.81-.78q31.86,2.68,70.59,21.85-36.62-21.84-72.25-25.23a92.49,92.49,0,0,0-13.18.28q-58.75,9.18-97.09,11.6-32.17,1.72-56.38-3a318.36,318.36,0,0,1-34.28-10.1l-58.13-24.58L1684,2745.05q-28.92-12.2-41.18-22.72" transform="translate(-715.23 -923.27)"/></g><g class="cls-6"><path class="cls-2" d="M1623.81,2767.1h0q8.87,7.35,40.9,19c3.63,1.23,9.81,3,18.5,5.24,5.29,1.36,13.77,3.37,25.52,6l12.82,3.36q5.75,1.41,36,11.54c4,1.15,6.32,1.65,6.89,1.51-1.77-.49-3.62-1.09-5.49-1.77q-24-9.2-29.85-11.15-7.26-2.58-13.91-4.62l-6-1.68-36.41-9.06c-4.52-1.2-7.42-2-8.72-2.51q-24.52-8.31-40.23-15.89" transform="translate(-715.23 -923.27)"/></g><g class="cls-6"><path class="cls-2" d="M1006.09,2311.17l0,0q21.28,14.82,34.54,21.82a227.31,227.31,0,0,0,33.81,15q-43.38-21.12-68.39-36.84" transform="translate(-715.23 -923.27)"/></g><g class="cls-6"><path class="cls-2" d="M851.14,2234.86l.87,1.59q27.45,46.8,28.7,67a158,158,0,0,1-2.4,38.87l-2.38,9.26q-20.85,66.4-22.53,73.14a151.26,151.26,0,0,0-3.6,29.23q-.42,33.54,4.64,57.12c.8,3.66,2.09,8.52,3.94,14.58.48,1.66,1.22,3.74,2.19,6.22a266.85,266.85,0,0,0,12.76,26.68q5.67,9.72,5.26,8.69l-1.48-3.21c-1.29-4.06-2.65-8-4-11.73-5.74-13.83-8.9-21.87-9.55-24.13q-4.32-14.93-5.32-22.05-3.39-19.71-2.64-53.13.95-17.32,3.83-28.37,1.26-5.82,21.32-70.46c.62-2,1.41-5.29,2.33-9.73a154.2,154.2,0,0,0,1.8-36.67q-.69-13.42-8.61-30.22a279.48,279.48,0,0,0-25.09-42.64" transform="translate(-715.23 -923.27)"/></g><g class="cls-6"><path class="cls-2" d="M905.28,2286.65l.23.26q7.26,8.45,16.56,26.59,6.2,12.2,8,21.63,2.35,12,1.66,28.81-.76,13.74-1,16.12-4.5,31.89-4.38,39.21a292.17,292.17,0,0,0,2.4,33.38q2.91,21.54,12.36,52.49,2.56,8.7,15.11,31.37-2.87-6.12-8.25-20a126.23,126.23,0,0,1-4.25-12.32q-8.65-34.41-10.29-51.11a294,294,0,0,1-2-34.52c0-1.3.28-4.29.74-9l3-28.26q.52-9.14.63-19.67a125.75,125.75,0,0,0-2.36-24.36q-2.28-11.39-9.52-24.51-11.07-19.83-18.64-26.17" transform="translate(-715.23 -923.27)"/></g><g class="cls-6"><path class="cls-2" d="M800.87,2303.43l.6,1.18q17.29,34,16.38,60.3a102.48,102.48,0,0,1-4.94,29q-7,20.24-14.69,26.23-7.51,6.72-12.87,7.47-4.36.9-13.55-3.66-12.56-6.63-32.5-22.75-13.53-11.31-18.18-20-4.05-9.18.88-19.31,5.54-12.37,26.46-40.41-21.84,23.58-29.83,38.94-6,12.12-1.38,22.33,3.84,8.55,19,22.19,20.46,17.46,33.25,24,9.64,4.89,16.86,3.78,5.61-.89,14.86-9.05,7.89-7,13.79-22.6a112.58,112.58,0,0,0,5.84-34.32q-.52-33.77-20-63.39" transform="translate(-715.23 -923.27)"/></g><g class="cls-6"><path class="cls-2" d="M802.11,2479.21l0,.21a90,90,0,0,0,4.8,17.16q2.41,6.86,5.23,13.74,2,5,6.83,15.92c.81,2,1.92,4.81,3.28,8.39,3.36,9.17,5.63,15.9,6.76,20.2,0,.29-.72-3-2.24-9.74q-.56-2.28-1.46-5.53c-.66-2.58-2-6.72-4-12.43-.49-1.34-.88-2.36-1.18-3.06q-2.94-7-9.53-22.08c-1.29-3-2.56-6.1-3.78-9.14-1-2.4-1.8-4.56-2.44-6.46q-.87-2.41-2.08-6.57Z" transform="translate(-715.23 -923.27)"/></g><g class="cls-6"><path class="cls-2" d="M997.32,2406.3v.27q.07,3.39-.28,10.48L995.82,2435c-.12,1.79-.18,3.27-.23,4.46-.11,2-.09,5.28.07,9.77a89.8,89.8,0,0,0,1.2,12.33c.23,1.32.55,2.72.94,4.2l.65,2.33,1.22,4.29.44,1.58c-.32-1.34-.57-2.54-.78-3.59-.53-2.82-.93-5.06-1.18-6.68-.39-2.88-.65-5.66-.76-8.35-.11-3.48-.16-7.21-.09-11.17q.75-22.62.71-26.7c0-3.1-.11-5.64-.25-7.65-.07-1.32-.16-2.28-.26-2.9a1.06,1.06,0,0,0-.18-.6" transform="translate(-715.23 -923.27)"/></g><g class="cls-6"><path class="cls-2" d="M1014.16,2538.3l-.69.9q-21.32,29.61-30.47,89.45a105,105,0,0,0,.11,27.14q1.62,11.39,10.4,43.32-8.13-42.93-7.79-44.12a118.7,118.7,0,0,1,.69-28.31q5-31,10.84-49.59a182.23,182.23,0,0,1,16.91-38.79" transform="translate(-715.23 -923.27)"/></g><g class="cls-6"><path class="cls-2" d="M1051.81,2517.62h0s-.08.2-.1.55a6.09,6.09,0,0,0-1.68,2.56,111.92,111.92,0,0,1-2.22,11.66q-3.8,15.26-6.34,23.11-3.18,10.39-10.4,29.1,8.27-15.3,16-39.62a165.41,165.41,0,0,0,4.79-17.9,46.91,46.91,0,0,0,.84-6.32,5.62,5.62,0,0,0-.88-3.15" transform="translate(-715.23 -923.27)"/></g><g class="cls-6"><path class="cls-2" d="M1144.57,2605.88l.8.88q23.7,24.15,30.64,46.46,3.49,10.79,4.84,29.32,1,13.61,1.34,26.93l.88,49.76q.93,14.31,2.51,20.56,2.81,13.24,11.47,30.28,12.21,23.54,20.64,32.55,23.67,23.76,56.94,42.77a390.14,390.14,0,0,1-52.69-44.34q-9.53-10.65-22.2-37.27-9.23-19.72-10.51-34.9c-.49-3.57-.88-7.85-1.13-12.87q-.74-41.28-2.26-60.12-1.71-24.57-5.36-37.53-7.85-28.89-35.91-52.48" transform="translate(-715.23 -923.27)"/></g><g class="cls-6"><path class="cls-2" d="M1105.42,2753.28l-.56.1c-6.87,1.81-11.14,4.61-12.75,8.4q-2.62,7.8,1.15,21.13a200.13,200.13,0,0,0,7.91,22.3q3.43,8.64,23.83,49.26c3,7,5.93,14,8.77,21q4.95,12.36,11.35,29.82l2.58,5.73a55.77,55.77,0,0,0,12.65,16.61l4.22,3.22q23.94,14.83,27.7,18,4.08,3,17.7,16.9a93.62,93.62,0,0,0-14.63-17.86q-2.73-3.29-31-22.66a55.17,55.17,0,0,1-10.52-13.05,76.15,76.15,0,0,1-3.69-8.17q-10.17-30-18.94-50.68l-19.1-39.32q-5.3-11.16-7.89-18-8.82-23.3-6.5-31.79,15-18.19,61.86,23.5,7.65,8.75,22,32.17,2.36,3.62,20.56,41.2l5.79,10.88q1.72,4.05,24.22,37.32-20.76-36.37-22.56-40.56-18.85-42.27-23.46-50.81-12.87-22.2-20.35-31.48-36.71-36.48-60.32-33.16" transform="translate(-715.23 -923.27)"/></g><g class="cls-6"><path class="cls-2" d="M1173,2872.68l-.34.07q-5.23,1.78.41,10.87,2.43,4,8.17,11.57,4.15,5.61,16.56,20.83c4.22,5.68,6.51,8.87,6.92,9.58q-2.84-5.4-6.5-11-17.16-24-20.26-29.15-4.45-7-4.54-9.43,8.23,4.18,20.9,18.43,6.4,7.14,24.29,32.36-4.21-7.16-15.48-24.85a122.23,122.23,0,0,0-8.33-11q-16.77-19.41-21.8-18.21" transform="translate(-715.23 -923.27)"/></g><g class="cls-6"><path class="cls-2" d="M1092.78,2683l-1.25.24q-37.74,7-36.75,56.94a75.39,75.39,0,0,0,1,9.74l7.33,36.77q2.53,14.12,7.23,45.08c.5,3.61.85,6.6,1.08,9l1.82,26.8a87.47,87.47,0,0,0,1.32,9.85,63.9,63.9,0,0,0,2.33,8.6l19.74,51.61q2,5.67,4.36,13.62,6,20.93,5.35,36.2,3-14.71-2.6-38.11-2.19-9-4-14.26-1.95-6-17.88-51.48a60.09,60.09,0,0,1-2.08-8.78q-.93-4-2.33-34.29c-.3-3-.71-6.42-1.27-10.25Q1071,2795,1069.29,2786q-.37-3.27-6.62-31.6c-1-4.89-1.52-8-1.61-9.2a83.18,83.18,0,0,1,.25-22.91q2.22-16.23,11.7-25.63,9.83-9.28,27.47-11.15,24.3-2.82,51.7,26.44-27.75-35.28-59.4-28.93" transform="translate(-715.23 -923.27)"/></g><g class="cls-6"><path class="cls-2" d="M1121.89,2924.52v0l.44,1.68c.44,2.57,1,5.32,1.71,8.2.46,1.88,1.13,4.18,2,6.89a48.55,48.55,0,0,0,4.73,10.6q4.85,7.92,25.19,32.89,1.86,2.83,15.18,16.91C1163,2991.21,1159,2986,1159,2985.93l-12.25-17.08L1135,2953.91l-3.07-4.51a48.15,48.15,0,0,1-3.92-7.91c-.67-1.52-2.72-7.18-6.11-17" transform="translate(-715.23 -923.27)"/></g><g class="cls-6"><path class="cls-2" d="M1352,2952.67l1,1.83q20.63,37.18,64.06,65,15.23,9.91,46.07,23.49,53.6,23.64,94,38.17,53.94,19.24,82.28,25.12,13.85,2.8,25.28,4.25,99,9.48,168.1,20.18,32.74,3.75,57.95,22.56l1.06.16-1.91-4.48q-14.4-15.39-42.84-21.41-8-2.68-67.91-10-48.87-6.11-109.92-11.17l-21.9-3.26q-26.57-4-93.47-27.85-42.7-15.72-90.36-36.67-29.65-12.84-44.71-22.1-42.18-25.87-66.71-63.83" transform="translate(-715.23 -923.27)"/></g><g class="cls-6"><path class="cls-2" d="M1817.54,3168.24l1,.82a138,138,0,0,0,45.84,22.27q18.83,6.2,53.93,7.29,46.65,1.53,85.91,0c11.67-1,20.42-1.9,26.3-2.84q-.63.39,38.34-7.47,7.13-1.35,10.93-1.79l10.11-.9,51.67-3.6q-40.48-.5-59.22.52a130.93,130.93,0,0,0-13.49,1.6l-37.9,6.46c-7.87,1-18.07,1.9-30.66,2.65-6.51.29-15.64.46-27.45.5l-56.59.17c-1.75,0-5.93-.06-12.55-.27q-49.59-1.68-86.16-25.42" transform="translate(-715.23 -923.27)"/></g><g class="cls-6"><path class="cls-2" d="M1956,3125.33l-.23.06a12.8,12.8,0,0,0-2.44.66q9.13-1.23,70-2,.8-.48,26.71,1.56a138.72,138.72,0,0,1,16.57,3q60.51,17.39,66,18.2,41,6.78,56.68,7.51,6.38.45,17.56.55l52.57.23,60.88,1.85q27.57-.55,44-3.65l10.68-2.11q-20.34,2.84-52.13,2.46l-14.47-.66-45.51-3-63.53-.69q-1.49.22-20.32-1.33-19.86-2-45.36-6.1l-66-17.43q-9.32-2.26-31-3.61-55.29,1.11-80.74,4.45" transform="translate(-715.23 -923.27)"/></g><g class="cls-6"><path class="cls-2" d="M1259.08,2996.53l3.85,1.77q55.74,24,107.06,63.76,17.23,14,49.27,45.2,2.22,1.57,61.39,66a39.93,39.93,0,0,0,11.28,7.88q12.63,6.27,46.85,5.55,52.9-.18,96.47-6.38-61.65,2.63-108,1-23.85-.73-34.08-6.11a53.26,53.26,0,0,1-11.4-8q-63.52-71.1-110.4-109.19-55.12-41.59-112.34-61.49" transform="translate(-715.23 -923.27)"/></g><g class="cls-6"><path class="cls-2" d="M1624.74,3137.16l-2.17.38q-15.43,2.63-37.1,7.61,7.52-.78,43-6.22c3.71-.54,6.46-.85,8.23-.95a107.86,107.86,0,0,1,28.7,2.82q73.42,19.08,132.28,54.33a367.91,367.91,0,0,0-97.79-48.37q-31.56-9.9-38.76-10.37a105.73,105.73,0,0,0-36.44.77" transform="translate(-715.23 -923.27)"/></g><g class="cls-6"><path class="cls-2" d="M2678.89,3024.13l-.67.27q-55.42,24-93.45,42.14c-6.5,2.95-11.92,5.19-16.22,6.75a134.12,134.12,0,0,1-14.94,4.48q-14.61,3.53-47.22,10.63c-4.92,1.13-9.53,2.34-13.8,3.62-.71.2.26.05,2.95-.45q6.83-.36,15-1.48,13.45-2.21,24.73-4.41,16.53-3.25,19.9-4.19,6.43-1.63,14.17-4.43c5.74-2.12,11.3-4.43,16.63-6.93l35.39-17.46,39-18.69q12-5.88,18.54-9.85" transform="translate(-715.23 -923.27)"/></g><g class="cls-6"><path class="cls-2" d="M2371,3112l1,.59q28.85,16.35,49.59,21a321.69,321.69,0,0,0,75,7.9q22.93,0,75.52-8.71,27.27-4.53,32.3-5.71,1.17-.13,51.37-11.5l11-2.34q4.88-1.1,35.25-5.43l-21.18,1.25c-5.51.44-10.15,1-13.86,1.52q-5.92.89-17.23,3.08l-50.8,10.07q-8.82,1.66-57.86,9-31.3,4.37-48.21,4.39-39.14.49-71.49-6.36Q2408.57,3129,2371,3112" transform="translate(-715.23 -923.27)"/></g><g class="cls-6"><path class="cls-2" d="M2961.27,2979.66l-.3,0q-10.83,2.33-19.24,4.92-8.92,2.8-44.36,15.38a93.3,93.3,0,0,1-9.2,2.6c-1.53.31-3,.58-4.48.77q-10,1.08-29.34,3.5l-5.19.52c-8.38.58-14.51,1.1-18.39,1.5q-8.45.84-15,1.81a108.1,108.1,0,0,0-10.85,1.85c-.55.13-1.54.4-3,.79l-10.45,3q-8.58,2.54-11.24,3.41-6.95,2.55-14,4.86c-3.95,1.48-7.69,3-11.17,4.57-2,.9-4.43,2.1-7.22,3.58l-39.42,21q2-.67,46.25-21.38a203.46,203.46,0,0,1,23-8.06q5.23-1.57,25.36-6.59,2.84-.7,6.5-1.29,6.64-.9,13.82-1.54,8.24-.76,24.84-2l6.72-.63,29.52-3.84a54.7,54.7,0,0,0,5.68-1.13,87.83,87.83,0,0,0,9.09-2.78l43.48-16.9,17.67-5.71c2.29-.75,4.5-1.54,6.67-2.39a25.42,25.42,0,0,0,3.37-1.39l-2,.5c-2.47.28-4.85.6-7.11,1" transform="translate(-715.23 -923.27)"/></g><g class="cls-6"><path class="cls-2" d="M3032.55,2959l0,0-34.12,21.82q-12.9,8-24.57,14.66-4.5,2.51-19.49,9.69l-51,24.26-13.22,6.11q-13.7,5.55-22.54,7.32-3.32.74-17,2.84l-29.11,4q32.2-2.25,46.94-4a131.42,131.42,0,0,0,28.31-8.82q52.07-23,80.11-38.4,39.79-24.4,55.71-39.47" transform="translate(-715.23 -923.27)"/></g><g class="cls-6"><path class="cls-2" d="M3089,2848.4l-.12.06-66.41,24.73c-7,2.63-11.24,4.25-12.55,4.89-3.14,1.52-5.77,2.87-7.87,4q-22.56,13.86-27.91,16.5-40.14,20.34-50.2,25.19-6.72,3.22-11.76,5.18-31.91,12.12-44.16,17.21,22.29-6.48,47.27-15.56,4-1.32,15.43-6.61,39.42-18.32,45.86-21.58,4.89-2.37,27.94-16.75c1.77-1,4-2.2,6.6-3.51q45.57-19.2,70.54-30a66.71,66.71,0,0,0,7.34-3.83" transform="translate(-715.23 -923.27)"/></g><g class="cls-6"><path class="cls-2" d="M3067.83,2889.79l0,0-25.49,14.86q-2.88,1.72-13.11,8.68l-53.47,40.9q-5.57,4.47-6.85,6.34l4.82-3.83q18.32-12.93,56.22-41l13.4-9.42c9.07-5.78,14.79-9.5,17.12-11.11,3.53-2.44,6-4.24,7.41-5.43" transform="translate(-715.23 -923.27)"/></g><g class="cls-6"><path class="cls-2" d="M2801.85,3059.09l-1.27.34q-7.47,2-18.69,5.83-5.35,1.78-14.16,5.36a302,302,0,0,0-33,16.19q9.63-4.7,22.47-9.95c3.6-1.49,7.36-3,11.21-4.55l29.12-11.5,2.33-1Z" transform="translate(-715.23 -923.27)"/></g><g class="cls-9"><path class="cls-7" d="M1330.43,2872.78c591.52,426,1565.1,227.86,1778.16-135.65-519.92,371.21-1080.94,417.19-1778.16,135.65" transform="translate(-715.23 -923.27)"/></g><g class="cls-10"><path class="cls-2" d="M923.62,2616.42c-273.46-271.3,22.77-389.92,8-411.49-85.75,13.09-201.5,123-187.8,195.4,11.26,59.6,68.42,136.17,167.17,253.8l-5.76-7.42c40.16-24.45-3.16,11.31,18.41-30.29" transform="translate(-715.23 -923.27)"/></g><path class="cls-4" d="M1954,3275.71c-358.47,0-665.18-64.8-836-179a19.83,19.83,0,0,1-5.62-27.28,629.79,629.79,0,0,1,197.38-193.88,19.84,19.84,0,0,1,21.15.12c248.52,158.56,601.28,228.83,967.79,192.74,349.89-34.45,656.34-161.09,819.76-338.76a19.84,19.84,0,0,1,33.65,7.86c31.33,107.09-13.21,208.53-128.8,293.35-181.06,132.87-542.25,225.68-942.6,242.2Q2016.49,3275.73,1954,3275.71Zm-797.2-201.24c187.93,115.87,530.15,175.18,922.28,159,392.9-16.21,745.71-106.08,920.77-234.53,89-65.34,129.7-137.55,121.27-215.07-175,170.26-477.16,290.48-818.52,324.08-370,36.45-727.1-33.53-982.3-192A589.46,589.46,0,0,0,1156.83,3074.47Z" transform="translate(-715.23 -923.27)"/><path class="cls-4" d="M2807.2,1877.31a18.7,18.7,0,0,1-3-.23,19.81,19.81,0,0,1-14.63-10.46c-27.07-52.08-40.94-74.83-79.65-107.32a19.85,19.85,0,0,1,1.74-31.7c117.49-78.4,210.32-118,292.15-124.49,88.19-7,163,25.13,228.74,98.3a19.84,19.84,0,0,1-23.14,31.24c-113.77-53.09-244.34-6.39-388.14,138.79A19.86,19.86,0,0,1,2807.2,1877.31Zm-52-130.75c24.49,23.68,39.53,46,57.1,78.11,115.25-110.46,224.3-161.44,325.64-152.18C3041.73,1614.09,2924,1638.09,2755.15,1746.56Z" transform="translate(-715.23 -923.27)"/><path class="cls-4" d="M1526.78,1897.41c-39,0-70.16-3.66-94-11l11.65-37.93c46.46,14.27,132.27,12,255-6.74l6,39.23C1633.69,1891.94,1574.4,1897.41,1526.78,1897.41Z" transform="translate(-715.23 -923.27)"/><path class="cls-4" d="M2402.05,2784.88c-3-24.63-5.87-46.78-8.6-66.11-205.95,16-422.08-9.89-642.89-77a562.33,562.33,0,0,0-50.33,51.58l-30.16-25.79a608,608,0,0,1,62.63-63l8.34-7.26,10.56,3.27c226.25,70,447.29,96,657,77.06l18.62-1.68,2.78,18.49c3.54,23.59,7.39,52.39,11.43,85.61Z" transform="translate(-715.23 -923.27)"/></svg>