<svg id="Layer_1" data-name="Layer 1" xmlns="http://www.w3.org/2000/svg" viewBox="0 0 2881.89 2743.17"><defs><style>.cls-1{fill:#fe6dcb;}.cls-2{fill:#b177ea;}.cls-3{fill:#fdd800;}.cls-4{fill:#33aef1;}.cls-5{opacity:0.6;}.cls-6{fill:#fff;}.cls-7{fill:#390075;}.cls-8{fill:#fdffff;stroke-miterlimit:10;stroke-width:4.83px;}.cls-10,.cls-8{stroke:#390075;}.cls-9{opacity:0.2;}.cls-10{fill:none;stroke-linecap:round;stroke-linejoin:round;stroke-width:35.8px;}.cls-11{fill:#451661;}.cls-12{fill:#fb64c0;}</style></defs><path class="cls-1" d="M3151.86,3020.25c0,3,0,6,0,9H2952.28c0-3,0-6,0-9,0-512.36-415.3-927.67-927.63-927.67S1097,2507.89,1097,3020.25c0,3,0,6,0,9H897.5c0-3,0-6,0-9,0-622.53,504.68-1127.21,1127.21-1127.21S3151.86,2397.72,3151.86,3020.25Z" transform="translate(-583.72 -629.73)"/><path class="cls-2" d="M2952.31,3020.25c0,3,0,6,0,9h-193.5c.08-3,.08-6,.08-9,0-405.49-328.72-734.17-734.18-734.17s-734.17,328.68-734.17,734.17c0,3,0,6,.07,9H1097.05c0-3,0-6,0-9,0-512.36,415.31-927.67,927.67-927.67S2952.31,2507.89,2952.31,3020.25Z" transform="translate(-583.72 -629.73)"/><path class="cls-3" d="M2758.86,3020.25c0,3,0,6-.08,9H2600.51c0-3,.08-6,.08-9,0-318.09-257.85-575.94-575.91-575.94s-575.94,257.85-575.94,575.94c0,3,0,6,.08,9H1290.58c-.07-3-.07-6-.07-9,0-405.49,328.68-734.17,734.17-734.17S2758.86,2614.76,2758.86,3020.25Z" transform="translate(-583.72 -629.73)"/><path class="cls-4" d="M2600.59,3020.25c0,3,0,6-.08,9H2421.45q.11-4.47.11-9c0-219.21-177.7-396.92-396.88-396.92S1627.76,2801,1627.76,3020.25q0,4.48.12,9H1448.82c0-3-.08-6-.08-9,0-318.09,257.85-575.94,575.94-575.94S2600.59,2702.16,2600.59,3020.25Z" transform="translate(-583.72 -629.73)"/><g class="cls-5"><path class="cls-6" d="M3151.88,3020.25c0,3,0,6,0,9h-55.71c0-591.73-479.7-1071.43-1071.47-1071.43S953.23,2437.48,953.23,3029.21H897.52c0-3,0-6,0-9C897.48,2397.72,1402.17,1893,2024.7,1893S3151.88,2397.72,3151.88,3020.25Z" transform="translate(-583.72 -629.73)"/></g><g class="cls-5"><path class="cls-6" d="M2024.68,2092.58c-508.19,0-920.82,408.59-927.51,915.2H1156c0-458.14,423.5-868.32,881.63-868.32s855.31,410.18,855.31,868.32h59.23C2945.47,2501.17,2532.84,2092.58,2024.68,2092.58Z" transform="translate(-583.72 -629.73)"/></g><g class="cls-5"><path class="cls-6" d="M2024.68,2286.08c-396.45,0-719.43,314.21-733.63,707.2h81.09c0-360.38,292.18-652.52,652.56-652.52s652.52,292.14,652.52,652.52h81.09C2744.11,2600.29,2421.1,2286.08,2024.68,2286.08Z" transform="translate(-583.72 -629.73)"/></g><g class="cls-5"><path class="cls-6" d="M2024.68,2444.31c-318.09,0-575.94,257.85-575.94,575.94,0,2.89,0,5.78.07,8.67h41.67c0-280.07,254.15-532.7,534.22-532.7s536.83,252.63,536.83,532.7h39c0-2.89.08-5.78.08-8.67C2600.59,2702.16,2342.74,2444.31,2024.68,2444.31Z" transform="translate(-583.72 -629.73)"/></g><path class="cls-7" d="M3151.8,3047.12H2421.43a17.91,17.91,0,0,1-17.9-18.34c.08-2.85.11-5.69.11-8.52,0-209-170-379-379-379s-379,170-379,379q0,4.23.12,8.49a17.91,17.91,0,0,1-17.9,18.37H897.48a17.9,17.9,0,0,1-17.89-17.67c-.05-3.07-.05-6.13-.05-9.19,0-305.87,119.12-593.43,335.4-809.72s503.86-335.4,809.72-335.4,593.42,119.11,809.7,335.4,335.38,503.85,335.38,809.72c0,3.06,0,6.12,0,9.19A17.91,17.91,0,0,1,3151.8,3047.12Zm-712.46-35.8H3133.9c-4.82-607.58-500.57-1100.38-1109.24-1100.38S920.21,2403.74,915.38,3011.32h694.56c4.77-224.62,189-405.88,414.72-405.88S2434.57,2786.7,2439.34,3011.32Z" transform="translate(-583.72 -629.73)"/><path class="cls-7" d="M2952.25,3047.12H2421.43a17.91,17.91,0,0,1-17.9-18.34c.08-2.85.11-5.69.11-8.52,0-209-170-379-379-379s-379,170-379,379q0,4.23.12,8.49a17.91,17.91,0,0,1-17.9,18.37H1097a17.91,17.91,0,0,1-17.9-17.67c0-3.07,0-6.13,0-9.19,0-521.4,424.18-945.58,945.57-945.58s945.53,424.18,945.53,945.58c0,3.06,0,6.12,0,9.19A17.91,17.91,0,0,1,2952.25,3047.12Zm-512.91-35.8h495c-4.79-497.57-411-900.84-909.69-900.84s-904.93,403.27-909.73,900.84h495c4.77-224.62,189-405.88,414.72-405.88S2434.57,2786.7,2439.34,3011.32Z" transform="translate(-583.72 -629.73)"/><path class="cls-7" d="M2758.76,3047.12H2421.43a17.91,17.91,0,0,1-17.9-18.34c.08-2.85.11-5.69.11-8.52,0-209-170-379-379-379s-379,170-379,379q0,4.23.12,8.49a17.91,17.91,0,0,1-17.9,18.37h-337.3a17.9,17.9,0,0,1-17.89-17.44c-.08-3.14-.08-6.28-.08-9.42,0-414.7,337.37-752.08,752.07-752.08s752.08,337.38,752.08,752.08c0,3.14,0,6.28-.08,9.42A17.91,17.91,0,0,1,2758.76,3047.12Zm-319.42-35.8h301.55c-4.82-390.85-324.26-707.34-716.23-707.34s-711.4,316.49-716.22,707.34h301.5c4.77-224.62,189-405.88,414.72-405.88S2434.57,2786.7,2439.34,3011.32Z" transform="translate(-583.72 -629.73)"/><path class="cls-7" d="M2600.49,3047.12H2421.43a17.91,17.91,0,0,1-17.9-18.34c.08-2.85.11-5.69.11-8.52,0-209-170-379-379-379s-379,170-379,379q0,4.23.12,8.49a17.91,17.91,0,0,1-17.9,18.37H1448.8a17.91,17.91,0,0,1-17.9-17.67c0-3.07-.08-6.13-.08-9.19,0-327.45,266.4-593.85,593.84-593.85s593.81,266.4,593.81,593.85c0,3.06,0,6.12-.08,9.19A17.91,17.91,0,0,1,2600.49,3047.12Zm-161.15-35.8H2582.6c-4.79-303.6-253.24-549.11-557.94-549.11s-553.18,245.51-558,549.11h143.25c4.77-224.62,189-405.88,414.72-405.88S2434.57,2786.7,2439.34,3011.32Z" transform="translate(-583.72 -629.73)"/><path class="cls-8" d="M3445.76,2924a129,129,0,0,0-213.53-73.72c-33.67-86.84-124.89-140.79-220.14-124.15a198.67,198.67,0,0,0-68.39,25.7c-51.35-81.07-148.11-127.54-248.51-110-118.82,20.77-202.4,124.14-202.21,240.78-1.22.19-2.43.23-3.64.45-102.36,17.89-170.83,115.36-153,217.72,15.43,88.25,90,151.16,175.91,155.41,45.95,70.68,131.07,111,219.37,95.57a216,216,0,0,0,113-57.3,149.52,149.52,0,0,0,267.85-88.7,181.71,181.71,0,0,0,124.18,22.74c86.48-15.12,148-88.81,151-173.18A129.16,129.16,0,0,0,3445.76,2924Z" transform="translate(-583.72 -629.73)"/><g class="cls-9"><path class="cls-7" d="M3327.58,2817.3a111.57,111.57,0,0,1-17.41,174.86,157.58,157.58,0,0,1-237.74,130A129.2,129.2,0,0,1,2841,3198.79a187.55,187.55,0,0,1-287.22-33.05c-74.16-3.66-138.64-58-152-134.27a162.24,162.24,0,0,1,34-130.58,188.26,188.26,0,0,0-99.44,199.87c15.42,88.23,90.06,151.15,175.93,155.36,46,70.69,131.05,111,219.36,95.59a216.08,216.08,0,0,0,113-57.28,149.54,149.54,0,0,0,267.87-88.71,181.65,181.65,0,0,0,124.16,22.72c86.48-15.11,148-88.79,151-173.15a129.2,129.2,0,0,0-60.1-238Z" transform="translate(-583.72 -629.73)"/></g><path class="cls-10" d="M3445.76,2924a129,129,0,0,0-213.53-73.72c-33.67-86.84-124.89-140.79-220.14-124.15a198.67,198.67,0,0,0-68.39,25.7c-51.35-81.07-148.11-127.54-248.51-110-118.82,20.77-202.4,124.14-202.21,240.78-1.22.19-2.43.23-3.64.45-102.36,17.89-170.83,115.36-153,217.72,15.43,88.25,90,151.16,175.91,155.41,45.95,70.68,131.07,111,219.37,95.57a216,216,0,0,0,113-57.3,149.52,149.52,0,0,0,267.85-88.7,181.71,181.71,0,0,0,124.18,22.74c86.48-15.12,148-88.81,151-173.18A129.16,129.16,0,0,0,3445.76,2924Z" transform="translate(-583.72 -629.73)"/><g class="cls-9"><path class="cls-7" d="M3066,3028.5c-56.92,15.22-96.53-10.22-114.74-26.3-43.35,62.47-144.24,71-144.24,71C2983.8,2979.77,2940.16,2835,2940.16,2835c29.27,55.29,35,97.84,27.35,130.61C3002,3018.14,3066,3028.5,3066,3028.5Z" transform="translate(-583.72 -629.73)"/></g><path class="cls-8" d="M665.2,3071.51c5.71,84.23,69.56,155.89,156.48,168.21A181.66,181.66,0,0,0,945.06,3213a149.53,149.53,0,0,0,270.58,80,217,217,0,0,0,331-49c85.68-7,158.23-72.3,170.79-161,14.57-102.88-57-198.09-159.9-212.66-1.23-.18-2.43-.18-3.65-.33-3.58-116.59-90.46-217.2-209.89-234.12-100.92-14.29-196.12,35.29-244.83,118a198.54,198.54,0,0,0-69.18-23.48c-95.74-13.56-185.17,43.32-216,131.2a129.11,129.11,0,1,0-148.75,210Z" transform="translate(-583.72 -629.73)"/><g class="cls-9"><path class="cls-7" d="M602.9,2942.13a129.17,129.17,0,0,0,62.3,129.37c5.71,84.22,69.57,155.88,156.49,168.19A181.6,181.6,0,0,0,945.05,3213a149.55,149.55,0,0,0,270.6,80,216.17,216.17,0,0,0,114.8,53.59c88.76,12.57,172.52-30.49,216.15-102.63,85.7-7,158.26-72.28,170.82-161a188.24,188.24,0,0,0-105.84-196.55,162.25,162.25,0,0,1,38.2,129.42c-10.85,76.62-73.54,133.06-147.54,139.11a187.57,187.57,0,0,1-286,42.32,129.2,129.2,0,0,1-233.78-69.12,157.58,157.58,0,0,1-241.82-122.24,111.57,111.57,0,0,1-23-174.21A129.24,129.24,0,0,0,602.9,2942.13Z" transform="translate(-583.72 -629.73)"/></g><path class="cls-10" d="M665.2,3071.51c5.71,84.23,69.56,155.89,156.48,168.21A181.66,181.66,0,0,0,945.06,3213a149.53,149.53,0,0,0,270.58,80,217,217,0,0,0,331-49c85.68-7,158.23-72.3,170.79-161,14.57-102.88-57-198.09-159.9-212.66-1.23-.18-2.43-.18-3.65-.33-3.58-116.59-90.46-217.2-209.89-234.12-100.92-14.29-196.12,35.29-244.83,118a198.54,198.54,0,0,0-69.18-23.48c-95.74-13.56-185.17,43.32-216,131.2a129.11,129.11,0,1,0-148.75,210Z" transform="translate(-583.72 -629.73)"/><g class="cls-9"><path class="cls-7" d="M987.43,3042c57.38,13.38,96.15-13.33,113.83-30,45.34,61,146.46,66.31,146.46,66.31-179.75-87.68-140.81-233.74-140.81-233.74-27.47,56.21-31.84,98.92-23.12,131.42C1051,3029.55,987.43,3042,987.43,3042Z" transform="translate(-583.72 -629.73)"/></g><path class="cls-6" d="M1592.54,1974.2c-80,28.64-159,83.6-233.23,135.33-124.28,86.75-234.63,164.54-311.68,94.74C940.24,2107,1122.76,1948.09,1254.57,1854c64.74-46.27,117.24-76.85,117.24-76.85Z" transform="translate(-583.72 -629.73)"/><g class="cls-9"><path class="cls-7" d="M1592.54,1974.2l-220.73-197s-52.5,30.58-117.24,76.85c-1.49,61.15,3,148.47,34,209.65-121,77.44-258.91,132.53-279.38,42.3-6.48,35,1.75,67.74,31.9,95,77.18,69.89,187.84-8.32,312.4-95.22l5.86,3.8C1433.51,2057.8,1512.59,2002.84,1592.54,1974.2Z" transform="translate(-583.72 -629.73)"/></g><path class="cls-7" d="M1116.5,2249.23c-29.12,0-56.27-9.37-80.89-31.67-28.82-26.11-41.51-57.87-37.69-94.38,16.4-156.78,350.65-353.2,364.87-361.48a17.9,17.9,0,0,1,18,30.93c-92.51,53.92-335.25,219.08-347.28,334.28-2.6,24.87,5.94,45.85,26.11,64.11,66,59.77,168.48-11.74,287.15-94.56,77-53.76,156.7-109.36,239.7-139.1a17.9,17.9,0,0,1,12.07,33.71c-78.49,28.12-156.17,82.33-231.29,134.75C1277.06,2188.78,1190.43,2249.23,1116.5,2249.23Z" transform="translate(-583.72 -629.73)"/><path class="cls-4" d="M3207.07,1339.42a481,481,0,0,1-17.1,67.83c-34.46,104.74-107.58,211.2-223,269.31a331.28,331.28,0,0,1-114.5,33.24c-10.95,1.22-21.94,1.9-32.88,2,3-31.84,16.69-78.1,65.57-113.46C2957.66,1545.91,3130.73,1595.92,3207.07,1339.42Z" transform="translate(-583.72 -629.73)"/><path class="cls-7" d="M2816.89,1714.28l.25-2.68c3.13-32.84,17.22-79.49,66.57-115.19,20.51-14.83,48.17-21.45,80.2-29.12,82.9-19.84,186.07-44.53,240.84-228.56l4.7,1.11a484.17,484.17,0,0,1-17.18,68.17C3152.71,1528.22,3071,1626.89,2968,1678.72a333.14,333.14,0,0,1-115.34,33.48c-10.95,1.22-22.1,1.91-33.1,2Zm378.08-332C3137,1530.84,3042.34,1553.49,2965,1572c-31.54,7.55-58.77,14.07-78.5,28.33-46.55,33.68-60.77,77.38-64.31,109,10-.21,20-.87,29.93-2a328.1,328.1,0,0,0,113.69-33c101.81-51.25,182.67-148.9,221.83-267.9Q3191.64,1394.52,3195,1382.33Z" transform="translate(-583.72 -629.73)"/><g class="cls-5"><path class="cls-6" d="M3197.4,1334.59a481.24,481.24,0,0,1-17.09,67.83c-42,72.4-106.1,166.83-164.43,187.72-92.17,33-129.16,27-173.12,114.82-10.94,1.22-21.93,1.9-32.88,2,3-31.84,16.69-78.1,65.58-113.47C2948,1541.07,3121.06,1591.09,3197.4,1334.59Z" transform="translate(-583.72 -629.73)"/></g><path class="cls-3" d="M3207.2,1339.06c-.09.09-.09.22-.13.36-76.34,256.5-249.41,206.49-322,258.95-48.88,35.36-62.54,81.62-65.57,113.46a351.11,351.11,0,0,1-48.39-2.4c-11-1.22-22-2.94-32.83-5.15-2-52.73,6.74-133.41,70.46-177.19,100.08-68.73,167.59-25.32,270.43-97.95,47-33.19,101.21-124.68,101.8-282a126.43,126.43,0,0,1,16.59,29.26C3214.71,1217.68,3218.24,1275.93,3207.2,1339.06Z" transform="translate(-583.72 -629.73)"/><g class="cls-5"><path class="cls-6" d="M3197.61,1176.39c-2.08,81.13-14.92,219.33-76.15,264.51-88.64,65.39-136.21,66.21-217.07,84.7-72.13,16.51-124.77,79.73-133.23,183.83-11-1.22-22-2.94-32.83-5.15-2-52.73,6.74-133.41,70.46-177.19,100.08-68.73,167.59-25.32,270.43-97.95,47-33.19,101.21-124.68,101.8-282A126.43,126.43,0,0,1,3197.61,1176.39Z" transform="translate(-583.72 -629.73)"/></g><path class="cls-2" d="M3181,1147.13c-.59,157.33-54.81,248.82-101.8,282-102.84,72.63-170.35,29.22-270.43,97.95-63.72,43.78-72.5,124.46-70.46,177.19a401.17,401.17,0,0,1-86.78-28.08c-11.94-48.89-23.07-134.59,22.65-196.36,67.52-91.26,303-75.39,392.09-157.88,65.34-60.51,81.44-137,82.71-200.74a77,77,0,0,1,18.72,11.89A89.27,89.27,0,0,1,3181,1147.13Z" transform="translate(-583.72 -629.73)"/><path class="cls-7" d="M2740.86,1707.26l-3-.61a396.92,396.92,0,0,1-42.5-11,389.61,389.61,0,0,1-44.81-17.25l-1.06-.49-.28-1.14c-11.47-47-23.72-135.15,23.06-198.36,36-48.6,119.86-67.5,201-85.77,73.51-16.55,149.53-33.67,191.4-72.44,53.45-49.5,80.26-114.6,81.94-199l.07-3.64L3150,1119a79.29,79.29,0,0,1,19.31,12.27,91.05,91.05,0,0,1,13.63,14.38l.51.65v.83c-.59,156.24-53.5,249.14-102.82,284-52.69,37.22-96.71,44.31-139.27,51.18-42.37,6.83-82.4,13.28-131.2,46.8-61.32,42.13-71.59,118.47-69.4,175.1Zm-87.24-32.78a399,399,0,0,0,82.19,26.81c-1.74-57.5,9.58-133.57,71.61-176.19,49.69-34.13,92.12-41,133.16-47.58,42-6.78,85.47-13.79,137.25-50.35,48.25-34.09,100-125.31,100.77-279.22a86.07,86.07,0,0,0-12.43-13,75.27,75.27,0,0,0-14.84-10c-2.43,82.88-30.48,149.73-83.4,198.74-42.82,39.65-119.48,56.91-193.62,73.61-80.27,18.07-163.28,36.76-198.16,83.92C2630.91,1542.39,2642.43,1628.07,2653.62,1674.48Z" transform="translate(-583.72 -629.73)"/><g class="cls-5"><path class="cls-6" d="M3162.89,1128.28c-8.73,90.4-39.56,199.06-102,244.79-154.73,113.38-430.26,17.71-369.66,315.43a387.7,387.7,0,0,1-44.55-17.14c-11.94-48.88-23.06-134.58,22.66-196.36,67.52-91.26,303-75.38,392.08-157.87,65.35-60.51,81.45-137,82.72-200.75A76.72,76.72,0,0,1,3162.89,1128.28Z" transform="translate(-583.72 -629.73)"/></g><path class="cls-1" d="M3149,1121.22c-1.27,63.76-17.37,140.23-82.71,200.74-89.09,82.49-324.57,66.62-392.09,157.88-45.72,61.77-34.59,147.47-22.65,196.36a355.07,355.07,0,0,1-84.39-53.82,294.47,294.47,0,0,1-25.24-24.51c-4.34-69-4.11-206.85,107.82-263.83,146.34-74.53,396.15,51.6,473.44-219a55.57,55.57,0,0,1,17.59,3c2.17.72,4.43,1.53,6.74,2.53C3148,1120.72,3148.5,1121,3149,1121.22Z" transform="translate(-583.72 -629.73)"/><path class="cls-7" d="M2655.08,1680.47l-4.54-2.08a355.89,355.89,0,0,1-85-54.18,297.24,297.24,0,0,1-25.43-24.72l-.58-.63,0-.84c-8.52-135.39,28.19-224.93,109.13-266.14,49.72-25.32,109.8-27.64,173.4-30.1,121.94-4.7,248-9.57,298.81-187.42l.5-1.74,1.81,0a59.77,59.77,0,0,1,18.36,3.1c2.25.76,4.58,1.6,6.95,2.62.26.09.67.29,1.07.48l1.91.87,0,1.6c-1.69,84.61-29.78,152.73-83.49,202.47-42.82,39.65-119.48,56.91-193.62,73.61-80.27,18.07-163.28,36.76-198.16,83.92-45.61,61.63-33.52,148.22-22.26,194.35Zm-110.8-83.6a293.17,293.17,0,0,0,24.46,23.68,349.08,349.08,0,0,0,79.3,51.34c-11.06-48-21-132.41,24.22-193.49,36-48.6,119.86-67.5,201-85.77,73.51-16.55,149.53-33.67,191.4-72.44,53.12-49.19,79.92-113.79,81.9-197.43-2.32-1-4.48-1.77-6.55-2.47a55,55,0,0,0-15-2.83c-52.08,179.47-179.51,184.4-302.76,189.15-63.06,2.43-122.62,4.73-171.4,29.58C2571.94,1376.35,2536.1,1464.06,2544.28,1596.87Z" transform="translate(-583.72 -629.73)"/><g class="cls-5"><path class="cls-6" d="M3131.1,1108.34c-12.48,46-30.16,90.18-61.09,125.9-40.21,46.49-98.82,73.62-158.37,88.91s-121.2,20-181.94,29.67c-16.41,2.62-32.92,5.6-48.48,11.39-50.65,18.77-87.14,65.49-105.28,116.36-12.7,35.68-17.45,73.53-19.08,111.21-.23,5.56.32,13,.63,20.93a292.84,292.84,0,0,1-25.23-24.51c-4.34-69-4.12-206.85,107.81-263.83,146.34-74.53,396.16,51.6,473.44-219A55.25,55.25,0,0,1,3131.1,1108.34Z" transform="translate(-583.72 -629.73)"/></g><path class="cls-7" d="M2651.55,1690.71a14.6,14.6,0,0,1-6.05-1.32c-44.74-20.53-84.26-48.8-114.28-81.75a14.46,14.46,0,0,1-3.75-8.85c-8.87-140.65,30.05-234.07,115.68-277.68,52.08-26.53,116.31-29,178.42-31.41,123-4.75,239.27-9.24,287.66-178.67a14.51,14.51,0,0,1,13.82-10.52h.5c9.17,0,18.84,2.18,29.54,6.66.52.19,1.54.65,2.46,1.11a14.49,14.49,0,0,1,7.95,13.23c-1.73,88-31.13,159-87.37,211.11-45.21,41.85-123.47,59.47-199.15,76.51-78.12,17.6-158.9,35.78-191.13,79.34-42.67,57.67-31,140.23-20.22,184.3a14.51,14.51,0,0,1-14.08,17.94Zm-95.45-98.89c20.85,22,46.46,41.69,75.25,57.86-8.39-51.16-9.65-123.26,31.19-178.46,38.64-52.22,120.94-70.75,208.07-90.37,71.94-16.2,146.34-33,185.82-69.51,48.77-45.18,74.26-104.19,77.75-180.17l-.68-.19c-56.49,177.86-191.45,183.09-310.81,187.7-61.7,2.38-120,4.63-166.38,28.27C2582.94,1384.31,2549.24,1466.68,2556.1,1591.82Z" transform="translate(-583.72 -629.73)"/><path class="cls-7" d="M2738.33,1718.78a14.39,14.39,0,0,1-2.84-.28,409.85,409.85,0,0,1-90-29.1,14.5,14.5,0,0,1-8.06-9.75c-12-49-24.63-141.25,25.08-208.43,38.64-52.22,120.94-70.75,208.07-90.37,71.94-16.2,146.34-33,185.82-69.51,50.94-47.18,76.48-109.47,78.08-190.41a14.5,14.5,0,0,1,20.38-13c14.34,6.37,27,16.56,37.61,30.28a14.45,14.45,0,0,1,3,8.93c-.62,160.84-56.16,257.23-107.92,293.8-55,38.82-100.41,46.15-144.34,53.23-41,6.61-79.71,12.85-126.27,44.82-56.78,39-66.24,111.09-64.18,164.7a14.49,14.49,0,0,1-14.49,15ZM2664,1665.9a379.19,379.19,0,0,0,59.58,20.21c.73-58.16,16-129.12,77-171,51.93-35.66,95.73-42.72,138.08-49.55,42.53-6.86,82.71-13.34,132.22-48.28,43.25-30.56,93.89-118.18,95.61-265q-2.11-2.46-4.36-4.65c-6.57,76-35.43,138.18-86,185-45.21,41.85-123.47,59.47-199.15,76.51-78.12,17.6-158.9,35.78-191.13,79.34C2645.31,1543.27,2653.84,1620.53,2664,1665.9Z" transform="translate(-583.72 -629.73)"/><path class="cls-7" d="M2813.11,1726.37a391.82,391.82,0,0,1-77.65-7.88,14.48,14.48,0,0,1-11.61-13.65c-2.34-60.89,9.07-143.23,76.73-189.71,51.93-35.66,95.73-42.72,138.08-49.55,42.53-6.86,82.71-13.34,132.22-48.28,43.76-30.92,95.08-120.24,95.66-270.23a14.5,14.5,0,0,1,26-8.81c33,42.68,43.78,118.68,28.95,203.29a14.47,14.47,0,0,1-.37,1.58l-.12.41h0c-57.57,193.37-170.6,220.43-253.13,240.2-30.29,7.25-56.44,13.51-74.23,26.38-44.25,32-56.85,73.71-59.63,103.06a14.49,14.49,0,0,1-14.17,13.13Q2816.48,1726.37,2813.11,1726.37Zm-60.54-34.18a364.17,364.17,0,0,0,54.28,5.13c5.73-33.9,23-76.87,69.77-110.69,22.45-16.24,52.58-23.45,84.48-31.1,79.8-19.11,179.11-42.88,231.94-219.77,8.35-48.19,7.95-92.72-.5-128.11-12.26,124.83-60,201.6-104.93,233.33-55,38.82-100.41,46.15-144.34,53.23-41,6.61-79.71,12.85-126.27,44.82C2764.21,1575.29,2752.32,1640.17,2752.57,1692.19ZM3207.18,1339h0Z" transform="translate(-583.72 -629.73)"/><path class="cls-7" d="M2819.56,1726.31a14.48,14.48,0,0,1-14.43-15.86c3.34-35.31,18.46-85.45,71.49-123.82,22.45-16.24,52.58-23.45,84.48-31.1,79.88-19.12,179.29-42.93,232.08-220.26a14.5,14.5,0,0,1,28.18,6.64c-20.69,118.13-96.67,271.48-247.9,347.58-46.95,23.62-98.65,36-153.69,36.82Zm305.13-214.65c-51.42,46.83-109.21,60.67-156.84,72.08-30.29,7.25-56.44,13.51-74.23,26.38-36.46,26.38-51.43,59.33-57.13,86.53,44.21-2.8,85.83-13.89,123.93-33.06C3032.66,1627.23,3086.6,1571.9,3124.69,1511.66Z" transform="translate(-583.72 -629.73)"/><path class="cls-7" d="M2813.08,1729.77a395.66,395.66,0,0,1-78.3-7.94,413,413,0,0,1-90.68-29.34c-45.17-20.73-85.06-49.28-115.4-82.56a18,18,0,0,1-4.63-10.93c-9-142.13,30.58-236.64,117.53-280.92,52.76-26.87,117.36-29.36,179.84-31.77,121.78-4.71,236.81-9.15,284.52-176.22a17.91,17.91,0,0,1,17.06-13h.53c9.57,0,19.61,2.24,30.66,6.84.79.31,1.63.69,2.42,1.08,14.72,6.61,27.69,17.09,38.56,31.14v0c33.53,43.42,44.6,120.41,29.61,206-.07.39-.15.77-.24,1.15-21,118.85-97.58,272.74-249.59,349.24-47.4,23.85-99.6,36.36-155.16,37.18Q2816.46,1729.77,2813.08,1729.77Zm-253.65-139.38c26.57,27.81,60.87,51.79,99.58,69.55a377.6,377.6,0,0,0,82.84,26.8,364.17,364.17,0,0,0,77.39,7.18c50.15-.74,97.12-12,139.65-33.37,140.5-70.7,211.23-213.85,230.56-324.23a10.46,10.46,0,0,1,.24-1.14c12.88-74.35,4.16-142.16-22.82-177.1h0c-7.29-9.44-15.74-16.33-25.13-20.5l-.8-.38q-2.76-1.15-5.23-2c-57.76,177-193.1,182.23-312.89,186.86-61.31,2.36-119.22,4.6-165,27.9C2586,1386.55,2552.94,1467.42,2559.43,1590.39Z" transform="translate(-583.72 -629.73)"/><path class="cls-7" d="M3207.19,1357a17.91,17.91,0,0,1-17.14-23.09c1.15-3.81,2.25-7.69,3.36-11.7a17.9,17.9,0,0,1,34.51,9.51c-1.18,4.29-2.36,8.46-3.61,12.56A17.9,17.9,0,0,1,3207.19,1357Z" transform="translate(-583.72 -629.73)"/><path class="cls-6" d="M1986.06,2341.51c-399.78-5-565.7-191.79-621-381.81-48.48-166-12.48-334.52,25.58-386.34,0,0,287.27,69,739.85-55a951.94,951.94,0,0,1,104.58-22.62c377.46-58.47,538.39,181.58,552.39,326.16C2802.65,1979.09,2735.21,2351,1986.06,2341.51Z" transform="translate(-583.72 -629.73)"/><path class="cls-7" d="M2014.12,2344.1c-9.3,0-18.63-.06-28.1-.17-183.83-2.31-332.22-43.36-441.06-122-89.15-64.42-150.46-152.42-182.24-261.56-47.51-162.68-14.81-333,26-388.44l.95-1.3,1.56.38c2.88.69,292,67.44,738.65-55a959.48,959.48,0,0,1,104.85-22.67c208-32.23,338.27,28.3,411,84.75,96.17,74.68,137.55,174.78,144.21,243.55,5.25,54.35,5.44,193.84-106,315.07C2557.21,2274.37,2332,2344.1,2014.12,2344.1Zm-622.48-768c-39.75,56-71,223-24.28,383,49.62,170.47,197.24,374.78,618.72,380.07,331.44,4.11,564.83-65,694.17-205.67,110.16-119.8,110-257.63,104.78-311.33-6.56-67.78-47.4-166.47-142.36-240.21-71.93-55.86-201-115.75-407.25-83.79a956.2,956.2,0,0,0-104.31,22.56C1700.29,1638.76,1415.41,1581.27,1391.64,1576.07Z" transform="translate(-583.72 -629.73)"/><g class="cls-9"><path class="cls-7" d="M2773.4,1852.86c-44.09,172-219,386.46-790.19,379.24-231.46-2.93-384.49-66.78-483.08-156.89-45.1-41.23-21.05-116,39.57-123.64q35.1-4.42,70.71-11.2c315.78-60.26,559.54-242.58,624.64-444.67a951.94,951.94,0,0,0-104.58,22.62c-452.58,124.08-739.85,55-739.85,55-21.68,29.51-42.66,96.91-47.78,180.12a628.38,628.38,0,0,1-3.75-89.28c-47.38,213.6,4.92,667.5,631.2,675.42C2671.15,2348.44,2775.34,2023.56,2773.4,1852.86Z" transform="translate(-583.72 -629.73)"/></g><path class="cls-7" d="M2014.05,2359.59q-14,0-28.23-.17c-375.11-4.74-535-168.64-603.18-305.31-97.49-195.58-56-423.84-6.46-491.36a18,18,0,0,1,18.6-6.82h0c2.84.68,288.81,66.36,731-54.85,258.19-70.79,419.82-11.6,509.94,50.51,113.44,78.19,162,190,169.58,268.52,5.45,56.43,5.64,201.24-110.07,327.08C2565.54,2288.18,2336.45,2359.59,2014.05,2359.59ZM1398.9,1593.4c-40.83,70.39-69.76,273.14,15.78,444.75,91.32,183.18,289,281.9,571.59,285.46,326.9,4.22,556.34-63.38,682.57-200.65,105.94-115.21,105.77-247.76,100.78-299.4-6.5-67.3-50.81-171.2-154.26-242.49-83.87-57.8-235.24-112.61-480.16-45.47C1730.4,1646.58,1459.47,1605.27,1398.9,1593.4Zm-8.29-20.06h0Z" transform="translate(-583.72 -629.73)"/><path class="cls-6" d="M1776.06,2149.73c-4.09,1.44-8.15,3-12.21,4.61h0c-209.48,82-412,334.72-532.64,225.46-30.14-27.27-38.38-60-31.89-95v-.06c28-151.19,329.4-346.64,329.4-346.64Z" transform="translate(-583.72 -629.73)"/><g class="cls-9"><path class="cls-11" d="M1763.8,2154.34c-209.48,82-412,334.72-532.64,225.46-30.14-27.27-38.38-60-31.89-95,23.44,103.37,201,16,330.76-77.17C1657.75,2115.9,1760.54,2153.09,1763.8,2154.34Z" transform="translate(-583.72 -629.73)"/><path class="cls-7" d="M1300.89,2409.43c-25.94,0-49.81-8.33-71.35-27.84-28.79-26-39.78-58.75-32.65-97.23l2.14-11.55,2.59,11.45c4.58,20.2,15.56,33.73,32.63,40.2,62.2,23.63,192.86-45.88,294.37-118.79,129.15-92.75,231.74-55.23,236-53.59l5.84,2.23-5.82,2.28c-76.28,29.87-150.72,81.81-222.7,132C1450.93,2352.16,1368.85,2409.43,1300.89,2409.43Zm-100.77-113.37c-3,32.06,7.94,59.59,32.66,82,75.17,68,182.33-6.75,306.44-93.35,70.21-49,142.74-99.61,217.31-130-24.46-6.58-116.08-23.34-225.09,55-102.53,73.63-234.9,143.64-298.9,119.39C1217.1,2323.13,1206.23,2312.08,1200.12,2296.06Z" transform="translate(-583.72 -629.73)"/></g><path class="cls-7" d="M1531.9,1943.13c-15.75,21.5-34.78,37.84-54.33,53.48-19.37,15.87-39.57,30.59-59.42,45.77s-38.79,31.48-57.25,48.19-36.29,34-53.26,52a586.7,586.7,0,0,0-47.26,56.34c-14.32,19.59-26.83,40.29-35.39,61.73s-12.55,43.74-7.93,63.6a75.64,75.64,0,0,0,12.85,27.59,53.19,53.19,0,0,0,4.95,6.16,59.6,59.6,0,0,0,5.55,5.83l2.91,2.84,3.14,2.46,6.24,5c17.38,11.74,37.92,16.81,60,13.92,22-2.42,44.55-10.41,66.29-20.82,43.67-21,85.13-49.47,126.53-78,41.4-28.7,82.8-58.26,126.16-85.63l16.33-10.17,16.58-9.89c11.2-6.39,22-13.54,33.38-19.8a179.53,179.53,0,0,1,35.82-15.55c12.57-3.79,26-5.84,40.22-4a6.68,6.68,0,0,1,4.3,10.91l-.27.32a94.8,94.8,0,0,1-14.64,13.73,155.4,155.4,0,0,1-15.38,10.83c-5.31,3.08-10.55,6.4-16,9.27-2.69,1.48-5.43,2.82-8.17,4.2s-5.46,2.85-8.22,4.2c-11.12,5.26-22.27,10.73-33,16.9l-16,9.5-15.87,9.88c-42.19,26.63-83.16,55.86-124.87,84.78-41.82,28.75-84,58-131.59,80.92-23.79,11.31-49.49,20.88-77.85,24.07-7,1.14-14.37.74-21.59.87-3.64-.15-7.34-.73-11-1.11l-5.5-.67c-1.83-.32-3.63-.85-5.45-1.28-3.62-.93-7.25-1.83-10.85-2.84l-10.41-4.26c-1.7-.76-3.5-1.38-5.13-2.27l-4.81-2.81c-3.19-1.91-6.46-3.73-9.53-5.78l-8.61-6.81-4.27-3.43-3.9-3.77a92.24,92.24,0,0,1-7.52-7.89A86.91,86.91,0,0,1,1201,2373a111.41,111.41,0,0,1-18.84-40.72c-3.48-14.75-3.49-29.88-1.53-44.13a176.93,176.93,0,0,1,11-40.63c10.24-25.55,24.27-48.4,39.73-69.62a623.08,623.08,0,0,1,50.16-59.84c17.75-18.8,36.25-36.71,55.26-54s38.6-33.75,58-50.43,39.31-32.82,60.65-47c10.63-7.11,21.4-14,33-19.75s23.53-10.83,36.91-13.82a6.37,6.37,0,0,1,6.54,10Z" transform="translate(-583.72 -629.73)"/><path class="cls-6" d="M2954.51,2228.85c-73.29,42.35-160.47-36.34-201.92-69.74s-134.93,34.94-252.36-75.8c-45.43-42.87-67.4-95.64-76.81-145.94-17.12-91.64,7.4-175,7.4-175l236.7-125c260.3,97.22,347.46,333.47,337,478.46C3000.54,2170.84,2982.49,2212.72,2954.51,2228.85Z" transform="translate(-583.72 -629.73)"/><g class="cls-9"><path class="cls-7" d="M2954.51,2228.85c-73.29,42.35-160.47-36.34-201.92-69.74s-134.93,34.94-252.36-75.8c-45.43-42.87-67.4-95.64-76.81-145.94v-.11s-20.65-85.51,9.83-156.59c0,0,68.78,294.67,329.67,235.19,0,0,125.52,184.7,241.55,99.92C3000.54,2170.84,2982.49,2212.72,2954.51,2228.85Z" transform="translate(-583.72 -629.73)"/></g><path class="cls-7" d="M2424.63,1901.48c11.65,28.93,20,56.25,31.16,82.39,11.4,25.88,25.14,50.47,43.47,71.82,4.42,5.48,9.47,10.35,14.43,15.41,5.22,4.92,10.55,9.73,16.09,14.2a235.05,235.05,0,0,0,35,23.67,186.77,186.77,0,0,0,79.42,22.85c14.07,1,28.44.51,43.54-.18,7.56-.33,15.28-.75,23.52-.77a125.88,125.88,0,0,1,26.5,2.33c2.38.51,4.85,1.27,7.26,1.94,2.46.93,4.94,1.8,7.37,3a57.32,57.32,0,0,1,7.17,4.07l3.41,2.42c.63.45,1.08.8,1.4,1.07l1.13.91,17.64,14.37c11.61,9.4,23.26,18.36,35.23,26.58,23.81,16.28,49.42,30,75.15,34.38,12.78,2,25.33,1.67,36.88-2a70.81,70.81,0,0,0,16.42-7.41,52.46,52.46,0,0,0,12.49-11.35c7.67-9.29,13.4-21.55,17.68-34.44a209.67,209.67,0,0,0,8.55-41c3.19-28.28,2.06-57.5-2-86.28-8.29-57.67-28.35-113.87-57.34-164.71a486.43,486.43,0,0,0-112.59-133.66c-11.36-9.25-23-18.16-35.12-26.43a394.32,394.32,0,0,0-37.91-22.29c-12.92-6.89-25.63-14.16-38.37-21.67-12.57-7.93-25.1-16.09-36.76-27.79l-.12-.13a6.48,6.48,0,0,1,4.3-11c16.66-.75,32.36,2.32,47.23,7.43a229.15,229.15,0,0,1,42.6,20c26.66,16.67,52.6,34.43,76.94,54.33A522,522,0,0,1,2957.25,1857c31.13,54.63,52.68,114.81,61.7,177.42,4.45,31.3,5.78,63.27,2.18,95.38a245.39,245.39,0,0,1-10.09,48c-5.31,15.83-12.36,31.71-24,46a87.84,87.84,0,0,1-21.17,19,105.3,105.3,0,0,1-25,11.32c-17.49,5.5-36.09,5.86-53.23,3.07s-33.11-8.7-47.91-15.75a316.73,316.73,0,0,1-41.64-24.42c-13.06-9-25.5-18.56-37.48-28.26L2743,2174.4l-1.08-.88a6.31,6.31,0,0,0-.87-.65l-1.24-.86a21.67,21.67,0,0,0-2.72-1.56c-1-.47-2.12-.82-3.18-1.28-1.27-.3-2.41-.71-3.75-1-10.79-2.31-25.68-1.45-40.78-.78s-31.27,1.28-47.51.14a223,223,0,0,1-94.2-27.14,276.51,276.51,0,0,1-40.38-27.21c-3.1-2.57-6.31-5-9.31-7.68l-9-8c-5.87-5.56-11.88-11.14-17.32-17.22a242.44,242.44,0,0,1-29.77-38.89,231.64,231.64,0,0,1-20.78-44.14c-10.82-30.51-15-63.27-8.38-94.82a6.23,6.23,0,0,1,11.86-1.08Z" transform="translate(-583.72 -629.73)"/><path class="cls-6" d="M2244.92,1267.37c53.65,270.56-205.42,492.37-565.13,563.7S996,1796.24,942.32,1525.68,1125.79,922.6,1485.5,851.27,2191.27,996.8,2244.92,1267.37Z" transform="translate(-583.72 -629.73)"/><g class="cls-9"><path class="cls-7" d="M1685.85,1828.87c-359.68,71.3-683.81-34.85-737.46-305.43-.36-1.69-.67-3.38-1-5.12,100.34,205,390.31,280.53,708.05,217.55,359.16-71.25,618-292.46,565.42-562.46a405.67,405.67,0,0,1,30.13,91.73C2304.66,1535.72,2045.58,1757.52,1685.85,1828.87Z" transform="translate(-583.72 -629.73)"/></g><path class="cls-7" d="M1468,1870.49c-102.27,0-197.26-15.85-278.16-47.22-146.51-56.79-238.16-158.5-265.06-294.11-27.24-137.4,16.49-292.81,120-426.37,107.69-139,263-234.52,437.27-269.08s354.29-5.49,506.85,81.86c146.64,84,246.36,210.92,273.61,348.32,26.89,135.61-19,264.59-132.76,373-105.27,100.32-263.82,175.52-446.45,211.74C1609.61,1863.23,1537.13,1870.49,1468,1870.49Zm158.3-1015.17a705.59,705.59,0,0,0-137.3,13.5c-362.72,71.93-578.5,404.28-529.1,653.38,39,197,236.39,313,505.54,313,66.37,0,137.08-7,210.89-21.69,373.14-74,599.74-297.15,551.05-542.66-25.23-127.23-118.64-245.4-256.28-324.21A693.68,693.68,0,0,0,1626.28,855.32Z" transform="translate(-583.72 -629.73)"/><path class="cls-7" d="M1468,1870.49c-102.27,0-197.26-15.85-278.16-47.22-146.51-56.79-238.16-158.5-265.06-294.11-27.24-137.4,16.49-292.81,120-426.37,107.69-139,263-234.52,437.27-269.08s354.29-5.49,506.85,81.86c146.64,84,246.36,210.92,273.61,348.32,26.89,135.61-19,264.59-132.76,373-105.27,100.32-263.82,175.52-446.45,211.74C1609.61,1863.23,1537.13,1870.49,1468,1870.49Zm158.3-1015.17a705.59,705.59,0,0,0-137.3,13.5c-362.72,71.93-578.5,404.28-529.1,653.38,39,197,236.39,313,505.54,313,66.37,0,137.08-7,210.89-21.69,373.14-74,599.74-297.15,551.05-542.66-25.23-127.23-118.64-245.4-256.28-324.21A693.68,693.68,0,0,0,1626.28,855.32Z" transform="translate(-583.72 -629.73)"/><path class="cls-1" d="M1571.19,1039.07a157.65,157.65,0,0,1-35.52,9.88c-69.17,11.3-101.84-21-110.09-46.88C1446.75,1013.19,1503.68,1039.42,1571.19,1039.07Z" transform="translate(-583.72 -629.73)"/><path class="cls-7" d="M1569.84,1057c-70.64,0-130.17-27.27-152.59-39.06a17.9,17.9,0,0,1-8.5-9.75c-.53-1.48-1-3-1.36-4.48l-.14-.54c-4.75-19.69-8.18-46.94-10-79.3a17.89,17.89,0,0,1,28.06-15.73c.82.56,86,58,197.2,41.46a17.91,17.91,0,0,1,20.5,16.7c1.53,27.09-12.58,63.8-56.75,85.65-3,1.5-5.82,2.75-8.53,3.81a17.92,17.92,0,0,1-6.43,1.23Zm1.35-17.91h0Zm-130.28-49.29c23.49,11.49,71.26,30.87,126.67,31.39.86-.39,1.76-.82,2.71-1.3l.06,0c17.76-8.77,28-20.77,33.05-32.19-73.46,5.15-133.57-16.39-167.78-32.86A352.84,352.84,0,0,0,1440.91,989.77Z" transform="translate(-583.72 -629.73)"/><path class="cls-4" d="M1598.48,1022.86a100.76,100.76,0,0,1-20.22,13c-2.26,1.13-4.61,2.22-7,3.17-67.52.36-124.45-25.87-145.62-37a36.14,36.14,0,0,1-1-3.57c-4.48-18.54-7.73-45.22-9.45-75.66,0,0,72.54,50.25,174.24,47.58a293.66,293.66,0,0,0,35.78-3.12C1626,983.47,1619.28,1005.4,1598.48,1022.86Z" transform="translate(-583.72 -629.73)"/><path class="cls-7" d="M1569.83,1041.47c-67.18,0-124-26-145.36-37.28l-.81-.42-.33-.85a29.45,29.45,0,0,1-.9-3l-.21-.81c-4.47-18.5-7.76-44.82-9.53-76.15l-.28-4.94,4.07,2.82c.71.49,73.25,49.72,172.8,47.14a288,288,0,0,0,35.47-3.09l2.63-.4.15,2.65c1.15,20.63-9.13,42.15-27.5,57.57a102.92,102.92,0,0,1-20.7,13.34c-2.59,1.3-5,2.36-7.25,3.25l-.86.16Zm-142.27-41.11c21.7,11.3,77,36.27,142.27,36.27h.92c2-.8,4.12-1.75,6.43-2.91a98.62,98.62,0,0,0,19.75-12.71h0c23-19.27,25.79-41.48,25.84-50.94a294.67,294.67,0,0,1-33.36,2.74c-87.88,2.35-154.83-35.06-171.61-45.4,1.8,29,4.94,53.27,9.1,70.51l.21.79C1427.25,999.25,1427.39,999.81,1427.56,1000.36Z" transform="translate(-583.72 -629.73)"/><g class="cls-5"><path class="cls-6" d="M1598.48,1022.86c-2.53-18.09-5.65-35.59-9.14-52.46a293.66,293.66,0,0,0,35.78-3.12C1626,983.47,1619.28,1005.4,1598.48,1022.86Z" transform="translate(-583.72 -629.73)"/></g><path class="cls-3" d="M1625.12,967.28a293.66,293.66,0,0,1-35.78,3.12c-101.7,2.67-174.24-47.58-174.24-47.58a959.86,959.86,0,0,1-.23-99.49s46.18,48.16,153.45,67c13.34,2.35,27.63,4.25,42.87,5.51,7.32,27.46,12.25,52,13.83,69.92C1625.07,966.24,1625.12,966.78,1625.12,967.28Z" transform="translate(-583.72 -629.73)"/><g class="cls-5"><path class="cls-6" d="M1625.12,967.28a293.66,293.66,0,0,1-35.78,3.12,802,802,0,0,0-21-80.09c13.34,2.35,27.63,4.25,42.87,5.51,7.32,27.46,12.25,52,13.83,69.92C1625.07,966.24,1625.12,966.78,1625.12,967.28Z" transform="translate(-583.72 -629.73)"/></g><path class="cls-2" d="M1611.19,895.82c-15.24-1.26-29.53-3.16-42.87-5.51-107.27-18.82-153.45-67-153.45-67,1.81-36.81,5.88-72.94,12.62-102.79,0,0,38.17,43.82,99.31,66.16a206.15,206.15,0,0,0,52.46,12A940,940,0,0,1,1611.19,895.82Z" transform="translate(-583.72 -629.73)"/><path class="cls-7" d="M1614.4,898.52l-3.42-.29c-14.59-1.21-29.09-3.08-43.09-5.54-106.81-18.73-154.3-67.2-154.76-67.69l-.72-.75,0-1c1.94-39.37,6.32-75.06,12.67-103.2l1-4.65,3.13,3.59c.38.44,38.51,43.63,98.32,65.48a204.81,204.81,0,0,0,51.85,11.85l1.49.13.54,1.39a936,936,0,0,1,32,97.41Zm-197.06-76.15c6.27,6,53.36,48.36,151.39,65.56,12.76,2.25,25.94,4,39.23,5.19A936.07,936.07,0,0,0,1577.55,801,209.78,209.78,0,0,1,1526,789c-51.06-18.66-86.63-52.58-97.1-63.42C1423.16,752.43,1419.18,785.76,1417.34,822.37Z" transform="translate(-583.72 -629.73)"/><g class="cls-5"><path class="cls-6" d="M1611.19,895.82c-15.24-1.26-29.53-3.16-42.87-5.51A762.52,762.52,0,0,0,1526.8,786.7a206.15,206.15,0,0,0,52.46,12A940,940,0,0,1,1611.19,895.82Z" transform="translate(-583.72 -629.73)"/></g><path class="cls-1" d="M1579.26,796.08a206.15,206.15,0,0,1-52.46-12c-61.14-22.34-99.31-66.16-99.31-66.16,5.47-24.56,12.71-44.82,22-57.7,6-8.37,12.94-13.66,20.76-14.93C1504.91,639.65,1547.51,714.4,1579.26,796.08Z" transform="translate(-583.72 -629.73)"/><g class="cls-5"><path class="cls-6" d="M1584.09,798.69a206.15,206.15,0,0,1-52.46-12c-27.58-56.53-56.71-98-77.28-123.86,6-8.37,12.93-13.66,20.75-14.93C1509.75,642.26,1552.35,717,1584.09,798.69Z" transform="translate(-583.72 -629.73)"/></g><path class="cls-7" d="M1579.28,813.19q-.66,0-1.32-.06c-95.66-8.75-158.78-80-161.42-83.07a14.48,14.48,0,0,1-3.22-12.67c11.63-52.27,29.49-79.67,54.59-83.78,48.65-8.09,94.8,82.52,124.88,159.82a14.5,14.5,0,0,1-13.51,19.76Zm-135.89-97c13.84,13.77,55.51,51,112.8,64.14-38-89.89-70.25-120.2-83.6-118.11C1464.44,663.56,1452.74,678.57,1443.39,716.2Z" transform="translate(-583.72 -629.73)"/><path class="cls-7" d="M1611.2,910.3c-.4,0-.81,0-1.21,0-141.82-11.91-203-74.26-205.57-76.9a14.49,14.49,0,0,1-4-10.75c2-40,6.43-76.44,12.92-105.25a14.49,14.49,0,0,1,25.08-6.34c.56.63,58.37,65.57,142.18,73.23a14.52,14.52,0,0,1,12.2,9.19,958.83,958.83,0,0,1,32.42,98.64,14.5,14.5,0,0,1-14,18.22Zm-181.47-93.07c14.5,12.24,65.57,49.55,161.73,61.91-6.45-21.91-14.11-44.66-22.57-67-60.65-8.18-107.25-40.89-132.18-62.48C1433.5,769.84,1431.13,792.71,1429.73,817.23Z" transform="translate(-583.72 -629.73)"/><path class="cls-7" d="M1581.16,985c-100.42,0-171-47.94-174.32-50.28a14.51,14.51,0,0,1-6.22-11.09,958.24,958.24,0,0,1-.21-101,14.5,14.5,0,0,1,24.95-9.3c.51.52,57.08,57.15,187.05,68.06a14.51,14.51,0,0,1,12.8,10.71c7.67,28.76,12.6,53.79,14.26,72.38.09,1,.16,2,.15,3a14.5,14.5,0,0,1-12.37,14.2A313,313,0,0,1,1581.16,985Zm44-17.74h0Zm-195.94-52.74c20.15,12,90.51,48.79,179.91,40.11-1.91-12.88-5.11-28.4-9.37-45.36-87.48-9.07-142.72-37.36-171.35-56.75C1428,873.58,1428.22,894.55,1429.18,914.54Z" transform="translate(-583.72 -629.73)"/><path class="cls-7" d="M1569.84,1053.57c-69.88,0-128.81-27-151-38.67a14.48,14.48,0,0,1-6.88-7.9c-.51-1.38-.9-2.8-1.27-4.19l-.15-.56c-4.68-19.4-8.08-46.45-9.91-78.6a14.51,14.51,0,0,1,22.73-12.75c.84.58,87,58.78,199.64,42a14.5,14.5,0,0,1,16.61,13.52c1.46,26-12.18,61.31-54.87,82.4-2.94,1.47-5.64,2.68-8.26,3.71a14.68,14.68,0,0,1-5.2,1Zm1.35-14.51h0Zm-133.26-47c23.3,11.55,72.78,32.1,130.37,32.46,1.1-.49,2.26-1,3.51-1.65l0,0c21.39-10.56,32.45-25.36,36.72-39.06-79.34,6.95-143.62-17.92-177-34.8A365.4,365.4,0,0,0,1437.93,992.1Z" transform="translate(-583.72 -629.73)"/><path class="cls-7" d="M1508.23,1065.8c-56.61,0-87.16-30.14-96.46-59.33a14.49,14.49,0,0,1,20.56-17.23c20.28,10.66,74.09,35.33,137.5,35.33.45,0,.94,0,1.36,0a14.5,14.5,0,0,1,5.61,27.86,172.18,172.18,0,0,1-38.79,10.83A184.43,184.43,0,0,1,1508.23,1065.8Z" transform="translate(-583.72 -629.73)"/><path class="cls-7" d="M1509.27,1069.09c-55.62,0-90.14-28.78-100.65-61.3-.48-1.36-.86-2.75-1.23-4.11l-.14-.54a347.12,347.12,0,0,1-7.07-43.21c-1-8.78-1.78-18.21-2.44-28l-.12-1.85c-.14-2.06-.28-4.11-.39-6.22a956.81,956.81,0,0,1-.21-101.4c2-40.22,6.46-76.82,13-105.82,12-53.74,30.72-82,57.35-86.35,51-8.28,98.06,83.47,128.6,161.94a961.62,961.62,0,0,1,32.53,99c7.72,28.91,12.68,54.14,14.36,72.94.1,1,.17,2.06.17,3.06v0c0,1.24.07,2.5,0,3.78,0,.5,0,1.1,0,1.68,0,1.21-.11,2.19-.18,3.18-.07.78-.13,1.47-.21,2.17-.11,1.07-.25,2.11-.41,3.16-.13.87-.21,1.41-.3,2-.29,1.65-.63,3.31-1,5-.07.3-.2.78-.33,1.26-.36,1.36-.72,2.63-1.12,3.92l-.47,1.42s-.17.51-.18.56c-.41,1.18-.84,2.37-1.3,3.55l-.73,1.84c-.58,1.4-1.26,2.89-2,4.4-.14.31-.35.74-.57,1.16-.7,1.43-1.69,3.26-2.76,5.07-.07.14-.41.7-.49.83-1,1.57-1.89,3-2.9,4.51l-.73,1-.17.24c-1,1.44-2.09,2.86-3.22,4.27l-.72.93a103.43,103.43,0,0,1-9.61,10.17l-.67.59-.78.7c-.71.65-1.42,1.29-2.17,1.92-.53.43-1,.77-1.39,1.1l-2,1.61c-1.44,1.11-2.9,2.18-4.41,3.23-.73.51-1.37,1-2,1.39-1.44,1-2.94,1.89-4.48,2.82l-.49.3c-.61.37-1.21.74-1.84,1.11-1.8,1-3.62,2-5.47,2.93-.59.33-1.12.62-1.68.89-2.93,1.46-5.73,2.72-8.45,3.78a175.36,175.36,0,0,1-39.14,10.89A182.7,182.7,0,0,1,1509.27,1069.09Zm-35-403.59a6.41,6.41,0,0,0-1.09.09c-5.81.95-18.3,14.41-28.19,58.84-6.08,27.07-10.29,61.55-12.17,99.78a925,925,0,0,0,.2,97.59c.11,2,.24,3.94.37,5.88l.12,1.86c.62,9.28,1.4,18.21,2.31,26.49a314.64,314.64,0,0,0,6.16,38.24l.07.22a13,13,0,0,0,.41,1.48l.23.66c6.89,21.65,34.65,43.72,90.15,34.66a140.3,140.3,0,0,0,31.48-8.73c2.11-.83,3.94-1.66,6-2.7l1.13-.61c1.45-.75,2.8-1.45,4.07-2.17l1.64-1c1.12-.68,2.17-1.32,3.17-2l1.11-.77c1.31-.92,2.31-1.64,3.28-2.39l2.08-1.63c.6-.48,1-.83,1.35-1.17l.69-.62.48-.43a62.14,62.14,0,0,0,6.2-6.55c.06-.06.41-.52.47-.6.71-.89,1.37-1.76,2-2.64,0-.06.13-.19.14-.19l.36-.52c.66-1,1.24-1.88,1.79-2.78l.32-.52c.63-1.09,1.22-2.15,1.74-3.22l.34-.7c.31-.66.71-1.54,1.08-2.42l.33-.83c.36-.93.62-1.65.86-2.35l.39-1.15c.17-.57.38-1.3.57-2,0-.11.18-.68.22-.8.25-1,.42-1.91.58-2.81,0,0,.14-1,.15-1,.09-.59.17-1.17.23-1.75l.11-1.12c0-.46.07-1,.08-1.53l0-.95c0-.72,0-1.35,0-2,0-.25,0-.68,0-1,0-.13,0-.29,0-.31-1.48-16.56-6.21-40.32-13.3-66.91a929.2,929.2,0,0,0-31.3-95.25C1522.61,702.42,1487.84,665.5,1474.22,665.5Zm138.34,342.14h0Zm-5.34-40.18a.18.18,0,0,0,0,0Z" transform="translate(-583.72 -629.73)"/><path class="cls-6" d="M1766.86,943.49s10.28-237.13,103.83-251.2S2084.34,990,2091,1068.35C2091,1068.35,1949.32,1099.54,1766.86,943.49Z" transform="translate(-583.72 -629.73)"/><path class="cls-7" d="M1760.89,943.24c-8.37-16.32-9.24-32.38-8.43-48.23.66-15.9,3.67-31.55,7.23-47.08s6.87-31.14,11.11-46.68A369.17,369.17,0,0,1,1786.47,755c6.47-15.22,14.26-30.32,25.12-44.42,10.75-13.94,26-27.19,45.47-33.49l7.43-1.75c1.25-.27,2.46-.56,3.74-.79l4.14-.41a66.56,66.56,0,0,1,8.23-.11,76,76,0,0,1,8,1,84.58,84.58,0,0,1,27.4,10.78c15.82,9.64,28,21.66,39,34,21.82,25,38.83,52.11,54.46,79.75s29.21,56.12,41.77,85,23.91,58.2,34,88.1c2.52,7.48,4.93,15,7.29,22.57s5.32,15,7.78,22.6a81.72,81.72,0,0,1,4.06,23.92c0,8.27-1.45,17.22-7.36,26a7.63,7.63,0,0,1-10.59,2.08,6.26,6.26,0,0,1-.81-.63l-.49-.44a59.64,59.64,0,0,1-14.77-19.81,101.51,101.51,0,0,1-6.93-21.22c-1.59-7.32-2.92-14.8-5.15-22s-4.54-14.46-7-21.66c-9.72-28.81-20.77-57.3-32.91-85.25S1993,843.5,1978.2,817.13s-31-51.84-50.07-73.55c-9.47-10.76-19.84-20.55-30.57-27a49.21,49.21,0,0,0-15.55-6.3c-1.24-.33-2.38-.27-3.56-.49a31.37,31.37,0,0,0-3.37.07l-1.65.14-1.92.47c-1.29.32-2.59.6-3.9.86-10.09,3.36-19.74,10.82-27.81,21.32s-14.74,23-20.35,36.31a334.63,334.63,0,0,0-14.11,41.72,341.35,341.35,0,0,0-9.27,44c-2,14.94-3.57,29.94-6.63,44.8-2.79,14.92-6.63,29.71-16.62,44.33l-.16.23a6.86,6.86,0,0,1-9.54,1.79A7.09,7.09,0,0,1,1760.89,943.24Z" transform="translate(-583.72 -629.73)"/><path class="cls-1" d="M1845,911.29s-3.38-116,37.14-119.77,103.53,153.16,109.06,191.8C1991.16,983.32,1930.11,993.9,1845,911.29Z" transform="translate(-583.72 -629.73)"/><path class="cls-7" d="M1983.37,986.23c-19.54,0-72-7.16-140.09-73.21l-.7-.68,0-1c-.14-4.82-3-118.28,39.33-122.24C1925.34,785,1988.24,945.86,1993.55,983l.34,2.32-2.31.4A51.41,51.41,0,0,1,1983.37,986.23Zm-136-76c73.45,70.93,129,71.68,141,70.93-7.76-43.4-67.87-187.3-104.76-187.3-.43,0-.86,0-1.28.06C1846.39,797.29,1847.16,899.12,1847.36,910.24Z" transform="translate(-583.72 -629.73)"/><path class="cls-7" d="M1984.31,1001.6c-22.36,0-80.06-7.84-151.81-77.47a17.87,17.87,0,0,1-5.43-12.32c-.9-31.14.26-133.14,53.36-138.11,16.84-1.59,44,6,85.37,89.89,20.78,42.1,39.7,93.58,43.08,117.19a17.89,17.89,0,0,1-14.66,20.17A61.05,61.05,0,0,1,1984.31,1001.6Zm-121.58-98.11c46.29,43.27,83.73,56.75,105.28,60.77-6.7-21.62-18.63-52.48-32.48-81.1-28.29-58.41-47.57-73.23-52.1-73.81C1873.56,810.29,1862.41,853.14,1862.73,903.49Z" transform="translate(-583.72 -629.73)"/><path class="cls-6" d="M1266.67,1025.07s-85.1-221.59-178.27-205.21-108,350.2-89.43,426.59C999,1246.45,1143.23,1231,1266.67,1025.07Z" transform="translate(-583.72 -629.73)"/><path class="cls-7" d="M1261.1,1027.21c-14.13-10.69-22.46-23.5-29.85-36.76-7.62-13.12-13.84-26.86-20.52-40.37A341,341,0,0,0,1188,911.34a334.08,334.08,0,0,0-26.63-35.07c-9.53-10.8-19.86-20.61-30.84-28s-22.51-11.4-33.14-11.38c-1.32.18-2.64.32-4,.43l-2,.16-1.61.39c-1.08.15-2.12.74-3.21,1-1.06.58-2.16.88-3.22,1.59a49,49,0,0,0-12.75,10.91c-8.12,9.55-14.84,22.13-20.4,35.34-11.15,26.63-18.41,56-24.1,85.64s-9.47,59.93-12.11,90.29-4.06,60.88-4.12,91.29c0,7.59.05,15.19.29,22.75s1.29,15.08,2.11,22.52a101.66,101.66,0,0,1,.17,22.33,59.66,59.66,0,0,1-7.71,23.47l-.3.54a7.63,7.63,0,0,1-10.4,2.87,9.15,9.15,0,0,1-.89-.59c-8.41-6.49-12.6-14.52-15.26-22.36a81.31,81.31,0,0,1-3.74-24c-.1-8,.41-16,.19-23.9s-.28-15.82-.25-23.71c.06-31.56,1.53-63,4.24-94.34s6.71-62.67,12.6-93.86,13.54-62.32,26.31-92.92c6.5-15.24,14.24-30.5,26.18-44.67A84.38,84.38,0,0,1,1066,809.21a73.91,73.91,0,0,1,7.21-3.5,65.65,65.65,0,0,1,7.84-2.51l4.06-.92c1.29-.19,2.53-.3,3.8-.45l7.59-.7c20.51-.22,39.14,7.51,53.76,17.31,14.77,9.92,27,21.77,37.93,34.14a368.78,368.78,0,0,1,29.55,38.87c9,13.38,17,27.16,25.37,40.73s16.14,27.48,21.81,42.34,10.08,30.28,7.33,48.41a6.87,6.87,0,0,1-10.9,4.46Z" transform="translate(-583.72 -629.73)"/><path class="cls-1" d="M1186.42,1021.68s-38.18-112.47-81.53-103.56-52.24,179.21-44.09,218C1060.8,1136.16,1127.88,1127.42,1186.42,1021.68Z" transform="translate(-583.72 -629.73)"/><path class="cls-7" d="M1058.9,1138.85l-.46-2.19c-7.33-34.91-.83-163.25,27.12-205.86,5.63-8.57,12-13.63,18.84-15,45-9.21,82.72,100.47,84.31,105.15l.34,1-.52.94c-58.46,105.59-124.63,115.34-127.42,115.71Zm51-218.82a22.34,22.34,0,0,0-4.51.46c-5.57,1.14-10.87,5.5-15.76,13-26.79,40.84-33.38,162.48-26.89,199.88,12-2.71,70-20.17,121.06-111.88C1180,1010.82,1146.8,920,1109.88,920Z" transform="translate(-583.72 -629.73)"/><path class="cls-7" d="M1060.78,1154.06a17.9,17.9,0,0,1-17.5-14.22c-7.74-36.9-2.29-169.32,29.34-217.53,8-12.14,17.61-19.45,28.66-21.72,56-11.46,94.87,94.06,102.09,115.33a17.93,17.93,0,0,1-1.29,14.43c-62.21,112.36-135.86,123.16-139,123.56A16.67,16.67,0,0,1,1060.78,1154.06ZM1110,935.5a7.21,7.21,0,0,0-1.55.16c-3.49.79-18.35,17.22-27.28,83.08-4.53,33.39-5.91,69.59-4.91,93.35,20.79-9.78,56.65-34,90.51-92.14C1151.21,977.74,1125.35,935.5,1110,935.5Z" transform="translate(-583.72 -629.73)"/><path class="cls-7" d="M1102.47,1408.63a736.71,736.71,0,0,0-73.3-16.23,671.08,671.08,0,0,0-73.29-8.8c-24.49-1.43-49.09-2.28-73.79-1.06-12.4.08-24.75,1.22-37.26,2-6.32,0-12.46,1.12-18.77,1.6s-12.62,1.1-19.08,1.35c5.8-2.66,11.72-5,17.68-7.39a179.07,179.07,0,0,1,18.15-6.36c12.34-3.29,24.75-7,37.51-8.68,25.35-4.59,51.34-5.32,77.08-3.75a323.82,323.82,0,0,1,75.9,14.07C1057.78,1383.14,1081.75,1393.38,1102.47,1408.63Z" transform="translate(-583.72 -629.73)"/><path class="cls-7" d="M1106.23,1472.93a737.35,737.35,0,0,0-75,3.64,672.2,672.2,0,0,0-73,10.83c-24,5.06-48,10.72-71.46,18.41-11.95,3.35-23.55,7.69-35.42,11.72-6.1,1.7-11.74,4.37-17.69,6.49s-11.89,4.38-18,6.33c4.89-4.09,10-7.95,15.1-11.79a177.21,177.21,0,0,1,15.83-10.91c11-6.43,22-13.26,33.89-18.26,23.26-11.11,48.14-18.65,73.38-23.92a323.84,323.84,0,0,1,76.93-6.42C1056.41,1460.1,1082.23,1463.67,1106.23,1472.93Z" transform="translate(-583.72 -629.73)"/><path class="cls-7" d="M1127.06,1552.85a738.53,738.53,0,0,0-72.33,20.13,669.32,669.32,0,0,0-68.81,26.7c-22.29,10.24-44.4,21.06-65.62,33.75-10.92,5.91-21.27,12.71-32,19.26-5.57,3-10.48,6.85-15.82,10.24s-10.62,6.91-16.19,10.17c3.86-5.08,8-10,12.12-14.84a181.7,181.7,0,0,1,13-14.14c9.35-8.71,18.57-17.81,29-25.3,20.22-16,42.82-28.83,66.27-39.55a323.31,323.31,0,0,1,73.6-23.27C1075.63,1551.36,1101.6,1549.13,1127.06,1552.85Z" transform="translate(-583.72 -629.73)"/><path class="cls-7" d="M2087.58,1208.89c14.58-21.19,33.87-38.73,54.44-54.09a324,324,0,0,1,67.1-38.17c23.81-9.91,48.6-17.74,74.07-21.71,12.6-2.58,25.54-3.15,38.28-4.09a178.61,178.61,0,0,1,19.22.06c6.4.27,12.78.58,19.13,1.2-6.18,1.87-12.34,3.45-18.47,5s-12.27,2.6-18.26,4.64c-12.07,3.38-24.1,6.35-35.85,10.34-23.74,6.93-46.7,15.8-69.37,25.18a671.08,671.08,0,0,0-66.35,32.32A738.67,738.67,0,0,0,2087.58,1208.89Z" transform="translate(-583.72 -629.73)"/><path class="cls-7" d="M2105.09,1270.87c19.64-16.61,42.87-28.44,66.77-37.84a324.3,324.3,0,0,1,74.78-19.14c25.58-3.29,51.56-4.32,77.17-1.44,12.84.84,25.47,3.69,38,6.14a181.44,181.44,0,0,1,18.52,5.12c6.11,2,12.18,3.93,18.14,6.2-6.46.18-12.81.07-19.12-.07s-12.53-.73-18.84-.34c-12.53.09-24.92-.22-37.31.53-24.73.44-49.21,2.94-73.55,6a672,672,0,0,0-72.53,13.7A738,738,0,0,0,2105.09,1270.87Z" transform="translate(-583.72 -629.73)"/><path class="cls-7" d="M2111.6,1353.2c22.83-11.85,48.1-18.25,73.48-22.14a324,324,0,0,1,77.17-2.14c25.67,2.45,51.23,7.19,75.57,15.66,12.34,3.65,24,9.22,35.71,14.39a181.47,181.47,0,0,1,16.94,9.09c5.53,3.25,11,6.52,16.32,10-6.34-1.25-12.52-2.76-18.64-4.3s-12.05-3.47-18.29-4.49c-12.25-2.68-24.26-5.72-36.51-7.72-24.21-5-48.64-8-73.06-10.39a671.07,671.07,0,0,0-73.76-2.68A737.88,737.88,0,0,0,2111.6,1353.2Z" transform="translate(-583.72 -629.73)"/><g class="cls-9"><path class="cls-7" d="M1815.76,1462.34c-21.31,42.88-50,61-78.54,66.23-56.49,10.32-112.82-29.83-112.82-29.83-30,46-60.55,67.67-88.31,75.74-46,13.36-84.48-10.46-100.18-22.64,116.1-7.54,155.87-78.73,155.87-78.73l50.43-12C1709.86,1525.06,1812.63,1464.18,1815.76,1462.34Z" transform="translate(-583.72 -629.73)"/></g><path class="cls-7" d="M1737.22,1528.57c-2,26.87-8.08,58.35-18.69,85.06-11.75,29.82-29.08,53.88-52.66,59.49-23.77,5.65-50.31-8.11-74.37-29.65-21.73-19.48-41.5-45.32-55.41-69,27.76-8.07,58.33-29.7,88.31-75.74C1624.4,1498.74,1680.73,1538.89,1737.22,1528.57Z" transform="translate(-583.72 -629.73)"/><path class="cls-12" d="M1718.53,1613.63c-11.75,29.82-29.08,53.88-52.66,59.49-23.77,5.65-50.31-8.11-74.37-29.65,3.35-26.9,24-50.52,53.37-57.5S1703.57,1590.9,1718.53,1613.63Z" transform="translate(-583.72 -629.73)"/><path class="cls-7" d="M1654.88,1676.48c-19.47,0-41.6-10.7-64.77-31.44l-.82-.74.13-1.09c3.54-28.48,25.63-52.31,55-59.28,29.54-7,60,4.46,75.9,28.55l.6.91-.4,1c-13.62,34.56-32.34,55.57-54.13,60.76A49.45,49.45,0,0,1,1654.88,1676.48Zm-61.15-33.83c18.67,16.53,46,34.54,71.65,28.43,25.4-6,41.59-34.2,50.8-57.2-15.06-22-43.37-32.41-70.83-25.87C1618.09,1594.49,1597.47,1616.37,1593.73,1642.65Z" transform="translate(-583.72 -629.73)"/><path class="cls-7" d="M1550.66,1431.12c7.79-17.67,89.46-40.08,107.68-25.61s-11.9,68-39.17,74.5S1542,1450.72,1550.66,1431.12Z" transform="translate(-583.72 -629.73)"/><path class="cls-7" d="M1612.08,1498.37c-24.67,0-53.21-16.49-68.36-34.67s-12.24-32.66-9.15-39.67h0c8.42-19.11,43.13-30.22,63.07-35.15,23.68-5.84,55.32-10.09,71.64,2.88,6.22,4.94,15.89,16.66,10.78,39.64-5.93,26.63-30.17,59.39-56.82,65.73A47.73,47.73,0,0,1,1612.08,1498.37Zm-43.95-60.77c2.08,3.54,7.62,9.77,16.91,15.72,12.52,8,24.61,10.87,30.07,9.59,6-1.43,16.63-10.36,24.45-24.1,5.37-9.43,6.82-16.59,6.78-19.76C1632.07,1414.94,1582,1427,1568.13,1437.6Zm79.83-17.94Z" transform="translate(-583.72 -629.73)"/><ellipse class="cls-6" cx="1605.2" cy="1417.67" rx="45.95" ry="12.19" transform="translate(-868.14 -219.93) rotate(-13.38)"/><path class="cls-7" d="M1577.59,1435.85c-10.46,0-18.13-2.07-19.31-7-1-4.38,3.07-9.11,12.24-14,8.08-4.34,19.21-8.32,31.33-11.2s23.87-4.35,33-4.11c10.39.27,16.19,2.63,17.24,7h0c2.19,9.23-20.27,19.68-43.58,25.23C1597.74,1434.3,1586.62,1435.85,1577.59,1435.85Zm55.3-31.83a135.2,135.2,0,0,0-30,4c-11.75,2.8-22.49,6.63-30.23,10.79-8.49,4.55-10.23,7.85-10,9,.8,3.36,16.88,6.17,44.79-.46s41-16.38,40.2-19.74c-.26-1.12-3.31-3.28-12.93-3.53C1634.15,1404,1633.52,1404,1632.89,1404Z" transform="translate(-583.72 -629.73)"/><path class="cls-7" d="M1508.55,1594.62c-38.09,0-68.19-19-81.74-29.35-.28-.19-.57-.4-.84-.61a106.62,106.62,0,0,1-9.09-7.74,16.2,16.2,0,0,1,22.7-23.11h0s2,1.89,5.48,4.66l.78.57c12.63,9.8,46.26,31.34,85.74,19.88,28.08-8.16,54.74-31.37,79.24-69a16.2,16.2,0,0,1,23-4.35c.49.35,51.6,36,100.51,27.09,28-5.09,50.51-24.44,66.94-57.51l.29-.55c.06-.11.12-.22.19-.33q2-4.17,4-8.66a16.19,16.19,0,1,1,29.66,13q-2.46,5.61-5,10.81c-.18.37-.37.72-.57,1.07-21.21,42.16-51.38,67.06-89.69,74-45.3,8.28-89.33-11.61-111.1-23.88-26.62,36.76-56.31,60.08-88.4,69.4A114.4,114.4,0,0,1,1508.55,1594.62Z" transform="translate(-583.72 -629.73)"/><path class="cls-7" d="M1654.92,1690.57c-23,0-48.39-11.9-74.22-35-21.18-19-42.52-45.53-58.57-72.86a16.19,16.19,0,0,1,9.45-23.76c28.08-8.16,54.74-31.37,79.24-69a16.2,16.2,0,0,1,23-4.35c.49.35,51.6,36,100.51,27.09a16.2,16.2,0,0,1,19.06,17.15c-2.37,31.38-9.58,64.12-19.79,89.82-15.36,39-37.49,63-64,69.26A63.2,63.2,0,0,1,1654.92,1690.57Zm-94.64-108.15c12.64,18.6,27.42,35.89,42,49,22.85,20.46,44.09,29.69,59.81,25.95,15.49-3.69,30.17-21.32,41.34-49.67,7-17.69,12.47-39.27,15.54-61.23h-1c-37.06,0-70.82-15.58-89-25.83C1607.92,1549.76,1584.9,1570.45,1560.28,1582.42Z" transform="translate(-583.72 -629.73)"/><path class="cls-7" d="M1880.26,1188.89a326.54,326.54,0,0,0-34.42,23.75,239,239,0,0,0-29.5,27.74c-4.56,4.84-8.43,10.18-12.51,15.3l-5.44,8.15c-.87,1.38-1.89,2.66-2.69,4.08l-2.36,4.27c-6.81,11.12-11.19,23.43-15.39,35.81l-27.18-17.11c1-.82,1.64-1.29,2.35-1.82s1.4-1,2.08-1.49c1.37-.94,2.74-1.87,4.11-2.7,2.73-1.76,5.51-3.3,8.28-4.86a153,153,0,0,1,17.18-7.91,142,142,0,0,1,36.39-8.95c12.41-1.16,24.93-1.33,37,1,12.16,1.68,23.73,5.9,34.56,10.79a5.78,5.78,0,0,1-2.64,11l-.68,0c-5.62-.27-11-1.11-16.43-1.21s-10.76-.33-16.07.17a138.65,138.65,0,0,0-30.9,5,143.54,143.54,0,0,0-28.75,10.88c-4.58,2.27-9,4.83-13.27,7.47-2.1,1.38-4.22,2.73-6.19,4.19-1,.71-1.95,1.45-2.89,2.17-.48.37-.94.72-1.34,1.06l-1,.82-.41.34a16.74,16.74,0,0,1-26.77-17.45c4.35-15.37,9.63-30.8,18.23-44.49,3.75-7.16,9-13.34,13.67-19.82,5.37-5.93,10.51-12.07,16.6-17.19a165.9,165.9,0,0,1,38.83-26.32c14.09-6.67,28.51-11.71,44.25-13.69a5.81,5.81,0,0,1,3.75,10.73Z" transform="translate(-583.72 -629.73)"/><ellipse class="cls-7" cx="1347.64" cy="1360.62" rx="72.28" ry="102.54" transform="translate(-774.55 -409.52) rotate(-8.73)"/><path class="cls-7" d="M1355.4,1464.63c-37.62,0-73.07-39.54-81.24-92.73-8.74-57,17.1-108.45,57.61-114.67,19.77-3,40,5,56.87,22.54,16.72,17.38,28.26,42.08,32.48,69.57h0c8.75,57-17.09,108.45-57.61,114.68A54.2,54.2,0,0,1,1355.4,1464.63ZM1340,1260.72a49.55,49.55,0,0,0-7.59.58c-38.27,5.87-62.57,55.21-54.16,110s46.29,94.51,84.65,88.67,62.56-55.21,54.16-110h0c-4.09-26.66-15.24-50.58-31.37-67.35C1371.91,1268.32,1355.93,1260.72,1340,1260.72Z" transform="translate(-583.72 -629.73)"/><ellipse class="cls-6" cx="1362.28" cy="1334.31" rx="21.84" ry="34.43" transform="translate(-770.39 -407.6) rotate(-8.73)"/><path class="cls-7" d="M1365.42,1370.56c-12.2,0-23.89-14-26.76-32.62-1.45-9.48-.47-18.77,2.78-26.18,3.38-7.73,8.82-12.52,15.31-13.52s13.11,2,18.65,8.3c5.32,6.1,9,14.67,10.5,24.15,3,19.88-5.06,37.69-18.08,39.69A16.26,16.26,0,0,1,1365.42,1370.56Zm-6.21-68.39a12.56,12.56,0,0,0-1.84.14c-5,.77-9.36,4.71-12.16,11.1-2.94,6.7-3.81,15.19-2.48,23.9,2.71,17.64,13.65,30.74,24.47,29s17.34-17.36,14.63-35h0c-1.33-8.71-4.72-16.54-9.53-22.06C1368.27,1304.64,1363.68,1302.17,1359.21,1302.17Z" transform="translate(-583.72 -629.73)"/></svg>